%FSLAX45Y45*%
G04 Gerber Fmt 4.5, Leading zero omitted, Abs format (unit mm)*
G04 Created by KiCad (PCBNEW (6.0.5)) date 2022-05-23 23:46:35*
%MOMM*%
%LPD*%
G01*
G04 APERTURE LIST*
%ADD10C,0.200000*%
%ADD11C,0.040000*%
%ADD12C,0.069850*%
%ADD13C,0.070000*%
%ADD14C,0.075000*%
%ADD15C,0.076200*%
%ADD16C,0.080000*%
%ADD17C,0.081280*%
%ADD18C,0.100000*%
%ADD19C,0.110000*%
%ADD20C,0.120000*%
%ADD21C,0.220000*%
%ADD22C,0.130000*%
%ADD23C,0.170000*%
G04 APERTURE END LIST*
D10*
D11*
X4628200Y-9543100D02*
X4668200Y-9583100D01*
X4668200Y-9543100D02*
X4628200Y-9583100D01*
X4786640Y-9458570D02*
X4826640Y-9498570D01*
X4826640Y-9458570D02*
X4786640Y-9498570D01*
X4831400Y-9898700D02*
X4871400Y-9938700D01*
X4871400Y-9898700D02*
X4831400Y-9938700D01*
X4996550Y-10144710D02*
X5036550Y-10184710D01*
X5036550Y-10144710D02*
X4996550Y-10184710D01*
X5148900Y-10813100D02*
X5188900Y-10853100D01*
X5188900Y-10813100D02*
X5148900Y-10853100D01*
X5174250Y-10428360D02*
X5214250Y-10468360D01*
X5214250Y-10428360D02*
X5174250Y-10468360D01*
X5847400Y-9784400D02*
X5887400Y-9824400D01*
X5887400Y-9784400D02*
X5847400Y-9824400D01*
X5984120Y-10200490D02*
X6024120Y-10240490D01*
X6024120Y-10200490D02*
X5984120Y-10240490D01*
X6589010Y-12023090D02*
X6629010Y-12063090D01*
X6629010Y-12023090D02*
X6589010Y-12063090D01*
X6686350Y-10505120D02*
X6726350Y-10545120D01*
X6726350Y-10505120D02*
X6686350Y-10545120D01*
X6979800Y-8858800D02*
X7019800Y-8898800D01*
X7019800Y-8858800D02*
X6979800Y-8898800D01*
X7015800Y-11816400D02*
X7055800Y-11856400D01*
X7055800Y-11816400D02*
X7015800Y-11856400D01*
X7130100Y-8552500D02*
X7170100Y-8592500D01*
X7170100Y-8552500D02*
X7130100Y-8592500D01*
X7473000Y-10444800D02*
X7513000Y-10484800D01*
X7513000Y-10444800D02*
X7473000Y-10484800D01*
X7714300Y-8616000D02*
X7754300Y-8656000D01*
X7754300Y-8616000D02*
X7714300Y-8656000D01*
X7745750Y-11663400D02*
X7785750Y-11703400D01*
X7785750Y-11663400D02*
X7745750Y-11703400D01*
X8127880Y-9051240D02*
X8167880Y-9091240D01*
X8167880Y-9051240D02*
X8127880Y-9091240D01*
X8541270Y-12111740D02*
X8581270Y-12151740D01*
X8581270Y-12111740D02*
X8541270Y-12151740D01*
X8552500Y-8857300D02*
X8592500Y-8897300D01*
X8592500Y-8857300D02*
X8552500Y-8897300D01*
X8630300Y-11378730D02*
X8670300Y-11418730D01*
X8670300Y-11378730D02*
X8630300Y-11418730D01*
X8645470Y-11481850D02*
X8685470Y-11521850D01*
X8685470Y-11481850D02*
X8645470Y-11521850D01*
X8654100Y-8349300D02*
X8694100Y-8389300D01*
X8694100Y-8349300D02*
X8654100Y-8389300D01*
X8656440Y-12023090D02*
X8696440Y-12063090D01*
X8696440Y-12023090D02*
X8656440Y-12063090D01*
X9065280Y-12011670D02*
X9105280Y-12051670D01*
X9105280Y-12011670D02*
X9065280Y-12051670D01*
X9185100Y-10795770D02*
X9225100Y-10835770D01*
X9225100Y-10795770D02*
X9185100Y-10835770D01*
X9428800Y-8171500D02*
X9468800Y-8211500D01*
X9468800Y-8171500D02*
X9428800Y-8211500D01*
X9458890Y-11668080D02*
X9498890Y-11708080D01*
X9498890Y-11668080D02*
X9458890Y-11708080D01*
X9532880Y-10567640D02*
X9572880Y-10607640D01*
X9572880Y-10567640D02*
X9532880Y-10607640D01*
X9544330Y-11556600D02*
X9584330Y-11596600D01*
X9584330Y-11556600D02*
X9544330Y-11596600D01*
X9550390Y-11378830D02*
X9590390Y-11418830D01*
X9590390Y-11378830D02*
X9550390Y-11418830D01*
X9723260Y-11499940D02*
X9763260Y-11539940D01*
X9763260Y-11499940D02*
X9723260Y-11539940D01*
X9809800Y-9416100D02*
X9849800Y-9456100D01*
X9849800Y-9416100D02*
X9809800Y-9456100D01*
X9822500Y-8793800D02*
X9862500Y-8833800D01*
X9862500Y-8793800D02*
X9822500Y-8833800D01*
X9826730Y-10038610D02*
X9866730Y-10078610D01*
X9866730Y-10038610D02*
X9826730Y-10078610D01*
X10015710Y-10201130D02*
X10055710Y-10241130D01*
X10055710Y-10201130D02*
X10015710Y-10241130D01*
X10021000Y-9571480D02*
X10061000Y-9611480D01*
X10061000Y-9571480D02*
X10021000Y-9611480D01*
X10023570Y-11876700D02*
X10063570Y-11916700D01*
X10063570Y-11876700D02*
X10023570Y-11916700D01*
X10038400Y-9365300D02*
X10078400Y-9405300D01*
X10078400Y-9365300D02*
X10038400Y-9405300D01*
X10406700Y-11524300D02*
X10446700Y-11564300D01*
X10446700Y-11524300D02*
X10406700Y-11564300D01*
X10673400Y-11816400D02*
X10713400Y-11856400D01*
X10713400Y-11816400D02*
X10673400Y-11856400D01*
X10736900Y-11270300D02*
X10776900Y-11310300D01*
X10776900Y-11270300D02*
X10736900Y-11310300D01*
X10789860Y-10190610D02*
X10829860Y-10230610D01*
X10829860Y-10190610D02*
X10789860Y-10230610D01*
X10990900Y-10838500D02*
X11030900Y-10878500D01*
X11030900Y-10838500D02*
X10990900Y-10878500D01*
X11156150Y-9966840D02*
X11196150Y-10006840D01*
X11196150Y-9966840D02*
X11156150Y-10006840D01*
X11232200Y-9378000D02*
X11272200Y-9418000D01*
X11272200Y-9378000D02*
X11232200Y-9418000D01*
X11562400Y-10394000D02*
X11602400Y-10434000D01*
X11602400Y-10394000D02*
X11562400Y-10434000D01*
D12*
X4860925Y-7569200D02*
G75*
G03*
X4860925Y-7569200I-34925J0D01*
G01*
X4860925Y-8077200D02*
G75*
G03*
X4860925Y-8077200I-34925J0D01*
G01*
X5368925Y-7569200D02*
G75*
G03*
X5368925Y-7569200I-34925J0D01*
G01*
X5368925Y-8077200D02*
G75*
G03*
X5368925Y-8077200I-34925J0D01*
G01*
X5876925Y-7569200D02*
G75*
G03*
X5876925Y-7569200I-34925J0D01*
G01*
X5876925Y-8077200D02*
G75*
G03*
X5876925Y-8077200I-34925J0D01*
G01*
X6384925Y-7569200D02*
G75*
G03*
X6384925Y-7569200I-34925J0D01*
G01*
X6384925Y-8077200D02*
G75*
G03*
X6384925Y-8077200I-34925J0D01*
G01*
X7972425Y-7810500D02*
G75*
G03*
X7972425Y-7810500I-34925J0D01*
G01*
X7972425Y-8318500D02*
G75*
G03*
X7972425Y-8318500I-34925J0D01*
G01*
D13*
X11988800Y-9727700D02*
X11988800Y-9797700D01*
X11953800Y-9762700D02*
X12023800Y-9762700D01*
D10*
X12028800Y-9737700D02*
X11948800Y-9737700D01*
X12028800Y-9787700D02*
X11948800Y-9787700D01*
X11948800Y-9737700D02*
G75*
G03*
X11948800Y-9787700I0J-25000D01*
G01*
X12028800Y-9787700D02*
G75*
G03*
X12028800Y-9737700I0J25000D01*
G01*
D13*
X11988800Y-10137700D02*
X11988800Y-10207700D01*
X11953800Y-10172700D02*
X12023800Y-10172700D01*
D10*
X12028800Y-10147700D02*
X11948800Y-10147700D01*
X12028800Y-10197700D02*
X11948800Y-10197700D01*
X11948800Y-10147700D02*
G75*
G03*
X11948800Y-10197700I0J-25000D01*
G01*
X12028800Y-10197700D02*
G75*
G03*
X12028800Y-10147700I0J25000D01*
G01*
D14*
X5512917Y-10872317D02*
X5512917Y-10819283D01*
X5459883Y-10819283D01*
X5459883Y-10872317D01*
X5512917Y-10872317D01*
X5512917Y-11126317D02*
X5512917Y-11073283D01*
X5459883Y-11073283D01*
X5459883Y-11126317D01*
X5512917Y-11126317D01*
X5515017Y-11418417D02*
X5515017Y-11365383D01*
X5461983Y-11365383D01*
X5461983Y-11418417D01*
X5515017Y-11418417D01*
X5515017Y-11672417D02*
X5515017Y-11619383D01*
X5461983Y-11619383D01*
X5461983Y-11672417D01*
X5515017Y-11672417D01*
X5515017Y-11964517D02*
X5515017Y-11911483D01*
X5461983Y-11911483D01*
X5461983Y-11964517D01*
X5515017Y-11964517D01*
X5515017Y-12218517D02*
X5515017Y-12165483D01*
X5461983Y-12165483D01*
X5461983Y-12218517D01*
X5515017Y-12218517D01*
X5639917Y-10999317D02*
X5639917Y-10946283D01*
X5586883Y-10946283D01*
X5586883Y-10999317D01*
X5639917Y-10999317D01*
X5642017Y-11545417D02*
X5642017Y-11492383D01*
X5588983Y-11492383D01*
X5588983Y-11545417D01*
X5642017Y-11545417D01*
X5642017Y-12091517D02*
X5642017Y-12038483D01*
X5588983Y-12038483D01*
X5588983Y-12091517D01*
X5642017Y-12091517D01*
D15*
X5969000Y-10896600D02*
X6007100Y-10858500D01*
X5969000Y-10820400D01*
X5930900Y-10858500D01*
X5969000Y-10896600D01*
X5969000Y-11150600D02*
X6007100Y-11112500D01*
X5969000Y-11074400D01*
X5930900Y-11112500D01*
X5969000Y-11150600D01*
D16*
X4468500Y-10564500D02*
X4548500Y-10644500D01*
X4548500Y-10564500D02*
X4468500Y-10644500D01*
X4548500Y-10604500D02*
G75*
G03*
X4548500Y-10604500I-40000J0D01*
G01*
X4718500Y-10564500D02*
X4798500Y-10644500D01*
X4798500Y-10564500D02*
X4718500Y-10644500D01*
X4798500Y-10604500D02*
G75*
G03*
X4798500Y-10604500I-40000J0D01*
G01*
X6056000Y-8411589D02*
X6136000Y-8491589D01*
X6136000Y-8411589D02*
X6056000Y-8491589D01*
X6136000Y-8451589D02*
G75*
G03*
X6136000Y-8451589I-40000J0D01*
G01*
X6056000Y-8611589D02*
X6136000Y-8691589D01*
X6136000Y-8611589D02*
X6056000Y-8691589D01*
X6136000Y-8651589D02*
G75*
G03*
X6136000Y-8651589I-40000J0D01*
G01*
X6173500Y-11999600D02*
X6253500Y-12079600D01*
X6253500Y-11999600D02*
X6173500Y-12079600D01*
X6253500Y-12039600D02*
G75*
G03*
X6253500Y-12039600I-40000J0D01*
G01*
X6373500Y-11999600D02*
X6453500Y-12079600D01*
X6453500Y-11999600D02*
X6373500Y-12079600D01*
X6453500Y-12039600D02*
G75*
G03*
X6453500Y-12039600I-40000J0D01*
G01*
X8532500Y-9158000D02*
X8612500Y-9238000D01*
X8612500Y-9158000D02*
X8532500Y-9238000D01*
X8612500Y-9198000D02*
G75*
G03*
X8612500Y-9198000I-40000J0D01*
G01*
X8532500Y-9358000D02*
X8612500Y-9438000D01*
X8612500Y-9358000D02*
X8532500Y-9438000D01*
X8612500Y-9398000D02*
G75*
G03*
X8612500Y-9398000I-40000J0D01*
G01*
X10024490Y-7643500D02*
X10104490Y-7723500D01*
X10104490Y-7643500D02*
X10024490Y-7723500D01*
X10104490Y-7683500D02*
G75*
G03*
X10104490Y-7683500I-40000J0D01*
G01*
X10224490Y-7643500D02*
X10304490Y-7723500D01*
X10304490Y-7643500D02*
X10224490Y-7723500D01*
X10304490Y-7683500D02*
G75*
G03*
X10304490Y-7683500I-40000J0D01*
G01*
X10710290Y-9523100D02*
X10790290Y-9603100D01*
X10790290Y-9523100D02*
X10710290Y-9603100D01*
X10790290Y-9563100D02*
G75*
G03*
X10790290Y-9563100I-40000J0D01*
G01*
X10786490Y-7630800D02*
X10866490Y-7710800D01*
X10866490Y-7630800D02*
X10786490Y-7710800D01*
X10866490Y-7670800D02*
G75*
G03*
X10866490Y-7670800I-40000J0D01*
G01*
X10910290Y-9523100D02*
X10990290Y-9603100D01*
X10990290Y-9523100D02*
X10910290Y-9603100D01*
X10990290Y-9563100D02*
G75*
G03*
X10990290Y-9563100I-40000J0D01*
G01*
X10986490Y-7630800D02*
X11066490Y-7710800D01*
X11066490Y-7630800D02*
X10986490Y-7710800D01*
X11066490Y-7670800D02*
G75*
G03*
X11066490Y-7670800I-40000J0D01*
G01*
D17*
X9814560Y-10982960D02*
X9895840Y-11064240D01*
X9895840Y-10982960D02*
X9814560Y-11064240D01*
X9855200Y-10982960D02*
X9855200Y-11064240D01*
X9814560Y-11023600D02*
X9895840Y-11023600D01*
X9814560Y-11236960D02*
X9895840Y-11318240D01*
X9895840Y-11236960D02*
X9814560Y-11318240D01*
X9855200Y-11236960D02*
X9855200Y-11318240D01*
X9814560Y-11277600D02*
X9895840Y-11277600D01*
D18*
X3709200Y-10465600D02*
X3809200Y-10565600D01*
X3809200Y-10465600D02*
X3709200Y-10565600D01*
X3794556Y-10550956D02*
X3794556Y-10480244D01*
X3723844Y-10480244D01*
X3723844Y-10550956D01*
X3794556Y-10550956D01*
X3709200Y-10719600D02*
X3809200Y-10819600D01*
X3809200Y-10719600D02*
X3709200Y-10819600D01*
X3794556Y-10804956D02*
X3794556Y-10734244D01*
X3723844Y-10734244D01*
X3723844Y-10804956D01*
X3794556Y-10804956D01*
X4141000Y-9665500D02*
X4241000Y-9765500D01*
X4241000Y-9665500D02*
X4141000Y-9765500D01*
X4226356Y-9750856D02*
X4226356Y-9680144D01*
X4155644Y-9680144D01*
X4155644Y-9750856D01*
X4226356Y-9750856D01*
X4141000Y-9919500D02*
X4241000Y-10019500D01*
X4241000Y-9919500D02*
X4141000Y-10019500D01*
X4226356Y-10004856D02*
X4226356Y-9934144D01*
X4155644Y-9934144D01*
X4155644Y-10004856D01*
X4226356Y-10004856D01*
X4141000Y-10173500D02*
X4241000Y-10273500D01*
X4241000Y-10173500D02*
X4141000Y-10273500D01*
X4226356Y-10258856D02*
X4226356Y-10188144D01*
X4155644Y-10188144D01*
X4155644Y-10258856D01*
X4226356Y-10258856D01*
X4141000Y-10427500D02*
X4241000Y-10527500D01*
X4241000Y-10427500D02*
X4141000Y-10527500D01*
X4226356Y-10512856D02*
X4226356Y-10442144D01*
X4155644Y-10442144D01*
X4155644Y-10512856D01*
X4226356Y-10512856D01*
X4141000Y-10681500D02*
X4241000Y-10781500D01*
X4241000Y-10681500D02*
X4141000Y-10781500D01*
X4226356Y-10766856D02*
X4226356Y-10696144D01*
X4155644Y-10696144D01*
X4155644Y-10766856D01*
X4226356Y-10766856D01*
X4141000Y-10935500D02*
X4241000Y-11035500D01*
X4241000Y-10935500D02*
X4141000Y-11035500D01*
X4226356Y-11020856D02*
X4226356Y-10950144D01*
X4155644Y-10950144D01*
X4155644Y-11020856D01*
X4226356Y-11020856D01*
X8510300Y-10389400D02*
X8610300Y-10489400D01*
X8610300Y-10389400D02*
X8510300Y-10489400D01*
X8595656Y-10474756D02*
X8595656Y-10404044D01*
X8524944Y-10404044D01*
X8524944Y-10474756D01*
X8595656Y-10474756D01*
X8764300Y-10389400D02*
X8864300Y-10489400D01*
X8864300Y-10389400D02*
X8764300Y-10489400D01*
X8849656Y-10474756D02*
X8849656Y-10404044D01*
X8778944Y-10404044D01*
X8778944Y-10474756D01*
X8849656Y-10474756D01*
X9018300Y-10389400D02*
X9118300Y-10489400D01*
X9118300Y-10389400D02*
X9018300Y-10489400D01*
X9103656Y-10474756D02*
X9103656Y-10404044D01*
X9032944Y-10404044D01*
X9032944Y-10474756D01*
X9103656Y-10474756D01*
X9272300Y-10389400D02*
X9372300Y-10489400D01*
X9372300Y-10389400D02*
X9272300Y-10489400D01*
X9357656Y-10474756D02*
X9357656Y-10404044D01*
X9286944Y-10404044D01*
X9286944Y-10474756D01*
X9357656Y-10474756D01*
X9526300Y-10389400D02*
X9626300Y-10489400D01*
X9626300Y-10389400D02*
X9526300Y-10489400D01*
X9611656Y-10474756D02*
X9611656Y-10404044D01*
X9540944Y-10404044D01*
X9540944Y-10474756D01*
X9611656Y-10474756D01*
X9780300Y-10389400D02*
X9880300Y-10489400D01*
X9880300Y-10389400D02*
X9780300Y-10489400D01*
X9865656Y-10474756D02*
X9865656Y-10404044D01*
X9794944Y-10404044D01*
X9794944Y-10474756D01*
X9865656Y-10474756D01*
X10034300Y-10389400D02*
X10134300Y-10489400D01*
X10134300Y-10389400D02*
X10034300Y-10489400D01*
X10119656Y-10474756D02*
X10119656Y-10404044D01*
X10048944Y-10404044D01*
X10048944Y-10474756D01*
X10119656Y-10474756D01*
D19*
X4364600Y-11375000D02*
X4474600Y-11485000D01*
X4474600Y-11375000D02*
X4364600Y-11485000D01*
X4419600Y-11485000D02*
X4474600Y-11430000D01*
X4419600Y-11375000D01*
X4364600Y-11430000D01*
X4419600Y-11485000D01*
X4364600Y-12137000D02*
X4474600Y-12247000D01*
X4474600Y-12137000D02*
X4364600Y-12247000D01*
X4419600Y-12247000D02*
X4474600Y-12192000D01*
X4419600Y-12137000D01*
X4364600Y-12192000D01*
X4419600Y-12247000D01*
X6661000Y-11781400D02*
X6771000Y-11891400D01*
X6771000Y-11781400D02*
X6661000Y-11891400D01*
X6716000Y-11891400D02*
X6771000Y-11836400D01*
X6716000Y-11781400D01*
X6661000Y-11836400D01*
X6716000Y-11891400D01*
X6661000Y-12231400D02*
X6771000Y-12341400D01*
X6771000Y-12231400D02*
X6661000Y-12341400D01*
X6716000Y-12341400D02*
X6771000Y-12286400D01*
X6716000Y-12231400D01*
X6661000Y-12286400D01*
X6716000Y-12341400D01*
X7311000Y-11781400D02*
X7421000Y-11891400D01*
X7421000Y-11781400D02*
X7311000Y-11891400D01*
X7366000Y-11891400D02*
X7421000Y-11836400D01*
X7366000Y-11781400D01*
X7311000Y-11836400D01*
X7366000Y-11891400D01*
X7311000Y-12231400D02*
X7421000Y-12341400D01*
X7421000Y-12231400D02*
X7311000Y-12341400D01*
X7366000Y-12341400D02*
X7421000Y-12286400D01*
X7366000Y-12231400D01*
X7311000Y-12286400D01*
X7366000Y-12341400D01*
X7677000Y-11788600D02*
X7787000Y-11898600D01*
X7787000Y-11788600D02*
X7677000Y-11898600D01*
X7732000Y-11898600D02*
X7787000Y-11843600D01*
X7732000Y-11788600D01*
X7677000Y-11843600D01*
X7732000Y-11898600D01*
X7677000Y-12238600D02*
X7787000Y-12348600D01*
X7787000Y-12238600D02*
X7677000Y-12348600D01*
X7732000Y-12348600D02*
X7787000Y-12293600D01*
X7732000Y-12238600D01*
X7677000Y-12293600D01*
X7732000Y-12348600D01*
X8327000Y-11788600D02*
X8437000Y-11898600D01*
X8437000Y-11788600D02*
X8327000Y-11898600D01*
X8382000Y-11898600D02*
X8437000Y-11843600D01*
X8382000Y-11788600D01*
X8327000Y-11843600D01*
X8382000Y-11898600D01*
X8327000Y-12238600D02*
X8437000Y-12348600D01*
X8437000Y-12238600D02*
X8327000Y-12348600D01*
X8382000Y-12348600D02*
X8437000Y-12293600D01*
X8382000Y-12238600D01*
X8327000Y-12293600D01*
X8382000Y-12348600D01*
X8693000Y-11781400D02*
X8803000Y-11891400D01*
X8803000Y-11781400D02*
X8693000Y-11891400D01*
X8748000Y-11891400D02*
X8803000Y-11836400D01*
X8748000Y-11781400D01*
X8693000Y-11836400D01*
X8748000Y-11891400D01*
X8693000Y-12231400D02*
X8803000Y-12341400D01*
X8803000Y-12231400D02*
X8693000Y-12341400D01*
X8748000Y-12341400D02*
X8803000Y-12286400D01*
X8748000Y-12231400D01*
X8693000Y-12286400D01*
X8748000Y-12341400D01*
X9343000Y-11781400D02*
X9453000Y-11891400D01*
X9453000Y-11781400D02*
X9343000Y-11891400D01*
X9398000Y-11891400D02*
X9453000Y-11836400D01*
X9398000Y-11781400D01*
X9343000Y-11836400D01*
X9398000Y-11891400D01*
X9343000Y-12231400D02*
X9453000Y-12341400D01*
X9453000Y-12231400D02*
X9343000Y-12341400D01*
X9398000Y-12341400D02*
X9453000Y-12286400D01*
X9398000Y-12231400D01*
X9343000Y-12286400D01*
X9398000Y-12341400D01*
X9716500Y-11785000D02*
X9826500Y-11895000D01*
X9826500Y-11785000D02*
X9716500Y-11895000D01*
X9771500Y-11895000D02*
X9826500Y-11840000D01*
X9771500Y-11785000D01*
X9716500Y-11840000D01*
X9771500Y-11895000D01*
X9716500Y-12235000D02*
X9826500Y-12345000D01*
X9826500Y-12235000D02*
X9716500Y-12345000D01*
X9771500Y-12345000D02*
X9826500Y-12290000D01*
X9771500Y-12235000D01*
X9716500Y-12290000D01*
X9771500Y-12345000D01*
X10366500Y-11785000D02*
X10476500Y-11895000D01*
X10476500Y-11785000D02*
X10366500Y-11895000D01*
X10421500Y-11895000D02*
X10476500Y-11840000D01*
X10421500Y-11785000D01*
X10366500Y-11840000D01*
X10421500Y-11895000D01*
X10366500Y-12235000D02*
X10476500Y-12345000D01*
X10476500Y-12235000D02*
X10366500Y-12345000D01*
X10421500Y-12345000D02*
X10476500Y-12290000D01*
X10421500Y-12235000D01*
X10366500Y-12290000D01*
X10421500Y-12345000D01*
D20*
X8297100Y-7521900D02*
X8297100Y-7641900D01*
X8237100Y-7581900D02*
X8357100Y-7581900D01*
X8357100Y-7581900D02*
G75*
G03*
X8357100Y-7581900I-60000J0D01*
G01*
X8797100Y-7521900D02*
X8797100Y-7641900D01*
X8737100Y-7581900D02*
X8857100Y-7581900D01*
X8857100Y-7581900D02*
G75*
G03*
X8857100Y-7581900I-60000J0D01*
G01*
D21*
X4078282Y-7951782D02*
X4078282Y-7796217D01*
X3922717Y-7796217D01*
X3922717Y-7951782D01*
X4078282Y-7951782D01*
X4110500Y-7874000D02*
G75*
G03*
X4110500Y-7874000I-110000J0D01*
G01*
X4078282Y-12015782D02*
X4078282Y-11860217D01*
X3922717Y-11860217D01*
X3922717Y-12015782D01*
X4078282Y-12015782D01*
X4110500Y-11938000D02*
G75*
G03*
X4110500Y-11938000I-110000J0D01*
G01*
X11698282Y-7951782D02*
X11698282Y-7796217D01*
X11542717Y-7796217D01*
X11542717Y-7951782D01*
X11698282Y-7951782D01*
X11730500Y-7874000D02*
G75*
G03*
X11730500Y-7874000I-110000J0D01*
G01*
X11698282Y-12015782D02*
X11698282Y-11860217D01*
X11542717Y-11860217D01*
X11542717Y-12015782D01*
X11698282Y-12015782D01*
X11730500Y-11938000D02*
G75*
G03*
X11730500Y-11938000I-110000J0D01*
G01*
D22*
X11638800Y-10032700D02*
X11703800Y-9967700D01*
X11638800Y-9902700D01*
X11573800Y-9967700D01*
X11638800Y-10032700D01*
X11703800Y-9967700D02*
G75*
G03*
X11703800Y-9967700I-65000J0D01*
G01*
D23*
X11284800Y-8601800D02*
X11284800Y-8771800D01*
X11199800Y-8686800D02*
X11369800Y-8686800D01*
X11344905Y-8746905D02*
X11344905Y-8626695D01*
X11224695Y-8626695D01*
X11224695Y-8746905D01*
X11344905Y-8746905D01*
X11284800Y-10989400D02*
X11284800Y-11159400D01*
X11199800Y-11074400D02*
X11369800Y-11074400D01*
X11344905Y-11134505D02*
X11344905Y-11014295D01*
X11224695Y-11014295D01*
X11224695Y-11134505D01*
X11344905Y-11134505D01*
X11984800Y-8601800D02*
X11984800Y-8771800D01*
X11899800Y-8686800D02*
X12069800Y-8686800D01*
X12044905Y-8746905D02*
X12044905Y-8626695D01*
X11924695Y-8626695D01*
X11924695Y-8746905D01*
X12044905Y-8746905D01*
X11984800Y-10989400D02*
X11984800Y-11159400D01*
X11899800Y-11074400D02*
X12069800Y-11074400D01*
X12044905Y-11134505D02*
X12044905Y-11014295D01*
X11924695Y-11014295D01*
X11924695Y-11134505D01*
X12044905Y-11134505D01*
D10*
X8547100Y-7481900D02*
X8547100Y-7681900D01*
X8447100Y-7581900D02*
X8647100Y-7581900D01*
X8547100Y-7681900D02*
X8647100Y-7581900D01*
X8547100Y-7481900D01*
X8447100Y-7581900D01*
X8547100Y-7681900D01*
X3617119Y-12889476D02*
X3617119Y-12689476D01*
X3664738Y-12689476D01*
X3693309Y-12699000D01*
X3712357Y-12718048D01*
X3721881Y-12737095D01*
X3731405Y-12775190D01*
X3731405Y-12803762D01*
X3721881Y-12841857D01*
X3712357Y-12860905D01*
X3693309Y-12879952D01*
X3664738Y-12889476D01*
X3617119Y-12889476D01*
X3817119Y-12889476D02*
X3817119Y-12756143D01*
X3817119Y-12794238D02*
X3826643Y-12775190D01*
X3836167Y-12765667D01*
X3855214Y-12756143D01*
X3874262Y-12756143D01*
X3940928Y-12889476D02*
X3940928Y-12756143D01*
X3940928Y-12689476D02*
X3931405Y-12699000D01*
X3940928Y-12708524D01*
X3950452Y-12699000D01*
X3940928Y-12689476D01*
X3940928Y-12708524D01*
X4064738Y-12889476D02*
X4045690Y-12879952D01*
X4036167Y-12860905D01*
X4036167Y-12689476D01*
X4169500Y-12889476D02*
X4150452Y-12879952D01*
X4140928Y-12860905D01*
X4140928Y-12689476D01*
X4398071Y-12889476D02*
X4398071Y-12689476D01*
X4464738Y-12832333D01*
X4531405Y-12689476D01*
X4531405Y-12889476D01*
X4712357Y-12889476D02*
X4712357Y-12784714D01*
X4702833Y-12765667D01*
X4683786Y-12756143D01*
X4645690Y-12756143D01*
X4626643Y-12765667D01*
X4712357Y-12879952D02*
X4693310Y-12889476D01*
X4645690Y-12889476D01*
X4626643Y-12879952D01*
X4617119Y-12860905D01*
X4617119Y-12841857D01*
X4626643Y-12822809D01*
X4645690Y-12813286D01*
X4693310Y-12813286D01*
X4712357Y-12803762D01*
X4807595Y-12756143D02*
X4807595Y-12956143D01*
X4807595Y-12765667D02*
X4826643Y-12756143D01*
X4864738Y-12756143D01*
X4883786Y-12765667D01*
X4893310Y-12775190D01*
X4902833Y-12794238D01*
X4902833Y-12851381D01*
X4893310Y-12870428D01*
X4883786Y-12879952D01*
X4864738Y-12889476D01*
X4826643Y-12889476D01*
X4807595Y-12879952D01*
X4988548Y-12870428D02*
X4998071Y-12879952D01*
X4988548Y-12889476D01*
X4979024Y-12879952D01*
X4988548Y-12870428D01*
X4988548Y-12889476D01*
X4988548Y-12765667D02*
X4998071Y-12775190D01*
X4988548Y-12784714D01*
X4979024Y-12775190D01*
X4988548Y-12765667D01*
X4988548Y-12784714D01*
D11*
X3319500Y-13199000D02*
X3359500Y-13239000D01*
X3359500Y-13199000D02*
X3319500Y-13239000D01*
D10*
X3655214Y-13109476D02*
X3674262Y-13109476D01*
X3693309Y-13119000D01*
X3702833Y-13128524D01*
X3712357Y-13147571D01*
X3721881Y-13185667D01*
X3721881Y-13233286D01*
X3712357Y-13271381D01*
X3702833Y-13290428D01*
X3693309Y-13299952D01*
X3674262Y-13309476D01*
X3655214Y-13309476D01*
X3636167Y-13299952D01*
X3626643Y-13290428D01*
X3617119Y-13271381D01*
X3607595Y-13233286D01*
X3607595Y-13185667D01*
X3617119Y-13147571D01*
X3626643Y-13128524D01*
X3636167Y-13119000D01*
X3655214Y-13109476D01*
X3807595Y-13290428D02*
X3817119Y-13299952D01*
X3807595Y-13309476D01*
X3798071Y-13299952D01*
X3807595Y-13290428D01*
X3807595Y-13309476D01*
X3988548Y-13176143D02*
X3988548Y-13309476D01*
X3940928Y-13099952D02*
X3893309Y-13242809D01*
X4017119Y-13242809D01*
X4131405Y-13109476D02*
X4150452Y-13109476D01*
X4169500Y-13119000D01*
X4179024Y-13128524D01*
X4188548Y-13147571D01*
X4198071Y-13185667D01*
X4198071Y-13233286D01*
X4188548Y-13271381D01*
X4179024Y-13290428D01*
X4169500Y-13299952D01*
X4150452Y-13309476D01*
X4131405Y-13309476D01*
X4112357Y-13299952D01*
X4102833Y-13290428D01*
X4093309Y-13271381D01*
X4083786Y-13233286D01*
X4083786Y-13185667D01*
X4093309Y-13147571D01*
X4102833Y-13128524D01*
X4112357Y-13119000D01*
X4131405Y-13109476D01*
X4321881Y-13109476D02*
X4340929Y-13109476D01*
X4359976Y-13119000D01*
X4369500Y-13128524D01*
X4379024Y-13147571D01*
X4388548Y-13185667D01*
X4388548Y-13233286D01*
X4379024Y-13271381D01*
X4369500Y-13290428D01*
X4359976Y-13299952D01*
X4340929Y-13309476D01*
X4321881Y-13309476D01*
X4302833Y-13299952D01*
X4293310Y-13290428D01*
X4283786Y-13271381D01*
X4274262Y-13233286D01*
X4274262Y-13185667D01*
X4283786Y-13147571D01*
X4293310Y-13128524D01*
X4302833Y-13119000D01*
X4321881Y-13109476D01*
X4474262Y-13309476D02*
X4474262Y-13176143D01*
X4474262Y-13195190D02*
X4483786Y-13185667D01*
X4502833Y-13176143D01*
X4531405Y-13176143D01*
X4550452Y-13185667D01*
X4559976Y-13204714D01*
X4559976Y-13309476D01*
X4559976Y-13204714D02*
X4569500Y-13185667D01*
X4588548Y-13176143D01*
X4617119Y-13176143D01*
X4636167Y-13185667D01*
X4645690Y-13204714D01*
X4645690Y-13309476D01*
X4740929Y-13309476D02*
X4740929Y-13176143D01*
X4740929Y-13195190D02*
X4750452Y-13185667D01*
X4769500Y-13176143D01*
X4798071Y-13176143D01*
X4817119Y-13185667D01*
X4826643Y-13204714D01*
X4826643Y-13309476D01*
X4826643Y-13204714D02*
X4836167Y-13185667D01*
X4855214Y-13176143D01*
X4883786Y-13176143D01*
X4902833Y-13185667D01*
X4912357Y-13204714D01*
X4912357Y-13309476D01*
X5302833Y-13099952D02*
X5131405Y-13357095D01*
X5559976Y-13109476D02*
X5579024Y-13109476D01*
X5598071Y-13119000D01*
X5607595Y-13128524D01*
X5617119Y-13147571D01*
X5626643Y-13185667D01*
X5626643Y-13233286D01*
X5617119Y-13271381D01*
X5607595Y-13290428D01*
X5598071Y-13299952D01*
X5579024Y-13309476D01*
X5559976Y-13309476D01*
X5540929Y-13299952D01*
X5531405Y-13290428D01*
X5521881Y-13271381D01*
X5512357Y-13233286D01*
X5512357Y-13185667D01*
X5521881Y-13147571D01*
X5531405Y-13128524D01*
X5540929Y-13119000D01*
X5559976Y-13109476D01*
X5712357Y-13290428D02*
X5721881Y-13299952D01*
X5712357Y-13309476D01*
X5702833Y-13299952D01*
X5712357Y-13290428D01*
X5712357Y-13309476D01*
X5845690Y-13109476D02*
X5864738Y-13109476D01*
X5883786Y-13119000D01*
X5893309Y-13128524D01*
X5902833Y-13147571D01*
X5912357Y-13185667D01*
X5912357Y-13233286D01*
X5902833Y-13271381D01*
X5893309Y-13290428D01*
X5883786Y-13299952D01*
X5864738Y-13309476D01*
X5845690Y-13309476D01*
X5826643Y-13299952D01*
X5817119Y-13290428D01*
X5807595Y-13271381D01*
X5798071Y-13233286D01*
X5798071Y-13185667D01*
X5807595Y-13147571D01*
X5817119Y-13128524D01*
X5826643Y-13119000D01*
X5845690Y-13109476D01*
X6102833Y-13309476D02*
X5988548Y-13309476D01*
X6045690Y-13309476D02*
X6045690Y-13109476D01*
X6026643Y-13138048D01*
X6007595Y-13157095D01*
X5988548Y-13166619D01*
X6283786Y-13109476D02*
X6188548Y-13109476D01*
X6179024Y-13204714D01*
X6188548Y-13195190D01*
X6207595Y-13185667D01*
X6255214Y-13185667D01*
X6274262Y-13195190D01*
X6283786Y-13204714D01*
X6293309Y-13223762D01*
X6293309Y-13271381D01*
X6283786Y-13290428D01*
X6274262Y-13299952D01*
X6255214Y-13309476D01*
X6207595Y-13309476D01*
X6188548Y-13299952D01*
X6179024Y-13290428D01*
X6359976Y-13109476D02*
X6493309Y-13109476D01*
X6407595Y-13309476D01*
X6559976Y-13109476D02*
X6559976Y-13147571D01*
X6636167Y-13109476D02*
X6636167Y-13147571D01*
X6931405Y-13385667D02*
X6921881Y-13376143D01*
X6902833Y-13347571D01*
X6893309Y-13328524D01*
X6883786Y-13299952D01*
X6874262Y-13252333D01*
X6874262Y-13214238D01*
X6883786Y-13166619D01*
X6893309Y-13138048D01*
X6902833Y-13119000D01*
X6921881Y-13090428D01*
X6931405Y-13080905D01*
X7093309Y-13176143D02*
X7093309Y-13309476D01*
X7045690Y-13099952D02*
X6998071Y-13242809D01*
X7121881Y-13242809D01*
X7283786Y-13109476D02*
X7245690Y-13109476D01*
X7226643Y-13119000D01*
X7217119Y-13128524D01*
X7198071Y-13157095D01*
X7188548Y-13195190D01*
X7188548Y-13271381D01*
X7198071Y-13290428D01*
X7207595Y-13299952D01*
X7226643Y-13309476D01*
X7264738Y-13309476D01*
X7283786Y-13299952D01*
X7293309Y-13290428D01*
X7302833Y-13271381D01*
X7302833Y-13223762D01*
X7293309Y-13204714D01*
X7283786Y-13195190D01*
X7264738Y-13185667D01*
X7226643Y-13185667D01*
X7207595Y-13195190D01*
X7198071Y-13204714D01*
X7188548Y-13223762D01*
X7540928Y-13309476D02*
X7540928Y-13109476D01*
X7626643Y-13309476D02*
X7626643Y-13204714D01*
X7617119Y-13185667D01*
X7598071Y-13176143D01*
X7569500Y-13176143D01*
X7550452Y-13185667D01*
X7540928Y-13195190D01*
X7750452Y-13309476D02*
X7731405Y-13299952D01*
X7721881Y-13290428D01*
X7712357Y-13271381D01*
X7712357Y-13214238D01*
X7721881Y-13195190D01*
X7731405Y-13185667D01*
X7750452Y-13176143D01*
X7779024Y-13176143D01*
X7798071Y-13185667D01*
X7807595Y-13195190D01*
X7817119Y-13214238D01*
X7817119Y-13271381D01*
X7807595Y-13290428D01*
X7798071Y-13299952D01*
X7779024Y-13309476D01*
X7750452Y-13309476D01*
X7931405Y-13309476D02*
X7912357Y-13299952D01*
X7902833Y-13280905D01*
X7902833Y-13109476D01*
X8083786Y-13299952D02*
X8064738Y-13309476D01*
X8026643Y-13309476D01*
X8007595Y-13299952D01*
X7998071Y-13280905D01*
X7998071Y-13204714D01*
X8007595Y-13185667D01*
X8026643Y-13176143D01*
X8064738Y-13176143D01*
X8083786Y-13185667D01*
X8093309Y-13204714D01*
X8093309Y-13223762D01*
X7998071Y-13242809D01*
X8169500Y-13299952D02*
X8188548Y-13309476D01*
X8226643Y-13309476D01*
X8245690Y-13299952D01*
X8255214Y-13280905D01*
X8255214Y-13271381D01*
X8245690Y-13252333D01*
X8226643Y-13242809D01*
X8198071Y-13242809D01*
X8179024Y-13233286D01*
X8169500Y-13214238D01*
X8169500Y-13204714D01*
X8179024Y-13185667D01*
X8198071Y-13176143D01*
X8226643Y-13176143D01*
X8245690Y-13185667D01*
X8321881Y-13385667D02*
X8331405Y-13376143D01*
X8350452Y-13347571D01*
X8359976Y-13328524D01*
X8369500Y-13299952D01*
X8379024Y-13252333D01*
X8379024Y-13214238D01*
X8369500Y-13166619D01*
X8359976Y-13138048D01*
X8350452Y-13119000D01*
X8331405Y-13090428D01*
X8321881Y-13080905D01*
D12*
X3359500Y-13483000D02*
G75*
G03*
X3359500Y-13483000I-34925J0D01*
G01*
D10*
X3655214Y-13373476D02*
X3674262Y-13373476D01*
X3693309Y-13383000D01*
X3702833Y-13392524D01*
X3712357Y-13411571D01*
X3721881Y-13449667D01*
X3721881Y-13497286D01*
X3712357Y-13535381D01*
X3702833Y-13554428D01*
X3693309Y-13563952D01*
X3674262Y-13573476D01*
X3655214Y-13573476D01*
X3636167Y-13563952D01*
X3626643Y-13554428D01*
X3617119Y-13535381D01*
X3607595Y-13497286D01*
X3607595Y-13449667D01*
X3617119Y-13411571D01*
X3626643Y-13392524D01*
X3636167Y-13383000D01*
X3655214Y-13373476D01*
X3807595Y-13554428D02*
X3817119Y-13563952D01*
X3807595Y-13573476D01*
X3798071Y-13563952D01*
X3807595Y-13554428D01*
X3807595Y-13573476D01*
X3988548Y-13373476D02*
X3950452Y-13373476D01*
X3931405Y-13383000D01*
X3921881Y-13392524D01*
X3902833Y-13421095D01*
X3893309Y-13459190D01*
X3893309Y-13535381D01*
X3902833Y-13554428D01*
X3912357Y-13563952D01*
X3931405Y-13573476D01*
X3969500Y-13573476D01*
X3988548Y-13563952D01*
X3998071Y-13554428D01*
X4007595Y-13535381D01*
X4007595Y-13487762D01*
X3998071Y-13468714D01*
X3988548Y-13459190D01*
X3969500Y-13449667D01*
X3931405Y-13449667D01*
X3912357Y-13459190D01*
X3902833Y-13468714D01*
X3893309Y-13487762D01*
X4102833Y-13573476D02*
X4140928Y-13573476D01*
X4159976Y-13563952D01*
X4169500Y-13554428D01*
X4188548Y-13525857D01*
X4198071Y-13487762D01*
X4198071Y-13411571D01*
X4188548Y-13392524D01*
X4179024Y-13383000D01*
X4159976Y-13373476D01*
X4121881Y-13373476D01*
X4102833Y-13383000D01*
X4093309Y-13392524D01*
X4083786Y-13411571D01*
X4083786Y-13459190D01*
X4093309Y-13478238D01*
X4102833Y-13487762D01*
X4121881Y-13497286D01*
X4159976Y-13497286D01*
X4179024Y-13487762D01*
X4188548Y-13478238D01*
X4198071Y-13459190D01*
X4293310Y-13573476D02*
X4331405Y-13573476D01*
X4350452Y-13563952D01*
X4359976Y-13554428D01*
X4379024Y-13525857D01*
X4388548Y-13487762D01*
X4388548Y-13411571D01*
X4379024Y-13392524D01*
X4369500Y-13383000D01*
X4350452Y-13373476D01*
X4312357Y-13373476D01*
X4293310Y-13383000D01*
X4283786Y-13392524D01*
X4274262Y-13411571D01*
X4274262Y-13459190D01*
X4283786Y-13478238D01*
X4293310Y-13487762D01*
X4312357Y-13497286D01*
X4350452Y-13497286D01*
X4369500Y-13487762D01*
X4379024Y-13478238D01*
X4388548Y-13459190D01*
X4474262Y-13573476D02*
X4474262Y-13440143D01*
X4474262Y-13459190D02*
X4483786Y-13449667D01*
X4502833Y-13440143D01*
X4531405Y-13440143D01*
X4550452Y-13449667D01*
X4559976Y-13468714D01*
X4559976Y-13573476D01*
X4559976Y-13468714D02*
X4569500Y-13449667D01*
X4588548Y-13440143D01*
X4617119Y-13440143D01*
X4636167Y-13449667D01*
X4645690Y-13468714D01*
X4645690Y-13573476D01*
X4740929Y-13573476D02*
X4740929Y-13440143D01*
X4740929Y-13459190D02*
X4750452Y-13449667D01*
X4769500Y-13440143D01*
X4798071Y-13440143D01*
X4817119Y-13449667D01*
X4826643Y-13468714D01*
X4826643Y-13573476D01*
X4826643Y-13468714D02*
X4836167Y-13449667D01*
X4855214Y-13440143D01*
X4883786Y-13440143D01*
X4902833Y-13449667D01*
X4912357Y-13468714D01*
X4912357Y-13573476D01*
X5302833Y-13363952D02*
X5131405Y-13621095D01*
X5559976Y-13373476D02*
X5579024Y-13373476D01*
X5598071Y-13383000D01*
X5607595Y-13392524D01*
X5617119Y-13411571D01*
X5626643Y-13449667D01*
X5626643Y-13497286D01*
X5617119Y-13535381D01*
X5607595Y-13554428D01*
X5598071Y-13563952D01*
X5579024Y-13573476D01*
X5559976Y-13573476D01*
X5540929Y-13563952D01*
X5531405Y-13554428D01*
X5521881Y-13535381D01*
X5512357Y-13497286D01*
X5512357Y-13449667D01*
X5521881Y-13411571D01*
X5531405Y-13392524D01*
X5540929Y-13383000D01*
X5559976Y-13373476D01*
X5712357Y-13554428D02*
X5721881Y-13563952D01*
X5712357Y-13573476D01*
X5702833Y-13563952D01*
X5712357Y-13554428D01*
X5712357Y-13573476D01*
X5845690Y-13373476D02*
X5864738Y-13373476D01*
X5883786Y-13383000D01*
X5893309Y-13392524D01*
X5902833Y-13411571D01*
X5912357Y-13449667D01*
X5912357Y-13497286D01*
X5902833Y-13535381D01*
X5893309Y-13554428D01*
X5883786Y-13563952D01*
X5864738Y-13573476D01*
X5845690Y-13573476D01*
X5826643Y-13563952D01*
X5817119Y-13554428D01*
X5807595Y-13535381D01*
X5798071Y-13497286D01*
X5798071Y-13449667D01*
X5807595Y-13411571D01*
X5817119Y-13392524D01*
X5826643Y-13383000D01*
X5845690Y-13373476D01*
X5988548Y-13392524D02*
X5998071Y-13383000D01*
X6017119Y-13373476D01*
X6064738Y-13373476D01*
X6083786Y-13383000D01*
X6093309Y-13392524D01*
X6102833Y-13411571D01*
X6102833Y-13430619D01*
X6093309Y-13459190D01*
X5979024Y-13573476D01*
X6102833Y-13573476D01*
X6169500Y-13373476D02*
X6302833Y-13373476D01*
X6217119Y-13573476D01*
X6474262Y-13373476D02*
X6379024Y-13373476D01*
X6369500Y-13468714D01*
X6379024Y-13459190D01*
X6398071Y-13449667D01*
X6445690Y-13449667D01*
X6464738Y-13459190D01*
X6474262Y-13468714D01*
X6483786Y-13487762D01*
X6483786Y-13535381D01*
X6474262Y-13554428D01*
X6464738Y-13563952D01*
X6445690Y-13573476D01*
X6398071Y-13573476D01*
X6379024Y-13563952D01*
X6369500Y-13554428D01*
X6559976Y-13373476D02*
X6559976Y-13411571D01*
X6636167Y-13373476D02*
X6636167Y-13411571D01*
X6931405Y-13649667D02*
X6921881Y-13640143D01*
X6902833Y-13611571D01*
X6893309Y-13592524D01*
X6883786Y-13563952D01*
X6874262Y-13516333D01*
X6874262Y-13478238D01*
X6883786Y-13430619D01*
X6893309Y-13402048D01*
X6902833Y-13383000D01*
X6921881Y-13354428D01*
X6931405Y-13344905D01*
X7112357Y-13573476D02*
X6998071Y-13573476D01*
X7055214Y-13573476D02*
X7055214Y-13373476D01*
X7036167Y-13402048D01*
X7017119Y-13421095D01*
X6998071Y-13430619D01*
X7236167Y-13373476D02*
X7255214Y-13373476D01*
X7274262Y-13383000D01*
X7283786Y-13392524D01*
X7293309Y-13411571D01*
X7302833Y-13449667D01*
X7302833Y-13497286D01*
X7293309Y-13535381D01*
X7283786Y-13554428D01*
X7274262Y-13563952D01*
X7255214Y-13573476D01*
X7236167Y-13573476D01*
X7217119Y-13563952D01*
X7207595Y-13554428D01*
X7198071Y-13535381D01*
X7188548Y-13497286D01*
X7188548Y-13449667D01*
X7198071Y-13411571D01*
X7207595Y-13392524D01*
X7217119Y-13383000D01*
X7236167Y-13373476D01*
X7540928Y-13573476D02*
X7540928Y-13373476D01*
X7626643Y-13573476D02*
X7626643Y-13468714D01*
X7617119Y-13449667D01*
X7598071Y-13440143D01*
X7569500Y-13440143D01*
X7550452Y-13449667D01*
X7540928Y-13459190D01*
X7750452Y-13573476D02*
X7731405Y-13563952D01*
X7721881Y-13554428D01*
X7712357Y-13535381D01*
X7712357Y-13478238D01*
X7721881Y-13459190D01*
X7731405Y-13449667D01*
X7750452Y-13440143D01*
X7779024Y-13440143D01*
X7798071Y-13449667D01*
X7807595Y-13459190D01*
X7817119Y-13478238D01*
X7817119Y-13535381D01*
X7807595Y-13554428D01*
X7798071Y-13563952D01*
X7779024Y-13573476D01*
X7750452Y-13573476D01*
X7931405Y-13573476D02*
X7912357Y-13563952D01*
X7902833Y-13544905D01*
X7902833Y-13373476D01*
X8083786Y-13563952D02*
X8064738Y-13573476D01*
X8026643Y-13573476D01*
X8007595Y-13563952D01*
X7998071Y-13544905D01*
X7998071Y-13468714D01*
X8007595Y-13449667D01*
X8026643Y-13440143D01*
X8064738Y-13440143D01*
X8083786Y-13449667D01*
X8093309Y-13468714D01*
X8093309Y-13487762D01*
X7998071Y-13506809D01*
X8169500Y-13563952D02*
X8188548Y-13573476D01*
X8226643Y-13573476D01*
X8245690Y-13563952D01*
X8255214Y-13544905D01*
X8255214Y-13535381D01*
X8245690Y-13516333D01*
X8226643Y-13506809D01*
X8198071Y-13506809D01*
X8179024Y-13497286D01*
X8169500Y-13478238D01*
X8169500Y-13468714D01*
X8179024Y-13449667D01*
X8198071Y-13440143D01*
X8226643Y-13440143D01*
X8245690Y-13449667D01*
X8321881Y-13649667D02*
X8331405Y-13640143D01*
X8350452Y-13611571D01*
X8359976Y-13592524D01*
X8369500Y-13563952D01*
X8379024Y-13516333D01*
X8379024Y-13478238D01*
X8369500Y-13430619D01*
X8359976Y-13402048D01*
X8350452Y-13383000D01*
X8331405Y-13354428D01*
X8321881Y-13344905D01*
D13*
X3324500Y-13712000D02*
X3324500Y-13782000D01*
X3289500Y-13747000D02*
X3359500Y-13747000D01*
D10*
X3655214Y-13637476D02*
X3674262Y-13637476D01*
X3693309Y-13647000D01*
X3702833Y-13656524D01*
X3712357Y-13675571D01*
X3721881Y-13713667D01*
X3721881Y-13761286D01*
X3712357Y-13799381D01*
X3702833Y-13818428D01*
X3693309Y-13827952D01*
X3674262Y-13837476D01*
X3655214Y-13837476D01*
X3636167Y-13827952D01*
X3626643Y-13818428D01*
X3617119Y-13799381D01*
X3607595Y-13761286D01*
X3607595Y-13713667D01*
X3617119Y-13675571D01*
X3626643Y-13656524D01*
X3636167Y-13647000D01*
X3655214Y-13637476D01*
X3807595Y-13818428D02*
X3817119Y-13827952D01*
X3807595Y-13837476D01*
X3798071Y-13827952D01*
X3807595Y-13818428D01*
X3807595Y-13837476D01*
X3883786Y-13637476D02*
X4017119Y-13637476D01*
X3931405Y-13837476D01*
X4131405Y-13637476D02*
X4150452Y-13637476D01*
X4169500Y-13647000D01*
X4179024Y-13656524D01*
X4188548Y-13675571D01*
X4198071Y-13713667D01*
X4198071Y-13761286D01*
X4188548Y-13799381D01*
X4179024Y-13818428D01*
X4169500Y-13827952D01*
X4150452Y-13837476D01*
X4131405Y-13837476D01*
X4112357Y-13827952D01*
X4102833Y-13818428D01*
X4093309Y-13799381D01*
X4083786Y-13761286D01*
X4083786Y-13713667D01*
X4093309Y-13675571D01*
X4102833Y-13656524D01*
X4112357Y-13647000D01*
X4131405Y-13637476D01*
X4321881Y-13637476D02*
X4340929Y-13637476D01*
X4359976Y-13647000D01*
X4369500Y-13656524D01*
X4379024Y-13675571D01*
X4388548Y-13713667D01*
X4388548Y-13761286D01*
X4379024Y-13799381D01*
X4369500Y-13818428D01*
X4359976Y-13827952D01*
X4340929Y-13837476D01*
X4321881Y-13837476D01*
X4302833Y-13827952D01*
X4293310Y-13818428D01*
X4283786Y-13799381D01*
X4274262Y-13761286D01*
X4274262Y-13713667D01*
X4283786Y-13675571D01*
X4293310Y-13656524D01*
X4302833Y-13647000D01*
X4321881Y-13637476D01*
X4474262Y-13837476D02*
X4474262Y-13704143D01*
X4474262Y-13723190D02*
X4483786Y-13713667D01*
X4502833Y-13704143D01*
X4531405Y-13704143D01*
X4550452Y-13713667D01*
X4559976Y-13732714D01*
X4559976Y-13837476D01*
X4559976Y-13732714D02*
X4569500Y-13713667D01*
X4588548Y-13704143D01*
X4617119Y-13704143D01*
X4636167Y-13713667D01*
X4645690Y-13732714D01*
X4645690Y-13837476D01*
X4740929Y-13837476D02*
X4740929Y-13704143D01*
X4740929Y-13723190D02*
X4750452Y-13713667D01*
X4769500Y-13704143D01*
X4798071Y-13704143D01*
X4817119Y-13713667D01*
X4826643Y-13732714D01*
X4826643Y-13837476D01*
X4826643Y-13732714D02*
X4836167Y-13713667D01*
X4855214Y-13704143D01*
X4883786Y-13704143D01*
X4902833Y-13713667D01*
X4912357Y-13732714D01*
X4912357Y-13837476D01*
X5302833Y-13627952D02*
X5131405Y-13885095D01*
X5559976Y-13637476D02*
X5579024Y-13637476D01*
X5598071Y-13647000D01*
X5607595Y-13656524D01*
X5617119Y-13675571D01*
X5626643Y-13713667D01*
X5626643Y-13761286D01*
X5617119Y-13799381D01*
X5607595Y-13818428D01*
X5598071Y-13827952D01*
X5579024Y-13837476D01*
X5559976Y-13837476D01*
X5540929Y-13827952D01*
X5531405Y-13818428D01*
X5521881Y-13799381D01*
X5512357Y-13761286D01*
X5512357Y-13713667D01*
X5521881Y-13675571D01*
X5531405Y-13656524D01*
X5540929Y-13647000D01*
X5559976Y-13637476D01*
X5712357Y-13818428D02*
X5721881Y-13827952D01*
X5712357Y-13837476D01*
X5702833Y-13827952D01*
X5712357Y-13818428D01*
X5712357Y-13837476D01*
X5845690Y-13637476D02*
X5864738Y-13637476D01*
X5883786Y-13647000D01*
X5893309Y-13656524D01*
X5902833Y-13675571D01*
X5912357Y-13713667D01*
X5912357Y-13761286D01*
X5902833Y-13799381D01*
X5893309Y-13818428D01*
X5883786Y-13827952D01*
X5864738Y-13837476D01*
X5845690Y-13837476D01*
X5826643Y-13827952D01*
X5817119Y-13818428D01*
X5807595Y-13799381D01*
X5798071Y-13761286D01*
X5798071Y-13713667D01*
X5807595Y-13675571D01*
X5817119Y-13656524D01*
X5826643Y-13647000D01*
X5845690Y-13637476D01*
X5988548Y-13656524D02*
X5998071Y-13647000D01*
X6017119Y-13637476D01*
X6064738Y-13637476D01*
X6083786Y-13647000D01*
X6093309Y-13656524D01*
X6102833Y-13675571D01*
X6102833Y-13694619D01*
X6093309Y-13723190D01*
X5979024Y-13837476D01*
X6102833Y-13837476D01*
X6169500Y-13637476D02*
X6302833Y-13637476D01*
X6217119Y-13837476D01*
X6464738Y-13637476D02*
X6426643Y-13637476D01*
X6407595Y-13647000D01*
X6398071Y-13656524D01*
X6379024Y-13685095D01*
X6369500Y-13723190D01*
X6369500Y-13799381D01*
X6379024Y-13818428D01*
X6388548Y-13827952D01*
X6407595Y-13837476D01*
X6445690Y-13837476D01*
X6464738Y-13827952D01*
X6474262Y-13818428D01*
X6483786Y-13799381D01*
X6483786Y-13751762D01*
X6474262Y-13732714D01*
X6464738Y-13723190D01*
X6445690Y-13713667D01*
X6407595Y-13713667D01*
X6388548Y-13723190D01*
X6379024Y-13732714D01*
X6369500Y-13751762D01*
X6559976Y-13637476D02*
X6559976Y-13675571D01*
X6636167Y-13637476D02*
X6636167Y-13675571D01*
X6931405Y-13913667D02*
X6921881Y-13904143D01*
X6902833Y-13875571D01*
X6893309Y-13856524D01*
X6883786Y-13827952D01*
X6874262Y-13780333D01*
X6874262Y-13742238D01*
X6883786Y-13694619D01*
X6893309Y-13666048D01*
X6902833Y-13647000D01*
X6921881Y-13618428D01*
X6931405Y-13608905D01*
X7045690Y-13637476D02*
X7064738Y-13637476D01*
X7083786Y-13647000D01*
X7093309Y-13656524D01*
X7102833Y-13675571D01*
X7112357Y-13713667D01*
X7112357Y-13761286D01*
X7102833Y-13799381D01*
X7093309Y-13818428D01*
X7083786Y-13827952D01*
X7064738Y-13837476D01*
X7045690Y-13837476D01*
X7026643Y-13827952D01*
X7017119Y-13818428D01*
X7007595Y-13799381D01*
X6998071Y-13761286D01*
X6998071Y-13713667D01*
X7007595Y-13675571D01*
X7017119Y-13656524D01*
X7026643Y-13647000D01*
X7045690Y-13637476D01*
X7350452Y-13837476D02*
X7350452Y-13637476D01*
X7436167Y-13837476D02*
X7436167Y-13732714D01*
X7426643Y-13713667D01*
X7407595Y-13704143D01*
X7379024Y-13704143D01*
X7359976Y-13713667D01*
X7350452Y-13723190D01*
X7559976Y-13837476D02*
X7540928Y-13827952D01*
X7531405Y-13818428D01*
X7521881Y-13799381D01*
X7521881Y-13742238D01*
X7531405Y-13723190D01*
X7540928Y-13713667D01*
X7559976Y-13704143D01*
X7588548Y-13704143D01*
X7607595Y-13713667D01*
X7617119Y-13723190D01*
X7626643Y-13742238D01*
X7626643Y-13799381D01*
X7617119Y-13818428D01*
X7607595Y-13827952D01*
X7588548Y-13837476D01*
X7559976Y-13837476D01*
X7740928Y-13837476D02*
X7721881Y-13827952D01*
X7712357Y-13808905D01*
X7712357Y-13637476D01*
X7893309Y-13827952D02*
X7874262Y-13837476D01*
X7836167Y-13837476D01*
X7817119Y-13827952D01*
X7807595Y-13808905D01*
X7807595Y-13732714D01*
X7817119Y-13713667D01*
X7836167Y-13704143D01*
X7874262Y-13704143D01*
X7893309Y-13713667D01*
X7902833Y-13732714D01*
X7902833Y-13751762D01*
X7807595Y-13770809D01*
X7979024Y-13827952D02*
X7998071Y-13837476D01*
X8036167Y-13837476D01*
X8055214Y-13827952D01*
X8064738Y-13808905D01*
X8064738Y-13799381D01*
X8055214Y-13780333D01*
X8036167Y-13770809D01*
X8007595Y-13770809D01*
X7988548Y-13761286D01*
X7979024Y-13742238D01*
X7979024Y-13732714D01*
X7988548Y-13713667D01*
X8007595Y-13704143D01*
X8036167Y-13704143D01*
X8055214Y-13713667D01*
X8302833Y-13761286D02*
X8455214Y-13761286D01*
X8379024Y-13837476D02*
X8379024Y-13685095D01*
X8693310Y-13656524D02*
X8702833Y-13647000D01*
X8721881Y-13637476D01*
X8769500Y-13637476D01*
X8788548Y-13647000D01*
X8798071Y-13656524D01*
X8807595Y-13675571D01*
X8807595Y-13694619D01*
X8798071Y-13723190D01*
X8683786Y-13837476D01*
X8807595Y-13837476D01*
X9036167Y-13827952D02*
X9055214Y-13837476D01*
X9093310Y-13837476D01*
X9112357Y-13827952D01*
X9121881Y-13808905D01*
X9121881Y-13799381D01*
X9112357Y-13780333D01*
X9093310Y-13770809D01*
X9064738Y-13770809D01*
X9045690Y-13761286D01*
X9036167Y-13742238D01*
X9036167Y-13732714D01*
X9045690Y-13713667D01*
X9064738Y-13704143D01*
X9093310Y-13704143D01*
X9112357Y-13713667D01*
X9236167Y-13837476D02*
X9217119Y-13827952D01*
X9207595Y-13808905D01*
X9207595Y-13637476D01*
X9340929Y-13837476D02*
X9321881Y-13827952D01*
X9312357Y-13818428D01*
X9302833Y-13799381D01*
X9302833Y-13742238D01*
X9312357Y-13723190D01*
X9321881Y-13713667D01*
X9340929Y-13704143D01*
X9369500Y-13704143D01*
X9388548Y-13713667D01*
X9398071Y-13723190D01*
X9407595Y-13742238D01*
X9407595Y-13799381D01*
X9398071Y-13818428D01*
X9388548Y-13827952D01*
X9369500Y-13837476D01*
X9340929Y-13837476D01*
X9464738Y-13704143D02*
X9540929Y-13704143D01*
X9493310Y-13637476D02*
X9493310Y-13808905D01*
X9502833Y-13827952D01*
X9521881Y-13837476D01*
X9540929Y-13837476D01*
X9598071Y-13827952D02*
X9617119Y-13837476D01*
X9655214Y-13837476D01*
X9674262Y-13827952D01*
X9683786Y-13808905D01*
X9683786Y-13799381D01*
X9674262Y-13780333D01*
X9655214Y-13770809D01*
X9626643Y-13770809D01*
X9607595Y-13761286D01*
X9598071Y-13742238D01*
X9598071Y-13732714D01*
X9607595Y-13713667D01*
X9626643Y-13704143D01*
X9655214Y-13704143D01*
X9674262Y-13713667D01*
X9750452Y-13913667D02*
X9759976Y-13904143D01*
X9779024Y-13875571D01*
X9788548Y-13856524D01*
X9798071Y-13827952D01*
X9807595Y-13780333D01*
X9807595Y-13742238D01*
X9798071Y-13694619D01*
X9788548Y-13666048D01*
X9779024Y-13647000D01*
X9759976Y-13618428D01*
X9750452Y-13608905D01*
D14*
X3348517Y-14037517D02*
X3348517Y-13984483D01*
X3295483Y-13984483D01*
X3295483Y-14037517D01*
X3348517Y-14037517D01*
D10*
X3655214Y-13901476D02*
X3674262Y-13901476D01*
X3693309Y-13911000D01*
X3702833Y-13920524D01*
X3712357Y-13939571D01*
X3721881Y-13977667D01*
X3721881Y-14025286D01*
X3712357Y-14063381D01*
X3702833Y-14082428D01*
X3693309Y-14091952D01*
X3674262Y-14101476D01*
X3655214Y-14101476D01*
X3636167Y-14091952D01*
X3626643Y-14082428D01*
X3617119Y-14063381D01*
X3607595Y-14025286D01*
X3607595Y-13977667D01*
X3617119Y-13939571D01*
X3626643Y-13920524D01*
X3636167Y-13911000D01*
X3655214Y-13901476D01*
X3807595Y-14082428D02*
X3817119Y-14091952D01*
X3807595Y-14101476D01*
X3798071Y-14091952D01*
X3807595Y-14082428D01*
X3807595Y-14101476D01*
X3883786Y-13901476D02*
X4017119Y-13901476D01*
X3931405Y-14101476D01*
X4188548Y-13901476D02*
X4093309Y-13901476D01*
X4083786Y-13996714D01*
X4093309Y-13987190D01*
X4112357Y-13977667D01*
X4159976Y-13977667D01*
X4179024Y-13987190D01*
X4188548Y-13996714D01*
X4198071Y-14015762D01*
X4198071Y-14063381D01*
X4188548Y-14082428D01*
X4179024Y-14091952D01*
X4159976Y-14101476D01*
X4112357Y-14101476D01*
X4093309Y-14091952D01*
X4083786Y-14082428D01*
X4321881Y-13901476D02*
X4340929Y-13901476D01*
X4359976Y-13911000D01*
X4369500Y-13920524D01*
X4379024Y-13939571D01*
X4388548Y-13977667D01*
X4388548Y-14025286D01*
X4379024Y-14063381D01*
X4369500Y-14082428D01*
X4359976Y-14091952D01*
X4340929Y-14101476D01*
X4321881Y-14101476D01*
X4302833Y-14091952D01*
X4293310Y-14082428D01*
X4283786Y-14063381D01*
X4274262Y-14025286D01*
X4274262Y-13977667D01*
X4283786Y-13939571D01*
X4293310Y-13920524D01*
X4302833Y-13911000D01*
X4321881Y-13901476D01*
X4474262Y-14101476D02*
X4474262Y-13968143D01*
X4474262Y-13987190D02*
X4483786Y-13977667D01*
X4502833Y-13968143D01*
X4531405Y-13968143D01*
X4550452Y-13977667D01*
X4559976Y-13996714D01*
X4559976Y-14101476D01*
X4559976Y-13996714D02*
X4569500Y-13977667D01*
X4588548Y-13968143D01*
X4617119Y-13968143D01*
X4636167Y-13977667D01*
X4645690Y-13996714D01*
X4645690Y-14101476D01*
X4740929Y-14101476D02*
X4740929Y-13968143D01*
X4740929Y-13987190D02*
X4750452Y-13977667D01*
X4769500Y-13968143D01*
X4798071Y-13968143D01*
X4817119Y-13977667D01*
X4826643Y-13996714D01*
X4826643Y-14101476D01*
X4826643Y-13996714D02*
X4836167Y-13977667D01*
X4855214Y-13968143D01*
X4883786Y-13968143D01*
X4902833Y-13977667D01*
X4912357Y-13996714D01*
X4912357Y-14101476D01*
X5302833Y-13891952D02*
X5131405Y-14149095D01*
X5559976Y-13901476D02*
X5579024Y-13901476D01*
X5598071Y-13911000D01*
X5607595Y-13920524D01*
X5617119Y-13939571D01*
X5626643Y-13977667D01*
X5626643Y-14025286D01*
X5617119Y-14063381D01*
X5607595Y-14082428D01*
X5598071Y-14091952D01*
X5579024Y-14101476D01*
X5559976Y-14101476D01*
X5540929Y-14091952D01*
X5531405Y-14082428D01*
X5521881Y-14063381D01*
X5512357Y-14025286D01*
X5512357Y-13977667D01*
X5521881Y-13939571D01*
X5531405Y-13920524D01*
X5540929Y-13911000D01*
X5559976Y-13901476D01*
X5712357Y-14082428D02*
X5721881Y-14091952D01*
X5712357Y-14101476D01*
X5702833Y-14091952D01*
X5712357Y-14082428D01*
X5712357Y-14101476D01*
X5845690Y-13901476D02*
X5864738Y-13901476D01*
X5883786Y-13911000D01*
X5893309Y-13920524D01*
X5902833Y-13939571D01*
X5912357Y-13977667D01*
X5912357Y-14025286D01*
X5902833Y-14063381D01*
X5893309Y-14082428D01*
X5883786Y-14091952D01*
X5864738Y-14101476D01*
X5845690Y-14101476D01*
X5826643Y-14091952D01*
X5817119Y-14082428D01*
X5807595Y-14063381D01*
X5798071Y-14025286D01*
X5798071Y-13977667D01*
X5807595Y-13939571D01*
X5817119Y-13920524D01*
X5826643Y-13911000D01*
X5845690Y-13901476D01*
X5988548Y-13920524D02*
X5998071Y-13911000D01*
X6017119Y-13901476D01*
X6064738Y-13901476D01*
X6083786Y-13911000D01*
X6093309Y-13920524D01*
X6102833Y-13939571D01*
X6102833Y-13958619D01*
X6093309Y-13987190D01*
X5979024Y-14101476D01*
X6102833Y-14101476D01*
X6198071Y-14101476D02*
X6236167Y-14101476D01*
X6255214Y-14091952D01*
X6264738Y-14082428D01*
X6283786Y-14053857D01*
X6293309Y-14015762D01*
X6293309Y-13939571D01*
X6283786Y-13920524D01*
X6274262Y-13911000D01*
X6255214Y-13901476D01*
X6217119Y-13901476D01*
X6198071Y-13911000D01*
X6188548Y-13920524D01*
X6179024Y-13939571D01*
X6179024Y-13987190D01*
X6188548Y-14006238D01*
X6198071Y-14015762D01*
X6217119Y-14025286D01*
X6255214Y-14025286D01*
X6274262Y-14015762D01*
X6283786Y-14006238D01*
X6293309Y-13987190D01*
X6474262Y-13901476D02*
X6379024Y-13901476D01*
X6369500Y-13996714D01*
X6379024Y-13987190D01*
X6398071Y-13977667D01*
X6445690Y-13977667D01*
X6464738Y-13987190D01*
X6474262Y-13996714D01*
X6483786Y-14015762D01*
X6483786Y-14063381D01*
X6474262Y-14082428D01*
X6464738Y-14091952D01*
X6445690Y-14101476D01*
X6398071Y-14101476D01*
X6379024Y-14091952D01*
X6369500Y-14082428D01*
X6559976Y-13901476D02*
X6559976Y-13939571D01*
X6636167Y-13901476D02*
X6636167Y-13939571D01*
X6931405Y-14177667D02*
X6921881Y-14168143D01*
X6902833Y-14139571D01*
X6893309Y-14120524D01*
X6883786Y-14091952D01*
X6874262Y-14044333D01*
X6874262Y-14006238D01*
X6883786Y-13958619D01*
X6893309Y-13930048D01*
X6902833Y-13911000D01*
X6921881Y-13882428D01*
X6931405Y-13872905D01*
X7017119Y-14101476D02*
X7055214Y-14101476D01*
X7074262Y-14091952D01*
X7083786Y-14082428D01*
X7102833Y-14053857D01*
X7112357Y-14015762D01*
X7112357Y-13939571D01*
X7102833Y-13920524D01*
X7093309Y-13911000D01*
X7074262Y-13901476D01*
X7036167Y-13901476D01*
X7017119Y-13911000D01*
X7007595Y-13920524D01*
X6998071Y-13939571D01*
X6998071Y-13987190D01*
X7007595Y-14006238D01*
X7017119Y-14015762D01*
X7036167Y-14025286D01*
X7074262Y-14025286D01*
X7093309Y-14015762D01*
X7102833Y-14006238D01*
X7112357Y-13987190D01*
X7350452Y-14101476D02*
X7350452Y-13901476D01*
X7436167Y-14101476D02*
X7436167Y-13996714D01*
X7426643Y-13977667D01*
X7407595Y-13968143D01*
X7379024Y-13968143D01*
X7359976Y-13977667D01*
X7350452Y-13987190D01*
X7559976Y-14101476D02*
X7540928Y-14091952D01*
X7531405Y-14082428D01*
X7521881Y-14063381D01*
X7521881Y-14006238D01*
X7531405Y-13987190D01*
X7540928Y-13977667D01*
X7559976Y-13968143D01*
X7588548Y-13968143D01*
X7607595Y-13977667D01*
X7617119Y-13987190D01*
X7626643Y-14006238D01*
X7626643Y-14063381D01*
X7617119Y-14082428D01*
X7607595Y-14091952D01*
X7588548Y-14101476D01*
X7559976Y-14101476D01*
X7740928Y-14101476D02*
X7721881Y-14091952D01*
X7712357Y-14072905D01*
X7712357Y-13901476D01*
X7893309Y-14091952D02*
X7874262Y-14101476D01*
X7836167Y-14101476D01*
X7817119Y-14091952D01*
X7807595Y-14072905D01*
X7807595Y-13996714D01*
X7817119Y-13977667D01*
X7836167Y-13968143D01*
X7874262Y-13968143D01*
X7893309Y-13977667D01*
X7902833Y-13996714D01*
X7902833Y-14015762D01*
X7807595Y-14034809D01*
X7979024Y-14091952D02*
X7998071Y-14101476D01*
X8036167Y-14101476D01*
X8055214Y-14091952D01*
X8064738Y-14072905D01*
X8064738Y-14063381D01*
X8055214Y-14044333D01*
X8036167Y-14034809D01*
X8007595Y-14034809D01*
X7988548Y-14025286D01*
X7979024Y-14006238D01*
X7979024Y-13996714D01*
X7988548Y-13977667D01*
X8007595Y-13968143D01*
X8036167Y-13968143D01*
X8055214Y-13977667D01*
X8131405Y-14177667D02*
X8140928Y-14168143D01*
X8159976Y-14139571D01*
X8169500Y-14120524D01*
X8179024Y-14091952D01*
X8188548Y-14044333D01*
X8188548Y-14006238D01*
X8179024Y-13958619D01*
X8169500Y-13930048D01*
X8159976Y-13911000D01*
X8140928Y-13882428D01*
X8131405Y-13872905D01*
D15*
X3321400Y-14313100D02*
X3359500Y-14275000D01*
X3321400Y-14236900D01*
X3283300Y-14275000D01*
X3321400Y-14313100D01*
D10*
X3655214Y-14165476D02*
X3674262Y-14165476D01*
X3693309Y-14175000D01*
X3702833Y-14184524D01*
X3712357Y-14203571D01*
X3721881Y-14241667D01*
X3721881Y-14289286D01*
X3712357Y-14327381D01*
X3702833Y-14346428D01*
X3693309Y-14355952D01*
X3674262Y-14365476D01*
X3655214Y-14365476D01*
X3636167Y-14355952D01*
X3626643Y-14346428D01*
X3617119Y-14327381D01*
X3607595Y-14289286D01*
X3607595Y-14241667D01*
X3617119Y-14203571D01*
X3626643Y-14184524D01*
X3636167Y-14175000D01*
X3655214Y-14165476D01*
X3807595Y-14346428D02*
X3817119Y-14355952D01*
X3807595Y-14365476D01*
X3798071Y-14355952D01*
X3807595Y-14346428D01*
X3807595Y-14365476D01*
X3883786Y-14165476D02*
X4017119Y-14165476D01*
X3931405Y-14365476D01*
X4179024Y-14165476D02*
X4140928Y-14165476D01*
X4121881Y-14175000D01*
X4112357Y-14184524D01*
X4093309Y-14213095D01*
X4083786Y-14251190D01*
X4083786Y-14327381D01*
X4093309Y-14346428D01*
X4102833Y-14355952D01*
X4121881Y-14365476D01*
X4159976Y-14365476D01*
X4179024Y-14355952D01*
X4188548Y-14346428D01*
X4198071Y-14327381D01*
X4198071Y-14279762D01*
X4188548Y-14260714D01*
X4179024Y-14251190D01*
X4159976Y-14241667D01*
X4121881Y-14241667D01*
X4102833Y-14251190D01*
X4093309Y-14260714D01*
X4083786Y-14279762D01*
X4274262Y-14184524D02*
X4283786Y-14175000D01*
X4302833Y-14165476D01*
X4350452Y-14165476D01*
X4369500Y-14175000D01*
X4379024Y-14184524D01*
X4388548Y-14203571D01*
X4388548Y-14222619D01*
X4379024Y-14251190D01*
X4264738Y-14365476D01*
X4388548Y-14365476D01*
X4474262Y-14365476D02*
X4474262Y-14232143D01*
X4474262Y-14251190D02*
X4483786Y-14241667D01*
X4502833Y-14232143D01*
X4531405Y-14232143D01*
X4550452Y-14241667D01*
X4559976Y-14260714D01*
X4559976Y-14365476D01*
X4559976Y-14260714D02*
X4569500Y-14241667D01*
X4588548Y-14232143D01*
X4617119Y-14232143D01*
X4636167Y-14241667D01*
X4645690Y-14260714D01*
X4645690Y-14365476D01*
X4740929Y-14365476D02*
X4740929Y-14232143D01*
X4740929Y-14251190D02*
X4750452Y-14241667D01*
X4769500Y-14232143D01*
X4798071Y-14232143D01*
X4817119Y-14241667D01*
X4826643Y-14260714D01*
X4826643Y-14365476D01*
X4826643Y-14260714D02*
X4836167Y-14241667D01*
X4855214Y-14232143D01*
X4883786Y-14232143D01*
X4902833Y-14241667D01*
X4912357Y-14260714D01*
X4912357Y-14365476D01*
X5302833Y-14155952D02*
X5131405Y-14413095D01*
X5559976Y-14165476D02*
X5579024Y-14165476D01*
X5598071Y-14175000D01*
X5607595Y-14184524D01*
X5617119Y-14203571D01*
X5626643Y-14241667D01*
X5626643Y-14289286D01*
X5617119Y-14327381D01*
X5607595Y-14346428D01*
X5598071Y-14355952D01*
X5579024Y-14365476D01*
X5559976Y-14365476D01*
X5540929Y-14355952D01*
X5531405Y-14346428D01*
X5521881Y-14327381D01*
X5512357Y-14289286D01*
X5512357Y-14241667D01*
X5521881Y-14203571D01*
X5531405Y-14184524D01*
X5540929Y-14175000D01*
X5559976Y-14165476D01*
X5712357Y-14346428D02*
X5721881Y-14355952D01*
X5712357Y-14365476D01*
X5702833Y-14355952D01*
X5712357Y-14346428D01*
X5712357Y-14365476D01*
X5845690Y-14165476D02*
X5864738Y-14165476D01*
X5883786Y-14175000D01*
X5893309Y-14184524D01*
X5902833Y-14203571D01*
X5912357Y-14241667D01*
X5912357Y-14289286D01*
X5902833Y-14327381D01*
X5893309Y-14346428D01*
X5883786Y-14355952D01*
X5864738Y-14365476D01*
X5845690Y-14365476D01*
X5826643Y-14355952D01*
X5817119Y-14346428D01*
X5807595Y-14327381D01*
X5798071Y-14289286D01*
X5798071Y-14241667D01*
X5807595Y-14203571D01*
X5817119Y-14184524D01*
X5826643Y-14175000D01*
X5845690Y-14165476D01*
X5979024Y-14165476D02*
X6102833Y-14165476D01*
X6036167Y-14241667D01*
X6064738Y-14241667D01*
X6083786Y-14251190D01*
X6093309Y-14260714D01*
X6102833Y-14279762D01*
X6102833Y-14327381D01*
X6093309Y-14346428D01*
X6083786Y-14355952D01*
X6064738Y-14365476D01*
X6007595Y-14365476D01*
X5988548Y-14355952D01*
X5979024Y-14346428D01*
X6226643Y-14165476D02*
X6245690Y-14165476D01*
X6264738Y-14175000D01*
X6274262Y-14184524D01*
X6283786Y-14203571D01*
X6293309Y-14241667D01*
X6293309Y-14289286D01*
X6283786Y-14327381D01*
X6274262Y-14346428D01*
X6264738Y-14355952D01*
X6245690Y-14365476D01*
X6226643Y-14365476D01*
X6207595Y-14355952D01*
X6198071Y-14346428D01*
X6188548Y-14327381D01*
X6179024Y-14289286D01*
X6179024Y-14241667D01*
X6188548Y-14203571D01*
X6198071Y-14184524D01*
X6207595Y-14175000D01*
X6226643Y-14165476D01*
X6417119Y-14165476D02*
X6436167Y-14165476D01*
X6455214Y-14175000D01*
X6464738Y-14184524D01*
X6474262Y-14203571D01*
X6483786Y-14241667D01*
X6483786Y-14289286D01*
X6474262Y-14327381D01*
X6464738Y-14346428D01*
X6455214Y-14355952D01*
X6436167Y-14365476D01*
X6417119Y-14365476D01*
X6398071Y-14355952D01*
X6388548Y-14346428D01*
X6379024Y-14327381D01*
X6369500Y-14289286D01*
X6369500Y-14241667D01*
X6379024Y-14203571D01*
X6388548Y-14184524D01*
X6398071Y-14175000D01*
X6417119Y-14165476D01*
X6559976Y-14165476D02*
X6559976Y-14203571D01*
X6636167Y-14165476D02*
X6636167Y-14203571D01*
X6931405Y-14441667D02*
X6921881Y-14432143D01*
X6902833Y-14403571D01*
X6893309Y-14384524D01*
X6883786Y-14355952D01*
X6874262Y-14308333D01*
X6874262Y-14270238D01*
X6883786Y-14222619D01*
X6893309Y-14194048D01*
X6902833Y-14175000D01*
X6921881Y-14146428D01*
X6931405Y-14136905D01*
X6998071Y-14184524D02*
X7007595Y-14175000D01*
X7026643Y-14165476D01*
X7074262Y-14165476D01*
X7093309Y-14175000D01*
X7102833Y-14184524D01*
X7112357Y-14203571D01*
X7112357Y-14222619D01*
X7102833Y-14251190D01*
X6988548Y-14365476D01*
X7112357Y-14365476D01*
X7350452Y-14365476D02*
X7350452Y-14165476D01*
X7436167Y-14365476D02*
X7436167Y-14260714D01*
X7426643Y-14241667D01*
X7407595Y-14232143D01*
X7379024Y-14232143D01*
X7359976Y-14241667D01*
X7350452Y-14251190D01*
X7559976Y-14365476D02*
X7540928Y-14355952D01*
X7531405Y-14346428D01*
X7521881Y-14327381D01*
X7521881Y-14270238D01*
X7531405Y-14251190D01*
X7540928Y-14241667D01*
X7559976Y-14232143D01*
X7588548Y-14232143D01*
X7607595Y-14241667D01*
X7617119Y-14251190D01*
X7626643Y-14270238D01*
X7626643Y-14327381D01*
X7617119Y-14346428D01*
X7607595Y-14355952D01*
X7588548Y-14365476D01*
X7559976Y-14365476D01*
X7740928Y-14365476D02*
X7721881Y-14355952D01*
X7712357Y-14336905D01*
X7712357Y-14165476D01*
X7893309Y-14355952D02*
X7874262Y-14365476D01*
X7836167Y-14365476D01*
X7817119Y-14355952D01*
X7807595Y-14336905D01*
X7807595Y-14260714D01*
X7817119Y-14241667D01*
X7836167Y-14232143D01*
X7874262Y-14232143D01*
X7893309Y-14241667D01*
X7902833Y-14260714D01*
X7902833Y-14279762D01*
X7807595Y-14298809D01*
X7979024Y-14355952D02*
X7998071Y-14365476D01*
X8036167Y-14365476D01*
X8055214Y-14355952D01*
X8064738Y-14336905D01*
X8064738Y-14327381D01*
X8055214Y-14308333D01*
X8036167Y-14298809D01*
X8007595Y-14298809D01*
X7988548Y-14289286D01*
X7979024Y-14270238D01*
X7979024Y-14260714D01*
X7988548Y-14241667D01*
X8007595Y-14232143D01*
X8036167Y-14232143D01*
X8055214Y-14241667D01*
X8131405Y-14441667D02*
X8140928Y-14432143D01*
X8159976Y-14403571D01*
X8169500Y-14384524D01*
X8179024Y-14355952D01*
X8188548Y-14308333D01*
X8188548Y-14270238D01*
X8179024Y-14222619D01*
X8169500Y-14194048D01*
X8159976Y-14175000D01*
X8140928Y-14146428D01*
X8131405Y-14136905D01*
D16*
X3279500Y-14499000D02*
X3359500Y-14579000D01*
X3359500Y-14499000D02*
X3279500Y-14579000D01*
X3359500Y-14539000D02*
G75*
G03*
X3359500Y-14539000I-40000J0D01*
G01*
D10*
X3655214Y-14429476D02*
X3674262Y-14429476D01*
X3693309Y-14439000D01*
X3702833Y-14448524D01*
X3712357Y-14467571D01*
X3721881Y-14505667D01*
X3721881Y-14553286D01*
X3712357Y-14591381D01*
X3702833Y-14610428D01*
X3693309Y-14619952D01*
X3674262Y-14629476D01*
X3655214Y-14629476D01*
X3636167Y-14619952D01*
X3626643Y-14610428D01*
X3617119Y-14591381D01*
X3607595Y-14553286D01*
X3607595Y-14505667D01*
X3617119Y-14467571D01*
X3626643Y-14448524D01*
X3636167Y-14439000D01*
X3655214Y-14429476D01*
X3807595Y-14610428D02*
X3817119Y-14619952D01*
X3807595Y-14629476D01*
X3798071Y-14619952D01*
X3807595Y-14610428D01*
X3807595Y-14629476D01*
X3931405Y-14515190D02*
X3912357Y-14505667D01*
X3902833Y-14496143D01*
X3893309Y-14477095D01*
X3893309Y-14467571D01*
X3902833Y-14448524D01*
X3912357Y-14439000D01*
X3931405Y-14429476D01*
X3969500Y-14429476D01*
X3988548Y-14439000D01*
X3998071Y-14448524D01*
X4007595Y-14467571D01*
X4007595Y-14477095D01*
X3998071Y-14496143D01*
X3988548Y-14505667D01*
X3969500Y-14515190D01*
X3931405Y-14515190D01*
X3912357Y-14524714D01*
X3902833Y-14534238D01*
X3893309Y-14553286D01*
X3893309Y-14591381D01*
X3902833Y-14610428D01*
X3912357Y-14619952D01*
X3931405Y-14629476D01*
X3969500Y-14629476D01*
X3988548Y-14619952D01*
X3998071Y-14610428D01*
X4007595Y-14591381D01*
X4007595Y-14553286D01*
X3998071Y-14534238D01*
X3988548Y-14524714D01*
X3969500Y-14515190D01*
X4131405Y-14429476D02*
X4150452Y-14429476D01*
X4169500Y-14439000D01*
X4179024Y-14448524D01*
X4188548Y-14467571D01*
X4198071Y-14505667D01*
X4198071Y-14553286D01*
X4188548Y-14591381D01*
X4179024Y-14610428D01*
X4169500Y-14619952D01*
X4150452Y-14629476D01*
X4131405Y-14629476D01*
X4112357Y-14619952D01*
X4102833Y-14610428D01*
X4093309Y-14591381D01*
X4083786Y-14553286D01*
X4083786Y-14505667D01*
X4093309Y-14467571D01*
X4102833Y-14448524D01*
X4112357Y-14439000D01*
X4131405Y-14429476D01*
X4321881Y-14429476D02*
X4340929Y-14429476D01*
X4359976Y-14439000D01*
X4369500Y-14448524D01*
X4379024Y-14467571D01*
X4388548Y-14505667D01*
X4388548Y-14553286D01*
X4379024Y-14591381D01*
X4369500Y-14610428D01*
X4359976Y-14619952D01*
X4340929Y-14629476D01*
X4321881Y-14629476D01*
X4302833Y-14619952D01*
X4293310Y-14610428D01*
X4283786Y-14591381D01*
X4274262Y-14553286D01*
X4274262Y-14505667D01*
X4283786Y-14467571D01*
X4293310Y-14448524D01*
X4302833Y-14439000D01*
X4321881Y-14429476D01*
X4474262Y-14629476D02*
X4474262Y-14496143D01*
X4474262Y-14515190D02*
X4483786Y-14505667D01*
X4502833Y-14496143D01*
X4531405Y-14496143D01*
X4550452Y-14505667D01*
X4559976Y-14524714D01*
X4559976Y-14629476D01*
X4559976Y-14524714D02*
X4569500Y-14505667D01*
X4588548Y-14496143D01*
X4617119Y-14496143D01*
X4636167Y-14505667D01*
X4645690Y-14524714D01*
X4645690Y-14629476D01*
X4740929Y-14629476D02*
X4740929Y-14496143D01*
X4740929Y-14515190D02*
X4750452Y-14505667D01*
X4769500Y-14496143D01*
X4798071Y-14496143D01*
X4817119Y-14505667D01*
X4826643Y-14524714D01*
X4826643Y-14629476D01*
X4826643Y-14524714D02*
X4836167Y-14505667D01*
X4855214Y-14496143D01*
X4883786Y-14496143D01*
X4902833Y-14505667D01*
X4912357Y-14524714D01*
X4912357Y-14629476D01*
X5302833Y-14419952D02*
X5131405Y-14677095D01*
X5559976Y-14429476D02*
X5579024Y-14429476D01*
X5598071Y-14439000D01*
X5607595Y-14448524D01*
X5617119Y-14467571D01*
X5626643Y-14505667D01*
X5626643Y-14553286D01*
X5617119Y-14591381D01*
X5607595Y-14610428D01*
X5598071Y-14619952D01*
X5579024Y-14629476D01*
X5559976Y-14629476D01*
X5540929Y-14619952D01*
X5531405Y-14610428D01*
X5521881Y-14591381D01*
X5512357Y-14553286D01*
X5512357Y-14505667D01*
X5521881Y-14467571D01*
X5531405Y-14448524D01*
X5540929Y-14439000D01*
X5559976Y-14429476D01*
X5712357Y-14610428D02*
X5721881Y-14619952D01*
X5712357Y-14629476D01*
X5702833Y-14619952D01*
X5712357Y-14610428D01*
X5712357Y-14629476D01*
X5845690Y-14429476D02*
X5864738Y-14429476D01*
X5883786Y-14439000D01*
X5893309Y-14448524D01*
X5902833Y-14467571D01*
X5912357Y-14505667D01*
X5912357Y-14553286D01*
X5902833Y-14591381D01*
X5893309Y-14610428D01*
X5883786Y-14619952D01*
X5864738Y-14629476D01*
X5845690Y-14629476D01*
X5826643Y-14619952D01*
X5817119Y-14610428D01*
X5807595Y-14591381D01*
X5798071Y-14553286D01*
X5798071Y-14505667D01*
X5807595Y-14467571D01*
X5817119Y-14448524D01*
X5826643Y-14439000D01*
X5845690Y-14429476D01*
X5979024Y-14429476D02*
X6102833Y-14429476D01*
X6036167Y-14505667D01*
X6064738Y-14505667D01*
X6083786Y-14515190D01*
X6093309Y-14524714D01*
X6102833Y-14543762D01*
X6102833Y-14591381D01*
X6093309Y-14610428D01*
X6083786Y-14619952D01*
X6064738Y-14629476D01*
X6007595Y-14629476D01*
X5988548Y-14619952D01*
X5979024Y-14610428D01*
X6293309Y-14629476D02*
X6179024Y-14629476D01*
X6236167Y-14629476D02*
X6236167Y-14429476D01*
X6217119Y-14458048D01*
X6198071Y-14477095D01*
X6179024Y-14486619D01*
X6474262Y-14429476D02*
X6379024Y-14429476D01*
X6369500Y-14524714D01*
X6379024Y-14515190D01*
X6398071Y-14505667D01*
X6445690Y-14505667D01*
X6464738Y-14515190D01*
X6474262Y-14524714D01*
X6483786Y-14543762D01*
X6483786Y-14591381D01*
X6474262Y-14610428D01*
X6464738Y-14619952D01*
X6445690Y-14629476D01*
X6398071Y-14629476D01*
X6379024Y-14619952D01*
X6369500Y-14610428D01*
X6559976Y-14429476D02*
X6559976Y-14467571D01*
X6636167Y-14429476D02*
X6636167Y-14467571D01*
X6931405Y-14705667D02*
X6921881Y-14696143D01*
X6902833Y-14667571D01*
X6893309Y-14648524D01*
X6883786Y-14619952D01*
X6874262Y-14572333D01*
X6874262Y-14534238D01*
X6883786Y-14486619D01*
X6893309Y-14458048D01*
X6902833Y-14439000D01*
X6921881Y-14410428D01*
X6931405Y-14400905D01*
X7112357Y-14629476D02*
X6998071Y-14629476D01*
X7055214Y-14629476D02*
X7055214Y-14429476D01*
X7036167Y-14458048D01*
X7017119Y-14477095D01*
X6998071Y-14486619D01*
X7283786Y-14496143D02*
X7283786Y-14629476D01*
X7236167Y-14419952D02*
X7188548Y-14562809D01*
X7312357Y-14562809D01*
X7540928Y-14629476D02*
X7540928Y-14429476D01*
X7626643Y-14629476D02*
X7626643Y-14524714D01*
X7617119Y-14505667D01*
X7598071Y-14496143D01*
X7569500Y-14496143D01*
X7550452Y-14505667D01*
X7540928Y-14515190D01*
X7750452Y-14629476D02*
X7731405Y-14619952D01*
X7721881Y-14610428D01*
X7712357Y-14591381D01*
X7712357Y-14534238D01*
X7721881Y-14515190D01*
X7731405Y-14505667D01*
X7750452Y-14496143D01*
X7779024Y-14496143D01*
X7798071Y-14505667D01*
X7807595Y-14515190D01*
X7817119Y-14534238D01*
X7817119Y-14591381D01*
X7807595Y-14610428D01*
X7798071Y-14619952D01*
X7779024Y-14629476D01*
X7750452Y-14629476D01*
X7931405Y-14629476D02*
X7912357Y-14619952D01*
X7902833Y-14600905D01*
X7902833Y-14429476D01*
X8083786Y-14619952D02*
X8064738Y-14629476D01*
X8026643Y-14629476D01*
X8007595Y-14619952D01*
X7998071Y-14600905D01*
X7998071Y-14524714D01*
X8007595Y-14505667D01*
X8026643Y-14496143D01*
X8064738Y-14496143D01*
X8083786Y-14505667D01*
X8093309Y-14524714D01*
X8093309Y-14543762D01*
X7998071Y-14562809D01*
X8169500Y-14619952D02*
X8188548Y-14629476D01*
X8226643Y-14629476D01*
X8245690Y-14619952D01*
X8255214Y-14600905D01*
X8255214Y-14591381D01*
X8245690Y-14572333D01*
X8226643Y-14562809D01*
X8198071Y-14562809D01*
X8179024Y-14553286D01*
X8169500Y-14534238D01*
X8169500Y-14524714D01*
X8179024Y-14505667D01*
X8198071Y-14496143D01*
X8226643Y-14496143D01*
X8245690Y-14505667D01*
X8321881Y-14705667D02*
X8331405Y-14696143D01*
X8350452Y-14667571D01*
X8359976Y-14648524D01*
X8369500Y-14619952D01*
X8379024Y-14572333D01*
X8379024Y-14534238D01*
X8369500Y-14486619D01*
X8359976Y-14458048D01*
X8350452Y-14439000D01*
X8331405Y-14410428D01*
X8321881Y-14400905D01*
D17*
X3278220Y-14762360D02*
X3359500Y-14843640D01*
X3359500Y-14762360D02*
X3278220Y-14843640D01*
X3318860Y-14762360D02*
X3318860Y-14843640D01*
X3278220Y-14803000D02*
X3359500Y-14803000D01*
D10*
X3655214Y-14693476D02*
X3674262Y-14693476D01*
X3693309Y-14703000D01*
X3702833Y-14712524D01*
X3712357Y-14731571D01*
X3721881Y-14769667D01*
X3721881Y-14817286D01*
X3712357Y-14855381D01*
X3702833Y-14874428D01*
X3693309Y-14883952D01*
X3674262Y-14893476D01*
X3655214Y-14893476D01*
X3636167Y-14883952D01*
X3626643Y-14874428D01*
X3617119Y-14855381D01*
X3607595Y-14817286D01*
X3607595Y-14769667D01*
X3617119Y-14731571D01*
X3626643Y-14712524D01*
X3636167Y-14703000D01*
X3655214Y-14693476D01*
X3807595Y-14874428D02*
X3817119Y-14883952D01*
X3807595Y-14893476D01*
X3798071Y-14883952D01*
X3807595Y-14874428D01*
X3807595Y-14893476D01*
X3931405Y-14779190D02*
X3912357Y-14769667D01*
X3902833Y-14760143D01*
X3893309Y-14741095D01*
X3893309Y-14731571D01*
X3902833Y-14712524D01*
X3912357Y-14703000D01*
X3931405Y-14693476D01*
X3969500Y-14693476D01*
X3988548Y-14703000D01*
X3998071Y-14712524D01*
X4007595Y-14731571D01*
X4007595Y-14741095D01*
X3998071Y-14760143D01*
X3988548Y-14769667D01*
X3969500Y-14779190D01*
X3931405Y-14779190D01*
X3912357Y-14788714D01*
X3902833Y-14798238D01*
X3893309Y-14817286D01*
X3893309Y-14855381D01*
X3902833Y-14874428D01*
X3912357Y-14883952D01*
X3931405Y-14893476D01*
X3969500Y-14893476D01*
X3988548Y-14883952D01*
X3998071Y-14874428D01*
X4007595Y-14855381D01*
X4007595Y-14817286D01*
X3998071Y-14798238D01*
X3988548Y-14788714D01*
X3969500Y-14779190D01*
X4198071Y-14893476D02*
X4083786Y-14893476D01*
X4140928Y-14893476D02*
X4140928Y-14693476D01*
X4121881Y-14722048D01*
X4102833Y-14741095D01*
X4083786Y-14750619D01*
X4264738Y-14693476D02*
X4388548Y-14693476D01*
X4321881Y-14769667D01*
X4350452Y-14769667D01*
X4369500Y-14779190D01*
X4379024Y-14788714D01*
X4388548Y-14807762D01*
X4388548Y-14855381D01*
X4379024Y-14874428D01*
X4369500Y-14883952D01*
X4350452Y-14893476D01*
X4293310Y-14893476D01*
X4274262Y-14883952D01*
X4264738Y-14874428D01*
X4474262Y-14893476D02*
X4474262Y-14760143D01*
X4474262Y-14779190D02*
X4483786Y-14769667D01*
X4502833Y-14760143D01*
X4531405Y-14760143D01*
X4550452Y-14769667D01*
X4559976Y-14788714D01*
X4559976Y-14893476D01*
X4559976Y-14788714D02*
X4569500Y-14769667D01*
X4588548Y-14760143D01*
X4617119Y-14760143D01*
X4636167Y-14769667D01*
X4645690Y-14788714D01*
X4645690Y-14893476D01*
X4740929Y-14893476D02*
X4740929Y-14760143D01*
X4740929Y-14779190D02*
X4750452Y-14769667D01*
X4769500Y-14760143D01*
X4798071Y-14760143D01*
X4817119Y-14769667D01*
X4826643Y-14788714D01*
X4826643Y-14893476D01*
X4826643Y-14788714D02*
X4836167Y-14769667D01*
X4855214Y-14760143D01*
X4883786Y-14760143D01*
X4902833Y-14769667D01*
X4912357Y-14788714D01*
X4912357Y-14893476D01*
X5302833Y-14683952D02*
X5131405Y-14941095D01*
X5559976Y-14693476D02*
X5579024Y-14693476D01*
X5598071Y-14703000D01*
X5607595Y-14712524D01*
X5617119Y-14731571D01*
X5626643Y-14769667D01*
X5626643Y-14817286D01*
X5617119Y-14855381D01*
X5607595Y-14874428D01*
X5598071Y-14883952D01*
X5579024Y-14893476D01*
X5559976Y-14893476D01*
X5540929Y-14883952D01*
X5531405Y-14874428D01*
X5521881Y-14855381D01*
X5512357Y-14817286D01*
X5512357Y-14769667D01*
X5521881Y-14731571D01*
X5531405Y-14712524D01*
X5540929Y-14703000D01*
X5559976Y-14693476D01*
X5712357Y-14874428D02*
X5721881Y-14883952D01*
X5712357Y-14893476D01*
X5702833Y-14883952D01*
X5712357Y-14874428D01*
X5712357Y-14893476D01*
X5845690Y-14693476D02*
X5864738Y-14693476D01*
X5883786Y-14703000D01*
X5893309Y-14712524D01*
X5902833Y-14731571D01*
X5912357Y-14769667D01*
X5912357Y-14817286D01*
X5902833Y-14855381D01*
X5893309Y-14874428D01*
X5883786Y-14883952D01*
X5864738Y-14893476D01*
X5845690Y-14893476D01*
X5826643Y-14883952D01*
X5817119Y-14874428D01*
X5807595Y-14855381D01*
X5798071Y-14817286D01*
X5798071Y-14769667D01*
X5807595Y-14731571D01*
X5817119Y-14712524D01*
X5826643Y-14703000D01*
X5845690Y-14693476D01*
X5979024Y-14693476D02*
X6102833Y-14693476D01*
X6036167Y-14769667D01*
X6064738Y-14769667D01*
X6083786Y-14779190D01*
X6093309Y-14788714D01*
X6102833Y-14807762D01*
X6102833Y-14855381D01*
X6093309Y-14874428D01*
X6083786Y-14883952D01*
X6064738Y-14893476D01*
X6007595Y-14893476D01*
X5988548Y-14883952D01*
X5979024Y-14874428D01*
X6179024Y-14712524D02*
X6188548Y-14703000D01*
X6207595Y-14693476D01*
X6255214Y-14693476D01*
X6274262Y-14703000D01*
X6283786Y-14712524D01*
X6293309Y-14731571D01*
X6293309Y-14750619D01*
X6283786Y-14779190D01*
X6169500Y-14893476D01*
X6293309Y-14893476D01*
X6417119Y-14693476D02*
X6436167Y-14693476D01*
X6455214Y-14703000D01*
X6464738Y-14712524D01*
X6474262Y-14731571D01*
X6483786Y-14769667D01*
X6483786Y-14817286D01*
X6474262Y-14855381D01*
X6464738Y-14874428D01*
X6455214Y-14883952D01*
X6436167Y-14893476D01*
X6417119Y-14893476D01*
X6398071Y-14883952D01*
X6388548Y-14874428D01*
X6379024Y-14855381D01*
X6369500Y-14817286D01*
X6369500Y-14769667D01*
X6379024Y-14731571D01*
X6388548Y-14712524D01*
X6398071Y-14703000D01*
X6417119Y-14693476D01*
X6559976Y-14693476D02*
X6559976Y-14731571D01*
X6636167Y-14693476D02*
X6636167Y-14731571D01*
X6931405Y-14969667D02*
X6921881Y-14960143D01*
X6902833Y-14931571D01*
X6893309Y-14912524D01*
X6883786Y-14883952D01*
X6874262Y-14836333D01*
X6874262Y-14798238D01*
X6883786Y-14750619D01*
X6893309Y-14722048D01*
X6902833Y-14703000D01*
X6921881Y-14674428D01*
X6931405Y-14664905D01*
X6998071Y-14712524D02*
X7007595Y-14703000D01*
X7026643Y-14693476D01*
X7074262Y-14693476D01*
X7093309Y-14703000D01*
X7102833Y-14712524D01*
X7112357Y-14731571D01*
X7112357Y-14750619D01*
X7102833Y-14779190D01*
X6988548Y-14893476D01*
X7112357Y-14893476D01*
X7350452Y-14893476D02*
X7350452Y-14693476D01*
X7436167Y-14893476D02*
X7436167Y-14788714D01*
X7426643Y-14769667D01*
X7407595Y-14760143D01*
X7379024Y-14760143D01*
X7359976Y-14769667D01*
X7350452Y-14779190D01*
X7559976Y-14893476D02*
X7540928Y-14883952D01*
X7531405Y-14874428D01*
X7521881Y-14855381D01*
X7521881Y-14798238D01*
X7531405Y-14779190D01*
X7540928Y-14769667D01*
X7559976Y-14760143D01*
X7588548Y-14760143D01*
X7607595Y-14769667D01*
X7617119Y-14779190D01*
X7626643Y-14798238D01*
X7626643Y-14855381D01*
X7617119Y-14874428D01*
X7607595Y-14883952D01*
X7588548Y-14893476D01*
X7559976Y-14893476D01*
X7740928Y-14893476D02*
X7721881Y-14883952D01*
X7712357Y-14864905D01*
X7712357Y-14693476D01*
X7893309Y-14883952D02*
X7874262Y-14893476D01*
X7836167Y-14893476D01*
X7817119Y-14883952D01*
X7807595Y-14864905D01*
X7807595Y-14788714D01*
X7817119Y-14769667D01*
X7836167Y-14760143D01*
X7874262Y-14760143D01*
X7893309Y-14769667D01*
X7902833Y-14788714D01*
X7902833Y-14807762D01*
X7807595Y-14826809D01*
X7979024Y-14883952D02*
X7998071Y-14893476D01*
X8036167Y-14893476D01*
X8055214Y-14883952D01*
X8064738Y-14864905D01*
X8064738Y-14855381D01*
X8055214Y-14836333D01*
X8036167Y-14826809D01*
X8007595Y-14826809D01*
X7988548Y-14817286D01*
X7979024Y-14798238D01*
X7979024Y-14788714D01*
X7988548Y-14769667D01*
X8007595Y-14760143D01*
X8036167Y-14760143D01*
X8055214Y-14769667D01*
X8131405Y-14969667D02*
X8140928Y-14960143D01*
X8159976Y-14931571D01*
X8169500Y-14912524D01*
X8179024Y-14883952D01*
X8188548Y-14836333D01*
X8188548Y-14798238D01*
X8179024Y-14750619D01*
X8169500Y-14722048D01*
X8159976Y-14703000D01*
X8140928Y-14674428D01*
X8131405Y-14664905D01*
D18*
X3259500Y-15017000D02*
X3359500Y-15117000D01*
X3359500Y-15017000D02*
X3259500Y-15117000D01*
X3344856Y-15102356D02*
X3344856Y-15031644D01*
X3274144Y-15031644D01*
X3274144Y-15102356D01*
X3344856Y-15102356D01*
D10*
X3721881Y-15157476D02*
X3607595Y-15157476D01*
X3664738Y-15157476D02*
X3664738Y-14957476D01*
X3645690Y-14986048D01*
X3626643Y-15005095D01*
X3607595Y-15014619D01*
X3807595Y-15138428D02*
X3817119Y-15147952D01*
X3807595Y-15157476D01*
X3798071Y-15147952D01*
X3807595Y-15138428D01*
X3807595Y-15157476D01*
X3940928Y-14957476D02*
X3959976Y-14957476D01*
X3979024Y-14967000D01*
X3988548Y-14976524D01*
X3998071Y-14995571D01*
X4007595Y-15033667D01*
X4007595Y-15081286D01*
X3998071Y-15119381D01*
X3988548Y-15138428D01*
X3979024Y-15147952D01*
X3959976Y-15157476D01*
X3940928Y-15157476D01*
X3921881Y-15147952D01*
X3912357Y-15138428D01*
X3902833Y-15119381D01*
X3893309Y-15081286D01*
X3893309Y-15033667D01*
X3902833Y-14995571D01*
X3912357Y-14976524D01*
X3921881Y-14967000D01*
X3940928Y-14957476D01*
X4131405Y-14957476D02*
X4150452Y-14957476D01*
X4169500Y-14967000D01*
X4179024Y-14976524D01*
X4188548Y-14995571D01*
X4198071Y-15033667D01*
X4198071Y-15081286D01*
X4188548Y-15119381D01*
X4179024Y-15138428D01*
X4169500Y-15147952D01*
X4150452Y-15157476D01*
X4131405Y-15157476D01*
X4112357Y-15147952D01*
X4102833Y-15138428D01*
X4093309Y-15119381D01*
X4083786Y-15081286D01*
X4083786Y-15033667D01*
X4093309Y-14995571D01*
X4102833Y-14976524D01*
X4112357Y-14967000D01*
X4131405Y-14957476D01*
X4321881Y-14957476D02*
X4340929Y-14957476D01*
X4359976Y-14967000D01*
X4369500Y-14976524D01*
X4379024Y-14995571D01*
X4388548Y-15033667D01*
X4388548Y-15081286D01*
X4379024Y-15119381D01*
X4369500Y-15138428D01*
X4359976Y-15147952D01*
X4340929Y-15157476D01*
X4321881Y-15157476D01*
X4302833Y-15147952D01*
X4293310Y-15138428D01*
X4283786Y-15119381D01*
X4274262Y-15081286D01*
X4274262Y-15033667D01*
X4283786Y-14995571D01*
X4293310Y-14976524D01*
X4302833Y-14967000D01*
X4321881Y-14957476D01*
X4474262Y-15157476D02*
X4474262Y-15024143D01*
X4474262Y-15043190D02*
X4483786Y-15033667D01*
X4502833Y-15024143D01*
X4531405Y-15024143D01*
X4550452Y-15033667D01*
X4559976Y-15052714D01*
X4559976Y-15157476D01*
X4559976Y-15052714D02*
X4569500Y-15033667D01*
X4588548Y-15024143D01*
X4617119Y-15024143D01*
X4636167Y-15033667D01*
X4645690Y-15052714D01*
X4645690Y-15157476D01*
X4740929Y-15157476D02*
X4740929Y-15024143D01*
X4740929Y-15043190D02*
X4750452Y-15033667D01*
X4769500Y-15024143D01*
X4798071Y-15024143D01*
X4817119Y-15033667D01*
X4826643Y-15052714D01*
X4826643Y-15157476D01*
X4826643Y-15052714D02*
X4836167Y-15033667D01*
X4855214Y-15024143D01*
X4883786Y-15024143D01*
X4902833Y-15033667D01*
X4912357Y-15052714D01*
X4912357Y-15157476D01*
X5302833Y-14947952D02*
X5131405Y-15205095D01*
X5559976Y-14957476D02*
X5579024Y-14957476D01*
X5598071Y-14967000D01*
X5607595Y-14976524D01*
X5617119Y-14995571D01*
X5626643Y-15033667D01*
X5626643Y-15081286D01*
X5617119Y-15119381D01*
X5607595Y-15138428D01*
X5598071Y-15147952D01*
X5579024Y-15157476D01*
X5559976Y-15157476D01*
X5540929Y-15147952D01*
X5531405Y-15138428D01*
X5521881Y-15119381D01*
X5512357Y-15081286D01*
X5512357Y-15033667D01*
X5521881Y-14995571D01*
X5531405Y-14976524D01*
X5540929Y-14967000D01*
X5559976Y-14957476D01*
X5712357Y-15138428D02*
X5721881Y-15147952D01*
X5712357Y-15157476D01*
X5702833Y-15147952D01*
X5712357Y-15138428D01*
X5712357Y-15157476D01*
X5845690Y-14957476D02*
X5864738Y-14957476D01*
X5883786Y-14967000D01*
X5893309Y-14976524D01*
X5902833Y-14995571D01*
X5912357Y-15033667D01*
X5912357Y-15081286D01*
X5902833Y-15119381D01*
X5893309Y-15138428D01*
X5883786Y-15147952D01*
X5864738Y-15157476D01*
X5845690Y-15157476D01*
X5826643Y-15147952D01*
X5817119Y-15138428D01*
X5807595Y-15119381D01*
X5798071Y-15081286D01*
X5798071Y-15033667D01*
X5807595Y-14995571D01*
X5817119Y-14976524D01*
X5826643Y-14967000D01*
X5845690Y-14957476D01*
X5979024Y-14957476D02*
X6102833Y-14957476D01*
X6036167Y-15033667D01*
X6064738Y-15033667D01*
X6083786Y-15043190D01*
X6093309Y-15052714D01*
X6102833Y-15071762D01*
X6102833Y-15119381D01*
X6093309Y-15138428D01*
X6083786Y-15147952D01*
X6064738Y-15157476D01*
X6007595Y-15157476D01*
X5988548Y-15147952D01*
X5979024Y-15138428D01*
X6198071Y-15157476D02*
X6236167Y-15157476D01*
X6255214Y-15147952D01*
X6264738Y-15138428D01*
X6283786Y-15109857D01*
X6293309Y-15071762D01*
X6293309Y-14995571D01*
X6283786Y-14976524D01*
X6274262Y-14967000D01*
X6255214Y-14957476D01*
X6217119Y-14957476D01*
X6198071Y-14967000D01*
X6188548Y-14976524D01*
X6179024Y-14995571D01*
X6179024Y-15043190D01*
X6188548Y-15062238D01*
X6198071Y-15071762D01*
X6217119Y-15081286D01*
X6255214Y-15081286D01*
X6274262Y-15071762D01*
X6283786Y-15062238D01*
X6293309Y-15043190D01*
X6464738Y-15024143D02*
X6464738Y-15157476D01*
X6417119Y-14947952D02*
X6369500Y-15090809D01*
X6493309Y-15090809D01*
X6559976Y-14957476D02*
X6559976Y-14995571D01*
X6636167Y-14957476D02*
X6636167Y-14995571D01*
X6931405Y-15233667D02*
X6921881Y-15224143D01*
X6902833Y-15195571D01*
X6893309Y-15176524D01*
X6883786Y-15147952D01*
X6874262Y-15100333D01*
X6874262Y-15062238D01*
X6883786Y-15014619D01*
X6893309Y-14986048D01*
X6902833Y-14967000D01*
X6921881Y-14938428D01*
X6931405Y-14928905D01*
X7112357Y-15157476D02*
X6998071Y-15157476D01*
X7055214Y-15157476D02*
X7055214Y-14957476D01*
X7036167Y-14986048D01*
X7017119Y-15005095D01*
X6998071Y-15014619D01*
X7293309Y-14957476D02*
X7198071Y-14957476D01*
X7188548Y-15052714D01*
X7198071Y-15043190D01*
X7217119Y-15033667D01*
X7264738Y-15033667D01*
X7283786Y-15043190D01*
X7293309Y-15052714D01*
X7302833Y-15071762D01*
X7302833Y-15119381D01*
X7293309Y-15138428D01*
X7283786Y-15147952D01*
X7264738Y-15157476D01*
X7217119Y-15157476D01*
X7198071Y-15147952D01*
X7188548Y-15138428D01*
X7540928Y-15157476D02*
X7540928Y-14957476D01*
X7626643Y-15157476D02*
X7626643Y-15052714D01*
X7617119Y-15033667D01*
X7598071Y-15024143D01*
X7569500Y-15024143D01*
X7550452Y-15033667D01*
X7540928Y-15043190D01*
X7750452Y-15157476D02*
X7731405Y-15147952D01*
X7721881Y-15138428D01*
X7712357Y-15119381D01*
X7712357Y-15062238D01*
X7721881Y-15043190D01*
X7731405Y-15033667D01*
X7750452Y-15024143D01*
X7779024Y-15024143D01*
X7798071Y-15033667D01*
X7807595Y-15043190D01*
X7817119Y-15062238D01*
X7817119Y-15119381D01*
X7807595Y-15138428D01*
X7798071Y-15147952D01*
X7779024Y-15157476D01*
X7750452Y-15157476D01*
X7931405Y-15157476D02*
X7912357Y-15147952D01*
X7902833Y-15128905D01*
X7902833Y-14957476D01*
X8083786Y-15147952D02*
X8064738Y-15157476D01*
X8026643Y-15157476D01*
X8007595Y-15147952D01*
X7998071Y-15128905D01*
X7998071Y-15052714D01*
X8007595Y-15033667D01*
X8026643Y-15024143D01*
X8064738Y-15024143D01*
X8083786Y-15033667D01*
X8093309Y-15052714D01*
X8093309Y-15071762D01*
X7998071Y-15090809D01*
X8169500Y-15147952D02*
X8188548Y-15157476D01*
X8226643Y-15157476D01*
X8245690Y-15147952D01*
X8255214Y-15128905D01*
X8255214Y-15119381D01*
X8245690Y-15100333D01*
X8226643Y-15090809D01*
X8198071Y-15090809D01*
X8179024Y-15081286D01*
X8169500Y-15062238D01*
X8169500Y-15052714D01*
X8179024Y-15033667D01*
X8198071Y-15024143D01*
X8226643Y-15024143D01*
X8245690Y-15033667D01*
X8321881Y-15233667D02*
X8331405Y-15224143D01*
X8350452Y-15195571D01*
X8359976Y-15176524D01*
X8369500Y-15147952D01*
X8379024Y-15100333D01*
X8379024Y-15062238D01*
X8369500Y-15014619D01*
X8359976Y-14986048D01*
X8350452Y-14967000D01*
X8331405Y-14938428D01*
X8321881Y-14928905D01*
D19*
X3249500Y-15276000D02*
X3359500Y-15386000D01*
X3359500Y-15276000D02*
X3249500Y-15386000D01*
X3304500Y-15386000D02*
X3359500Y-15331000D01*
X3304500Y-15276000D01*
X3249500Y-15331000D01*
X3304500Y-15386000D01*
D10*
X3721881Y-15421476D02*
X3607595Y-15421476D01*
X3664738Y-15421476D02*
X3664738Y-15221476D01*
X3645690Y-15250048D01*
X3626643Y-15269095D01*
X3607595Y-15278619D01*
X3807595Y-15402428D02*
X3817119Y-15411952D01*
X3807595Y-15421476D01*
X3798071Y-15411952D01*
X3807595Y-15402428D01*
X3807595Y-15421476D01*
X4007595Y-15421476D02*
X3893309Y-15421476D01*
X3950452Y-15421476D02*
X3950452Y-15221476D01*
X3931405Y-15250048D01*
X3912357Y-15269095D01*
X3893309Y-15278619D01*
X4131405Y-15221476D02*
X4150452Y-15221476D01*
X4169500Y-15231000D01*
X4179024Y-15240524D01*
X4188548Y-15259571D01*
X4198071Y-15297667D01*
X4198071Y-15345286D01*
X4188548Y-15383381D01*
X4179024Y-15402428D01*
X4169500Y-15411952D01*
X4150452Y-15421476D01*
X4131405Y-15421476D01*
X4112357Y-15411952D01*
X4102833Y-15402428D01*
X4093309Y-15383381D01*
X4083786Y-15345286D01*
X4083786Y-15297667D01*
X4093309Y-15259571D01*
X4102833Y-15240524D01*
X4112357Y-15231000D01*
X4131405Y-15221476D01*
X4321881Y-15221476D02*
X4340929Y-15221476D01*
X4359976Y-15231000D01*
X4369500Y-15240524D01*
X4379024Y-15259571D01*
X4388548Y-15297667D01*
X4388548Y-15345286D01*
X4379024Y-15383381D01*
X4369500Y-15402428D01*
X4359976Y-15411952D01*
X4340929Y-15421476D01*
X4321881Y-15421476D01*
X4302833Y-15411952D01*
X4293310Y-15402428D01*
X4283786Y-15383381D01*
X4274262Y-15345286D01*
X4274262Y-15297667D01*
X4283786Y-15259571D01*
X4293310Y-15240524D01*
X4302833Y-15231000D01*
X4321881Y-15221476D01*
X4474262Y-15421476D02*
X4474262Y-15288143D01*
X4474262Y-15307190D02*
X4483786Y-15297667D01*
X4502833Y-15288143D01*
X4531405Y-15288143D01*
X4550452Y-15297667D01*
X4559976Y-15316714D01*
X4559976Y-15421476D01*
X4559976Y-15316714D02*
X4569500Y-15297667D01*
X4588548Y-15288143D01*
X4617119Y-15288143D01*
X4636167Y-15297667D01*
X4645690Y-15316714D01*
X4645690Y-15421476D01*
X4740929Y-15421476D02*
X4740929Y-15288143D01*
X4740929Y-15307190D02*
X4750452Y-15297667D01*
X4769500Y-15288143D01*
X4798071Y-15288143D01*
X4817119Y-15297667D01*
X4826643Y-15316714D01*
X4826643Y-15421476D01*
X4826643Y-15316714D02*
X4836167Y-15297667D01*
X4855214Y-15288143D01*
X4883786Y-15288143D01*
X4902833Y-15297667D01*
X4912357Y-15316714D01*
X4912357Y-15421476D01*
X5302833Y-15211952D02*
X5131405Y-15469095D01*
X5559976Y-15221476D02*
X5579024Y-15221476D01*
X5598071Y-15231000D01*
X5607595Y-15240524D01*
X5617119Y-15259571D01*
X5626643Y-15297667D01*
X5626643Y-15345286D01*
X5617119Y-15383381D01*
X5607595Y-15402428D01*
X5598071Y-15411952D01*
X5579024Y-15421476D01*
X5559976Y-15421476D01*
X5540929Y-15411952D01*
X5531405Y-15402428D01*
X5521881Y-15383381D01*
X5512357Y-15345286D01*
X5512357Y-15297667D01*
X5521881Y-15259571D01*
X5531405Y-15240524D01*
X5540929Y-15231000D01*
X5559976Y-15221476D01*
X5712357Y-15402428D02*
X5721881Y-15411952D01*
X5712357Y-15421476D01*
X5702833Y-15411952D01*
X5712357Y-15402428D01*
X5712357Y-15421476D01*
X5845690Y-15221476D02*
X5864738Y-15221476D01*
X5883786Y-15231000D01*
X5893309Y-15240524D01*
X5902833Y-15259571D01*
X5912357Y-15297667D01*
X5912357Y-15345286D01*
X5902833Y-15383381D01*
X5893309Y-15402428D01*
X5883786Y-15411952D01*
X5864738Y-15421476D01*
X5845690Y-15421476D01*
X5826643Y-15411952D01*
X5817119Y-15402428D01*
X5807595Y-15383381D01*
X5798071Y-15345286D01*
X5798071Y-15297667D01*
X5807595Y-15259571D01*
X5817119Y-15240524D01*
X5826643Y-15231000D01*
X5845690Y-15221476D01*
X6083786Y-15288143D02*
X6083786Y-15421476D01*
X6036167Y-15211952D02*
X5988548Y-15354809D01*
X6112357Y-15354809D01*
X6169500Y-15221476D02*
X6293309Y-15221476D01*
X6226643Y-15297667D01*
X6255214Y-15297667D01*
X6274262Y-15307190D01*
X6283786Y-15316714D01*
X6293309Y-15335762D01*
X6293309Y-15383381D01*
X6283786Y-15402428D01*
X6274262Y-15411952D01*
X6255214Y-15421476D01*
X6198071Y-15421476D01*
X6179024Y-15411952D01*
X6169500Y-15402428D01*
X6359976Y-15221476D02*
X6483786Y-15221476D01*
X6417119Y-15297667D01*
X6445690Y-15297667D01*
X6464738Y-15307190D01*
X6474262Y-15316714D01*
X6483786Y-15335762D01*
X6483786Y-15383381D01*
X6474262Y-15402428D01*
X6464738Y-15411952D01*
X6445690Y-15421476D01*
X6388548Y-15421476D01*
X6369500Y-15411952D01*
X6359976Y-15402428D01*
X6559976Y-15221476D02*
X6559976Y-15259571D01*
X6636167Y-15221476D02*
X6636167Y-15259571D01*
X6931405Y-15497667D02*
X6921881Y-15488143D01*
X6902833Y-15459571D01*
X6893309Y-15440524D01*
X6883786Y-15411952D01*
X6874262Y-15364333D01*
X6874262Y-15326238D01*
X6883786Y-15278619D01*
X6893309Y-15250048D01*
X6902833Y-15231000D01*
X6921881Y-15202428D01*
X6931405Y-15192905D01*
X7112357Y-15421476D02*
X6998071Y-15421476D01*
X7055214Y-15421476D02*
X7055214Y-15221476D01*
X7036167Y-15250048D01*
X7017119Y-15269095D01*
X6998071Y-15278619D01*
X7226643Y-15307190D02*
X7207595Y-15297667D01*
X7198071Y-15288143D01*
X7188548Y-15269095D01*
X7188548Y-15259571D01*
X7198071Y-15240524D01*
X7207595Y-15231000D01*
X7226643Y-15221476D01*
X7264738Y-15221476D01*
X7283786Y-15231000D01*
X7293309Y-15240524D01*
X7302833Y-15259571D01*
X7302833Y-15269095D01*
X7293309Y-15288143D01*
X7283786Y-15297667D01*
X7264738Y-15307190D01*
X7226643Y-15307190D01*
X7207595Y-15316714D01*
X7198071Y-15326238D01*
X7188548Y-15345286D01*
X7188548Y-15383381D01*
X7198071Y-15402428D01*
X7207595Y-15411952D01*
X7226643Y-15421476D01*
X7264738Y-15421476D01*
X7283786Y-15411952D01*
X7293309Y-15402428D01*
X7302833Y-15383381D01*
X7302833Y-15345286D01*
X7293309Y-15326238D01*
X7283786Y-15316714D01*
X7264738Y-15307190D01*
X7540928Y-15421476D02*
X7540928Y-15221476D01*
X7626643Y-15421476D02*
X7626643Y-15316714D01*
X7617119Y-15297667D01*
X7598071Y-15288143D01*
X7569500Y-15288143D01*
X7550452Y-15297667D01*
X7540928Y-15307190D01*
X7750452Y-15421476D02*
X7731405Y-15411952D01*
X7721881Y-15402428D01*
X7712357Y-15383381D01*
X7712357Y-15326238D01*
X7721881Y-15307190D01*
X7731405Y-15297667D01*
X7750452Y-15288143D01*
X7779024Y-15288143D01*
X7798071Y-15297667D01*
X7807595Y-15307190D01*
X7817119Y-15326238D01*
X7817119Y-15383381D01*
X7807595Y-15402428D01*
X7798071Y-15411952D01*
X7779024Y-15421476D01*
X7750452Y-15421476D01*
X7931405Y-15421476D02*
X7912357Y-15411952D01*
X7902833Y-15392905D01*
X7902833Y-15221476D01*
X8083786Y-15411952D02*
X8064738Y-15421476D01*
X8026643Y-15421476D01*
X8007595Y-15411952D01*
X7998071Y-15392905D01*
X7998071Y-15316714D01*
X8007595Y-15297667D01*
X8026643Y-15288143D01*
X8064738Y-15288143D01*
X8083786Y-15297667D01*
X8093309Y-15316714D01*
X8093309Y-15335762D01*
X7998071Y-15354809D01*
X8169500Y-15411952D02*
X8188548Y-15421476D01*
X8226643Y-15421476D01*
X8245690Y-15411952D01*
X8255214Y-15392905D01*
X8255214Y-15383381D01*
X8245690Y-15364333D01*
X8226643Y-15354809D01*
X8198071Y-15354809D01*
X8179024Y-15345286D01*
X8169500Y-15326238D01*
X8169500Y-15316714D01*
X8179024Y-15297667D01*
X8198071Y-15288143D01*
X8226643Y-15288143D01*
X8245690Y-15297667D01*
X8321881Y-15497667D02*
X8331405Y-15488143D01*
X8350452Y-15459571D01*
X8359976Y-15440524D01*
X8369500Y-15411952D01*
X8379024Y-15364333D01*
X8379024Y-15326238D01*
X8369500Y-15278619D01*
X8359976Y-15250048D01*
X8350452Y-15231000D01*
X8331405Y-15202428D01*
X8321881Y-15192905D01*
D20*
X3299500Y-15535000D02*
X3299500Y-15655000D01*
X3239500Y-15595000D02*
X3359500Y-15595000D01*
X3359500Y-15595000D02*
G75*
G03*
X3359500Y-15595000I-60000J0D01*
G01*
D10*
X3721881Y-15685476D02*
X3607595Y-15685476D01*
X3664738Y-15685476D02*
X3664738Y-15485476D01*
X3645690Y-15514048D01*
X3626643Y-15533095D01*
X3607595Y-15542619D01*
X3807595Y-15666428D02*
X3817119Y-15675952D01*
X3807595Y-15685476D01*
X3798071Y-15675952D01*
X3807595Y-15666428D01*
X3807595Y-15685476D01*
X3893309Y-15504524D02*
X3902833Y-15495000D01*
X3921881Y-15485476D01*
X3969500Y-15485476D01*
X3988548Y-15495000D01*
X3998071Y-15504524D01*
X4007595Y-15523571D01*
X4007595Y-15542619D01*
X3998071Y-15571190D01*
X3883786Y-15685476D01*
X4007595Y-15685476D01*
X4131405Y-15485476D02*
X4150452Y-15485476D01*
X4169500Y-15495000D01*
X4179024Y-15504524D01*
X4188548Y-15523571D01*
X4198071Y-15561667D01*
X4198071Y-15609286D01*
X4188548Y-15647381D01*
X4179024Y-15666428D01*
X4169500Y-15675952D01*
X4150452Y-15685476D01*
X4131405Y-15685476D01*
X4112357Y-15675952D01*
X4102833Y-15666428D01*
X4093309Y-15647381D01*
X4083786Y-15609286D01*
X4083786Y-15561667D01*
X4093309Y-15523571D01*
X4102833Y-15504524D01*
X4112357Y-15495000D01*
X4131405Y-15485476D01*
X4321881Y-15485476D02*
X4340929Y-15485476D01*
X4359976Y-15495000D01*
X4369500Y-15504524D01*
X4379024Y-15523571D01*
X4388548Y-15561667D01*
X4388548Y-15609286D01*
X4379024Y-15647381D01*
X4369500Y-15666428D01*
X4359976Y-15675952D01*
X4340929Y-15685476D01*
X4321881Y-15685476D01*
X4302833Y-15675952D01*
X4293310Y-15666428D01*
X4283786Y-15647381D01*
X4274262Y-15609286D01*
X4274262Y-15561667D01*
X4283786Y-15523571D01*
X4293310Y-15504524D01*
X4302833Y-15495000D01*
X4321881Y-15485476D01*
X4474262Y-15685476D02*
X4474262Y-15552143D01*
X4474262Y-15571190D02*
X4483786Y-15561667D01*
X4502833Y-15552143D01*
X4531405Y-15552143D01*
X4550452Y-15561667D01*
X4559976Y-15580714D01*
X4559976Y-15685476D01*
X4559976Y-15580714D02*
X4569500Y-15561667D01*
X4588548Y-15552143D01*
X4617119Y-15552143D01*
X4636167Y-15561667D01*
X4645690Y-15580714D01*
X4645690Y-15685476D01*
X4740929Y-15685476D02*
X4740929Y-15552143D01*
X4740929Y-15571190D02*
X4750452Y-15561667D01*
X4769500Y-15552143D01*
X4798071Y-15552143D01*
X4817119Y-15561667D01*
X4826643Y-15580714D01*
X4826643Y-15685476D01*
X4826643Y-15580714D02*
X4836167Y-15561667D01*
X4855214Y-15552143D01*
X4883786Y-15552143D01*
X4902833Y-15561667D01*
X4912357Y-15580714D01*
X4912357Y-15685476D01*
X5302833Y-15475952D02*
X5131405Y-15733095D01*
X5559976Y-15485476D02*
X5579024Y-15485476D01*
X5598071Y-15495000D01*
X5607595Y-15504524D01*
X5617119Y-15523571D01*
X5626643Y-15561667D01*
X5626643Y-15609286D01*
X5617119Y-15647381D01*
X5607595Y-15666428D01*
X5598071Y-15675952D01*
X5579024Y-15685476D01*
X5559976Y-15685476D01*
X5540929Y-15675952D01*
X5531405Y-15666428D01*
X5521881Y-15647381D01*
X5512357Y-15609286D01*
X5512357Y-15561667D01*
X5521881Y-15523571D01*
X5531405Y-15504524D01*
X5540929Y-15495000D01*
X5559976Y-15485476D01*
X5712357Y-15666428D02*
X5721881Y-15675952D01*
X5712357Y-15685476D01*
X5702833Y-15675952D01*
X5712357Y-15666428D01*
X5712357Y-15685476D01*
X5845690Y-15485476D02*
X5864738Y-15485476D01*
X5883786Y-15495000D01*
X5893309Y-15504524D01*
X5902833Y-15523571D01*
X5912357Y-15561667D01*
X5912357Y-15609286D01*
X5902833Y-15647381D01*
X5893309Y-15666428D01*
X5883786Y-15675952D01*
X5864738Y-15685476D01*
X5845690Y-15685476D01*
X5826643Y-15675952D01*
X5817119Y-15666428D01*
X5807595Y-15647381D01*
X5798071Y-15609286D01*
X5798071Y-15561667D01*
X5807595Y-15523571D01*
X5817119Y-15504524D01*
X5826643Y-15495000D01*
X5845690Y-15485476D01*
X6083786Y-15552143D02*
X6083786Y-15685476D01*
X6036167Y-15475952D02*
X5988548Y-15618809D01*
X6112357Y-15618809D01*
X6169500Y-15485476D02*
X6302833Y-15485476D01*
X6217119Y-15685476D01*
X6369500Y-15504524D02*
X6379024Y-15495000D01*
X6398071Y-15485476D01*
X6445690Y-15485476D01*
X6464738Y-15495000D01*
X6474262Y-15504524D01*
X6483786Y-15523571D01*
X6483786Y-15542619D01*
X6474262Y-15571190D01*
X6359976Y-15685476D01*
X6483786Y-15685476D01*
X6559976Y-15485476D02*
X6559976Y-15523571D01*
X6636167Y-15485476D02*
X6636167Y-15523571D01*
X6931405Y-15761667D02*
X6921881Y-15752143D01*
X6902833Y-15723571D01*
X6893309Y-15704524D01*
X6883786Y-15675952D01*
X6874262Y-15628333D01*
X6874262Y-15590238D01*
X6883786Y-15542619D01*
X6893309Y-15514048D01*
X6902833Y-15495000D01*
X6921881Y-15466428D01*
X6931405Y-15456905D01*
X6998071Y-15504524D02*
X7007595Y-15495000D01*
X7026643Y-15485476D01*
X7074262Y-15485476D01*
X7093309Y-15495000D01*
X7102833Y-15504524D01*
X7112357Y-15523571D01*
X7112357Y-15542619D01*
X7102833Y-15571190D01*
X6988548Y-15685476D01*
X7112357Y-15685476D01*
X7350452Y-15685476D02*
X7350452Y-15485476D01*
X7436167Y-15685476D02*
X7436167Y-15580714D01*
X7426643Y-15561667D01*
X7407595Y-15552143D01*
X7379024Y-15552143D01*
X7359976Y-15561667D01*
X7350452Y-15571190D01*
X7559976Y-15685476D02*
X7540928Y-15675952D01*
X7531405Y-15666428D01*
X7521881Y-15647381D01*
X7521881Y-15590238D01*
X7531405Y-15571190D01*
X7540928Y-15561667D01*
X7559976Y-15552143D01*
X7588548Y-15552143D01*
X7607595Y-15561667D01*
X7617119Y-15571190D01*
X7626643Y-15590238D01*
X7626643Y-15647381D01*
X7617119Y-15666428D01*
X7607595Y-15675952D01*
X7588548Y-15685476D01*
X7559976Y-15685476D01*
X7740928Y-15685476D02*
X7721881Y-15675952D01*
X7712357Y-15656905D01*
X7712357Y-15485476D01*
X7893309Y-15675952D02*
X7874262Y-15685476D01*
X7836167Y-15685476D01*
X7817119Y-15675952D01*
X7807595Y-15656905D01*
X7807595Y-15580714D01*
X7817119Y-15561667D01*
X7836167Y-15552143D01*
X7874262Y-15552143D01*
X7893309Y-15561667D01*
X7902833Y-15580714D01*
X7902833Y-15599762D01*
X7807595Y-15618809D01*
X7979024Y-15675952D02*
X7998071Y-15685476D01*
X8036167Y-15685476D01*
X8055214Y-15675952D01*
X8064738Y-15656905D01*
X8064738Y-15647381D01*
X8055214Y-15628333D01*
X8036167Y-15618809D01*
X8007595Y-15618809D01*
X7988548Y-15609286D01*
X7979024Y-15590238D01*
X7979024Y-15580714D01*
X7988548Y-15561667D01*
X8007595Y-15552143D01*
X8036167Y-15552143D01*
X8055214Y-15561667D01*
X8131405Y-15761667D02*
X8140928Y-15752143D01*
X8159976Y-15723571D01*
X8169500Y-15704524D01*
X8179024Y-15675952D01*
X8188548Y-15628333D01*
X8188548Y-15590238D01*
X8179024Y-15542619D01*
X8169500Y-15514048D01*
X8159976Y-15495000D01*
X8140928Y-15466428D01*
X8131405Y-15456905D01*
X3330211Y-15929711D02*
X3330211Y-15788289D01*
X3188789Y-15788289D01*
X3188789Y-15929711D01*
X3330211Y-15929711D01*
X3359500Y-15859000D02*
G75*
G03*
X3359500Y-15859000I-100000J0D01*
G01*
X3607595Y-15768524D02*
X3617119Y-15759000D01*
X3636167Y-15749476D01*
X3683786Y-15749476D01*
X3702833Y-15759000D01*
X3712357Y-15768524D01*
X3721881Y-15787571D01*
X3721881Y-15806619D01*
X3712357Y-15835190D01*
X3598071Y-15949476D01*
X3721881Y-15949476D01*
X3807595Y-15930428D02*
X3817119Y-15939952D01*
X3807595Y-15949476D01*
X3798071Y-15939952D01*
X3807595Y-15930428D01*
X3807595Y-15949476D01*
X3893309Y-15768524D02*
X3902833Y-15759000D01*
X3921881Y-15749476D01*
X3969500Y-15749476D01*
X3988548Y-15759000D01*
X3998071Y-15768524D01*
X4007595Y-15787571D01*
X4007595Y-15806619D01*
X3998071Y-15835190D01*
X3883786Y-15949476D01*
X4007595Y-15949476D01*
X4131405Y-15749476D02*
X4150452Y-15749476D01*
X4169500Y-15759000D01*
X4179024Y-15768524D01*
X4188548Y-15787571D01*
X4198071Y-15825667D01*
X4198071Y-15873286D01*
X4188548Y-15911381D01*
X4179024Y-15930428D01*
X4169500Y-15939952D01*
X4150452Y-15949476D01*
X4131405Y-15949476D01*
X4112357Y-15939952D01*
X4102833Y-15930428D01*
X4093309Y-15911381D01*
X4083786Y-15873286D01*
X4083786Y-15825667D01*
X4093309Y-15787571D01*
X4102833Y-15768524D01*
X4112357Y-15759000D01*
X4131405Y-15749476D01*
X4321881Y-15749476D02*
X4340929Y-15749476D01*
X4359976Y-15759000D01*
X4369500Y-15768524D01*
X4379024Y-15787571D01*
X4388548Y-15825667D01*
X4388548Y-15873286D01*
X4379024Y-15911381D01*
X4369500Y-15930428D01*
X4359976Y-15939952D01*
X4340929Y-15949476D01*
X4321881Y-15949476D01*
X4302833Y-15939952D01*
X4293310Y-15930428D01*
X4283786Y-15911381D01*
X4274262Y-15873286D01*
X4274262Y-15825667D01*
X4283786Y-15787571D01*
X4293310Y-15768524D01*
X4302833Y-15759000D01*
X4321881Y-15749476D01*
X4474262Y-15949476D02*
X4474262Y-15816143D01*
X4474262Y-15835190D02*
X4483786Y-15825667D01*
X4502833Y-15816143D01*
X4531405Y-15816143D01*
X4550452Y-15825667D01*
X4559976Y-15844714D01*
X4559976Y-15949476D01*
X4559976Y-15844714D02*
X4569500Y-15825667D01*
X4588548Y-15816143D01*
X4617119Y-15816143D01*
X4636167Y-15825667D01*
X4645690Y-15844714D01*
X4645690Y-15949476D01*
X4740929Y-15949476D02*
X4740929Y-15816143D01*
X4740929Y-15835190D02*
X4750452Y-15825667D01*
X4769500Y-15816143D01*
X4798071Y-15816143D01*
X4817119Y-15825667D01*
X4826643Y-15844714D01*
X4826643Y-15949476D01*
X4826643Y-15844714D02*
X4836167Y-15825667D01*
X4855214Y-15816143D01*
X4883786Y-15816143D01*
X4902833Y-15825667D01*
X4912357Y-15844714D01*
X4912357Y-15949476D01*
X5302833Y-15739952D02*
X5131405Y-15997095D01*
X5559976Y-15749476D02*
X5579024Y-15749476D01*
X5598071Y-15759000D01*
X5607595Y-15768524D01*
X5617119Y-15787571D01*
X5626643Y-15825667D01*
X5626643Y-15873286D01*
X5617119Y-15911381D01*
X5607595Y-15930428D01*
X5598071Y-15939952D01*
X5579024Y-15949476D01*
X5559976Y-15949476D01*
X5540929Y-15939952D01*
X5531405Y-15930428D01*
X5521881Y-15911381D01*
X5512357Y-15873286D01*
X5512357Y-15825667D01*
X5521881Y-15787571D01*
X5531405Y-15768524D01*
X5540929Y-15759000D01*
X5559976Y-15749476D01*
X5712357Y-15930428D02*
X5721881Y-15939952D01*
X5712357Y-15949476D01*
X5702833Y-15939952D01*
X5712357Y-15930428D01*
X5712357Y-15949476D01*
X5845690Y-15749476D02*
X5864738Y-15749476D01*
X5883786Y-15759000D01*
X5893309Y-15768524D01*
X5902833Y-15787571D01*
X5912357Y-15825667D01*
X5912357Y-15873286D01*
X5902833Y-15911381D01*
X5893309Y-15930428D01*
X5883786Y-15939952D01*
X5864738Y-15949476D01*
X5845690Y-15949476D01*
X5826643Y-15939952D01*
X5817119Y-15930428D01*
X5807595Y-15911381D01*
X5798071Y-15873286D01*
X5798071Y-15825667D01*
X5807595Y-15787571D01*
X5817119Y-15768524D01*
X5826643Y-15759000D01*
X5845690Y-15749476D01*
X6026643Y-15835190D02*
X6007595Y-15825667D01*
X5998071Y-15816143D01*
X5988548Y-15797095D01*
X5988548Y-15787571D01*
X5998071Y-15768524D01*
X6007595Y-15759000D01*
X6026643Y-15749476D01*
X6064738Y-15749476D01*
X6083786Y-15759000D01*
X6093309Y-15768524D01*
X6102833Y-15787571D01*
X6102833Y-15797095D01*
X6093309Y-15816143D01*
X6083786Y-15825667D01*
X6064738Y-15835190D01*
X6026643Y-15835190D01*
X6007595Y-15844714D01*
X5998071Y-15854238D01*
X5988548Y-15873286D01*
X5988548Y-15911381D01*
X5998071Y-15930428D01*
X6007595Y-15939952D01*
X6026643Y-15949476D01*
X6064738Y-15949476D01*
X6083786Y-15939952D01*
X6093309Y-15930428D01*
X6102833Y-15911381D01*
X6102833Y-15873286D01*
X6093309Y-15854238D01*
X6083786Y-15844714D01*
X6064738Y-15835190D01*
X6274262Y-15749476D02*
X6236167Y-15749476D01*
X6217119Y-15759000D01*
X6207595Y-15768524D01*
X6188548Y-15797095D01*
X6179024Y-15835190D01*
X6179024Y-15911381D01*
X6188548Y-15930428D01*
X6198071Y-15939952D01*
X6217119Y-15949476D01*
X6255214Y-15949476D01*
X6274262Y-15939952D01*
X6283786Y-15930428D01*
X6293309Y-15911381D01*
X6293309Y-15863762D01*
X6283786Y-15844714D01*
X6274262Y-15835190D01*
X6255214Y-15825667D01*
X6217119Y-15825667D01*
X6198071Y-15835190D01*
X6188548Y-15844714D01*
X6179024Y-15863762D01*
X6464738Y-15749476D02*
X6426643Y-15749476D01*
X6407595Y-15759000D01*
X6398071Y-15768524D01*
X6379024Y-15797095D01*
X6369500Y-15835190D01*
X6369500Y-15911381D01*
X6379024Y-15930428D01*
X6388548Y-15939952D01*
X6407595Y-15949476D01*
X6445690Y-15949476D01*
X6464738Y-15939952D01*
X6474262Y-15930428D01*
X6483786Y-15911381D01*
X6483786Y-15863762D01*
X6474262Y-15844714D01*
X6464738Y-15835190D01*
X6445690Y-15825667D01*
X6407595Y-15825667D01*
X6388548Y-15835190D01*
X6379024Y-15844714D01*
X6369500Y-15863762D01*
X6559976Y-15749476D02*
X6559976Y-15787571D01*
X6636167Y-15749476D02*
X6636167Y-15787571D01*
X6931405Y-16025667D02*
X6921881Y-16016143D01*
X6902833Y-15987571D01*
X6893309Y-15968524D01*
X6883786Y-15939952D01*
X6874262Y-15892333D01*
X6874262Y-15854238D01*
X6883786Y-15806619D01*
X6893309Y-15778048D01*
X6902833Y-15759000D01*
X6921881Y-15730428D01*
X6931405Y-15720905D01*
X7093309Y-15816143D02*
X7093309Y-15949476D01*
X7045690Y-15739952D02*
X6998071Y-15882809D01*
X7121881Y-15882809D01*
X7350452Y-15949476D02*
X7350452Y-15749476D01*
X7436167Y-15949476D02*
X7436167Y-15844714D01*
X7426643Y-15825667D01*
X7407595Y-15816143D01*
X7379024Y-15816143D01*
X7359976Y-15825667D01*
X7350452Y-15835190D01*
X7559976Y-15949476D02*
X7540928Y-15939952D01*
X7531405Y-15930428D01*
X7521881Y-15911381D01*
X7521881Y-15854238D01*
X7531405Y-15835190D01*
X7540928Y-15825667D01*
X7559976Y-15816143D01*
X7588548Y-15816143D01*
X7607595Y-15825667D01*
X7617119Y-15835190D01*
X7626643Y-15854238D01*
X7626643Y-15911381D01*
X7617119Y-15930428D01*
X7607595Y-15939952D01*
X7588548Y-15949476D01*
X7559976Y-15949476D01*
X7740928Y-15949476D02*
X7721881Y-15939952D01*
X7712357Y-15920905D01*
X7712357Y-15749476D01*
X7893309Y-15939952D02*
X7874262Y-15949476D01*
X7836167Y-15949476D01*
X7817119Y-15939952D01*
X7807595Y-15920905D01*
X7807595Y-15844714D01*
X7817119Y-15825667D01*
X7836167Y-15816143D01*
X7874262Y-15816143D01*
X7893309Y-15825667D01*
X7902833Y-15844714D01*
X7902833Y-15863762D01*
X7807595Y-15882809D01*
X7979024Y-15939952D02*
X7998071Y-15949476D01*
X8036167Y-15949476D01*
X8055214Y-15939952D01*
X8064738Y-15920905D01*
X8064738Y-15911381D01*
X8055214Y-15892333D01*
X8036167Y-15882809D01*
X8007595Y-15882809D01*
X7988548Y-15873286D01*
X7979024Y-15854238D01*
X7979024Y-15844714D01*
X7988548Y-15825667D01*
X8007595Y-15816143D01*
X8036167Y-15816143D01*
X8055214Y-15825667D01*
X8131405Y-16025667D02*
X8140928Y-16016143D01*
X8159976Y-15987571D01*
X8169500Y-15968524D01*
X8179024Y-15939952D01*
X8188548Y-15892333D01*
X8188548Y-15854238D01*
X8179024Y-15806619D01*
X8169500Y-15778048D01*
X8159976Y-15759000D01*
X8140928Y-15730428D01*
X8131405Y-15720905D01*
D22*
X3294500Y-16244000D02*
X3359500Y-16179000D01*
X3294500Y-16114000D01*
X3229500Y-16179000D01*
X3294500Y-16244000D01*
X3359500Y-16179000D02*
G75*
G03*
X3359500Y-16179000I-65000J0D01*
G01*
D10*
X3721881Y-16269476D02*
X3607595Y-16269476D01*
X3664738Y-16269476D02*
X3664738Y-16069476D01*
X3645690Y-16098048D01*
X3626643Y-16117095D01*
X3607595Y-16126619D01*
X3807595Y-16250428D02*
X3817119Y-16259952D01*
X3807595Y-16269476D01*
X3798071Y-16259952D01*
X3807595Y-16250428D01*
X3807595Y-16269476D01*
X3883786Y-16069476D02*
X4007595Y-16069476D01*
X3940928Y-16145667D01*
X3969500Y-16145667D01*
X3988548Y-16155190D01*
X3998071Y-16164714D01*
X4007595Y-16183762D01*
X4007595Y-16231381D01*
X3998071Y-16250428D01*
X3988548Y-16259952D01*
X3969500Y-16269476D01*
X3912357Y-16269476D01*
X3893309Y-16259952D01*
X3883786Y-16250428D01*
X4131405Y-16069476D02*
X4150452Y-16069476D01*
X4169500Y-16079000D01*
X4179024Y-16088524D01*
X4188548Y-16107571D01*
X4198071Y-16145667D01*
X4198071Y-16193286D01*
X4188548Y-16231381D01*
X4179024Y-16250428D01*
X4169500Y-16259952D01*
X4150452Y-16269476D01*
X4131405Y-16269476D01*
X4112357Y-16259952D01*
X4102833Y-16250428D01*
X4093309Y-16231381D01*
X4083786Y-16193286D01*
X4083786Y-16145667D01*
X4093309Y-16107571D01*
X4102833Y-16088524D01*
X4112357Y-16079000D01*
X4131405Y-16069476D01*
X4321881Y-16069476D02*
X4340929Y-16069476D01*
X4359976Y-16079000D01*
X4369500Y-16088524D01*
X4379024Y-16107571D01*
X4388548Y-16145667D01*
X4388548Y-16193286D01*
X4379024Y-16231381D01*
X4369500Y-16250428D01*
X4359976Y-16259952D01*
X4340929Y-16269476D01*
X4321881Y-16269476D01*
X4302833Y-16259952D01*
X4293310Y-16250428D01*
X4283786Y-16231381D01*
X4274262Y-16193286D01*
X4274262Y-16145667D01*
X4283786Y-16107571D01*
X4293310Y-16088524D01*
X4302833Y-16079000D01*
X4321881Y-16069476D01*
X4474262Y-16269476D02*
X4474262Y-16136143D01*
X4474262Y-16155190D02*
X4483786Y-16145667D01*
X4502833Y-16136143D01*
X4531405Y-16136143D01*
X4550452Y-16145667D01*
X4559976Y-16164714D01*
X4559976Y-16269476D01*
X4559976Y-16164714D02*
X4569500Y-16145667D01*
X4588548Y-16136143D01*
X4617119Y-16136143D01*
X4636167Y-16145667D01*
X4645690Y-16164714D01*
X4645690Y-16269476D01*
X4740929Y-16269476D02*
X4740929Y-16136143D01*
X4740929Y-16155190D02*
X4750452Y-16145667D01*
X4769500Y-16136143D01*
X4798071Y-16136143D01*
X4817119Y-16145667D01*
X4826643Y-16164714D01*
X4826643Y-16269476D01*
X4826643Y-16164714D02*
X4836167Y-16145667D01*
X4855214Y-16136143D01*
X4883786Y-16136143D01*
X4902833Y-16145667D01*
X4912357Y-16164714D01*
X4912357Y-16269476D01*
X5302833Y-16059952D02*
X5131405Y-16317095D01*
X5559976Y-16069476D02*
X5579024Y-16069476D01*
X5598071Y-16079000D01*
X5607595Y-16088524D01*
X5617119Y-16107571D01*
X5626643Y-16145667D01*
X5626643Y-16193286D01*
X5617119Y-16231381D01*
X5607595Y-16250428D01*
X5598071Y-16259952D01*
X5579024Y-16269476D01*
X5559976Y-16269476D01*
X5540929Y-16259952D01*
X5531405Y-16250428D01*
X5521881Y-16231381D01*
X5512357Y-16193286D01*
X5512357Y-16145667D01*
X5521881Y-16107571D01*
X5531405Y-16088524D01*
X5540929Y-16079000D01*
X5559976Y-16069476D01*
X5712357Y-16250428D02*
X5721881Y-16259952D01*
X5712357Y-16269476D01*
X5702833Y-16259952D01*
X5712357Y-16250428D01*
X5712357Y-16269476D01*
X5845690Y-16069476D02*
X5864738Y-16069476D01*
X5883786Y-16079000D01*
X5893309Y-16088524D01*
X5902833Y-16107571D01*
X5912357Y-16145667D01*
X5912357Y-16193286D01*
X5902833Y-16231381D01*
X5893309Y-16250428D01*
X5883786Y-16259952D01*
X5864738Y-16269476D01*
X5845690Y-16269476D01*
X5826643Y-16259952D01*
X5817119Y-16250428D01*
X5807595Y-16231381D01*
X5798071Y-16193286D01*
X5798071Y-16145667D01*
X5807595Y-16107571D01*
X5817119Y-16088524D01*
X5826643Y-16079000D01*
X5845690Y-16069476D01*
X6093309Y-16069476D02*
X5998071Y-16069476D01*
X5988548Y-16164714D01*
X5998071Y-16155190D01*
X6017119Y-16145667D01*
X6064738Y-16145667D01*
X6083786Y-16155190D01*
X6093309Y-16164714D01*
X6102833Y-16183762D01*
X6102833Y-16231381D01*
X6093309Y-16250428D01*
X6083786Y-16259952D01*
X6064738Y-16269476D01*
X6017119Y-16269476D01*
X5998071Y-16259952D01*
X5988548Y-16250428D01*
X6293309Y-16269476D02*
X6179024Y-16269476D01*
X6236167Y-16269476D02*
X6236167Y-16069476D01*
X6217119Y-16098048D01*
X6198071Y-16117095D01*
X6179024Y-16126619D01*
X6369500Y-16088524D02*
X6379024Y-16079000D01*
X6398071Y-16069476D01*
X6445690Y-16069476D01*
X6464738Y-16079000D01*
X6474262Y-16088524D01*
X6483786Y-16107571D01*
X6483786Y-16126619D01*
X6474262Y-16155190D01*
X6359976Y-16269476D01*
X6483786Y-16269476D01*
X6559976Y-16069476D02*
X6559976Y-16107571D01*
X6636167Y-16069476D02*
X6636167Y-16107571D01*
X6931405Y-16345667D02*
X6921881Y-16336143D01*
X6902833Y-16307571D01*
X6893309Y-16288524D01*
X6883786Y-16259952D01*
X6874262Y-16212333D01*
X6874262Y-16174238D01*
X6883786Y-16126619D01*
X6893309Y-16098048D01*
X6902833Y-16079000D01*
X6921881Y-16050428D01*
X6931405Y-16040905D01*
X7112357Y-16269476D02*
X6998071Y-16269476D01*
X7055214Y-16269476D02*
X7055214Y-16069476D01*
X7036167Y-16098048D01*
X7017119Y-16117095D01*
X6998071Y-16126619D01*
X7350452Y-16269476D02*
X7350452Y-16069476D01*
X7436167Y-16269476D02*
X7436167Y-16164714D01*
X7426643Y-16145667D01*
X7407595Y-16136143D01*
X7379024Y-16136143D01*
X7359976Y-16145667D01*
X7350452Y-16155190D01*
X7559976Y-16269476D02*
X7540928Y-16259952D01*
X7531405Y-16250428D01*
X7521881Y-16231381D01*
X7521881Y-16174238D01*
X7531405Y-16155190D01*
X7540928Y-16145667D01*
X7559976Y-16136143D01*
X7588548Y-16136143D01*
X7607595Y-16145667D01*
X7617119Y-16155190D01*
X7626643Y-16174238D01*
X7626643Y-16231381D01*
X7617119Y-16250428D01*
X7607595Y-16259952D01*
X7588548Y-16269476D01*
X7559976Y-16269476D01*
X7740928Y-16269476D02*
X7721881Y-16259952D01*
X7712357Y-16240905D01*
X7712357Y-16069476D01*
X7893309Y-16259952D02*
X7874262Y-16269476D01*
X7836167Y-16269476D01*
X7817119Y-16259952D01*
X7807595Y-16240905D01*
X7807595Y-16164714D01*
X7817119Y-16145667D01*
X7836167Y-16136143D01*
X7874262Y-16136143D01*
X7893309Y-16145667D01*
X7902833Y-16164714D01*
X7902833Y-16183762D01*
X7807595Y-16202809D01*
X7969500Y-16345667D02*
X7979024Y-16336143D01*
X7998071Y-16307571D01*
X8007595Y-16288524D01*
X8017119Y-16259952D01*
X8026643Y-16212333D01*
X8026643Y-16174238D01*
X8017119Y-16126619D01*
X8007595Y-16098048D01*
X7998071Y-16079000D01*
X7979024Y-16050428D01*
X7969500Y-16040905D01*
X8331405Y-16345667D02*
X8321881Y-16336143D01*
X8302833Y-16307571D01*
X8293309Y-16288524D01*
X8283786Y-16259952D01*
X8274262Y-16212333D01*
X8274262Y-16174238D01*
X8283786Y-16126619D01*
X8293309Y-16098048D01*
X8302833Y-16079000D01*
X8321881Y-16050428D01*
X8331405Y-16040905D01*
X8407595Y-16136143D02*
X8407595Y-16269476D01*
X8407595Y-16155190D02*
X8417119Y-16145667D01*
X8436167Y-16136143D01*
X8464738Y-16136143D01*
X8483786Y-16145667D01*
X8493310Y-16164714D01*
X8493310Y-16269476D01*
X8617119Y-16269476D02*
X8598071Y-16259952D01*
X8588548Y-16250428D01*
X8579024Y-16231381D01*
X8579024Y-16174238D01*
X8588548Y-16155190D01*
X8598071Y-16145667D01*
X8617119Y-16136143D01*
X8645690Y-16136143D01*
X8664738Y-16145667D01*
X8674262Y-16155190D01*
X8683786Y-16174238D01*
X8683786Y-16231381D01*
X8674262Y-16250428D01*
X8664738Y-16259952D01*
X8645690Y-16269476D01*
X8617119Y-16269476D01*
X8740929Y-16136143D02*
X8817119Y-16136143D01*
X8769500Y-16069476D02*
X8769500Y-16240905D01*
X8779024Y-16259952D01*
X8798071Y-16269476D01*
X8817119Y-16269476D01*
X9036167Y-16136143D02*
X9036167Y-16336143D01*
X9036167Y-16145667D02*
X9055214Y-16136143D01*
X9093310Y-16136143D01*
X9112357Y-16145667D01*
X9121881Y-16155190D01*
X9131405Y-16174238D01*
X9131405Y-16231381D01*
X9121881Y-16250428D01*
X9112357Y-16259952D01*
X9093310Y-16269476D01*
X9055214Y-16269476D01*
X9036167Y-16259952D01*
X9245690Y-16269476D02*
X9226643Y-16259952D01*
X9217119Y-16240905D01*
X9217119Y-16069476D01*
X9407595Y-16269476D02*
X9407595Y-16164714D01*
X9398071Y-16145667D01*
X9379024Y-16136143D01*
X9340929Y-16136143D01*
X9321881Y-16145667D01*
X9407595Y-16259952D02*
X9388548Y-16269476D01*
X9340929Y-16269476D01*
X9321881Y-16259952D01*
X9312357Y-16240905D01*
X9312357Y-16221857D01*
X9321881Y-16202809D01*
X9340929Y-16193286D01*
X9388548Y-16193286D01*
X9407595Y-16183762D01*
X9474262Y-16136143D02*
X9550452Y-16136143D01*
X9502833Y-16069476D02*
X9502833Y-16240905D01*
X9512357Y-16259952D01*
X9531405Y-16269476D01*
X9550452Y-16269476D01*
X9693310Y-16259952D02*
X9674262Y-16269476D01*
X9636167Y-16269476D01*
X9617119Y-16259952D01*
X9607595Y-16240905D01*
X9607595Y-16164714D01*
X9617119Y-16145667D01*
X9636167Y-16136143D01*
X9674262Y-16136143D01*
X9693310Y-16145667D01*
X9702833Y-16164714D01*
X9702833Y-16183762D01*
X9607595Y-16202809D01*
X9874262Y-16269476D02*
X9874262Y-16069476D01*
X9874262Y-16259952D02*
X9855214Y-16269476D01*
X9817119Y-16269476D01*
X9798071Y-16259952D01*
X9788548Y-16250428D01*
X9779024Y-16231381D01*
X9779024Y-16174238D01*
X9788548Y-16155190D01*
X9798071Y-16145667D01*
X9817119Y-16136143D01*
X9855214Y-16136143D01*
X9874262Y-16145667D01*
X9950452Y-16345667D02*
X9959976Y-16336143D01*
X9979024Y-16307571D01*
X9988548Y-16288524D01*
X9998071Y-16259952D01*
X10007595Y-16212333D01*
X10007595Y-16174238D01*
X9998071Y-16126619D01*
X9988548Y-16098048D01*
X9979024Y-16079000D01*
X9959976Y-16050428D01*
X9950452Y-16040905D01*
D23*
X3274500Y-16358000D02*
X3274500Y-16528000D01*
X3189500Y-16443000D02*
X3359500Y-16443000D01*
X3334605Y-16503105D02*
X3334605Y-16382895D01*
X3214395Y-16382895D01*
X3214395Y-16503105D01*
X3334605Y-16503105D01*
D10*
X3721881Y-16533476D02*
X3607595Y-16533476D01*
X3664738Y-16533476D02*
X3664738Y-16333476D01*
X3645690Y-16362048D01*
X3626643Y-16381095D01*
X3607595Y-16390619D01*
X3807595Y-16514428D02*
X3817119Y-16523952D01*
X3807595Y-16533476D01*
X3798071Y-16523952D01*
X3807595Y-16514428D01*
X3807595Y-16533476D01*
X3883786Y-16333476D02*
X4017119Y-16333476D01*
X3931405Y-16533476D01*
X4131405Y-16333476D02*
X4150452Y-16333476D01*
X4169500Y-16343000D01*
X4179024Y-16352524D01*
X4188548Y-16371571D01*
X4198071Y-16409667D01*
X4198071Y-16457286D01*
X4188548Y-16495381D01*
X4179024Y-16514428D01*
X4169500Y-16523952D01*
X4150452Y-16533476D01*
X4131405Y-16533476D01*
X4112357Y-16523952D01*
X4102833Y-16514428D01*
X4093309Y-16495381D01*
X4083786Y-16457286D01*
X4083786Y-16409667D01*
X4093309Y-16371571D01*
X4102833Y-16352524D01*
X4112357Y-16343000D01*
X4131405Y-16333476D01*
X4321881Y-16333476D02*
X4340929Y-16333476D01*
X4359976Y-16343000D01*
X4369500Y-16352524D01*
X4379024Y-16371571D01*
X4388548Y-16409667D01*
X4388548Y-16457286D01*
X4379024Y-16495381D01*
X4369500Y-16514428D01*
X4359976Y-16523952D01*
X4340929Y-16533476D01*
X4321881Y-16533476D01*
X4302833Y-16523952D01*
X4293310Y-16514428D01*
X4283786Y-16495381D01*
X4274262Y-16457286D01*
X4274262Y-16409667D01*
X4283786Y-16371571D01*
X4293310Y-16352524D01*
X4302833Y-16343000D01*
X4321881Y-16333476D01*
X4474262Y-16533476D02*
X4474262Y-16400143D01*
X4474262Y-16419190D02*
X4483786Y-16409667D01*
X4502833Y-16400143D01*
X4531405Y-16400143D01*
X4550452Y-16409667D01*
X4559976Y-16428714D01*
X4559976Y-16533476D01*
X4559976Y-16428714D02*
X4569500Y-16409667D01*
X4588548Y-16400143D01*
X4617119Y-16400143D01*
X4636167Y-16409667D01*
X4645690Y-16428714D01*
X4645690Y-16533476D01*
X4740929Y-16533476D02*
X4740929Y-16400143D01*
X4740929Y-16419190D02*
X4750452Y-16409667D01*
X4769500Y-16400143D01*
X4798071Y-16400143D01*
X4817119Y-16409667D01*
X4826643Y-16428714D01*
X4826643Y-16533476D01*
X4826643Y-16428714D02*
X4836167Y-16409667D01*
X4855214Y-16400143D01*
X4883786Y-16400143D01*
X4902833Y-16409667D01*
X4912357Y-16428714D01*
X4912357Y-16533476D01*
X5302833Y-16323952D02*
X5131405Y-16581095D01*
X5559976Y-16333476D02*
X5579024Y-16333476D01*
X5598071Y-16343000D01*
X5607595Y-16352524D01*
X5617119Y-16371571D01*
X5626643Y-16409667D01*
X5626643Y-16457286D01*
X5617119Y-16495381D01*
X5607595Y-16514428D01*
X5598071Y-16523952D01*
X5579024Y-16533476D01*
X5559976Y-16533476D01*
X5540929Y-16523952D01*
X5531405Y-16514428D01*
X5521881Y-16495381D01*
X5512357Y-16457286D01*
X5512357Y-16409667D01*
X5521881Y-16371571D01*
X5531405Y-16352524D01*
X5540929Y-16343000D01*
X5559976Y-16333476D01*
X5712357Y-16514428D02*
X5721881Y-16523952D01*
X5712357Y-16533476D01*
X5702833Y-16523952D01*
X5712357Y-16514428D01*
X5712357Y-16533476D01*
X5845690Y-16333476D02*
X5864738Y-16333476D01*
X5883786Y-16343000D01*
X5893309Y-16352524D01*
X5902833Y-16371571D01*
X5912357Y-16409667D01*
X5912357Y-16457286D01*
X5902833Y-16495381D01*
X5893309Y-16514428D01*
X5883786Y-16523952D01*
X5864738Y-16533476D01*
X5845690Y-16533476D01*
X5826643Y-16523952D01*
X5817119Y-16514428D01*
X5807595Y-16495381D01*
X5798071Y-16457286D01*
X5798071Y-16409667D01*
X5807595Y-16371571D01*
X5817119Y-16352524D01*
X5826643Y-16343000D01*
X5845690Y-16333476D01*
X6083786Y-16333476D02*
X6045690Y-16333476D01*
X6026643Y-16343000D01*
X6017119Y-16352524D01*
X5998071Y-16381095D01*
X5988548Y-16419190D01*
X5988548Y-16495381D01*
X5998071Y-16514428D01*
X6007595Y-16523952D01*
X6026643Y-16533476D01*
X6064738Y-16533476D01*
X6083786Y-16523952D01*
X6093309Y-16514428D01*
X6102833Y-16495381D01*
X6102833Y-16447762D01*
X6093309Y-16428714D01*
X6083786Y-16419190D01*
X6064738Y-16409667D01*
X6026643Y-16409667D01*
X6007595Y-16419190D01*
X5998071Y-16428714D01*
X5988548Y-16447762D01*
X6274262Y-16333476D02*
X6236167Y-16333476D01*
X6217119Y-16343000D01*
X6207595Y-16352524D01*
X6188548Y-16381095D01*
X6179024Y-16419190D01*
X6179024Y-16495381D01*
X6188548Y-16514428D01*
X6198071Y-16523952D01*
X6217119Y-16533476D01*
X6255214Y-16533476D01*
X6274262Y-16523952D01*
X6283786Y-16514428D01*
X6293309Y-16495381D01*
X6293309Y-16447762D01*
X6283786Y-16428714D01*
X6274262Y-16419190D01*
X6255214Y-16409667D01*
X6217119Y-16409667D01*
X6198071Y-16419190D01*
X6188548Y-16428714D01*
X6179024Y-16447762D01*
X6388548Y-16533476D02*
X6426643Y-16533476D01*
X6445690Y-16523952D01*
X6455214Y-16514428D01*
X6474262Y-16485857D01*
X6483786Y-16447762D01*
X6483786Y-16371571D01*
X6474262Y-16352524D01*
X6464738Y-16343000D01*
X6445690Y-16333476D01*
X6407595Y-16333476D01*
X6388548Y-16343000D01*
X6379024Y-16352524D01*
X6369500Y-16371571D01*
X6369500Y-16419190D01*
X6379024Y-16438238D01*
X6388548Y-16447762D01*
X6407595Y-16457286D01*
X6445690Y-16457286D01*
X6464738Y-16447762D01*
X6474262Y-16438238D01*
X6483786Y-16419190D01*
X6559976Y-16333476D02*
X6559976Y-16371571D01*
X6636167Y-16333476D02*
X6636167Y-16371571D01*
X6931405Y-16609667D02*
X6921881Y-16600143D01*
X6902833Y-16571571D01*
X6893309Y-16552524D01*
X6883786Y-16523952D01*
X6874262Y-16476333D01*
X6874262Y-16438238D01*
X6883786Y-16390619D01*
X6893309Y-16362048D01*
X6902833Y-16343000D01*
X6921881Y-16314428D01*
X6931405Y-16304905D01*
X7093309Y-16400143D02*
X7093309Y-16533476D01*
X7045690Y-16323952D02*
X6998071Y-16466809D01*
X7121881Y-16466809D01*
X7350452Y-16533476D02*
X7350452Y-16333476D01*
X7436167Y-16533476D02*
X7436167Y-16428714D01*
X7426643Y-16409667D01*
X7407595Y-16400143D01*
X7379024Y-16400143D01*
X7359976Y-16409667D01*
X7350452Y-16419190D01*
X7559976Y-16533476D02*
X7540928Y-16523952D01*
X7531405Y-16514428D01*
X7521881Y-16495381D01*
X7521881Y-16438238D01*
X7531405Y-16419190D01*
X7540928Y-16409667D01*
X7559976Y-16400143D01*
X7588548Y-16400143D01*
X7607595Y-16409667D01*
X7617119Y-16419190D01*
X7626643Y-16438238D01*
X7626643Y-16495381D01*
X7617119Y-16514428D01*
X7607595Y-16523952D01*
X7588548Y-16533476D01*
X7559976Y-16533476D01*
X7740928Y-16533476D02*
X7721881Y-16523952D01*
X7712357Y-16504905D01*
X7712357Y-16333476D01*
X7893309Y-16523952D02*
X7874262Y-16533476D01*
X7836167Y-16533476D01*
X7817119Y-16523952D01*
X7807595Y-16504905D01*
X7807595Y-16428714D01*
X7817119Y-16409667D01*
X7836167Y-16400143D01*
X7874262Y-16400143D01*
X7893309Y-16409667D01*
X7902833Y-16428714D01*
X7902833Y-16447762D01*
X7807595Y-16466809D01*
X7979024Y-16523952D02*
X7998071Y-16533476D01*
X8036167Y-16533476D01*
X8055214Y-16523952D01*
X8064738Y-16504905D01*
X8064738Y-16495381D01*
X8055214Y-16476333D01*
X8036167Y-16466809D01*
X8007595Y-16466809D01*
X7988548Y-16457286D01*
X7979024Y-16438238D01*
X7979024Y-16428714D01*
X7988548Y-16409667D01*
X8007595Y-16400143D01*
X8036167Y-16400143D01*
X8055214Y-16409667D01*
X8131405Y-16609667D02*
X8140928Y-16600143D01*
X8159976Y-16571571D01*
X8169500Y-16552524D01*
X8179024Y-16523952D01*
X8188548Y-16476333D01*
X8188548Y-16438238D01*
X8179024Y-16390619D01*
X8169500Y-16362048D01*
X8159976Y-16343000D01*
X8140928Y-16314428D01*
X8131405Y-16304905D01*
X8493310Y-16609667D02*
X8483786Y-16600143D01*
X8464738Y-16571571D01*
X8455214Y-16552524D01*
X8445690Y-16523952D01*
X8436167Y-16476333D01*
X8436167Y-16438238D01*
X8445690Y-16390619D01*
X8455214Y-16362048D01*
X8464738Y-16343000D01*
X8483786Y-16314428D01*
X8493310Y-16304905D01*
X8569500Y-16400143D02*
X8569500Y-16533476D01*
X8569500Y-16419190D02*
X8579024Y-16409667D01*
X8598071Y-16400143D01*
X8626643Y-16400143D01*
X8645690Y-16409667D01*
X8655214Y-16428714D01*
X8655214Y-16533476D01*
X8779024Y-16533476D02*
X8759976Y-16523952D01*
X8750452Y-16514428D01*
X8740929Y-16495381D01*
X8740929Y-16438238D01*
X8750452Y-16419190D01*
X8759976Y-16409667D01*
X8779024Y-16400143D01*
X8807595Y-16400143D01*
X8826643Y-16409667D01*
X8836167Y-16419190D01*
X8845690Y-16438238D01*
X8845690Y-16495381D01*
X8836167Y-16514428D01*
X8826643Y-16523952D01*
X8807595Y-16533476D01*
X8779024Y-16533476D01*
X8902833Y-16400143D02*
X8979024Y-16400143D01*
X8931405Y-16333476D02*
X8931405Y-16504905D01*
X8940929Y-16523952D01*
X8959976Y-16533476D01*
X8979024Y-16533476D01*
X9198071Y-16400143D02*
X9198071Y-16600143D01*
X9198071Y-16409667D02*
X9217119Y-16400143D01*
X9255214Y-16400143D01*
X9274262Y-16409667D01*
X9283786Y-16419190D01*
X9293310Y-16438238D01*
X9293310Y-16495381D01*
X9283786Y-16514428D01*
X9274262Y-16523952D01*
X9255214Y-16533476D01*
X9217119Y-16533476D01*
X9198071Y-16523952D01*
X9407595Y-16533476D02*
X9388548Y-16523952D01*
X9379024Y-16504905D01*
X9379024Y-16333476D01*
X9569500Y-16533476D02*
X9569500Y-16428714D01*
X9559976Y-16409667D01*
X9540929Y-16400143D01*
X9502833Y-16400143D01*
X9483786Y-16409667D01*
X9569500Y-16523952D02*
X9550452Y-16533476D01*
X9502833Y-16533476D01*
X9483786Y-16523952D01*
X9474262Y-16504905D01*
X9474262Y-16485857D01*
X9483786Y-16466809D01*
X9502833Y-16457286D01*
X9550452Y-16457286D01*
X9569500Y-16447762D01*
X9636167Y-16400143D02*
X9712357Y-16400143D01*
X9664738Y-16333476D02*
X9664738Y-16504905D01*
X9674262Y-16523952D01*
X9693310Y-16533476D01*
X9712357Y-16533476D01*
X9855214Y-16523952D02*
X9836167Y-16533476D01*
X9798071Y-16533476D01*
X9779024Y-16523952D01*
X9769500Y-16504905D01*
X9769500Y-16428714D01*
X9779024Y-16409667D01*
X9798071Y-16400143D01*
X9836167Y-16400143D01*
X9855214Y-16409667D01*
X9864738Y-16428714D01*
X9864738Y-16447762D01*
X9769500Y-16466809D01*
X10036167Y-16533476D02*
X10036167Y-16333476D01*
X10036167Y-16523952D02*
X10017119Y-16533476D01*
X9979024Y-16533476D01*
X9959976Y-16523952D01*
X9950452Y-16514428D01*
X9940929Y-16495381D01*
X9940929Y-16438238D01*
X9950452Y-16419190D01*
X9959976Y-16409667D01*
X9979024Y-16400143D01*
X10017119Y-16400143D01*
X10036167Y-16409667D01*
X10112357Y-16609667D02*
X10121881Y-16600143D01*
X10140929Y-16571571D01*
X10150452Y-16552524D01*
X10159976Y-16523952D01*
X10169500Y-16476333D01*
X10169500Y-16438238D01*
X10159976Y-16390619D01*
X10150452Y-16362048D01*
X10140929Y-16343000D01*
X10121881Y-16314428D01*
X10112357Y-16304905D01*
X3259500Y-16633000D02*
X3259500Y-16833000D01*
X3159500Y-16733000D02*
X3359500Y-16733000D01*
X3259500Y-16833000D02*
X3359500Y-16733000D01*
X3259500Y-16633000D01*
X3159500Y-16733000D01*
X3259500Y-16833000D01*
X3607595Y-16642524D02*
X3617119Y-16633000D01*
X3636167Y-16623476D01*
X3683786Y-16623476D01*
X3702833Y-16633000D01*
X3712357Y-16642524D01*
X3721881Y-16661571D01*
X3721881Y-16680619D01*
X3712357Y-16709190D01*
X3598071Y-16823476D01*
X3721881Y-16823476D01*
X3807595Y-16804429D02*
X3817119Y-16813952D01*
X3807595Y-16823476D01*
X3798071Y-16813952D01*
X3807595Y-16804429D01*
X3807595Y-16823476D01*
X3940928Y-16623476D02*
X3959976Y-16623476D01*
X3979024Y-16633000D01*
X3988548Y-16642524D01*
X3998071Y-16661571D01*
X4007595Y-16699667D01*
X4007595Y-16747286D01*
X3998071Y-16785381D01*
X3988548Y-16804429D01*
X3979024Y-16813952D01*
X3959976Y-16823476D01*
X3940928Y-16823476D01*
X3921881Y-16813952D01*
X3912357Y-16804429D01*
X3902833Y-16785381D01*
X3893309Y-16747286D01*
X3893309Y-16699667D01*
X3902833Y-16661571D01*
X3912357Y-16642524D01*
X3921881Y-16633000D01*
X3940928Y-16623476D01*
X4131405Y-16623476D02*
X4150452Y-16623476D01*
X4169500Y-16633000D01*
X4179024Y-16642524D01*
X4188548Y-16661571D01*
X4198071Y-16699667D01*
X4198071Y-16747286D01*
X4188548Y-16785381D01*
X4179024Y-16804429D01*
X4169500Y-16813952D01*
X4150452Y-16823476D01*
X4131405Y-16823476D01*
X4112357Y-16813952D01*
X4102833Y-16804429D01*
X4093309Y-16785381D01*
X4083786Y-16747286D01*
X4083786Y-16699667D01*
X4093309Y-16661571D01*
X4102833Y-16642524D01*
X4112357Y-16633000D01*
X4131405Y-16623476D01*
X4321881Y-16623476D02*
X4340929Y-16623476D01*
X4359976Y-16633000D01*
X4369500Y-16642524D01*
X4379024Y-16661571D01*
X4388548Y-16699667D01*
X4388548Y-16747286D01*
X4379024Y-16785381D01*
X4369500Y-16804429D01*
X4359976Y-16813952D01*
X4340929Y-16823476D01*
X4321881Y-16823476D01*
X4302833Y-16813952D01*
X4293310Y-16804429D01*
X4283786Y-16785381D01*
X4274262Y-16747286D01*
X4274262Y-16699667D01*
X4283786Y-16661571D01*
X4293310Y-16642524D01*
X4302833Y-16633000D01*
X4321881Y-16623476D01*
X4474262Y-16823476D02*
X4474262Y-16690143D01*
X4474262Y-16709190D02*
X4483786Y-16699667D01*
X4502833Y-16690143D01*
X4531405Y-16690143D01*
X4550452Y-16699667D01*
X4559976Y-16718714D01*
X4559976Y-16823476D01*
X4559976Y-16718714D02*
X4569500Y-16699667D01*
X4588548Y-16690143D01*
X4617119Y-16690143D01*
X4636167Y-16699667D01*
X4645690Y-16718714D01*
X4645690Y-16823476D01*
X4740929Y-16823476D02*
X4740929Y-16690143D01*
X4740929Y-16709190D02*
X4750452Y-16699667D01*
X4769500Y-16690143D01*
X4798071Y-16690143D01*
X4817119Y-16699667D01*
X4826643Y-16718714D01*
X4826643Y-16823476D01*
X4826643Y-16718714D02*
X4836167Y-16699667D01*
X4855214Y-16690143D01*
X4883786Y-16690143D01*
X4902833Y-16699667D01*
X4912357Y-16718714D01*
X4912357Y-16823476D01*
X5302833Y-16613952D02*
X5131405Y-16871095D01*
X5559976Y-16623476D02*
X5579024Y-16623476D01*
X5598071Y-16633000D01*
X5607595Y-16642524D01*
X5617119Y-16661571D01*
X5626643Y-16699667D01*
X5626643Y-16747286D01*
X5617119Y-16785381D01*
X5607595Y-16804429D01*
X5598071Y-16813952D01*
X5579024Y-16823476D01*
X5559976Y-16823476D01*
X5540929Y-16813952D01*
X5531405Y-16804429D01*
X5521881Y-16785381D01*
X5512357Y-16747286D01*
X5512357Y-16699667D01*
X5521881Y-16661571D01*
X5531405Y-16642524D01*
X5540929Y-16633000D01*
X5559976Y-16623476D01*
X5712357Y-16804429D02*
X5721881Y-16813952D01*
X5712357Y-16823476D01*
X5702833Y-16813952D01*
X5712357Y-16804429D01*
X5712357Y-16823476D01*
X5845690Y-16623476D02*
X5864738Y-16623476D01*
X5883786Y-16633000D01*
X5893309Y-16642524D01*
X5902833Y-16661571D01*
X5912357Y-16699667D01*
X5912357Y-16747286D01*
X5902833Y-16785381D01*
X5893309Y-16804429D01*
X5883786Y-16813952D01*
X5864738Y-16823476D01*
X5845690Y-16823476D01*
X5826643Y-16813952D01*
X5817119Y-16804429D01*
X5807595Y-16785381D01*
X5798071Y-16747286D01*
X5798071Y-16699667D01*
X5807595Y-16661571D01*
X5817119Y-16642524D01*
X5826643Y-16633000D01*
X5845690Y-16623476D01*
X5979024Y-16623476D02*
X6112357Y-16623476D01*
X6026643Y-16823476D01*
X6217119Y-16709190D02*
X6198071Y-16699667D01*
X6188548Y-16690143D01*
X6179024Y-16671095D01*
X6179024Y-16661571D01*
X6188548Y-16642524D01*
X6198071Y-16633000D01*
X6217119Y-16623476D01*
X6255214Y-16623476D01*
X6274262Y-16633000D01*
X6283786Y-16642524D01*
X6293309Y-16661571D01*
X6293309Y-16671095D01*
X6283786Y-16690143D01*
X6274262Y-16699667D01*
X6255214Y-16709190D01*
X6217119Y-16709190D01*
X6198071Y-16718714D01*
X6188548Y-16728238D01*
X6179024Y-16747286D01*
X6179024Y-16785381D01*
X6188548Y-16804429D01*
X6198071Y-16813952D01*
X6217119Y-16823476D01*
X6255214Y-16823476D01*
X6274262Y-16813952D01*
X6283786Y-16804429D01*
X6293309Y-16785381D01*
X6293309Y-16747286D01*
X6283786Y-16728238D01*
X6274262Y-16718714D01*
X6255214Y-16709190D01*
X6359976Y-16623476D02*
X6493309Y-16623476D01*
X6407595Y-16823476D01*
X6559976Y-16623476D02*
X6559976Y-16661571D01*
X6636167Y-16623476D02*
X6636167Y-16661571D01*
X6931405Y-16899667D02*
X6921881Y-16890143D01*
X6902833Y-16861571D01*
X6893309Y-16842524D01*
X6883786Y-16813952D01*
X6874262Y-16766333D01*
X6874262Y-16728238D01*
X6883786Y-16680619D01*
X6893309Y-16652048D01*
X6902833Y-16633000D01*
X6921881Y-16604428D01*
X6931405Y-16594905D01*
X7112357Y-16823476D02*
X6998071Y-16823476D01*
X7055214Y-16823476D02*
X7055214Y-16623476D01*
X7036167Y-16652048D01*
X7017119Y-16671095D01*
X6998071Y-16680619D01*
X7350452Y-16823476D02*
X7350452Y-16623476D01*
X7436167Y-16823476D02*
X7436167Y-16718714D01*
X7426643Y-16699667D01*
X7407595Y-16690143D01*
X7379024Y-16690143D01*
X7359976Y-16699667D01*
X7350452Y-16709190D01*
X7559976Y-16823476D02*
X7540928Y-16813952D01*
X7531405Y-16804429D01*
X7521881Y-16785381D01*
X7521881Y-16728238D01*
X7531405Y-16709190D01*
X7540928Y-16699667D01*
X7559976Y-16690143D01*
X7588548Y-16690143D01*
X7607595Y-16699667D01*
X7617119Y-16709190D01*
X7626643Y-16728238D01*
X7626643Y-16785381D01*
X7617119Y-16804429D01*
X7607595Y-16813952D01*
X7588548Y-16823476D01*
X7559976Y-16823476D01*
X7740928Y-16823476D02*
X7721881Y-16813952D01*
X7712357Y-16794905D01*
X7712357Y-16623476D01*
X7893309Y-16813952D02*
X7874262Y-16823476D01*
X7836167Y-16823476D01*
X7817119Y-16813952D01*
X7807595Y-16794905D01*
X7807595Y-16718714D01*
X7817119Y-16699667D01*
X7836167Y-16690143D01*
X7874262Y-16690143D01*
X7893309Y-16699667D01*
X7902833Y-16718714D01*
X7902833Y-16737762D01*
X7807595Y-16756809D01*
X7969500Y-16899667D02*
X7979024Y-16890143D01*
X7998071Y-16861571D01*
X8007595Y-16842524D01*
X8017119Y-16813952D01*
X8026643Y-16766333D01*
X8026643Y-16728238D01*
X8017119Y-16680619D01*
X8007595Y-16652048D01*
X7998071Y-16633000D01*
X7979024Y-16604428D01*
X7969500Y-16594905D01*
X8331405Y-16899667D02*
X8321881Y-16890143D01*
X8302833Y-16861571D01*
X8293309Y-16842524D01*
X8283786Y-16813952D01*
X8274262Y-16766333D01*
X8274262Y-16728238D01*
X8283786Y-16680619D01*
X8293309Y-16652048D01*
X8302833Y-16633000D01*
X8321881Y-16604428D01*
X8331405Y-16594905D01*
X8407595Y-16690143D02*
X8407595Y-16823476D01*
X8407595Y-16709190D02*
X8417119Y-16699667D01*
X8436167Y-16690143D01*
X8464738Y-16690143D01*
X8483786Y-16699667D01*
X8493310Y-16718714D01*
X8493310Y-16823476D01*
X8617119Y-16823476D02*
X8598071Y-16813952D01*
X8588548Y-16804429D01*
X8579024Y-16785381D01*
X8579024Y-16728238D01*
X8588548Y-16709190D01*
X8598071Y-16699667D01*
X8617119Y-16690143D01*
X8645690Y-16690143D01*
X8664738Y-16699667D01*
X8674262Y-16709190D01*
X8683786Y-16728238D01*
X8683786Y-16785381D01*
X8674262Y-16804429D01*
X8664738Y-16813952D01*
X8645690Y-16823476D01*
X8617119Y-16823476D01*
X8740929Y-16690143D02*
X8817119Y-16690143D01*
X8769500Y-16623476D02*
X8769500Y-16794905D01*
X8779024Y-16813952D01*
X8798071Y-16823476D01*
X8817119Y-16823476D01*
X9036167Y-16690143D02*
X9036167Y-16890143D01*
X9036167Y-16699667D02*
X9055214Y-16690143D01*
X9093310Y-16690143D01*
X9112357Y-16699667D01*
X9121881Y-16709190D01*
X9131405Y-16728238D01*
X9131405Y-16785381D01*
X9121881Y-16804429D01*
X9112357Y-16813952D01*
X9093310Y-16823476D01*
X9055214Y-16823476D01*
X9036167Y-16813952D01*
X9245690Y-16823476D02*
X9226643Y-16813952D01*
X9217119Y-16794905D01*
X9217119Y-16623476D01*
X9407595Y-16823476D02*
X9407595Y-16718714D01*
X9398071Y-16699667D01*
X9379024Y-16690143D01*
X9340929Y-16690143D01*
X9321881Y-16699667D01*
X9407595Y-16813952D02*
X9388548Y-16823476D01*
X9340929Y-16823476D01*
X9321881Y-16813952D01*
X9312357Y-16794905D01*
X9312357Y-16775857D01*
X9321881Y-16756809D01*
X9340929Y-16747286D01*
X9388548Y-16747286D01*
X9407595Y-16737762D01*
X9474262Y-16690143D02*
X9550452Y-16690143D01*
X9502833Y-16623476D02*
X9502833Y-16794905D01*
X9512357Y-16813952D01*
X9531405Y-16823476D01*
X9550452Y-16823476D01*
X9693310Y-16813952D02*
X9674262Y-16823476D01*
X9636167Y-16823476D01*
X9617119Y-16813952D01*
X9607595Y-16794905D01*
X9607595Y-16718714D01*
X9617119Y-16699667D01*
X9636167Y-16690143D01*
X9674262Y-16690143D01*
X9693310Y-16699667D01*
X9702833Y-16718714D01*
X9702833Y-16737762D01*
X9607595Y-16756809D01*
X9874262Y-16823476D02*
X9874262Y-16623476D01*
X9874262Y-16813952D02*
X9855214Y-16823476D01*
X9817119Y-16823476D01*
X9798071Y-16813952D01*
X9788548Y-16804429D01*
X9779024Y-16785381D01*
X9779024Y-16728238D01*
X9788548Y-16709190D01*
X9798071Y-16699667D01*
X9817119Y-16690143D01*
X9855214Y-16690143D01*
X9874262Y-16699667D01*
X9950452Y-16899667D02*
X9959976Y-16890143D01*
X9979024Y-16861571D01*
X9988548Y-16842524D01*
X9998071Y-16813952D01*
X10007595Y-16766333D01*
X10007595Y-16728238D01*
X9998071Y-16680619D01*
X9988548Y-16652048D01*
X9979024Y-16633000D01*
X9959976Y-16604428D01*
X9950452Y-16594905D01*
M02*
