G04 #@! TF.GenerationSoftware,KiCad,Pcbnew,(6.0.5)*
G04 #@! TF.CreationDate,2022-05-23T23:46:21+08:00*
G04 #@! TF.ProjectId,AT Sprint 3B.1,41542053-7072-4696-9e74-2033422e312e,rev?*
G04 #@! TF.SameCoordinates,Original*
G04 #@! TF.FileFunction,Legend,Top*
G04 #@! TF.FilePolarity,Positive*
%FSLAX46Y46*%
G04 Gerber Fmt 4.6, Leading zero omitted, Abs format (unit mm)*
G04 Created by KiCad (PCBNEW (6.0.5)) date 2022-05-23 23:46:21*
%MOMM*%
%LPD*%
G01*
G04 APERTURE LIST*
G04 Aperture macros list*
%AMRoundRect*
0 Rectangle with rounded corners*
0 $1 Rounding radius*
0 $2 $3 $4 $5 $6 $7 $8 $9 X,Y pos of 4 corners*
0 Add a 4 corners polygon primitive as box body*
4,1,4,$2,$3,$4,$5,$6,$7,$8,$9,$2,$3,0*
0 Add four circle primitives for the rounded corners*
1,1,$1+$1,$2,$3*
1,1,$1+$1,$4,$5*
1,1,$1+$1,$6,$7*
1,1,$1+$1,$8,$9*
0 Add four rect primitives between the rounded corners*
20,1,$1+$1,$2,$3,$4,$5,0*
20,1,$1+$1,$4,$5,$6,$7,0*
20,1,$1+$1,$6,$7,$8,$9,0*
20,1,$1+$1,$8,$9,$2,$3,0*%
G04 Aperture macros list end*
%ADD10C,0.150000*%
%ADD11C,0.127000*%
%ADD12C,0.120000*%
%ADD13C,0.203200*%
%ADD14C,0.152400*%
%ADD15C,0.066040*%
%ADD16C,0.406400*%
%ADD17C,0.050000*%
%ADD18RoundRect,0.250000X0.262500X0.450000X-0.262500X0.450000X-0.262500X-0.450000X0.262500X-0.450000X0*%
%ADD19R,2.200000X2.200000*%
%ADD20O,2.200000X2.200000*%
%ADD21RoundRect,0.250000X0.450000X-0.262500X0.450000X0.262500X-0.450000X0.262500X-0.450000X-0.262500X0*%
%ADD22RoundRect,0.250000X-0.450000X0.262500X-0.450000X-0.262500X0.450000X-0.262500X0.450000X0.262500X0*%
%ADD23C,1.651000*%
%ADD24C,1.524000*%
%ADD25RoundRect,0.250000X-0.262500X-0.450000X0.262500X-0.450000X0.262500X0.450000X-0.262500X0.450000X0*%
%ADD26RoundRect,0.250000X0.475000X-0.250000X0.475000X0.250000X-0.475000X0.250000X-0.475000X-0.250000X0*%
%ADD27RoundRect,0.250000X1.075000X-0.425000X1.075000X0.425000X-1.075000X0.425000X-1.075000X-0.425000X0*%
%ADD28C,2.000000*%
%ADD29RoundRect,0.250000X-0.250000X-0.475000X0.250000X-0.475000X0.250000X0.475000X-0.250000X0.475000X0*%
%ADD30RoundRect,0.150000X0.587500X0.150000X-0.587500X0.150000X-0.587500X-0.150000X0.587500X-0.150000X0*%
%ADD31RoundRect,0.250000X0.250000X0.475000X-0.250000X0.475000X-0.250000X-0.475000X0.250000X-0.475000X0*%
%ADD32C,1.676400*%
%ADD33R,2.500000X1.800000*%
%ADD34R,1.700000X1.700000*%
%ADD35O,1.700000X1.700000*%
%ADD36R,0.900000X2.800000*%
%ADD37C,4.400000*%
%ADD38R,1.600000X1.600000*%
%ADD39C,1.600000*%
%ADD40R,1.300000X1.300000*%
%ADD41C,1.300000*%
%ADD42O,2.400000X1.200000*%
%ADD43C,1.700000*%
%ADD44C,1.500000*%
G04 APERTURE END LIST*
D10*
X80484742Y-105354380D02*
X80151409Y-104878190D01*
X79913314Y-105354380D02*
X79913314Y-104354380D01*
X80294266Y-104354380D01*
X80389504Y-104402000D01*
X80437123Y-104449619D01*
X80484742Y-104544857D01*
X80484742Y-104687714D01*
X80437123Y-104782952D01*
X80389504Y-104830571D01*
X80294266Y-104878190D01*
X79913314Y-104878190D01*
X81341885Y-104687714D02*
X81341885Y-105354380D01*
X81103790Y-104306761D02*
X80865695Y-105021047D01*
X81484742Y-105021047D01*
X82056171Y-104354380D02*
X82151409Y-104354380D01*
X82246647Y-104402000D01*
X82294266Y-104449619D01*
X82341885Y-104544857D01*
X82389504Y-104735333D01*
X82389504Y-104973428D01*
X82341885Y-105163904D01*
X82294266Y-105259142D01*
X82246647Y-105306761D01*
X82151409Y-105354380D01*
X82056171Y-105354380D01*
X81960933Y-105306761D01*
X81913314Y-105259142D01*
X81865695Y-105163904D01*
X81818076Y-104973428D01*
X81818076Y-104735333D01*
X81865695Y-104544857D01*
X81913314Y-104449619D01*
X81960933Y-104402000D01*
X82056171Y-104354380D01*
X47188380Y-118594095D02*
X46188380Y-118594095D01*
X46188380Y-118356000D01*
X46236000Y-118213142D01*
X46331238Y-118117904D01*
X46426476Y-118070285D01*
X46616952Y-118022666D01*
X46759809Y-118022666D01*
X46950285Y-118070285D01*
X47045523Y-118117904D01*
X47140761Y-118213142D01*
X47188380Y-118356000D01*
X47188380Y-118594095D01*
X46188380Y-117689333D02*
X46188380Y-117070285D01*
X46569333Y-117403619D01*
X46569333Y-117260761D01*
X46616952Y-117165523D01*
X46664571Y-117117904D01*
X46759809Y-117070285D01*
X46997904Y-117070285D01*
X47093142Y-117117904D01*
X47140761Y-117165523D01*
X47188380Y-117260761D01*
X47188380Y-117546476D01*
X47140761Y-117641714D01*
X47093142Y-117689333D01*
X47188380Y-122181904D02*
X46188380Y-122181904D01*
X47188380Y-121610476D02*
X46616952Y-122039047D01*
X46188380Y-121610476D02*
X46759809Y-122181904D01*
X96337380Y-94265357D02*
X95861190Y-94598690D01*
X96337380Y-94836785D02*
X95337380Y-94836785D01*
X95337380Y-94455833D01*
X95385000Y-94360595D01*
X95432619Y-94312976D01*
X95527857Y-94265357D01*
X95670714Y-94265357D01*
X95765952Y-94312976D01*
X95813571Y-94360595D01*
X95861190Y-94455833D01*
X95861190Y-94836785D01*
X95337380Y-93932023D02*
X95337380Y-93312976D01*
X95718333Y-93646309D01*
X95718333Y-93503452D01*
X95765952Y-93408214D01*
X95813571Y-93360595D01*
X95908809Y-93312976D01*
X96146904Y-93312976D01*
X96242142Y-93360595D01*
X96289761Y-93408214D01*
X96337380Y-93503452D01*
X96337380Y-93789166D01*
X96289761Y-93884404D01*
X96242142Y-93932023D01*
X95337380Y-92979642D02*
X95337380Y-92360595D01*
X95718333Y-92693928D01*
X95718333Y-92551071D01*
X95765952Y-92455833D01*
X95813571Y-92408214D01*
X95908809Y-92360595D01*
X96146904Y-92360595D01*
X96242142Y-92408214D01*
X96289761Y-92455833D01*
X96337380Y-92551071D01*
X96337380Y-92836785D01*
X96289761Y-92932023D01*
X96242142Y-92979642D01*
X75382380Y-115093357D02*
X74906190Y-115426690D01*
X75382380Y-115664785D02*
X74382380Y-115664785D01*
X74382380Y-115283833D01*
X74430000Y-115188595D01*
X74477619Y-115140976D01*
X74572857Y-115093357D01*
X74715714Y-115093357D01*
X74810952Y-115140976D01*
X74858571Y-115188595D01*
X74906190Y-115283833D01*
X74906190Y-115664785D01*
X74477619Y-114712404D02*
X74430000Y-114664785D01*
X74382380Y-114569547D01*
X74382380Y-114331452D01*
X74430000Y-114236214D01*
X74477619Y-114188595D01*
X74572857Y-114140976D01*
X74668095Y-114140976D01*
X74810952Y-114188595D01*
X75382380Y-114760023D01*
X75382380Y-114140976D01*
X74382380Y-113236214D02*
X74382380Y-113712404D01*
X74858571Y-113760023D01*
X74810952Y-113712404D01*
X74763333Y-113617166D01*
X74763333Y-113379071D01*
X74810952Y-113283833D01*
X74858571Y-113236214D01*
X74953809Y-113188595D01*
X75191904Y-113188595D01*
X75287142Y-113236214D01*
X75334761Y-113283833D01*
X75382380Y-113379071D01*
X75382380Y-113617166D01*
X75334761Y-113712404D01*
X75287142Y-113760023D01*
X47783809Y-84685190D02*
X47783809Y-85161380D01*
X47450476Y-84161380D02*
X47783809Y-84685190D01*
X48117142Y-84161380D01*
X48974285Y-85161380D02*
X48402857Y-85161380D01*
X48688571Y-85161380D02*
X48688571Y-84161380D01*
X48593333Y-84304238D01*
X48498095Y-84399476D01*
X48402857Y-84447095D01*
D11*
X46478371Y-80336571D02*
X46884771Y-80336571D01*
X46246142Y-80481714D02*
X46681571Y-80626857D01*
X46681571Y-80249485D01*
X46826714Y-80017257D02*
X46855742Y-79988228D01*
X46884771Y-80017257D01*
X46855742Y-80046285D01*
X46826714Y-80017257D01*
X46884771Y-80017257D01*
X46884771Y-79697942D02*
X46884771Y-79581828D01*
X46855742Y-79523771D01*
X46826714Y-79494742D01*
X46739628Y-79436685D01*
X46623514Y-79407657D01*
X46391285Y-79407657D01*
X46333228Y-79436685D01*
X46304200Y-79465714D01*
X46275171Y-79523771D01*
X46275171Y-79639885D01*
X46304200Y-79697942D01*
X46333228Y-79726971D01*
X46391285Y-79756000D01*
X46536428Y-79756000D01*
X46594485Y-79726971D01*
X46623514Y-79697942D01*
X46652542Y-79639885D01*
X46652542Y-79523771D01*
X46623514Y-79465714D01*
X46594485Y-79436685D01*
X46536428Y-79407657D01*
X46884771Y-78827085D02*
X46884771Y-79175428D01*
X46884771Y-79001257D02*
X46275171Y-79001257D01*
X46362257Y-79059314D01*
X46420314Y-79117371D01*
X46449342Y-79175428D01*
X46275171Y-78275542D02*
X46275171Y-78565828D01*
X46565457Y-78594857D01*
X46536428Y-78565828D01*
X46507400Y-78507771D01*
X46507400Y-78362628D01*
X46536428Y-78304571D01*
X46565457Y-78275542D01*
X46623514Y-78246514D01*
X46768657Y-78246514D01*
X46826714Y-78275542D01*
X46855742Y-78304571D01*
X46884771Y-78362628D01*
X46884771Y-78507771D01*
X46855742Y-78565828D01*
X46826714Y-78594857D01*
X46333228Y-78014285D02*
X46304200Y-77985257D01*
X46275171Y-77927200D01*
X46275171Y-77782057D01*
X46304200Y-77724000D01*
X46333228Y-77694971D01*
X46391285Y-77665942D01*
X46449342Y-77665942D01*
X46536428Y-77694971D01*
X46884771Y-78043314D01*
X46884771Y-77665942D01*
X46884771Y-77404685D02*
X46275171Y-77404685D01*
X46710600Y-77201485D01*
X46275171Y-76998285D01*
X46884771Y-76998285D01*
X46884771Y-76708000D02*
X46275171Y-76708000D01*
X46565457Y-76708000D02*
X46565457Y-76359657D01*
X46884771Y-76359657D02*
X46275171Y-76359657D01*
X46478371Y-76127428D02*
X46478371Y-75808114D01*
X46884771Y-76127428D01*
X46884771Y-75808114D01*
D10*
X84653380Y-101226857D02*
X84177190Y-101560190D01*
X84653380Y-101798285D02*
X83653380Y-101798285D01*
X83653380Y-101417333D01*
X83701000Y-101322095D01*
X83748619Y-101274476D01*
X83843857Y-101226857D01*
X83986714Y-101226857D01*
X84081952Y-101274476D01*
X84129571Y-101322095D01*
X84177190Y-101417333D01*
X84177190Y-101798285D01*
X83748619Y-100845904D02*
X83701000Y-100798285D01*
X83653380Y-100703047D01*
X83653380Y-100464952D01*
X83701000Y-100369714D01*
X83748619Y-100322095D01*
X83843857Y-100274476D01*
X83939095Y-100274476D01*
X84081952Y-100322095D01*
X84653380Y-100893523D01*
X84653380Y-100274476D01*
X83986714Y-99417333D02*
X84653380Y-99417333D01*
X83605761Y-99655428D02*
X84320047Y-99893523D01*
X84320047Y-99274476D01*
X95067380Y-111488457D02*
X94591190Y-111821790D01*
X95067380Y-112059885D02*
X94067380Y-112059885D01*
X94067380Y-111678933D01*
X94115000Y-111583695D01*
X94162619Y-111536076D01*
X94257857Y-111488457D01*
X94400714Y-111488457D01*
X94495952Y-111536076D01*
X94543571Y-111583695D01*
X94591190Y-111678933D01*
X94591190Y-112059885D01*
X94067380Y-111155123D02*
X94067380Y-110536076D01*
X94448333Y-110869409D01*
X94448333Y-110726552D01*
X94495952Y-110631314D01*
X94543571Y-110583695D01*
X94638809Y-110536076D01*
X94876904Y-110536076D01*
X94972142Y-110583695D01*
X95019761Y-110631314D01*
X95067380Y-110726552D01*
X95067380Y-111012266D01*
X95019761Y-111107504D01*
X94972142Y-111155123D01*
X94400714Y-109678933D02*
X95067380Y-109678933D01*
X94019761Y-109917028D02*
X94734047Y-110155123D01*
X94734047Y-109536076D01*
X75382380Y-110980457D02*
X74906190Y-111313790D01*
X75382380Y-111551885D02*
X74382380Y-111551885D01*
X74382380Y-111170933D01*
X74430000Y-111075695D01*
X74477619Y-111028076D01*
X74572857Y-110980457D01*
X74715714Y-110980457D01*
X74810952Y-111028076D01*
X74858571Y-111075695D01*
X74906190Y-111170933D01*
X74906190Y-111551885D01*
X74477619Y-110599504D02*
X74430000Y-110551885D01*
X74382380Y-110456647D01*
X74382380Y-110218552D01*
X74430000Y-110123314D01*
X74477619Y-110075695D01*
X74572857Y-110028076D01*
X74668095Y-110028076D01*
X74810952Y-110075695D01*
X75382380Y-110647123D01*
X75382380Y-110028076D01*
X74382380Y-109170933D02*
X74382380Y-109361409D01*
X74430000Y-109456647D01*
X74477619Y-109504266D01*
X74620476Y-109599504D01*
X74810952Y-109647123D01*
X75191904Y-109647123D01*
X75287142Y-109599504D01*
X75334761Y-109551885D01*
X75382380Y-109456647D01*
X75382380Y-109266171D01*
X75334761Y-109170933D01*
X75287142Y-109123314D01*
X75191904Y-109075695D01*
X74953809Y-109075695D01*
X74858571Y-109123314D01*
X74810952Y-109170933D01*
X74763333Y-109266171D01*
X74763333Y-109456647D01*
X74810952Y-109551885D01*
X74858571Y-109599504D01*
X74953809Y-109647123D01*
X60412333Y-107005380D02*
X59936142Y-107005380D01*
X59936142Y-106005380D01*
X60650428Y-106005380D02*
X61269476Y-106005380D01*
X60936142Y-106386333D01*
X61079000Y-106386333D01*
X61174238Y-106433952D01*
X61221857Y-106481571D01*
X61269476Y-106576809D01*
X61269476Y-106814904D01*
X61221857Y-106910142D01*
X61174238Y-106957761D01*
X61079000Y-107005380D01*
X60793285Y-107005380D01*
X60698047Y-106957761D01*
X60650428Y-106910142D01*
X79240142Y-113482380D02*
X78906809Y-113006190D01*
X78668714Y-113482380D02*
X78668714Y-112482380D01*
X79049666Y-112482380D01*
X79144904Y-112530000D01*
X79192523Y-112577619D01*
X79240142Y-112672857D01*
X79240142Y-112815714D01*
X79192523Y-112910952D01*
X79144904Y-112958571D01*
X79049666Y-113006190D01*
X78668714Y-113006190D01*
X79573476Y-112482380D02*
X80192523Y-112482380D01*
X79859190Y-112863333D01*
X80002047Y-112863333D01*
X80097285Y-112910952D01*
X80144904Y-112958571D01*
X80192523Y-113053809D01*
X80192523Y-113291904D01*
X80144904Y-113387142D01*
X80097285Y-113434761D01*
X80002047Y-113482380D01*
X79716333Y-113482380D01*
X79621095Y-113434761D01*
X79573476Y-113387142D01*
X80763952Y-112910952D02*
X80668714Y-112863333D01*
X80621095Y-112815714D01*
X80573476Y-112720476D01*
X80573476Y-112672857D01*
X80621095Y-112577619D01*
X80668714Y-112530000D01*
X80763952Y-112482380D01*
X80954428Y-112482380D01*
X81049666Y-112530000D01*
X81097285Y-112577619D01*
X81144904Y-112672857D01*
X81144904Y-112720476D01*
X81097285Y-112815714D01*
X81049666Y-112863333D01*
X80954428Y-112910952D01*
X80763952Y-112910952D01*
X80668714Y-112958571D01*
X80621095Y-113006190D01*
X80573476Y-113101428D01*
X80573476Y-113291904D01*
X80621095Y-113387142D01*
X80668714Y-113434761D01*
X80763952Y-113482380D01*
X80954428Y-113482380D01*
X81049666Y-113434761D01*
X81097285Y-113387142D01*
X81144904Y-113291904D01*
X81144904Y-113101428D01*
X81097285Y-113006190D01*
X81049666Y-112958571D01*
X80954428Y-112910952D01*
X105386142Y-103832857D02*
X105433761Y-103880476D01*
X105481380Y-104023333D01*
X105481380Y-104118571D01*
X105433761Y-104261428D01*
X105338523Y-104356666D01*
X105243285Y-104404285D01*
X105052809Y-104451904D01*
X104909952Y-104451904D01*
X104719476Y-104404285D01*
X104624238Y-104356666D01*
X104529000Y-104261428D01*
X104481380Y-104118571D01*
X104481380Y-104023333D01*
X104529000Y-103880476D01*
X104576619Y-103832857D01*
X104814714Y-102975714D02*
X105481380Y-102975714D01*
X104433761Y-103213809D02*
X105148047Y-103451904D01*
X105148047Y-102832857D01*
X104481380Y-102023333D02*
X104481380Y-102213809D01*
X104529000Y-102309047D01*
X104576619Y-102356666D01*
X104719476Y-102451904D01*
X104909952Y-102499523D01*
X105290904Y-102499523D01*
X105386142Y-102451904D01*
X105433761Y-102404285D01*
X105481380Y-102309047D01*
X105481380Y-102118571D01*
X105433761Y-102023333D01*
X105386142Y-101975714D01*
X105290904Y-101928095D01*
X105052809Y-101928095D01*
X104957571Y-101975714D01*
X104909952Y-102023333D01*
X104862333Y-102118571D01*
X104862333Y-102309047D01*
X104909952Y-102404285D01*
X104957571Y-102451904D01*
X105052809Y-102499523D01*
X36018380Y-113414666D02*
X36018380Y-113890857D01*
X35018380Y-113890857D01*
X35351714Y-112652761D02*
X36018380Y-112652761D01*
X34970761Y-112890857D02*
X35685047Y-113128952D01*
X35685047Y-112509904D01*
X89396666Y-125118761D02*
X89539523Y-125166380D01*
X89777619Y-125166380D01*
X89872857Y-125118761D01*
X89920476Y-125071142D01*
X89968095Y-124975904D01*
X89968095Y-124880666D01*
X89920476Y-124785428D01*
X89872857Y-124737809D01*
X89777619Y-124690190D01*
X89587142Y-124642571D01*
X89491904Y-124594952D01*
X89444285Y-124547333D01*
X89396666Y-124452095D01*
X89396666Y-124356857D01*
X89444285Y-124261619D01*
X89491904Y-124214000D01*
X89587142Y-124166380D01*
X89825238Y-124166380D01*
X89968095Y-124214000D01*
X90301428Y-124166380D02*
X90539523Y-125166380D01*
X90730000Y-124452095D01*
X90920476Y-125166380D01*
X91158571Y-124166380D01*
X91491904Y-124261619D02*
X91539523Y-124214000D01*
X91634761Y-124166380D01*
X91872857Y-124166380D01*
X91968095Y-124214000D01*
X92015714Y-124261619D01*
X92063333Y-124356857D01*
X92063333Y-124452095D01*
X92015714Y-124594952D01*
X91444285Y-125166380D01*
X92063333Y-125166380D01*
X96004142Y-108122980D02*
X95670809Y-107646790D01*
X95432714Y-108122980D02*
X95432714Y-107122980D01*
X95813666Y-107122980D01*
X95908904Y-107170600D01*
X95956523Y-107218219D01*
X96004142Y-107313457D01*
X96004142Y-107456314D01*
X95956523Y-107551552D01*
X95908904Y-107599171D01*
X95813666Y-107646790D01*
X95432714Y-107646790D01*
X96337476Y-107122980D02*
X96956523Y-107122980D01*
X96623190Y-107503933D01*
X96766047Y-107503933D01*
X96861285Y-107551552D01*
X96908904Y-107599171D01*
X96956523Y-107694409D01*
X96956523Y-107932504D01*
X96908904Y-108027742D01*
X96861285Y-108075361D01*
X96766047Y-108122980D01*
X96480333Y-108122980D01*
X96385095Y-108075361D01*
X96337476Y-108027742D01*
X97861285Y-107122980D02*
X97385095Y-107122980D01*
X97337476Y-107599171D01*
X97385095Y-107551552D01*
X97480333Y-107503933D01*
X97718428Y-107503933D01*
X97813666Y-107551552D01*
X97861285Y-107599171D01*
X97908904Y-107694409D01*
X97908904Y-107932504D01*
X97861285Y-108027742D01*
X97813666Y-108075361D01*
X97718428Y-108122980D01*
X97480333Y-108122980D01*
X97385095Y-108075361D01*
X97337476Y-108027742D01*
X80484742Y-110815380D02*
X80151409Y-110339190D01*
X79913314Y-110815380D02*
X79913314Y-109815380D01*
X80294266Y-109815380D01*
X80389504Y-109863000D01*
X80437123Y-109910619D01*
X80484742Y-110005857D01*
X80484742Y-110148714D01*
X80437123Y-110243952D01*
X80389504Y-110291571D01*
X80294266Y-110339190D01*
X79913314Y-110339190D01*
X80818076Y-109815380D02*
X81437123Y-109815380D01*
X81103790Y-110196333D01*
X81246647Y-110196333D01*
X81341885Y-110243952D01*
X81389504Y-110291571D01*
X81437123Y-110386809D01*
X81437123Y-110624904D01*
X81389504Y-110720142D01*
X81341885Y-110767761D01*
X81246647Y-110815380D01*
X80960933Y-110815380D01*
X80865695Y-110767761D01*
X80818076Y-110720142D01*
X81913314Y-110815380D02*
X82103790Y-110815380D01*
X82199028Y-110767761D01*
X82246647Y-110720142D01*
X82341885Y-110577285D01*
X82389504Y-110386809D01*
X82389504Y-110005857D01*
X82341885Y-109910619D01*
X82294266Y-109863000D01*
X82199028Y-109815380D01*
X82008552Y-109815380D01*
X81913314Y-109863000D01*
X81865695Y-109910619D01*
X81818076Y-110005857D01*
X81818076Y-110243952D01*
X81865695Y-110339190D01*
X81913314Y-110386809D01*
X82008552Y-110434428D01*
X82199028Y-110434428D01*
X82294266Y-110386809D01*
X82341885Y-110339190D01*
X82389504Y-110243952D01*
X89654142Y-116022380D02*
X89320809Y-115546190D01*
X89082714Y-116022380D02*
X89082714Y-115022380D01*
X89463666Y-115022380D01*
X89558904Y-115070000D01*
X89606523Y-115117619D01*
X89654142Y-115212857D01*
X89654142Y-115355714D01*
X89606523Y-115450952D01*
X89558904Y-115498571D01*
X89463666Y-115546190D01*
X89082714Y-115546190D01*
X89987476Y-115022380D02*
X90606523Y-115022380D01*
X90273190Y-115403333D01*
X90416047Y-115403333D01*
X90511285Y-115450952D01*
X90558904Y-115498571D01*
X90606523Y-115593809D01*
X90606523Y-115831904D01*
X90558904Y-115927142D01*
X90511285Y-115974761D01*
X90416047Y-116022380D01*
X90130333Y-116022380D01*
X90035095Y-115974761D01*
X89987476Y-115927142D01*
X91463666Y-115022380D02*
X91273190Y-115022380D01*
X91177952Y-115070000D01*
X91130333Y-115117619D01*
X91035095Y-115260476D01*
X90987476Y-115450952D01*
X90987476Y-115831904D01*
X91035095Y-115927142D01*
X91082714Y-115974761D01*
X91177952Y-116022380D01*
X91368428Y-116022380D01*
X91463666Y-115974761D01*
X91511285Y-115927142D01*
X91558904Y-115831904D01*
X91558904Y-115593809D01*
X91511285Y-115498571D01*
X91463666Y-115450952D01*
X91368428Y-115403333D01*
X91177952Y-115403333D01*
X91082714Y-115450952D01*
X91035095Y-115498571D01*
X90987476Y-115593809D01*
X45381942Y-88114142D02*
X45334323Y-88161761D01*
X45191466Y-88209380D01*
X45096228Y-88209380D01*
X44953371Y-88161761D01*
X44858133Y-88066523D01*
X44810514Y-87971285D01*
X44762895Y-87780809D01*
X44762895Y-87637952D01*
X44810514Y-87447476D01*
X44858133Y-87352238D01*
X44953371Y-87257000D01*
X45096228Y-87209380D01*
X45191466Y-87209380D01*
X45334323Y-87257000D01*
X45381942Y-87304619D01*
X46239085Y-87542714D02*
X46239085Y-88209380D01*
X46000990Y-87161761D02*
X45762895Y-87876047D01*
X46381942Y-87876047D01*
X46810514Y-88209380D02*
X47000990Y-88209380D01*
X47096228Y-88161761D01*
X47143847Y-88114142D01*
X47239085Y-87971285D01*
X47286704Y-87780809D01*
X47286704Y-87399857D01*
X47239085Y-87304619D01*
X47191466Y-87257000D01*
X47096228Y-87209380D01*
X46905752Y-87209380D01*
X46810514Y-87257000D01*
X46762895Y-87304619D01*
X46715276Y-87399857D01*
X46715276Y-87637952D01*
X46762895Y-87733190D01*
X46810514Y-87780809D01*
X46905752Y-87828428D01*
X47096228Y-87828428D01*
X47191466Y-87780809D01*
X47239085Y-87733190D01*
X47286704Y-87637952D01*
X79236666Y-125169561D02*
X79379523Y-125217180D01*
X79617619Y-125217180D01*
X79712857Y-125169561D01*
X79760476Y-125121942D01*
X79808095Y-125026704D01*
X79808095Y-124931466D01*
X79760476Y-124836228D01*
X79712857Y-124788609D01*
X79617619Y-124740990D01*
X79427142Y-124693371D01*
X79331904Y-124645752D01*
X79284285Y-124598133D01*
X79236666Y-124502895D01*
X79236666Y-124407657D01*
X79284285Y-124312419D01*
X79331904Y-124264800D01*
X79427142Y-124217180D01*
X79665238Y-124217180D01*
X79808095Y-124264800D01*
X80141428Y-124217180D02*
X80379523Y-125217180D01*
X80570000Y-124502895D01*
X80760476Y-125217180D01*
X80998571Y-124217180D01*
X81284285Y-124217180D02*
X81903333Y-124217180D01*
X81570000Y-124598133D01*
X81712857Y-124598133D01*
X81808095Y-124645752D01*
X81855714Y-124693371D01*
X81903333Y-124788609D01*
X81903333Y-125026704D01*
X81855714Y-125121942D01*
X81808095Y-125169561D01*
X81712857Y-125217180D01*
X81427142Y-125217180D01*
X81331904Y-125169561D01*
X81284285Y-125121942D01*
X89772404Y-90638380D02*
X89772404Y-91447904D01*
X89820023Y-91543142D01*
X89867642Y-91590761D01*
X89962880Y-91638380D01*
X90153357Y-91638380D01*
X90248595Y-91590761D01*
X90296214Y-91543142D01*
X90343833Y-91447904D01*
X90343833Y-90638380D01*
X91343833Y-91638380D02*
X90772404Y-91638380D01*
X91058119Y-91638380D02*
X91058119Y-90638380D01*
X90962880Y-90781238D01*
X90867642Y-90876476D01*
X90772404Y-90924095D01*
X92296214Y-91638380D02*
X91724785Y-91638380D01*
X92010500Y-91638380D02*
X92010500Y-90638380D01*
X91915261Y-90781238D01*
X91820023Y-90876476D01*
X91724785Y-90924095D01*
X79113142Y-115768380D02*
X78779809Y-115292190D01*
X78541714Y-115768380D02*
X78541714Y-114768380D01*
X78922666Y-114768380D01*
X79017904Y-114816000D01*
X79065523Y-114863619D01*
X79113142Y-114958857D01*
X79113142Y-115101714D01*
X79065523Y-115196952D01*
X79017904Y-115244571D01*
X78922666Y-115292190D01*
X78541714Y-115292190D01*
X79446476Y-114768380D02*
X80065523Y-114768380D01*
X79732190Y-115149333D01*
X79875047Y-115149333D01*
X79970285Y-115196952D01*
X80017904Y-115244571D01*
X80065523Y-115339809D01*
X80065523Y-115577904D01*
X80017904Y-115673142D01*
X79970285Y-115720761D01*
X79875047Y-115768380D01*
X79589333Y-115768380D01*
X79494095Y-115720761D01*
X79446476Y-115673142D01*
X80398857Y-114768380D02*
X81065523Y-114768380D01*
X80636952Y-115768380D01*
X69076666Y-125118761D02*
X69219523Y-125166380D01*
X69457619Y-125166380D01*
X69552857Y-125118761D01*
X69600476Y-125071142D01*
X69648095Y-124975904D01*
X69648095Y-124880666D01*
X69600476Y-124785428D01*
X69552857Y-124737809D01*
X69457619Y-124690190D01*
X69267142Y-124642571D01*
X69171904Y-124594952D01*
X69124285Y-124547333D01*
X69076666Y-124452095D01*
X69076666Y-124356857D01*
X69124285Y-124261619D01*
X69171904Y-124214000D01*
X69267142Y-124166380D01*
X69505238Y-124166380D01*
X69648095Y-124214000D01*
X69981428Y-124166380D02*
X70219523Y-125166380D01*
X70410000Y-124452095D01*
X70600476Y-125166380D01*
X70838571Y-124166380D01*
X71648095Y-124499714D02*
X71648095Y-125166380D01*
X71410000Y-124118761D02*
X71171904Y-124833047D01*
X71790952Y-124833047D01*
X45432742Y-94051380D02*
X45099409Y-93575190D01*
X44861314Y-94051380D02*
X44861314Y-93051380D01*
X45242266Y-93051380D01*
X45337504Y-93099000D01*
X45385123Y-93146619D01*
X45432742Y-93241857D01*
X45432742Y-93384714D01*
X45385123Y-93479952D01*
X45337504Y-93527571D01*
X45242266Y-93575190D01*
X44861314Y-93575190D01*
X45813695Y-93146619D02*
X45861314Y-93099000D01*
X45956552Y-93051380D01*
X46194647Y-93051380D01*
X46289885Y-93099000D01*
X46337504Y-93146619D01*
X46385123Y-93241857D01*
X46385123Y-93337095D01*
X46337504Y-93479952D01*
X45766076Y-94051380D01*
X46385123Y-94051380D01*
X47337504Y-94051380D02*
X46766076Y-94051380D01*
X47051790Y-94051380D02*
X47051790Y-93051380D01*
X46956552Y-93194238D01*
X46861314Y-93289476D01*
X46766076Y-93337095D01*
X35536142Y-101988857D02*
X35583761Y-102036476D01*
X35631380Y-102179333D01*
X35631380Y-102274571D01*
X35583761Y-102417428D01*
X35488523Y-102512666D01*
X35393285Y-102560285D01*
X35202809Y-102607904D01*
X35059952Y-102607904D01*
X34869476Y-102560285D01*
X34774238Y-102512666D01*
X34679000Y-102417428D01*
X34631380Y-102274571D01*
X34631380Y-102179333D01*
X34679000Y-102036476D01*
X34726619Y-101988857D01*
X34964714Y-101131714D02*
X35631380Y-101131714D01*
X34583761Y-101369809D02*
X35298047Y-101607904D01*
X35298047Y-100988857D01*
X35059952Y-100465047D02*
X35012333Y-100560285D01*
X34964714Y-100607904D01*
X34869476Y-100655523D01*
X34821857Y-100655523D01*
X34726619Y-100607904D01*
X34679000Y-100560285D01*
X34631380Y-100465047D01*
X34631380Y-100274571D01*
X34679000Y-100179333D01*
X34726619Y-100131714D01*
X34821857Y-100084095D01*
X34869476Y-100084095D01*
X34964714Y-100131714D01*
X35012333Y-100179333D01*
X35059952Y-100274571D01*
X35059952Y-100465047D01*
X35107571Y-100560285D01*
X35155190Y-100607904D01*
X35250428Y-100655523D01*
X35440904Y-100655523D01*
X35536142Y-100607904D01*
X35583761Y-100560285D01*
X35631380Y-100465047D01*
X35631380Y-100274571D01*
X35583761Y-100179333D01*
X35536142Y-100131714D01*
X35440904Y-100084095D01*
X35250428Y-100084095D01*
X35155190Y-100131714D01*
X35107571Y-100179333D01*
X35059952Y-100274571D01*
X50157142Y-98020142D02*
X50109523Y-98067761D01*
X49966666Y-98115380D01*
X49871428Y-98115380D01*
X49728571Y-98067761D01*
X49633333Y-97972523D01*
X49585714Y-97877285D01*
X49538095Y-97686809D01*
X49538095Y-97543952D01*
X49585714Y-97353476D01*
X49633333Y-97258238D01*
X49728571Y-97163000D01*
X49871428Y-97115380D01*
X49966666Y-97115380D01*
X50109523Y-97163000D01*
X50157142Y-97210619D01*
X51061904Y-97115380D02*
X50585714Y-97115380D01*
X50538095Y-97591571D01*
X50585714Y-97543952D01*
X50680952Y-97496333D01*
X50919047Y-97496333D01*
X51014285Y-97543952D01*
X51061904Y-97591571D01*
X51109523Y-97686809D01*
X51109523Y-97924904D01*
X51061904Y-98020142D01*
X51014285Y-98067761D01*
X50919047Y-98115380D01*
X50680952Y-98115380D01*
X50585714Y-98067761D01*
X50538095Y-98020142D01*
X51490476Y-97210619D02*
X51538095Y-97163000D01*
X51633333Y-97115380D01*
X51871428Y-97115380D01*
X51966666Y-97163000D01*
X52014285Y-97210619D01*
X52061904Y-97305857D01*
X52061904Y-97401095D01*
X52014285Y-97543952D01*
X51442857Y-98115380D01*
X52061904Y-98115380D01*
X100909380Y-97484666D02*
X100909380Y-97960857D01*
X99909380Y-97960857D01*
X99909380Y-97246571D02*
X99909380Y-96579904D01*
X100909380Y-97008476D01*
X63023809Y-84685190D02*
X63023809Y-85161380D01*
X62690476Y-84161380D02*
X63023809Y-84685190D01*
X63357142Y-84161380D01*
X64119047Y-84494714D02*
X64119047Y-85161380D01*
X63880952Y-84113761D02*
X63642857Y-84828047D01*
X64261904Y-84828047D01*
D11*
X61718371Y-80336571D02*
X62124771Y-80336571D01*
X61486142Y-80481714D02*
X61921571Y-80626857D01*
X61921571Y-80249485D01*
X62066714Y-80017257D02*
X62095742Y-79988228D01*
X62124771Y-80017257D01*
X62095742Y-80046285D01*
X62066714Y-80017257D01*
X62124771Y-80017257D01*
X62124771Y-79697942D02*
X62124771Y-79581828D01*
X62095742Y-79523771D01*
X62066714Y-79494742D01*
X61979628Y-79436685D01*
X61863514Y-79407657D01*
X61631285Y-79407657D01*
X61573228Y-79436685D01*
X61544200Y-79465714D01*
X61515171Y-79523771D01*
X61515171Y-79639885D01*
X61544200Y-79697942D01*
X61573228Y-79726971D01*
X61631285Y-79756000D01*
X61776428Y-79756000D01*
X61834485Y-79726971D01*
X61863514Y-79697942D01*
X61892542Y-79639885D01*
X61892542Y-79523771D01*
X61863514Y-79465714D01*
X61834485Y-79436685D01*
X61776428Y-79407657D01*
X62124771Y-78827085D02*
X62124771Y-79175428D01*
X62124771Y-79001257D02*
X61515171Y-79001257D01*
X61602257Y-79059314D01*
X61660314Y-79117371D01*
X61689342Y-79175428D01*
X61515171Y-78275542D02*
X61515171Y-78565828D01*
X61805457Y-78594857D01*
X61776428Y-78565828D01*
X61747400Y-78507771D01*
X61747400Y-78362628D01*
X61776428Y-78304571D01*
X61805457Y-78275542D01*
X61863514Y-78246514D01*
X62008657Y-78246514D01*
X62066714Y-78275542D01*
X62095742Y-78304571D01*
X62124771Y-78362628D01*
X62124771Y-78507771D01*
X62095742Y-78565828D01*
X62066714Y-78594857D01*
X61573228Y-78014285D02*
X61544200Y-77985257D01*
X61515171Y-77927200D01*
X61515171Y-77782057D01*
X61544200Y-77724000D01*
X61573228Y-77694971D01*
X61631285Y-77665942D01*
X61689342Y-77665942D01*
X61776428Y-77694971D01*
X62124771Y-78043314D01*
X62124771Y-77665942D01*
X62124771Y-77404685D02*
X61515171Y-77404685D01*
X61950600Y-77201485D01*
X61515171Y-76998285D01*
X62124771Y-76998285D01*
X62124771Y-76708000D02*
X61515171Y-76708000D01*
X61805457Y-76708000D02*
X61805457Y-76359657D01*
X62124771Y-76359657D02*
X61515171Y-76359657D01*
X61718371Y-76127428D02*
X61718371Y-75808114D01*
X62124771Y-76127428D01*
X62124771Y-75808114D01*
D10*
X100742809Y-109704190D02*
X100742809Y-110180380D01*
X100409476Y-109180380D02*
X100742809Y-109704190D01*
X101076142Y-109180380D01*
X101838047Y-109180380D02*
X101647571Y-109180380D01*
X101552333Y-109228000D01*
X101504714Y-109275619D01*
X101409476Y-109418476D01*
X101361857Y-109608952D01*
X101361857Y-109989904D01*
X101409476Y-110085142D01*
X101457095Y-110132761D01*
X101552333Y-110180380D01*
X101742809Y-110180380D01*
X101838047Y-110132761D01*
X101885666Y-110085142D01*
X101933285Y-109989904D01*
X101933285Y-109751809D01*
X101885666Y-109656571D01*
X101838047Y-109608952D01*
X101742809Y-109561333D01*
X101552333Y-109561333D01*
X101457095Y-109608952D01*
X101409476Y-109656571D01*
X101361857Y-109751809D01*
D11*
X101748771Y-112823171D02*
X102126142Y-112823171D01*
X101922942Y-113055400D01*
X102010028Y-113055400D01*
X102068085Y-113084428D01*
X102097114Y-113113457D01*
X102126142Y-113171514D01*
X102126142Y-113316657D01*
X102097114Y-113374714D01*
X102068085Y-113403742D01*
X102010028Y-113432771D01*
X101835857Y-113432771D01*
X101777800Y-113403742D01*
X101748771Y-113374714D01*
X102358371Y-112881228D02*
X102387400Y-112852200D01*
X102445457Y-112823171D01*
X102590600Y-112823171D01*
X102648657Y-112852200D01*
X102677685Y-112881228D01*
X102706714Y-112939285D01*
X102706714Y-112997342D01*
X102677685Y-113084428D01*
X102329342Y-113432771D01*
X102706714Y-113432771D01*
X102967971Y-113374714D02*
X102997000Y-113403742D01*
X102967971Y-113432771D01*
X102938942Y-113403742D01*
X102967971Y-113374714D01*
X102967971Y-113432771D01*
X103200200Y-112823171D02*
X103606600Y-112823171D01*
X103345342Y-113432771D01*
X104100085Y-112823171D02*
X103983971Y-112823171D01*
X103925914Y-112852200D01*
X103896885Y-112881228D01*
X103838828Y-112968314D01*
X103809800Y-113084428D01*
X103809800Y-113316657D01*
X103838828Y-113374714D01*
X103867857Y-113403742D01*
X103925914Y-113432771D01*
X104042028Y-113432771D01*
X104100085Y-113403742D01*
X104129114Y-113374714D01*
X104158142Y-113316657D01*
X104158142Y-113171514D01*
X104129114Y-113113457D01*
X104100085Y-113084428D01*
X104042028Y-113055400D01*
X103925914Y-113055400D01*
X103867857Y-113084428D01*
X103838828Y-113113457D01*
X103809800Y-113171514D01*
X104506485Y-113084428D02*
X104448428Y-113055400D01*
X104419400Y-113026371D01*
X104390371Y-112968314D01*
X104390371Y-112939285D01*
X104419400Y-112881228D01*
X104448428Y-112852200D01*
X104506485Y-112823171D01*
X104622600Y-112823171D01*
X104680657Y-112852200D01*
X104709685Y-112881228D01*
X104738714Y-112939285D01*
X104738714Y-112968314D01*
X104709685Y-113026371D01*
X104680657Y-113055400D01*
X104622600Y-113084428D01*
X104506485Y-113084428D01*
X104448428Y-113113457D01*
X104419400Y-113142485D01*
X104390371Y-113200542D01*
X104390371Y-113316657D01*
X104419400Y-113374714D01*
X104448428Y-113403742D01*
X104506485Y-113432771D01*
X104622600Y-113432771D01*
X104680657Y-113403742D01*
X104709685Y-113374714D01*
X104738714Y-113316657D01*
X104738714Y-113200542D01*
X104709685Y-113142485D01*
X104680657Y-113113457D01*
X104622600Y-113084428D01*
X104999971Y-113432771D02*
X104999971Y-112823171D01*
X105058028Y-113200542D02*
X105232200Y-113432771D01*
X105232200Y-113026371D02*
X104999971Y-113258600D01*
D10*
X109973904Y-81264380D02*
X109973904Y-80264380D01*
X110212000Y-80264380D01*
X110354857Y-80312000D01*
X110450095Y-80407238D01*
X110497714Y-80502476D01*
X110545333Y-80692952D01*
X110545333Y-80835809D01*
X110497714Y-81026285D01*
X110450095Y-81121523D01*
X110354857Y-81216761D01*
X110212000Y-81264380D01*
X109973904Y-81264380D01*
X111497714Y-81264380D02*
X110926285Y-81264380D01*
X111212000Y-81264380D02*
X111212000Y-80264380D01*
X111116761Y-80407238D01*
X111021523Y-80502476D01*
X110926285Y-80550095D01*
X34631380Y-106759333D02*
X35345666Y-106759333D01*
X35488523Y-106806952D01*
X35583761Y-106902190D01*
X35631380Y-107045047D01*
X35631380Y-107140285D01*
X34631380Y-105806952D02*
X34631380Y-106283142D01*
X35107571Y-106330761D01*
X35059952Y-106283142D01*
X35012333Y-106187904D01*
X35012333Y-105949809D01*
X35059952Y-105854571D01*
X35107571Y-105806952D01*
X35202809Y-105759333D01*
X35440904Y-105759333D01*
X35536142Y-105806952D01*
X35583761Y-105854571D01*
X35631380Y-105949809D01*
X35631380Y-106187904D01*
X35583761Y-106283142D01*
X35536142Y-106330761D01*
X88246104Y-97369380D02*
X88246104Y-98178904D01*
X88293723Y-98274142D01*
X88341342Y-98321761D01*
X88436580Y-98369380D01*
X88627057Y-98369380D01*
X88722295Y-98321761D01*
X88769914Y-98274142D01*
X88817533Y-98178904D01*
X88817533Y-97369380D01*
X89246104Y-97464619D02*
X89293723Y-97417000D01*
X89388961Y-97369380D01*
X89627057Y-97369380D01*
X89722295Y-97417000D01*
X89769914Y-97464619D01*
X89817533Y-97559857D01*
X89817533Y-97655095D01*
X89769914Y-97797952D01*
X89198485Y-98369380D01*
X89817533Y-98369380D01*
X90198485Y-97464619D02*
X90246104Y-97417000D01*
X90341342Y-97369380D01*
X90579438Y-97369380D01*
X90674676Y-97417000D01*
X90722295Y-97464619D01*
X90769914Y-97559857D01*
X90769914Y-97655095D01*
X90722295Y-97797952D01*
X90150866Y-98369380D01*
X90769914Y-98369380D01*
X89654142Y-113736380D02*
X89320809Y-113260190D01*
X89082714Y-113736380D02*
X89082714Y-112736380D01*
X89463666Y-112736380D01*
X89558904Y-112784000D01*
X89606523Y-112831619D01*
X89654142Y-112926857D01*
X89654142Y-113069714D01*
X89606523Y-113164952D01*
X89558904Y-113212571D01*
X89463666Y-113260190D01*
X89082714Y-113260190D01*
X90511285Y-113069714D02*
X90511285Y-113736380D01*
X90273190Y-112688761D02*
X90035095Y-113403047D01*
X90654142Y-113403047D01*
X91558904Y-113736380D02*
X90987476Y-113736380D01*
X91273190Y-113736380D02*
X91273190Y-112736380D01*
X91177952Y-112879238D01*
X91082714Y-112974476D01*
X90987476Y-113022095D01*
X52863809Y-84685190D02*
X52863809Y-85161380D01*
X52530476Y-84161380D02*
X52863809Y-84685190D01*
X53197142Y-84161380D01*
X53482857Y-84256619D02*
X53530476Y-84209000D01*
X53625714Y-84161380D01*
X53863809Y-84161380D01*
X53959047Y-84209000D01*
X54006666Y-84256619D01*
X54054285Y-84351857D01*
X54054285Y-84447095D01*
X54006666Y-84589952D01*
X53435238Y-85161380D01*
X54054285Y-85161380D01*
D11*
X51558371Y-80336571D02*
X51964771Y-80336571D01*
X51326142Y-80481714D02*
X51761571Y-80626857D01*
X51761571Y-80249485D01*
X51906714Y-80017257D02*
X51935742Y-79988228D01*
X51964771Y-80017257D01*
X51935742Y-80046285D01*
X51906714Y-80017257D01*
X51964771Y-80017257D01*
X51964771Y-79697942D02*
X51964771Y-79581828D01*
X51935742Y-79523771D01*
X51906714Y-79494742D01*
X51819628Y-79436685D01*
X51703514Y-79407657D01*
X51471285Y-79407657D01*
X51413228Y-79436685D01*
X51384200Y-79465714D01*
X51355171Y-79523771D01*
X51355171Y-79639885D01*
X51384200Y-79697942D01*
X51413228Y-79726971D01*
X51471285Y-79756000D01*
X51616428Y-79756000D01*
X51674485Y-79726971D01*
X51703514Y-79697942D01*
X51732542Y-79639885D01*
X51732542Y-79523771D01*
X51703514Y-79465714D01*
X51674485Y-79436685D01*
X51616428Y-79407657D01*
X51964771Y-78827085D02*
X51964771Y-79175428D01*
X51964771Y-79001257D02*
X51355171Y-79001257D01*
X51442257Y-79059314D01*
X51500314Y-79117371D01*
X51529342Y-79175428D01*
X51355171Y-78275542D02*
X51355171Y-78565828D01*
X51645457Y-78594857D01*
X51616428Y-78565828D01*
X51587400Y-78507771D01*
X51587400Y-78362628D01*
X51616428Y-78304571D01*
X51645457Y-78275542D01*
X51703514Y-78246514D01*
X51848657Y-78246514D01*
X51906714Y-78275542D01*
X51935742Y-78304571D01*
X51964771Y-78362628D01*
X51964771Y-78507771D01*
X51935742Y-78565828D01*
X51906714Y-78594857D01*
X51413228Y-78014285D02*
X51384200Y-77985257D01*
X51355171Y-77927200D01*
X51355171Y-77782057D01*
X51384200Y-77724000D01*
X51413228Y-77694971D01*
X51471285Y-77665942D01*
X51529342Y-77665942D01*
X51616428Y-77694971D01*
X51964771Y-78043314D01*
X51964771Y-77665942D01*
X51964771Y-77404685D02*
X51355171Y-77404685D01*
X51790600Y-77201485D01*
X51355171Y-76998285D01*
X51964771Y-76998285D01*
X51964771Y-76708000D02*
X51355171Y-76708000D01*
X51645457Y-76708000D02*
X51645457Y-76359657D01*
X51964771Y-76359657D02*
X51355171Y-76359657D01*
X51558371Y-76127428D02*
X51558371Y-75808114D01*
X51964771Y-76127428D01*
X51964771Y-75808114D01*
D10*
X36986642Y-98115380D02*
X36653309Y-97639190D01*
X36415214Y-98115380D02*
X36415214Y-97115380D01*
X36796166Y-97115380D01*
X36891404Y-97163000D01*
X36939023Y-97210619D01*
X36986642Y-97305857D01*
X36986642Y-97448714D01*
X36939023Y-97543952D01*
X36891404Y-97591571D01*
X36796166Y-97639190D01*
X36415214Y-97639190D01*
X37367595Y-97210619D02*
X37415214Y-97163000D01*
X37510452Y-97115380D01*
X37748547Y-97115380D01*
X37843785Y-97163000D01*
X37891404Y-97210619D01*
X37939023Y-97305857D01*
X37939023Y-97401095D01*
X37891404Y-97543952D01*
X37319976Y-98115380D01*
X37939023Y-98115380D01*
X38558071Y-97115380D02*
X38653309Y-97115380D01*
X38748547Y-97163000D01*
X38796166Y-97210619D01*
X38843785Y-97305857D01*
X38891404Y-97496333D01*
X38891404Y-97734428D01*
X38843785Y-97924904D01*
X38796166Y-98020142D01*
X38748547Y-98067761D01*
X38653309Y-98115380D01*
X38558071Y-98115380D01*
X38462833Y-98067761D01*
X38415214Y-98020142D01*
X38367595Y-97924904D01*
X38319976Y-97734428D01*
X38319976Y-97496333D01*
X38367595Y-97305857D01*
X38415214Y-97210619D01*
X38462833Y-97163000D01*
X38558071Y-97115380D01*
X78898809Y-87098190D02*
X78898809Y-87574380D01*
X78565476Y-86574380D02*
X78898809Y-87098190D01*
X79232142Y-86574380D01*
X80041666Y-86574380D02*
X79565476Y-86574380D01*
X79517857Y-87050571D01*
X79565476Y-87002952D01*
X79660714Y-86955333D01*
X79898809Y-86955333D01*
X79994047Y-87002952D01*
X80041666Y-87050571D01*
X80089285Y-87145809D01*
X80089285Y-87383904D01*
X80041666Y-87479142D01*
X79994047Y-87526761D01*
X79898809Y-87574380D01*
X79660714Y-87574380D01*
X79565476Y-87526761D01*
X79517857Y-87479142D01*
D11*
X77593371Y-82749571D02*
X77999771Y-82749571D01*
X77361142Y-82894714D02*
X77796571Y-83039857D01*
X77796571Y-82662485D01*
X77941714Y-82430257D02*
X77970742Y-82401228D01*
X77999771Y-82430257D01*
X77970742Y-82459285D01*
X77941714Y-82430257D01*
X77999771Y-82430257D01*
X77999771Y-82110942D02*
X77999771Y-81994828D01*
X77970742Y-81936771D01*
X77941714Y-81907742D01*
X77854628Y-81849685D01*
X77738514Y-81820657D01*
X77506285Y-81820657D01*
X77448228Y-81849685D01*
X77419200Y-81878714D01*
X77390171Y-81936771D01*
X77390171Y-82052885D01*
X77419200Y-82110942D01*
X77448228Y-82139971D01*
X77506285Y-82169000D01*
X77651428Y-82169000D01*
X77709485Y-82139971D01*
X77738514Y-82110942D01*
X77767542Y-82052885D01*
X77767542Y-81936771D01*
X77738514Y-81878714D01*
X77709485Y-81849685D01*
X77651428Y-81820657D01*
X77999771Y-81240085D02*
X77999771Y-81588428D01*
X77999771Y-81414257D02*
X77390171Y-81414257D01*
X77477257Y-81472314D01*
X77535314Y-81530371D01*
X77564342Y-81588428D01*
X77390171Y-80688542D02*
X77390171Y-80978828D01*
X77680457Y-81007857D01*
X77651428Y-80978828D01*
X77622400Y-80920771D01*
X77622400Y-80775628D01*
X77651428Y-80717571D01*
X77680457Y-80688542D01*
X77738514Y-80659514D01*
X77883657Y-80659514D01*
X77941714Y-80688542D01*
X77970742Y-80717571D01*
X77999771Y-80775628D01*
X77999771Y-80920771D01*
X77970742Y-80978828D01*
X77941714Y-81007857D01*
X77448228Y-80427285D02*
X77419200Y-80398257D01*
X77390171Y-80340200D01*
X77390171Y-80195057D01*
X77419200Y-80137000D01*
X77448228Y-80107971D01*
X77506285Y-80078942D01*
X77564342Y-80078942D01*
X77651428Y-80107971D01*
X77999771Y-80456314D01*
X77999771Y-80078942D01*
X77999771Y-79817685D02*
X77390171Y-79817685D01*
X77825600Y-79614485D01*
X77390171Y-79411285D01*
X77999771Y-79411285D01*
X77999771Y-79121000D02*
X77390171Y-79121000D01*
X77680457Y-79121000D02*
X77680457Y-78772657D01*
X77999771Y-78772657D02*
X77390171Y-78772657D01*
X77593371Y-78540428D02*
X77593371Y-78221114D01*
X77999771Y-78540428D01*
X77999771Y-78221114D01*
D10*
X99631666Y-125144161D02*
X99774523Y-125191780D01*
X100012619Y-125191780D01*
X100107857Y-125144161D01*
X100155476Y-125096542D01*
X100203095Y-125001304D01*
X100203095Y-124906066D01*
X100155476Y-124810828D01*
X100107857Y-124763209D01*
X100012619Y-124715590D01*
X99822142Y-124667971D01*
X99726904Y-124620352D01*
X99679285Y-124572733D01*
X99631666Y-124477495D01*
X99631666Y-124382257D01*
X99679285Y-124287019D01*
X99726904Y-124239400D01*
X99822142Y-124191780D01*
X100060238Y-124191780D01*
X100203095Y-124239400D01*
X100536428Y-124191780D02*
X100774523Y-125191780D01*
X100965000Y-124477495D01*
X101155476Y-125191780D01*
X101393571Y-124191780D01*
X102298333Y-125191780D02*
X101726904Y-125191780D01*
X102012619Y-125191780D02*
X102012619Y-124191780D01*
X101917380Y-124334638D01*
X101822142Y-124429876D01*
X101726904Y-124477495D01*
X57943809Y-84685190D02*
X57943809Y-85161380D01*
X57610476Y-84161380D02*
X57943809Y-84685190D01*
X58277142Y-84161380D01*
X58515238Y-84161380D02*
X59134285Y-84161380D01*
X58800952Y-84542333D01*
X58943809Y-84542333D01*
X59039047Y-84589952D01*
X59086666Y-84637571D01*
X59134285Y-84732809D01*
X59134285Y-84970904D01*
X59086666Y-85066142D01*
X59039047Y-85113761D01*
X58943809Y-85161380D01*
X58658095Y-85161380D01*
X58562857Y-85113761D01*
X58515238Y-85066142D01*
D11*
X56638371Y-80336571D02*
X57044771Y-80336571D01*
X56406142Y-80481714D02*
X56841571Y-80626857D01*
X56841571Y-80249485D01*
X56986714Y-80017257D02*
X57015742Y-79988228D01*
X57044771Y-80017257D01*
X57015742Y-80046285D01*
X56986714Y-80017257D01*
X57044771Y-80017257D01*
X57044771Y-79697942D02*
X57044771Y-79581828D01*
X57015742Y-79523771D01*
X56986714Y-79494742D01*
X56899628Y-79436685D01*
X56783514Y-79407657D01*
X56551285Y-79407657D01*
X56493228Y-79436685D01*
X56464200Y-79465714D01*
X56435171Y-79523771D01*
X56435171Y-79639885D01*
X56464200Y-79697942D01*
X56493228Y-79726971D01*
X56551285Y-79756000D01*
X56696428Y-79756000D01*
X56754485Y-79726971D01*
X56783514Y-79697942D01*
X56812542Y-79639885D01*
X56812542Y-79523771D01*
X56783514Y-79465714D01*
X56754485Y-79436685D01*
X56696428Y-79407657D01*
X57044771Y-78827085D02*
X57044771Y-79175428D01*
X57044771Y-79001257D02*
X56435171Y-79001257D01*
X56522257Y-79059314D01*
X56580314Y-79117371D01*
X56609342Y-79175428D01*
X56435171Y-78275542D02*
X56435171Y-78565828D01*
X56725457Y-78594857D01*
X56696428Y-78565828D01*
X56667400Y-78507771D01*
X56667400Y-78362628D01*
X56696428Y-78304571D01*
X56725457Y-78275542D01*
X56783514Y-78246514D01*
X56928657Y-78246514D01*
X56986714Y-78275542D01*
X57015742Y-78304571D01*
X57044771Y-78362628D01*
X57044771Y-78507771D01*
X57015742Y-78565828D01*
X56986714Y-78594857D01*
X56493228Y-78014285D02*
X56464200Y-77985257D01*
X56435171Y-77927200D01*
X56435171Y-77782057D01*
X56464200Y-77724000D01*
X56493228Y-77694971D01*
X56551285Y-77665942D01*
X56609342Y-77665942D01*
X56696428Y-77694971D01*
X57044771Y-78043314D01*
X57044771Y-77665942D01*
X57044771Y-77404685D02*
X56435171Y-77404685D01*
X56870600Y-77201485D01*
X56435171Y-76998285D01*
X57044771Y-76998285D01*
X57044771Y-76708000D02*
X56435171Y-76708000D01*
X56725457Y-76708000D02*
X56725457Y-76359657D01*
X57044771Y-76359657D02*
X56435171Y-76359657D01*
X56638371Y-76127428D02*
X56638371Y-75808114D01*
X57044771Y-76127428D01*
X57044771Y-75808114D01*
D12*
X81356564Y-107161000D02*
X80902436Y-107161000D01*
X81356564Y-105691000D02*
X80902436Y-105691000D01*
X42726000Y-119930000D02*
X45666000Y-119930000D01*
X42726000Y-119810000D02*
X45666000Y-119810000D01*
X42856000Y-120830000D02*
X42726000Y-120830000D01*
X42726000Y-120830000D02*
X42726000Y-115390000D01*
X45536000Y-120830000D02*
X45666000Y-120830000D01*
X42726000Y-115390000D02*
X42856000Y-115390000D01*
X45666000Y-120830000D02*
X45666000Y-115390000D01*
X42726000Y-120050000D02*
X45666000Y-120050000D01*
X45666000Y-115390000D02*
X45536000Y-115390000D01*
X94969000Y-93849564D02*
X94969000Y-93395436D01*
X93499000Y-93849564D02*
X93499000Y-93395436D01*
X75719000Y-114223436D02*
X75719000Y-114677564D01*
X77189000Y-114223436D02*
X77189000Y-114677564D01*
D13*
X45974000Y-74803000D02*
X45974000Y-81661000D01*
X50546000Y-81661000D02*
X50546000Y-74803000D01*
X45974000Y-81661000D02*
G75*
G03*
X50546000Y-81661000I2286000J0D01*
G01*
X50546000Y-74803000D02*
G75*
G03*
X45974000Y-74803000I-2286000J0D01*
G01*
D12*
X81815000Y-100356936D02*
X81815000Y-100811064D01*
X83285000Y-100356936D02*
X83285000Y-100811064D01*
X97001000Y-110620436D02*
X97001000Y-111074564D01*
X95531000Y-110620436D02*
X95531000Y-111074564D01*
X77189000Y-110566564D02*
X77189000Y-110112436D01*
X75719000Y-110566564D02*
X75719000Y-110112436D01*
D10*
X60739020Y-109855000D02*
X63840360Y-109855000D01*
X68140580Y-109855000D02*
X71340980Y-109855000D01*
X66040000Y-107645200D02*
X66040000Y-104554020D01*
X66040000Y-115155980D02*
X66040000Y-111955580D01*
X71340980Y-109855000D02*
G75*
G03*
X71340980Y-109855000I-5300980J0D01*
G01*
X68140580Y-109855000D02*
G75*
G03*
X68140580Y-109855000I-2100580J0D01*
G01*
D12*
X60512000Y-109347000D02*
G75*
G03*
X60512000Y-109347000I-60000J0D01*
G01*
X82727436Y-112295000D02*
X83181564Y-112295000D01*
X82727436Y-113765000D02*
X83181564Y-113765000D01*
X105945000Y-103451252D02*
X105945000Y-102928748D01*
X107415000Y-103451252D02*
X107415000Y-102928748D01*
X36486000Y-114650064D02*
X36486000Y-111845936D01*
X39206000Y-114650064D02*
X39206000Y-111845936D01*
X94230000Y-121364000D02*
X94230000Y-119864000D01*
X92980000Y-117364000D02*
X88480000Y-117364000D01*
X88480000Y-123864000D02*
X92980000Y-123864000D01*
X87230000Y-119864000D02*
X87230000Y-121364000D01*
G36*
X52803970Y-124246579D02*
G01*
X52909968Y-124128218D01*
X52956764Y-124077859D01*
X53066844Y-123971498D01*
X53158892Y-123905890D01*
X53229722Y-123882712D01*
X53276147Y-123903641D01*
X53279251Y-123908108D01*
X53289740Y-123950219D01*
X53297692Y-124030624D01*
X53301724Y-124133872D01*
X53301959Y-124162134D01*
X53304542Y-124277674D01*
X53312876Y-124349244D01*
X53328637Y-124386479D01*
X53342688Y-124396476D01*
X53372791Y-124433004D01*
X53383005Y-124490135D01*
X53369892Y-124558598D01*
X53342688Y-124601783D01*
X53310544Y-124653906D01*
X53302371Y-124699148D01*
X53297549Y-124737058D01*
X53273984Y-124756017D01*
X53218027Y-124762482D01*
X53167307Y-124763052D01*
X53086742Y-124760777D01*
X53044359Y-124748497D01*
X53024613Y-124718034D01*
X53016357Y-124683619D01*
X53004442Y-124639764D01*
X52981787Y-124615135D01*
X52934615Y-124603075D01*
X52849147Y-124596925D01*
X52835600Y-124596265D01*
X52744774Y-124590438D01*
X52694489Y-124579826D01*
X52671556Y-124558083D01*
X52662783Y-124518865D01*
X52662068Y-124512793D01*
X52664499Y-124463644D01*
X52685870Y-124407452D01*
X52699334Y-124386460D01*
X52823720Y-124386460D01*
X52846591Y-124407481D01*
X52911987Y-124409112D01*
X52919355Y-124408537D01*
X52986222Y-124398365D01*
X53016735Y-124372381D01*
X53028297Y-124314831D01*
X53028826Y-124309423D01*
X53027966Y-124227140D01*
X53005164Y-124193902D01*
X52960709Y-124209812D01*
X52903192Y-124265359D01*
X52842783Y-124340826D01*
X52823720Y-124386460D01*
X52699334Y-124386460D01*
X52730816Y-124337378D01*
X52803970Y-124246579D01*
G37*
G36*
X58238682Y-124033978D02*
G01*
X58222546Y-123983652D01*
X58194737Y-123944022D01*
X58187503Y-123936111D01*
X58148146Y-123890693D01*
X58144494Y-123864163D01*
X58174941Y-123836707D01*
X58179201Y-123833585D01*
X58238728Y-123811826D01*
X58346451Y-123796100D01*
X58497099Y-123786862D01*
X58685401Y-123784569D01*
X58738838Y-123785151D01*
X58842872Y-123808448D01*
X58920665Y-123866823D01*
X58966581Y-123948242D01*
X58974983Y-124040667D01*
X58940235Y-124132065D01*
X58915702Y-124162798D01*
X58857711Y-124224527D01*
X58928142Y-124279928D01*
X58987567Y-124353107D01*
X59016405Y-124430384D01*
X59037733Y-124497339D01*
X59066736Y-124537310D01*
X59071161Y-124539608D01*
X59103207Y-124574779D01*
X59102776Y-124625064D01*
X59071053Y-124663668D01*
X59065569Y-124666103D01*
X58988632Y-124680480D01*
X58893559Y-124679749D01*
X58809513Y-124665052D01*
X58784726Y-124655101D01*
X58745945Y-124613344D01*
X58710367Y-124541724D01*
X58701221Y-124513990D01*
X58664517Y-124416291D01*
X58620233Y-124343425D01*
X58576400Y-124307770D01*
X58566353Y-124306121D01*
X58551006Y-124329149D01*
X58544419Y-124384393D01*
X58546216Y-124451097D01*
X58556016Y-124508504D01*
X58570519Y-124534587D01*
X58595589Y-124576129D01*
X58589276Y-124629615D01*
X58555030Y-124666046D01*
X58554881Y-124666103D01*
X58490292Y-124678194D01*
X58398478Y-124681474D01*
X58301334Y-124676732D01*
X58220759Y-124664757D01*
X58186487Y-124652818D01*
X58157488Y-124631262D01*
X58155773Y-124604140D01*
X58182353Y-124553916D01*
X58193207Y-124536230D01*
X58222607Y-124476126D01*
X58239612Y-124403445D01*
X58247003Y-124302339D01*
X58247979Y-124224046D01*
X58246235Y-124114232D01*
X58523889Y-124114232D01*
X58530511Y-124145353D01*
X58567627Y-124173861D01*
X58606199Y-124157937D01*
X58636089Y-124105641D01*
X58646294Y-124053290D01*
X58639441Y-123962685D01*
X58602220Y-123912510D01*
X58566162Y-123903358D01*
X58549818Y-123926455D01*
X58535322Y-123982897D01*
X58525677Y-124052289D01*
X58523889Y-124114232D01*
X58246235Y-124114232D01*
X58246157Y-124109332D01*
X58238682Y-124033978D01*
G37*
G36*
X50778461Y-124160496D02*
G01*
X50771353Y-124054312D01*
X50769306Y-124042893D01*
X51071846Y-124042893D01*
X51078043Y-124103023D01*
X51090319Y-124127862D01*
X51134338Y-124142819D01*
X51176991Y-124117296D01*
X51200466Y-124061989D01*
X51200502Y-124061686D01*
X51191856Y-123999308D01*
X51159612Y-123952340D01*
X51117013Y-123936407D01*
X51099527Y-123942536D01*
X51079464Y-123980204D01*
X51071846Y-124042893D01*
X50769306Y-124042893D01*
X50756615Y-123972080D01*
X50735492Y-123929825D01*
X50698221Y-123877278D01*
X50711627Y-123831846D01*
X50760700Y-123806890D01*
X50814359Y-123800871D01*
X50907086Y-123797695D01*
X51024254Y-123797663D01*
X51112540Y-123799658D01*
X51241472Y-123804735D01*
X51328009Y-123811688D01*
X51383512Y-123822962D01*
X51419340Y-123841002D01*
X51446852Y-123868253D01*
X51450189Y-123872326D01*
X51493957Y-123960574D01*
X51494313Y-124052069D01*
X51457647Y-124121906D01*
X51433423Y-124155357D01*
X51437802Y-124185334D01*
X51475986Y-124228243D01*
X51497964Y-124249039D01*
X51563399Y-124330867D01*
X51578660Y-124414540D01*
X51545979Y-124513105D01*
X51543857Y-124517250D01*
X51507273Y-124571178D01*
X51456365Y-124609498D01*
X51382385Y-124634622D01*
X51276582Y-124648964D01*
X51130208Y-124654936D01*
X51042485Y-124655539D01*
X50901784Y-124654403D01*
X50806147Y-124650289D01*
X50746915Y-124642139D01*
X50715428Y-124628893D01*
X50704511Y-124614221D01*
X50708486Y-124564000D01*
X50732232Y-124524750D01*
X50754824Y-124472758D01*
X50770115Y-124384719D01*
X50771788Y-124361628D01*
X51080630Y-124361628D01*
X51084186Y-124440157D01*
X51087100Y-124453106D01*
X51118542Y-124507465D01*
X51163593Y-124519772D01*
X51205719Y-124492485D01*
X51227964Y-124432168D01*
X51220252Y-124353301D01*
X51184028Y-124297128D01*
X51137187Y-124279243D01*
X51099862Y-124302556D01*
X51080630Y-124361628D01*
X50771788Y-124361628D01*
X50778021Y-124275631D01*
X50778461Y-124160496D01*
G37*
G36*
X59225661Y-123975344D02*
G01*
X59207055Y-123941266D01*
X59186668Y-123920866D01*
X59149669Y-123877827D01*
X59153813Y-123844600D01*
X59202132Y-123819732D01*
X59297658Y-123801770D01*
X59443422Y-123789261D01*
X59463679Y-123788099D01*
X59631719Y-123783592D01*
X59756056Y-123793032D01*
X59845527Y-123818989D01*
X59908968Y-123864029D01*
X59955215Y-123930721D01*
X59955345Y-123930973D01*
X59989524Y-124044737D01*
X59974882Y-124148404D01*
X59916270Y-124234827D01*
X59818543Y-124296858D01*
X59686555Y-124327348D01*
X59686175Y-124327380D01*
X59601499Y-124336240D01*
X59557362Y-124349793D01*
X59540628Y-124375696D01*
X59538138Y-124413672D01*
X59551992Y-124480894D01*
X59578455Y-124521148D01*
X59615021Y-124575917D01*
X59608112Y-124629910D01*
X59560269Y-124664928D01*
X59558297Y-124665477D01*
X59467523Y-124680256D01*
X59366677Y-124682631D01*
X59273751Y-124673761D01*
X59206737Y-124654810D01*
X59188301Y-124641596D01*
X59169364Y-124601893D01*
X59191727Y-124559756D01*
X59198449Y-124552125D01*
X59219969Y-124516011D01*
X59233492Y-124458058D01*
X59240500Y-124367623D01*
X59242476Y-124236063D01*
X59241299Y-124111036D01*
X59238727Y-124067588D01*
X59538138Y-124067588D01*
X59539821Y-124146986D01*
X59549929Y-124185574D01*
X59576046Y-124196294D01*
X59612053Y-124193674D01*
X59659674Y-124182005D01*
X59683102Y-124150822D01*
X59693287Y-124083989D01*
X59694149Y-124072664D01*
X59694107Y-123995034D01*
X59675235Y-123951230D01*
X59646557Y-123930310D01*
X59590766Y-123911909D01*
X59556822Y-123932830D01*
X59540800Y-123998039D01*
X59538138Y-124067588D01*
X59238727Y-124067588D01*
X59236385Y-124028032D01*
X59225661Y-123975344D01*
G37*
G36*
X57193862Y-124057772D02*
G01*
X57274431Y-123933683D01*
X57383856Y-123845441D01*
X57511829Y-123793814D01*
X57648043Y-123779570D01*
X57782191Y-123803477D01*
X57903965Y-123866303D01*
X58003056Y-123968818D01*
X58020430Y-123996160D01*
X58077122Y-124138655D01*
X58086741Y-124282765D01*
X58051622Y-124418112D01*
X57974097Y-124534319D01*
X57883167Y-124606497D01*
X57822831Y-124652008D01*
X57813639Y-124685206D01*
X57853978Y-124704105D01*
X57942237Y-124706715D01*
X57963284Y-124705286D01*
X58040025Y-124702487D01*
X58076820Y-124712750D01*
X58086689Y-124739946D01*
X58086709Y-124742010D01*
X58062121Y-124790651D01*
X57997513Y-124832287D01*
X57906615Y-124860544D01*
X57812541Y-124869259D01*
X57731683Y-124859022D01*
X57622378Y-124833109D01*
X57505730Y-124796688D01*
X57483447Y-124788624D01*
X57379305Y-124751985D01*
X57290114Y-124724307D01*
X57231095Y-124710195D01*
X57221384Y-124709296D01*
X57180366Y-124694392D01*
X57176409Y-124661187D01*
X57206262Y-124626940D01*
X57239542Y-124612946D01*
X57306236Y-124596206D01*
X57241544Y-124484762D01*
X57176086Y-124343996D01*
X57155650Y-124218226D01*
X57177143Y-124104446D01*
X57468508Y-124104446D01*
X57479064Y-124191253D01*
X57505876Y-124294524D01*
X57541661Y-124391068D01*
X57579134Y-124457697D01*
X57579672Y-124458351D01*
X57636870Y-124491084D01*
X57705118Y-124486486D01*
X57759677Y-124447337D01*
X57765815Y-124437439D01*
X57784325Y-124358780D01*
X57775991Y-124259289D01*
X57746359Y-124154329D01*
X57700975Y-124059263D01*
X57645386Y-123989454D01*
X57593944Y-123961389D01*
X57527790Y-123971533D01*
X57483379Y-124024616D01*
X57468508Y-124104446D01*
X57177143Y-124104446D01*
X57178876Y-124095270D01*
X57193862Y-124057772D01*
G37*
G36*
X51998294Y-123785646D02*
G01*
X52061648Y-123816109D01*
X52085718Y-123860851D01*
X52064015Y-123916464D01*
X52055789Y-123926223D01*
X52021990Y-123990178D01*
X52012212Y-124046174D01*
X52017419Y-124092328D01*
X52043209Y-124112847D01*
X52104832Y-124117915D01*
X52119725Y-124117973D01*
X52188715Y-124114624D01*
X52219218Y-124097565D01*
X52226409Y-124056280D01*
X52226383Y-124044058D01*
X52212081Y-123969196D01*
X52187912Y-123920493D01*
X52163578Y-123866875D01*
X52164269Y-123834428D01*
X52199853Y-123806725D01*
X52272306Y-123785671D01*
X52364891Y-123773897D01*
X52460872Y-123774036D01*
X52509281Y-123780187D01*
X52574121Y-123799267D01*
X52600222Y-123832008D01*
X52603535Y-123864691D01*
X52589054Y-123921445D01*
X52563217Y-123946983D01*
X52542574Y-123980479D01*
X52528432Y-124053214D01*
X52520790Y-124151065D01*
X52519648Y-124259909D01*
X52525006Y-124365622D01*
X52536864Y-124454083D01*
X52555223Y-124511167D01*
X52563217Y-124521148D01*
X52598169Y-124573971D01*
X52596995Y-124629695D01*
X52561019Y-124666103D01*
X52511758Y-124675079D01*
X52429647Y-124681004D01*
X52362723Y-124682418D01*
X52246912Y-124673521D01*
X52176699Y-124647933D01*
X52154360Y-124607305D01*
X52182168Y-124553286D01*
X52183211Y-124552125D01*
X52214422Y-124487702D01*
X52227201Y-124395105D01*
X52227238Y-124389737D01*
X52227238Y-124275998D01*
X52126445Y-124284340D01*
X52062958Y-124292923D01*
X52032462Y-124315414D01*
X52020578Y-124367975D01*
X52017386Y-124406915D01*
X52018074Y-124481063D01*
X52031399Y-124518813D01*
X52037545Y-124521148D01*
X52061223Y-124541782D01*
X52064936Y-124588310D01*
X52050925Y-124637671D01*
X52023453Y-124666103D01*
X51953753Y-124679642D01*
X51859524Y-124682385D01*
X51761995Y-124675491D01*
X51682398Y-124660119D01*
X51649718Y-124645689D01*
X51618383Y-124618306D01*
X51618055Y-124591045D01*
X51650180Y-124544549D01*
X51658020Y-124534551D01*
X51686802Y-124490601D01*
X51704408Y-124438985D01*
X51713423Y-124365692D01*
X51716432Y-124256707D01*
X51716550Y-124217258D01*
X51713981Y-124088801D01*
X51705189Y-124003038D01*
X51688546Y-123949107D01*
X51672973Y-123926223D01*
X51641796Y-123868340D01*
X51662113Y-123822545D01*
X51732676Y-123790534D01*
X51779702Y-123781196D01*
X51902149Y-123772872D01*
X51998294Y-123785646D01*
G37*
G36*
X57006793Y-123782111D02*
G01*
X57022918Y-123793692D01*
X57034094Y-123812782D01*
X57032898Y-123847241D01*
X57017041Y-123904182D01*
X56984233Y-123990718D01*
X56932183Y-124113960D01*
X56885660Y-124220032D01*
X56821006Y-124367280D01*
X56759565Y-124509140D01*
X56706726Y-124633034D01*
X56667877Y-124726385D01*
X56655905Y-124756333D01*
X56618618Y-124840480D01*
X56584958Y-124883708D01*
X56545603Y-124897272D01*
X56539063Y-124897444D01*
X56484512Y-124888212D01*
X56462473Y-124873642D01*
X56466661Y-124840370D01*
X56490077Y-124770802D01*
X56528392Y-124676961D01*
X56553403Y-124621183D01*
X56609305Y-124497625D01*
X56675903Y-124346575D01*
X56743463Y-124190265D01*
X56785232Y-124091724D01*
X56847394Y-123949119D01*
X56896427Y-123852127D01*
X56936535Y-123795476D01*
X56971922Y-123773895D01*
X57006793Y-123782111D01*
G37*
G36*
X54795679Y-123777956D02*
G01*
X54827714Y-123785496D01*
X54871596Y-123819071D01*
X54890186Y-123874244D01*
X54878316Y-123926752D01*
X54861312Y-123943264D01*
X54843414Y-123975053D01*
X54834784Y-124026781D01*
X54837274Y-124073624D01*
X54850284Y-124091095D01*
X54886492Y-124068648D01*
X54926137Y-124014504D01*
X54957213Y-123948452D01*
X54967931Y-123897173D01*
X54989210Y-123826723D01*
X55052693Y-123784441D01*
X55160974Y-123768731D01*
X55176948Y-123768555D01*
X55269785Y-123779098D01*
X55333096Y-123805650D01*
X55361820Y-123840598D01*
X55350899Y-123876326D01*
X55295271Y-123905222D01*
X55271561Y-123910939D01*
X55206067Y-123942309D01*
X55142664Y-123999837D01*
X55134593Y-124010125D01*
X55107257Y-124048569D01*
X55092910Y-124081219D01*
X55095292Y-124116268D01*
X55118145Y-124161910D01*
X55165207Y-124226335D01*
X55240221Y-124317739D01*
X55316191Y-124407877D01*
X55385796Y-124494736D01*
X55437378Y-124567669D01*
X55464066Y-124616471D01*
X55465480Y-124629623D01*
X55433956Y-124642255D01*
X55368613Y-124650766D01*
X55286211Y-124654889D01*
X55203515Y-124654357D01*
X55137285Y-124648905D01*
X55104284Y-124638266D01*
X55103144Y-124635381D01*
X55086758Y-124605811D01*
X55044342Y-124549730D01*
X54997936Y-124494269D01*
X54934655Y-124426670D01*
X54893176Y-124397558D01*
X54864652Y-124401259D01*
X54859622Y-124405535D01*
X54841908Y-124439643D01*
X54859502Y-124487402D01*
X54870756Y-124505383D01*
X54910106Y-124587599D01*
X54903594Y-124643488D01*
X54872553Y-124666103D01*
X54812270Y-124677493D01*
X54723635Y-124681757D01*
X54626655Y-124679434D01*
X54541335Y-124671065D01*
X54487683Y-124657189D01*
X54485016Y-124655640D01*
X54461254Y-124632120D01*
X54465494Y-124597582D01*
X54491736Y-124546360D01*
X54515957Y-124476527D01*
X54532349Y-124376211D01*
X54540754Y-124259939D01*
X54541013Y-124142238D01*
X54532969Y-124037638D01*
X54516463Y-123960666D01*
X54498455Y-123929825D01*
X54463602Y-123880772D01*
X54473931Y-123836207D01*
X54520872Y-123799886D01*
X54595857Y-123775567D01*
X54690316Y-123767005D01*
X54795679Y-123777956D01*
G37*
G36*
X55592801Y-123965697D02*
G01*
X55573588Y-123929825D01*
X55536586Y-123878070D01*
X55547664Y-123833687D01*
X55593746Y-123811058D01*
X55700146Y-123795808D01*
X55827665Y-123786867D01*
X55960599Y-123784262D01*
X56083244Y-123788025D01*
X56179896Y-123798182D01*
X56225591Y-123809892D01*
X56307191Y-123869777D01*
X56350902Y-123956039D01*
X56354168Y-124054542D01*
X56314435Y-124151150D01*
X56292338Y-124179227D01*
X56265218Y-124217432D01*
X56278249Y-124245659D01*
X56307083Y-124267554D01*
X56351695Y-124318905D01*
X56390429Y-124395963D01*
X56397681Y-124417405D01*
X56425784Y-124488432D01*
X56456530Y-124534073D01*
X56465664Y-124540260D01*
X56498121Y-124573314D01*
X56489150Y-124618768D01*
X56448899Y-124654594D01*
X56388275Y-124672852D01*
X56305617Y-124682126D01*
X56289580Y-124682418D01*
X56185509Y-124659715D01*
X56110335Y-124591770D01*
X56064310Y-124478831D01*
X56059721Y-124456887D01*
X56032788Y-124376461D01*
X55992577Y-124325303D01*
X55948457Y-124314008D01*
X55937622Y-124318833D01*
X55913285Y-124361467D01*
X55913066Y-124428504D01*
X55935028Y-124497329D01*
X55955473Y-124527324D01*
X55985498Y-124578016D01*
X55972826Y-124623515D01*
X55928086Y-124652768D01*
X55848811Y-124672032D01*
X55753446Y-124680417D01*
X55660437Y-124677032D01*
X55588230Y-124660990D01*
X55561199Y-124643366D01*
X55541814Y-124603852D01*
X55557273Y-124556861D01*
X55570408Y-124535667D01*
X55593056Y-124474037D01*
X55608240Y-124379411D01*
X55615884Y-124266528D01*
X55615911Y-124150123D01*
X55608784Y-124052364D01*
X55909566Y-124052364D01*
X55913422Y-124127776D01*
X55928787Y-124163109D01*
X55960447Y-124171730D01*
X56010957Y-124151968D01*
X56027643Y-124129214D01*
X56043547Y-124043663D01*
X56029955Y-123966744D01*
X56004818Y-123930802D01*
X55956816Y-123910069D01*
X55925034Y-123939644D01*
X55910446Y-124018285D01*
X55909566Y-124052364D01*
X55608784Y-124052364D01*
X55608242Y-124044933D01*
X55592801Y-123965697D01*
G37*
G36*
X53517397Y-124225870D02*
G01*
X53515246Y-124097886D01*
X53507630Y-124012060D01*
X53492807Y-123956925D01*
X53471490Y-123923648D01*
X53441468Y-123873026D01*
X53454194Y-123827458D01*
X53497807Y-123800934D01*
X53581781Y-123782330D01*
X53693287Y-123771774D01*
X53819498Y-123769394D01*
X53947586Y-123775318D01*
X54064721Y-123789674D01*
X54158077Y-123812590D01*
X54177480Y-123820235D01*
X54285779Y-123895404D01*
X54360202Y-124003939D01*
X54397932Y-124135333D01*
X54396157Y-124279077D01*
X54352062Y-124424665D01*
X54343905Y-124441537D01*
X54285018Y-124530746D01*
X54216890Y-124593701D01*
X54202794Y-124601783D01*
X54144010Y-124619092D01*
X54050298Y-124633441D01*
X53933714Y-124644412D01*
X53806311Y-124651589D01*
X53680147Y-124654555D01*
X53567276Y-124652891D01*
X53479755Y-124646182D01*
X53429637Y-124634010D01*
X53423378Y-124628750D01*
X53426330Y-124589592D01*
X53460097Y-124538363D01*
X53460824Y-124537584D01*
X53487999Y-124501981D01*
X53504887Y-124457067D01*
X53513819Y-124390008D01*
X53516528Y-124306395D01*
X53815727Y-124306395D01*
X53819727Y-124408823D01*
X53832477Y-124473423D01*
X53855864Y-124508046D01*
X53891770Y-124520541D01*
X53905725Y-124521148D01*
X53974228Y-124504534D01*
X54011670Y-124479966D01*
X54053257Y-124406657D01*
X54075222Y-124298465D01*
X54074819Y-124171549D01*
X54070325Y-124134862D01*
X54043775Y-124023515D01*
X54000758Y-123956653D01*
X53934879Y-123925957D01*
X53906932Y-123922339D01*
X53826498Y-123916386D01*
X53818593Y-124158291D01*
X53815727Y-124306395D01*
X53516528Y-124306395D01*
X53517125Y-124287966D01*
X53517397Y-124225870D01*
G37*
X95096000Y-107445436D02*
X95096000Y-107899564D01*
X93626000Y-107445436D02*
X93626000Y-107899564D01*
X81356564Y-109447000D02*
X80902436Y-109447000D01*
X81356564Y-107977000D02*
X80902436Y-107977000D01*
X93141436Y-116305000D02*
X93595564Y-116305000D01*
X93141436Y-114835000D02*
X93595564Y-114835000D01*
X45773748Y-88673000D02*
X46296252Y-88673000D01*
X45773748Y-90143000D02*
X46296252Y-90143000D01*
X78320000Y-123936000D02*
X82820000Y-123936000D01*
X84070000Y-121436000D02*
X84070000Y-119936000D01*
X77070000Y-119936000D02*
X77070000Y-121436000D01*
X82820000Y-117436000D02*
X78320000Y-117436000D01*
G36*
X72684133Y-93070968D02*
G01*
X72740464Y-93135452D01*
X72747305Y-93214074D01*
X72708151Y-93277874D01*
X72634013Y-93310945D01*
X72526995Y-93318168D01*
X72427375Y-93297871D01*
X72393824Y-93250973D01*
X72380889Y-93171355D01*
X72396731Y-93086521D01*
X72457122Y-93045082D01*
X72476604Y-93039573D01*
X72591713Y-93034411D01*
X72684133Y-93070968D01*
G37*
G36*
X71409340Y-95893240D02*
G01*
X71430706Y-95915935D01*
X71443226Y-95969473D01*
X71449236Y-96066713D01*
X71451076Y-96220512D01*
X71451167Y-96297611D01*
X71450311Y-96476639D01*
X71446185Y-96594153D01*
X71436451Y-96663010D01*
X71418771Y-96696068D01*
X71390807Y-96706185D01*
X71376789Y-96706688D01*
X71344239Y-96701981D01*
X71322873Y-96679287D01*
X71310353Y-96625748D01*
X71304343Y-96528508D01*
X71302503Y-96374709D01*
X71302412Y-96297611D01*
X71303268Y-96118582D01*
X71307394Y-96001068D01*
X71317128Y-95932211D01*
X71334808Y-95899153D01*
X71362772Y-95889036D01*
X71376789Y-95888533D01*
X71409340Y-95893240D01*
G37*
G36*
X68073192Y-95605969D02*
G01*
X68145340Y-95661523D01*
X68189646Y-95773753D01*
X68192721Y-95786264D01*
X68201622Y-95860362D01*
X68171980Y-95886722D01*
X68146403Y-95888533D01*
X68080067Y-95856999D01*
X68056253Y-95814343D01*
X68009040Y-95736349D01*
X67937564Y-95711822D01*
X67866705Y-95747621D01*
X67857063Y-95759437D01*
X67833330Y-95829404D01*
X67816418Y-95950588D01*
X67807218Y-96100065D01*
X67806620Y-96254913D01*
X67815512Y-96392208D01*
X67829425Y-96471685D01*
X67877926Y-96551253D01*
X67949411Y-96577421D01*
X68019186Y-96553294D01*
X68062555Y-96481979D01*
X68066980Y-96441812D01*
X68095032Y-96383448D01*
X68145336Y-96371988D01*
X68202002Y-96387508D01*
X68201120Y-96430813D01*
X68180724Y-96512651D01*
X68178546Y-96539723D01*
X68146531Y-96621591D01*
X68065781Y-96678217D01*
X67959237Y-96704221D01*
X67849841Y-96694221D01*
X67760533Y-96642838D01*
X67756638Y-96638679D01*
X67728928Y-96594058D01*
X67710655Y-96523907D01*
X67700119Y-96414410D01*
X67695614Y-96251751D01*
X67695091Y-96139286D01*
X67698142Y-95925938D01*
X67710723Y-95775927D01*
X67737977Y-95678342D01*
X67785047Y-95622272D01*
X67857076Y-95596806D01*
X67953516Y-95591022D01*
X68073192Y-95605969D01*
G37*
G36*
X72752828Y-94056981D02*
G01*
X72752778Y-94661300D01*
X72343700Y-94661300D01*
X72343700Y-93478140D01*
X72548290Y-93465401D01*
X72752879Y-93452662D01*
X72752828Y-94056981D01*
G37*
G36*
X63916809Y-96283651D02*
G01*
X64019910Y-96228671D01*
X64069176Y-96223233D01*
X64140106Y-96207717D01*
X64161827Y-96147408D01*
X64162148Y-96132455D01*
X64142620Y-96041893D01*
X64090670Y-96013672D01*
X64017418Y-96052240D01*
X63936031Y-96104881D01*
X63882012Y-96097019D01*
X63864637Y-96038597D01*
X63895489Y-95956895D01*
X63973118Y-95907101D01*
X64075135Y-95893771D01*
X64179152Y-95921463D01*
X64236526Y-95962911D01*
X64273243Y-96010401D01*
X64295685Y-96074850D01*
X64307117Y-96174056D01*
X64310806Y-96325819D01*
X64310904Y-96368142D01*
X64310904Y-96698996D01*
X64106919Y-96701432D01*
X63980544Y-96697498D01*
X63907503Y-96678047D01*
X63867395Y-96637332D01*
X63865191Y-96633346D01*
X63829842Y-96505303D01*
X63832521Y-96489156D01*
X63975749Y-96489156D01*
X63994427Y-96562080D01*
X64002282Y-96571615D01*
X64063024Y-96594521D01*
X64118986Y-96557203D01*
X64152932Y-96472764D01*
X64155207Y-96455359D01*
X64153183Y-96365938D01*
X64115349Y-96337212D01*
X64035029Y-96357373D01*
X63991310Y-96407653D01*
X63975749Y-96489156D01*
X63832521Y-96489156D01*
X63850250Y-96382300D01*
X63916809Y-96283651D01*
G37*
G36*
X67516358Y-93062568D02*
G01*
X67682712Y-93064553D01*
X67795465Y-93069353D01*
X67865002Y-93078192D01*
X67901712Y-93092292D01*
X67915981Y-93112874D01*
X67918224Y-93136556D01*
X67908434Y-93181168D01*
X67866881Y-93203418D01*
X67775289Y-93210616D01*
X67732280Y-93210934D01*
X67546336Y-93210934D01*
X67546336Y-94661300D01*
X67062880Y-94661300D01*
X67062880Y-93210934D01*
X66858341Y-93210934D01*
X66740139Y-93207706D01*
X66678562Y-93193748D01*
X66655984Y-93162650D01*
X66653803Y-93136556D01*
X66657116Y-93109457D01*
X66673982Y-93089886D01*
X66714788Y-93076621D01*
X66789920Y-93068440D01*
X66909766Y-93064121D01*
X67084713Y-93062443D01*
X67286013Y-93062179D01*
X67516358Y-93062568D01*
G37*
G36*
X78394649Y-96040625D02*
G01*
X78416479Y-95984350D01*
X78454328Y-95947985D01*
X78489161Y-95927023D01*
X78570201Y-95890914D01*
X78636274Y-95898282D01*
X78693700Y-95926942D01*
X78756087Y-95972066D01*
X78789256Y-96034162D01*
X78804595Y-96138423D01*
X78807210Y-96177967D01*
X78818451Y-96371988D01*
X78649157Y-96371988D01*
X78543146Y-96377112D01*
X78492815Y-96397514D01*
X78479867Y-96440740D01*
X78479864Y-96441812D01*
X78505401Y-96523415D01*
X78530934Y-96554021D01*
X78596120Y-96576638D01*
X78665050Y-96564095D01*
X78702321Y-96524057D01*
X78702997Y-96516765D01*
X78733177Y-96487284D01*
X78758781Y-96483555D01*
X78803258Y-96511668D01*
X78811861Y-96576175D01*
X78782730Y-96647323D01*
X78769937Y-96662061D01*
X78689634Y-96698660D01*
X78578743Y-96703387D01*
X78473104Y-96677829D01*
X78425299Y-96646811D01*
X78394224Y-96598257D01*
X78377733Y-96519694D01*
X78373552Y-96394391D01*
X78376157Y-96285521D01*
X78381915Y-96160941D01*
X78488431Y-96160941D01*
X78499567Y-96225027D01*
X78554323Y-96255269D01*
X78628214Y-96244132D01*
X78685697Y-96200657D01*
X78696391Y-96174960D01*
X78686750Y-96093362D01*
X78639457Y-96034353D01*
X78575305Y-96023018D01*
X78571533Y-96024340D01*
X78515750Y-96077902D01*
X78488431Y-96160941D01*
X78381915Y-96160941D01*
X78383116Y-96134965D01*
X78394649Y-96040625D01*
G37*
G36*
X64606153Y-95913882D02*
G01*
X64616390Y-95931055D01*
X64646144Y-95954259D01*
X64713866Y-95928994D01*
X64822309Y-95901422D01*
X64910665Y-95934395D01*
X64957186Y-96010628D01*
X64967653Y-96085827D01*
X64975585Y-96211278D01*
X64979579Y-96362867D01*
X64979796Y-96399880D01*
X64978534Y-96550978D01*
X64971819Y-96642435D01*
X64956178Y-96688962D01*
X64928139Y-96705268D01*
X64907373Y-96706688D01*
X64872021Y-96700007D01*
X64849390Y-96670468D01*
X64835818Y-96603826D01*
X64827643Y-96485837D01*
X64823698Y-96381285D01*
X64817662Y-96225510D01*
X64809054Y-96129583D01*
X64793254Y-96079004D01*
X64765638Y-96059271D01*
X64721586Y-96055884D01*
X64719981Y-96055883D01*
X64675371Y-96059007D01*
X64647334Y-96078047D01*
X64631250Y-96127503D01*
X64622496Y-96221877D01*
X64616450Y-96375670D01*
X64616264Y-96381285D01*
X64608227Y-96544106D01*
X64595594Y-96644579D01*
X64575963Y-96694702D01*
X64551183Y-96706688D01*
X64526753Y-96693986D01*
X64510662Y-96648186D01*
X64501376Y-96557745D01*
X64497364Y-96411123D01*
X64496848Y-96297611D01*
X64498655Y-96112554D01*
X64505036Y-95990622D01*
X64517433Y-95920628D01*
X64537286Y-95891383D01*
X64549532Y-95888533D01*
X64606153Y-95913882D01*
G37*
G36*
X75118910Y-95904648D02*
G01*
X75132866Y-95927030D01*
X75155630Y-95946532D01*
X75204798Y-95927030D01*
X75297109Y-95891937D01*
X75367075Y-95910868D01*
X75409126Y-95946973D01*
X75438654Y-95995854D01*
X75456869Y-96080164D01*
X75465780Y-96213966D01*
X75467565Y-96356050D01*
X75466426Y-96519521D01*
X75461051Y-96622472D01*
X75448502Y-96678750D01*
X75425843Y-96702202D01*
X75393188Y-96706688D01*
X75357960Y-96701133D01*
X75336021Y-96675065D01*
X75324260Y-96614380D01*
X75319566Y-96504971D01*
X75318810Y-96369402D01*
X75317969Y-96210345D01*
X75313093Y-96111944D01*
X75300655Y-96060477D01*
X75277126Y-96042223D01*
X75238978Y-96043461D01*
X75235135Y-96043999D01*
X75194774Y-96054739D01*
X75169215Y-96082990D01*
X75154259Y-96143750D01*
X75145710Y-96252013D01*
X75140715Y-96381285D01*
X75134041Y-96538040D01*
X75124230Y-96634663D01*
X75107619Y-96685400D01*
X75080545Y-96704493D01*
X75057040Y-96706688D01*
X75025104Y-96701661D01*
X75004139Y-96678024D01*
X74991856Y-96622943D01*
X74985968Y-96523583D01*
X74984187Y-96367111D01*
X74984110Y-96297611D01*
X74984966Y-96118582D01*
X74989092Y-96001068D01*
X74998826Y-95932211D01*
X75016506Y-95899153D01*
X75044470Y-95889036D01*
X75058488Y-95888533D01*
X75118910Y-95904648D01*
G37*
G36*
X70242579Y-93465401D02*
G01*
X70359543Y-93460294D01*
X70420528Y-93468310D01*
X70443666Y-93496248D01*
X70447118Y-93542101D01*
X70452377Y-93603772D01*
X70480430Y-93599845D01*
X70512148Y-93572890D01*
X70646547Y-93495505D01*
X70790862Y-93483143D01*
X70926848Y-93531987D01*
X71036256Y-93638221D01*
X71065022Y-93688523D01*
X71123695Y-93867792D01*
X71146870Y-94070506D01*
X71135833Y-94273985D01*
X71091866Y-94455547D01*
X71016254Y-94592512D01*
X71013688Y-94595492D01*
X70909971Y-94663155D01*
X70772536Y-94686670D01*
X70629920Y-94662586D01*
X70592171Y-94646458D01*
X70510157Y-94607154D01*
X70462732Y-94587454D01*
X70459948Y-94586922D01*
X70453388Y-94620854D01*
X70448748Y-94709632D01*
X70447068Y-94828650D01*
X70447068Y-95070378D01*
X70037990Y-95070378D01*
X70037990Y-94052955D01*
X70462741Y-94052955D01*
X70464658Y-94207125D01*
X70479186Y-94342410D01*
X70506706Y-94435703D01*
X70516702Y-94451046D01*
X70581895Y-94506306D01*
X70634938Y-94490337D01*
X70668892Y-94440612D01*
X70692936Y-94356420D01*
X70706278Y-94228715D01*
X70709468Y-94078994D01*
X70703056Y-93928755D01*
X70687594Y-93799496D01*
X70663632Y-93712716D01*
X70649740Y-93692840D01*
X70595320Y-93665767D01*
X70540956Y-93696513D01*
X70528876Y-93708209D01*
X70495229Y-93780389D01*
X70473058Y-93903007D01*
X70462741Y-94052955D01*
X70037990Y-94052955D01*
X70037990Y-93478140D01*
X70242579Y-93465401D01*
G37*
G36*
X74441260Y-96283651D02*
G01*
X74544361Y-96228671D01*
X74593627Y-96223233D01*
X74664556Y-96207717D01*
X74686278Y-96147408D01*
X74686599Y-96132455D01*
X74667071Y-96041893D01*
X74615121Y-96013672D01*
X74541869Y-96052240D01*
X74460482Y-96104881D01*
X74406463Y-96097019D01*
X74389088Y-96038597D01*
X74419940Y-95956895D01*
X74497568Y-95907101D01*
X74599586Y-95893771D01*
X74703603Y-95921463D01*
X74760977Y-95962911D01*
X74797694Y-96010401D01*
X74820136Y-96074850D01*
X74831568Y-96174056D01*
X74835257Y-96325819D01*
X74835355Y-96368142D01*
X74835355Y-96698996D01*
X74631370Y-96701432D01*
X74504995Y-96697498D01*
X74431954Y-96678047D01*
X74391846Y-96637332D01*
X74389642Y-96633346D01*
X74354293Y-96505303D01*
X74356972Y-96489156D01*
X74500200Y-96489156D01*
X74518878Y-96562080D01*
X74526733Y-96571615D01*
X74587475Y-96594521D01*
X74643437Y-96557203D01*
X74677383Y-96472764D01*
X74679658Y-96455359D01*
X74677634Y-96365938D01*
X74639800Y-96337212D01*
X74559480Y-96357373D01*
X74515761Y-96407653D01*
X74500200Y-96489156D01*
X74356972Y-96489156D01*
X74374701Y-96382300D01*
X74441260Y-96283651D01*
G37*
G36*
X76848087Y-96023596D02*
G01*
X76927981Y-95933239D01*
X77056837Y-95891176D01*
X77094579Y-95889041D01*
X77179462Y-95922072D01*
X77246700Y-96010974D01*
X77285013Y-96137515D01*
X77289820Y-96204638D01*
X77289820Y-96371988D01*
X77122470Y-96371988D01*
X77019044Y-96376012D01*
X76970042Y-96395107D01*
X76955652Y-96439810D01*
X76955120Y-96460982D01*
X76979791Y-96540782D01*
X77037265Y-96579234D01*
X77102740Y-96564639D01*
X77125589Y-96541362D01*
X77192145Y-96492035D01*
X77231345Y-96483555D01*
X77275203Y-96499936D01*
X77270752Y-96560533D01*
X77268719Y-96567230D01*
X77224136Y-96654434D01*
X77147512Y-96696392D01*
X77040904Y-96706119D01*
X76922719Y-96678906D01*
X76864257Y-96624036D01*
X76828677Y-96530166D01*
X76809740Y-96392277D01*
X76808218Y-96239015D01*
X76815852Y-96174887D01*
X76955120Y-96174887D01*
X76972473Y-96240563D01*
X77037719Y-96260277D01*
X77048092Y-96260422D01*
X77115397Y-96247801D01*
X77139287Y-96194910D01*
X77141065Y-96152834D01*
X77120688Y-96062484D01*
X77070546Y-96020319D01*
X77007118Y-96038359D01*
X76996841Y-96047632D01*
X76963243Y-96116207D01*
X76955120Y-96174887D01*
X76815852Y-96174887D01*
X76824883Y-96099025D01*
X76848087Y-96023596D01*
G37*
G36*
X69521905Y-95442882D02*
G01*
X69537972Y-95450831D01*
X69546153Y-95475264D01*
X69545643Y-95525333D01*
X69535643Y-95610189D01*
X69515349Y-95738984D01*
X69483960Y-95920868D01*
X69440674Y-96164994D01*
X69430324Y-96223187D01*
X69385122Y-96471262D01*
X69348685Y-96654804D01*
X69318615Y-96782816D01*
X69292515Y-96864301D01*
X69267988Y-96908262D01*
X69243857Y-96923487D01*
X69198675Y-96917518D01*
X69196839Y-96862458D01*
X69199706Y-96849155D01*
X69211869Y-96787984D01*
X69233369Y-96671741D01*
X69261719Y-96514617D01*
X69294430Y-96330802D01*
X69329014Y-96134487D01*
X69362983Y-95939863D01*
X69393851Y-95761120D01*
X69419127Y-95612447D01*
X69436326Y-95508037D01*
X69442958Y-95462079D01*
X69442968Y-95461661D01*
X69473301Y-95444416D01*
X69498751Y-95442266D01*
X69521905Y-95442882D01*
G37*
G36*
X81219617Y-96584229D02*
G01*
X81231841Y-96632310D01*
X81205544Y-96694464D01*
X81157463Y-96706688D01*
X81095309Y-96680392D01*
X81083085Y-96632310D01*
X81109382Y-96570156D01*
X81157463Y-96557933D01*
X81219617Y-96584229D01*
G37*
G36*
X73973028Y-95918467D02*
G01*
X73980010Y-95946425D01*
X73986733Y-95983528D01*
X74020064Y-95974795D01*
X74062663Y-95946425D01*
X74147541Y-95896807D01*
X74190890Y-95901631D01*
X74203143Y-95962121D01*
X74203144Y-95962911D01*
X74182290Y-96023242D01*
X74153124Y-96037288D01*
X74067632Y-96069723D01*
X74011247Y-96167905D01*
X73983405Y-96333150D01*
X73980010Y-96439997D01*
X73976861Y-96583399D01*
X73965516Y-96666220D01*
X73943129Y-96702063D01*
X73924227Y-96706688D01*
X73899258Y-96695003D01*
X73882817Y-96652089D01*
X73873297Y-96566158D01*
X73869090Y-96425421D01*
X73868444Y-96297611D01*
X73870037Y-96114502D01*
X73875889Y-95993936D01*
X73887607Y-95924122D01*
X73906798Y-95893274D01*
X73924227Y-95888533D01*
X73973028Y-95918467D01*
G37*
G36*
X70453442Y-95900218D02*
G01*
X70469883Y-95943132D01*
X70479403Y-96029063D01*
X70483610Y-96169800D01*
X70484256Y-96297611D01*
X70482663Y-96480719D01*
X70476811Y-96601286D01*
X70465093Y-96671099D01*
X70445902Y-96701947D01*
X70428473Y-96706688D01*
X70403504Y-96695003D01*
X70387063Y-96652089D01*
X70377543Y-96566158D01*
X70373336Y-96425421D01*
X70372690Y-96297611D01*
X70374283Y-96114502D01*
X70380135Y-95993936D01*
X70391853Y-95924122D01*
X70411044Y-95893274D01*
X70428473Y-95888533D01*
X70453442Y-95900218D01*
G37*
G36*
X72781565Y-95594608D02*
G01*
X72803110Y-95613316D01*
X72816521Y-95659073D01*
X72823719Y-95743807D01*
X72826624Y-95879442D01*
X72827155Y-96070498D01*
X72828627Y-96273986D01*
X72833888Y-96414516D01*
X72844204Y-96503467D01*
X72860842Y-96552215D01*
X72882939Y-96571381D01*
X72932410Y-96621081D01*
X72938722Y-96649738D01*
X72909924Y-96695108D01*
X72840215Y-96703291D01*
X72754623Y-96671511D01*
X72752778Y-96670359D01*
X72729286Y-96640657D01*
X72712005Y-96578511D01*
X72699629Y-96473200D01*
X72690852Y-96314003D01*
X72684886Y-96113095D01*
X72680550Y-95906968D01*
X72679689Y-95763750D01*
X72683729Y-95672002D01*
X72694097Y-95620285D01*
X72712218Y-95597157D01*
X72739518Y-95591181D01*
X72749967Y-95591022D01*
X72781565Y-95594608D01*
G37*
G36*
X71722321Y-93468634D02*
G01*
X71745431Y-93496329D01*
X71748729Y-93537450D01*
X71748678Y-93622238D01*
X71857254Y-93541965D01*
X71979242Y-93485317D01*
X72087361Y-93493776D01*
X72169317Y-93558088D01*
X72212816Y-93669001D01*
X72207964Y-93805940D01*
X72184953Y-93879443D01*
X72139064Y-93910863D01*
X72044822Y-93917522D01*
X72043879Y-93917523D01*
X71952220Y-93914035D01*
X71916238Y-93890121D01*
X71917231Y-93825604D01*
X71923232Y-93787362D01*
X71926429Y-93690779D01*
X71897489Y-93658580D01*
X71840837Y-93693661D01*
X71818312Y-93718685D01*
X71791288Y-93786190D01*
X71771320Y-93917509D01*
X71757863Y-94116924D01*
X71754058Y-94220734D01*
X71740844Y-94661300D01*
X71339601Y-94661300D01*
X71339601Y-93478140D01*
X71544190Y-93465401D01*
X71661260Y-93460445D01*
X71722321Y-93468634D01*
G37*
G36*
X65612040Y-93884072D02*
G01*
X65632042Y-93815253D01*
X65850804Y-93062179D01*
X66239447Y-93062179D01*
X66295736Y-93257420D01*
X66325727Y-93363451D01*
X66370048Y-93522686D01*
X66423557Y-93716546D01*
X66481117Y-93926449D01*
X66504056Y-94010495D01*
X66557558Y-94205984D01*
X66604983Y-94377734D01*
X66642548Y-94512163D01*
X66666471Y-94595691D01*
X66672372Y-94614814D01*
X66659508Y-94641872D01*
X66591128Y-94656714D01*
X66458094Y-94661299D01*
X66455810Y-94661300D01*
X66222962Y-94661300D01*
X66177751Y-94492258D01*
X66132539Y-94323216D01*
X65885048Y-94334205D01*
X65637558Y-94345195D01*
X65596100Y-94493950D01*
X65555178Y-94598420D01*
X65499842Y-94646897D01*
X65466777Y-94655275D01*
X65402093Y-94651532D01*
X65396096Y-94618087D01*
X65411242Y-94568755D01*
X65443745Y-94459334D01*
X65490270Y-94301179D01*
X65526355Y-94177845D01*
X65691864Y-94177845D01*
X65893917Y-94177845D01*
X66005189Y-94176254D01*
X66078576Y-94172155D01*
X66095969Y-94168286D01*
X66086778Y-94130694D01*
X66062138Y-94037882D01*
X66026451Y-93906310D01*
X66005497Y-93829887D01*
X65952327Y-93645682D01*
X65911692Y-93524251D01*
X65884800Y-93468650D01*
X65872860Y-93481938D01*
X65872374Y-93492950D01*
X65862793Y-93541947D01*
X65837539Y-93644331D01*
X65801190Y-93781917D01*
X65781888Y-93852442D01*
X65691864Y-94177845D01*
X65526355Y-94177845D01*
X65547481Y-94105640D01*
X65612040Y-93884072D01*
G37*
G36*
X77745384Y-93062386D02*
G01*
X78017608Y-93068745D01*
X78224208Y-93090062D01*
X78373098Y-93130157D01*
X78472194Y-93192848D01*
X78529410Y-93281954D01*
X78552662Y-93401295D01*
X78554242Y-93452662D01*
X78528115Y-93617063D01*
X78451645Y-93730735D01*
X78343055Y-93785707D01*
X78283933Y-93802696D01*
X78275953Y-93819739D01*
X78325362Y-93848155D01*
X78394970Y-93879767D01*
X78498473Y-93938429D01*
X78574031Y-94003141D01*
X78588430Y-94023483D01*
X78621671Y-94141377D01*
X78624680Y-94288314D01*
X78597558Y-94425425D01*
X78587330Y-94450911D01*
X78544438Y-94519237D01*
X78479701Y-94569913D01*
X78382223Y-94605887D01*
X78241108Y-94630109D01*
X78045461Y-94645527D01*
X77838356Y-94653621D01*
X77327009Y-94668433D01*
X77327009Y-94512545D01*
X77773275Y-94512545D01*
X77903437Y-94512545D01*
X78035876Y-94485754D01*
X78107975Y-94438167D01*
X78173234Y-94327682D01*
X78182558Y-94201140D01*
X78143834Y-94078352D01*
X78064948Y-93979130D01*
X77953784Y-93923282D01*
X77900737Y-93917523D01*
X77773275Y-93917523D01*
X77773275Y-94512545D01*
X77327009Y-94512545D01*
X77327009Y-93768767D01*
X77773275Y-93768767D01*
X77895999Y-93768767D01*
X77994544Y-93755986D01*
X78062322Y-93725137D01*
X78063349Y-93724141D01*
X78095752Y-93650704D01*
X78107749Y-93536658D01*
X78100269Y-93412641D01*
X78074243Y-93309296D01*
X78049536Y-93269374D01*
X77970136Y-93226029D01*
X77882186Y-93210934D01*
X77773275Y-93210934D01*
X77773275Y-93768767D01*
X77327009Y-93768767D01*
X77327009Y-93062179D01*
X77745384Y-93062386D01*
G37*
G36*
X65131032Y-96249591D02*
G01*
X65145891Y-96105546D01*
X65172972Y-95997934D01*
X65186951Y-95971185D01*
X65268924Y-95901470D01*
X65360171Y-95896326D01*
X65419132Y-95933160D01*
X65445594Y-95943850D01*
X65459447Y-95901583D01*
X65463737Y-95796198D01*
X65463759Y-95784404D01*
X65467374Y-95670173D01*
X65482839Y-95612144D01*
X65517082Y-95592302D01*
X65538136Y-95591022D01*
X65566722Y-95594677D01*
X65586864Y-95613010D01*
X65600035Y-95657068D01*
X65607709Y-95737901D01*
X65611360Y-95866558D01*
X65612459Y-96054087D01*
X65612514Y-96148855D01*
X65612027Y-96363247D01*
X65609582Y-96514311D01*
X65603708Y-96613097D01*
X65592930Y-96670653D01*
X65575776Y-96698029D01*
X65550772Y-96706273D01*
X65538136Y-96706688D01*
X65477760Y-96688045D01*
X65463759Y-96662061D01*
X65452782Y-96636188D01*
X65419132Y-96662061D01*
X65335405Y-96702854D01*
X65240957Y-96694349D01*
X65170764Y-96640341D01*
X65167556Y-96634755D01*
X65141089Y-96540752D01*
X65132114Y-96437389D01*
X65281996Y-96437389D01*
X65295121Y-96536901D01*
X65327563Y-96583570D01*
X65379971Y-96588063D01*
X65414926Y-96569889D01*
X65434867Y-96521538D01*
X65443627Y-96427003D01*
X65445164Y-96315696D01*
X65443150Y-96179050D01*
X65434069Y-96100822D01*
X65413365Y-96065094D01*
X65376482Y-96055950D01*
X65370786Y-96055883D01*
X65328276Y-96065271D01*
X65303719Y-96104734D01*
X65290481Y-96191225D01*
X65285102Y-96274852D01*
X65281996Y-96437389D01*
X65132114Y-96437389D01*
X65129173Y-96403511D01*
X65131032Y-96249591D01*
G37*
G36*
X80060391Y-95599913D02*
G01*
X80158059Y-95612458D01*
X80208394Y-95647966D01*
X80238436Y-95728756D01*
X80244224Y-95751639D01*
X80258189Y-95916283D01*
X80235233Y-96010409D01*
X80211449Y-96117023D01*
X80228048Y-96164038D01*
X80255560Y-96231854D01*
X80265767Y-96342991D01*
X80259948Y-96468754D01*
X80239381Y-96580443D01*
X80206490Y-96648248D01*
X80119813Y-96691670D01*
X80000158Y-96703935D01*
X79882885Y-96683247D01*
X79846555Y-96666520D01*
X79801178Y-96611173D01*
X79781361Y-96531373D01*
X79788127Y-96455460D01*
X79822501Y-96411774D01*
X79837258Y-96409177D01*
X79886577Y-96438276D01*
X79893041Y-96463652D01*
X79923076Y-96521994D01*
X79990338Y-96568558D01*
X80060566Y-96582719D01*
X80079754Y-96576052D01*
X80101680Y-96528292D01*
X80114657Y-96433920D01*
X80116174Y-96384906D01*
X80109844Y-96275618D01*
X80085373Y-96219263D01*
X80041797Y-96196819D01*
X79982102Y-96156205D01*
X79967929Y-96097117D01*
X79998885Y-96048902D01*
X80043935Y-96037288D01*
X80091621Y-96027933D01*
X80110949Y-95986724D01*
X80110039Y-95893944D01*
X80109016Y-95879236D01*
X80095219Y-95777221D01*
X80066769Y-95730817D01*
X80023202Y-95721183D01*
X79956697Y-95751567D01*
X79936941Y-95804858D01*
X79900123Y-95874686D01*
X79848617Y-95888533D01*
X79797976Y-95878463D01*
X79786039Y-95834046D01*
X79795980Y-95769518D01*
X79830348Y-95665836D01*
X79892390Y-95612365D01*
X80000098Y-95597565D01*
X80060391Y-95599913D01*
G37*
G36*
X77826246Y-95926042D02*
G01*
X77870478Y-96034968D01*
X77905795Y-96172674D01*
X77940453Y-96314368D01*
X77968975Y-96387807D01*
X77995265Y-96391765D01*
X78023225Y-96325016D01*
X78056757Y-96186334D01*
X78070453Y-96120963D01*
X78102535Y-95988212D01*
X78134618Y-95915666D01*
X78173537Y-95889465D01*
X78185065Y-95888533D01*
X78218876Y-95892673D01*
X78232653Y-95915456D01*
X78226279Y-95972421D01*
X78199636Y-96079110D01*
X78183177Y-96139558D01*
X78140620Y-96295627D01*
X78099278Y-96448602D01*
X78072546Y-96548635D01*
X78028613Y-96661183D01*
X77979111Y-96702055D01*
X77929867Y-96670669D01*
X77886923Y-96567230D01*
X77856684Y-96457093D01*
X77815927Y-96309797D01*
X77779178Y-96177690D01*
X77747160Y-96051048D01*
X77729004Y-95954756D01*
X77728421Y-95908722D01*
X77728946Y-95908070D01*
X77779875Y-95884951D01*
X77826246Y-95926042D01*
G37*
G36*
X77575107Y-95617318D02*
G01*
X77587331Y-95665400D01*
X77561035Y-95727554D01*
X77512953Y-95739777D01*
X77450799Y-95713481D01*
X77438576Y-95665400D01*
X77464872Y-95603246D01*
X77512953Y-95591022D01*
X77575107Y-95617318D01*
G37*
G36*
X63195293Y-96243623D02*
G01*
X63195237Y-96148855D01*
X63195725Y-95934463D01*
X63198169Y-95783399D01*
X63204044Y-95684613D01*
X63214821Y-95627057D01*
X63231976Y-95599681D01*
X63256979Y-95591438D01*
X63269615Y-95591022D01*
X63313550Y-95600422D01*
X63335869Y-95640631D01*
X63343501Y-95729663D01*
X63343993Y-95784404D01*
X63347632Y-95895434D01*
X63360583Y-95942511D01*
X63385893Y-95935793D01*
X63388620Y-95933160D01*
X63474426Y-95890922D01*
X63565005Y-95915557D01*
X63620801Y-95971185D01*
X63652522Y-96056954D01*
X63672329Y-96189704D01*
X63679446Y-96342881D01*
X63673095Y-96489927D01*
X63652502Y-96604286D01*
X63640195Y-96634755D01*
X63573123Y-96691916D01*
X63479258Y-96703850D01*
X63393576Y-96666761D01*
X63388620Y-96662061D01*
X63351770Y-96636188D01*
X63343993Y-96662061D01*
X63312921Y-96698287D01*
X63269615Y-96706688D01*
X63241030Y-96703033D01*
X63220888Y-96684700D01*
X63207716Y-96640642D01*
X63200042Y-96559809D01*
X63196569Y-96437389D01*
X63348174Y-96437389D01*
X63361300Y-96536901D01*
X63393742Y-96583570D01*
X63446150Y-96588063D01*
X63481104Y-96569889D01*
X63501046Y-96521538D01*
X63509806Y-96427003D01*
X63511343Y-96315696D01*
X63509329Y-96179050D01*
X63500248Y-96100822D01*
X63479544Y-96065094D01*
X63442660Y-96055950D01*
X63436965Y-96055883D01*
X63394455Y-96065271D01*
X63369897Y-96104734D01*
X63356659Y-96191225D01*
X63351281Y-96274852D01*
X63348174Y-96437389D01*
X63196569Y-96437389D01*
X63196392Y-96431152D01*
X63195293Y-96243623D01*
G37*
G36*
X74794174Y-93170044D02*
G01*
X74797540Y-93255615D01*
X74798166Y-93322501D01*
X74801180Y-93432857D01*
X74816563Y-93487911D01*
X74853826Y-93506684D01*
X74891138Y-93508445D01*
X74964043Y-93525877D01*
X74984110Y-93582823D01*
X74962639Y-93640874D01*
X74889920Y-93657201D01*
X74795730Y-93657201D01*
X74806245Y-94075575D01*
X74812699Y-94262785D01*
X74822080Y-94387144D01*
X74836192Y-94460173D01*
X74856839Y-94493391D01*
X74872543Y-94498958D01*
X74961935Y-94506579D01*
X74982782Y-94508255D01*
X75015956Y-94519692D01*
X74993314Y-94556017D01*
X74977318Y-94572464D01*
X74901343Y-94612488D01*
X74783697Y-94640671D01*
X74656751Y-94652227D01*
X74552877Y-94642368D01*
X74537844Y-94637454D01*
X74476304Y-94602754D01*
X74434026Y-94546995D01*
X74407654Y-94457550D01*
X74393832Y-94321796D01*
X74389206Y-94127107D01*
X74389088Y-94077765D01*
X74388275Y-93895806D01*
X74384339Y-93775533D01*
X74375036Y-93704260D01*
X74358125Y-93669302D01*
X74331359Y-93657972D01*
X74314710Y-93657201D01*
X74252556Y-93630904D01*
X74240333Y-93582823D01*
X74266898Y-93520373D01*
X74312354Y-93508445D01*
X74368214Y-93486243D01*
X74394113Y-93409338D01*
X74396029Y-93392891D01*
X74412059Y-93320826D01*
X74454713Y-93271395D01*
X74542850Y-93226855D01*
X74593627Y-93206977D01*
X74698766Y-93167788D01*
X74770348Y-93142231D01*
X74788868Y-93136587D01*
X74794174Y-93170044D01*
G37*
G36*
X73712370Y-95594303D02*
G01*
X73793319Y-95606099D01*
X73827460Y-95629341D01*
X73831255Y-95646805D01*
X73798927Y-95691670D01*
X73738283Y-95702589D01*
X73645311Y-95702589D01*
X73645311Y-96204638D01*
X73644697Y-96406443D01*
X73641725Y-96545497D01*
X73634698Y-96633425D01*
X73621918Y-96681849D01*
X73601688Y-96702396D01*
X73572311Y-96706688D01*
X73572012Y-96706688D01*
X73542203Y-96702088D01*
X73521356Y-96680479D01*
X73507485Y-96630153D01*
X73498599Y-96539399D01*
X73492711Y-96396505D01*
X73488337Y-96213936D01*
X73483619Y-96014476D01*
X73477846Y-95877309D01*
X73468768Y-95790356D01*
X73454133Y-95741540D01*
X73431691Y-95718786D01*
X73399191Y-95710017D01*
X73394286Y-95709299D01*
X73328864Y-95679882D01*
X73310611Y-95644219D01*
X73328254Y-95614973D01*
X73389662Y-95598273D01*
X73507549Y-95591521D01*
X73570933Y-95591022D01*
X73712370Y-95594303D01*
G37*
G36*
X75923129Y-95909634D02*
G01*
X76025019Y-95969078D01*
X76061946Y-96061870D01*
X76062018Y-96065180D01*
X76037546Y-96105932D01*
X75980481Y-96103720D01*
X75917658Y-96060305D01*
X75913451Y-96055424D01*
X75861495Y-96019956D01*
X75815926Y-96041383D01*
X75768028Y-96111433D01*
X75793160Y-96178796D01*
X75889975Y-96240576D01*
X75913155Y-96250194D01*
X76014052Y-96300778D01*
X76065226Y-96364458D01*
X76084923Y-96434634D01*
X76088682Y-96548602D01*
X76043248Y-96633132D01*
X76042647Y-96633798D01*
X75945762Y-96694244D01*
X75828970Y-96705929D01*
X75722045Y-96669640D01*
X75674213Y-96624036D01*
X75631095Y-96552805D01*
X75616321Y-96512469D01*
X75642708Y-96484423D01*
X75701940Y-96490442D01*
X75764125Y-96524640D01*
X75783490Y-96545381D01*
X75847361Y-96586581D01*
X75912237Y-96569906D01*
X75949409Y-96505664D01*
X75951021Y-96485221D01*
X75916218Y-96412728D01*
X75820623Y-96355692D01*
X75711278Y-96282379D01*
X75651510Y-96186273D01*
X75637626Y-96083441D01*
X75665932Y-95989955D01*
X75732736Y-95921883D01*
X75834346Y-95895294D01*
X75923129Y-95909634D01*
G37*
G36*
X69373033Y-93078159D02*
G01*
X69527273Y-93118622D01*
X69654554Y-93195851D01*
X69740081Y-93310268D01*
X69762756Y-93382550D01*
X69770657Y-93464691D01*
X69741251Y-93502369D01*
X69688338Y-93516851D01*
X69618013Y-93520467D01*
X69593746Y-93479827D01*
X69591724Y-93435393D01*
X69557942Y-93317673D01*
X69467908Y-93227276D01*
X69338589Y-93178447D01*
X69280074Y-93173745D01*
X69126105Y-93193788D01*
X69031430Y-93247210D01*
X68994970Y-93323949D01*
X69015644Y-93413945D01*
X69092374Y-93507135D01*
X69224078Y-93593459D01*
X69329906Y-93638079D01*
X69545171Y-93740945D01*
X69708875Y-93875742D01*
X69813617Y-94034290D01*
X69851995Y-94208412D01*
X69852046Y-94215034D01*
X69818962Y-94383524D01*
X69727320Y-94521177D01*
X69588538Y-94622371D01*
X69414032Y-94681482D01*
X69215218Y-94692888D01*
X69003512Y-94650966D01*
X68981938Y-94643577D01*
X68841862Y-94580354D01*
X68761404Y-94502445D01*
X68725944Y-94390644D01*
X68720189Y-94299785D01*
X68722935Y-94190879D01*
X68740880Y-94135591D01*
X68782806Y-94113437D01*
X68801460Y-94110178D01*
X68853025Y-94110179D01*
X68877543Y-94141758D01*
X68884835Y-94223152D01*
X68885135Y-94265531D01*
X68894488Y-94383672D01*
X68931051Y-94460664D01*
X68983122Y-94509845D01*
X69102027Y-94572012D01*
X69229730Y-94590754D01*
X69347570Y-94569963D01*
X69436888Y-94513533D01*
X69479023Y-94425358D01*
X69480157Y-94406152D01*
X69453160Y-94301123D01*
X69368015Y-94204161D01*
X69218492Y-94109439D01*
X69105578Y-94055755D01*
X68911226Y-93940376D01*
X68777416Y-93795170D01*
X68708397Y-93627138D01*
X68708421Y-93443285D01*
X68715204Y-93412515D01*
X68782341Y-93275498D01*
X68896486Y-93173131D01*
X69042846Y-93105837D01*
X69206626Y-93074038D01*
X69373033Y-93078159D01*
G37*
G36*
X69133178Y-95607007D02*
G01*
X69135784Y-95667265D01*
X69134139Y-95674697D01*
X69121866Y-95742441D01*
X69102397Y-95866771D01*
X69078318Y-96030541D01*
X69052211Y-96216605D01*
X69049785Y-96234338D01*
X69022350Y-96429344D01*
X69000512Y-96561980D01*
X68980778Y-96643694D01*
X68959656Y-96685937D01*
X68933654Y-96700158D01*
X68907984Y-96699198D01*
X68870652Y-96685356D01*
X68842640Y-96647259D01*
X68819036Y-96571138D01*
X68794927Y-96443221D01*
X68778014Y-96334799D01*
X68752209Y-96176844D01*
X68730256Y-96084005D01*
X68709627Y-96057961D01*
X68687792Y-96100391D01*
X68662225Y-96212973D01*
X68630398Y-96397387D01*
X68624012Y-96437069D01*
X68597988Y-96579729D01*
X68572676Y-96662593D01*
X68542160Y-96699946D01*
X68512392Y-96706688D01*
X68445786Y-96676171D01*
X68425485Y-96641608D01*
X68408280Y-96560573D01*
X68387564Y-96433096D01*
X68365302Y-96275567D01*
X68343454Y-96104375D01*
X68323982Y-95935912D01*
X68308848Y-95786565D01*
X68300015Y-95672726D01*
X68299444Y-95610785D01*
X68301350Y-95604578D01*
X68351349Y-95595574D01*
X68377314Y-95602256D01*
X68408144Y-95641635D01*
X68432522Y-95738236D01*
X68452151Y-95899610D01*
X68456781Y-95954291D01*
X68471428Y-96107493D01*
X68488190Y-96234138D01*
X68504269Y-96314538D01*
X68510164Y-96329812D01*
X68527328Y-96316508D01*
X68549950Y-96243409D01*
X68574136Y-96124507D01*
X68583558Y-96066046D01*
X68614123Y-95869526D01*
X68638351Y-95735320D01*
X68659452Y-95651984D01*
X68680633Y-95608069D01*
X68705103Y-95592129D01*
X68716714Y-95591022D01*
X68748082Y-95627048D01*
X68779946Y-95730568D01*
X68807795Y-95879236D01*
X68840956Y-96092002D01*
X68865211Y-96240924D01*
X68882387Y-96335756D01*
X68894312Y-96386254D01*
X68902812Y-96402173D01*
X68905547Y-96401161D01*
X68914117Y-96361812D01*
X68928439Y-96264154D01*
X68946362Y-96123836D01*
X68961965Y-95990350D01*
X68983198Y-95813147D01*
X69001664Y-95697325D01*
X69021129Y-95630173D01*
X69045355Y-95598980D01*
X69078107Y-95591037D01*
X69080210Y-95591022D01*
X69133178Y-95607007D01*
G37*
G36*
X76543127Y-95913014D02*
G01*
X76580655Y-95930544D01*
X76653905Y-95992737D01*
X76688799Y-96063625D01*
X76681325Y-96122529D01*
X76627471Y-96148770D01*
X76623007Y-96148855D01*
X76559513Y-96125148D01*
X76546043Y-96090485D01*
X76518262Y-96046330D01*
X76462368Y-96043999D01*
X76417058Y-96057450D01*
X76390428Y-96093215D01*
X76376141Y-96168601D01*
X76367863Y-96300913D01*
X76367801Y-96302317D01*
X76365185Y-96440411D01*
X76374619Y-96521374D01*
X76399189Y-96561909D01*
X76417643Y-96572057D01*
X76499779Y-96578052D01*
X76542928Y-96527539D01*
X76546043Y-96499955D01*
X76577007Y-96456510D01*
X76620420Y-96446366D01*
X76682901Y-96472955D01*
X76694798Y-96518087D01*
X76663345Y-96612882D01*
X76583907Y-96678007D01*
X76478861Y-96707889D01*
X76370589Y-96696958D01*
X76281469Y-96639642D01*
X76269235Y-96624036D01*
X76234412Y-96531922D01*
X76215098Y-96394835D01*
X76212317Y-96240756D01*
X76227092Y-96097666D01*
X76247216Y-96022154D01*
X76315499Y-95935114D01*
X76421865Y-95896611D01*
X76543127Y-95913014D01*
G37*
G36*
X73395437Y-93467692D02*
G01*
X73418590Y-93496466D01*
X73422228Y-93553810D01*
X73422177Y-93654959D01*
X73557528Y-93563108D01*
X73715848Y-93489106D01*
X73870533Y-93477743D01*
X74005715Y-93529730D01*
X74022377Y-93542263D01*
X74057221Y-93574292D01*
X74081803Y-93613252D01*
X74098317Y-93672216D01*
X74108958Y-93764263D01*
X74115923Y-93902466D01*
X74121406Y-94099903D01*
X74122280Y-94137284D01*
X74134388Y-94661300D01*
X73682500Y-94661300D01*
X73682500Y-94177845D01*
X73680267Y-93960708D01*
X73671751Y-93811397D01*
X73654224Y-93723444D01*
X73624961Y-93690382D01*
X73581233Y-93705742D01*
X73520315Y-93763059D01*
X73511616Y-93772564D01*
X73478676Y-93821031D01*
X73456159Y-93890468D01*
X73441431Y-93996128D01*
X73431861Y-94153268D01*
X73428184Y-94256019D01*
X73415597Y-94661300D01*
X73013100Y-94661300D01*
X73013100Y-93478140D01*
X73217689Y-93465401D01*
X73334545Y-93459962D01*
X73395437Y-93467692D01*
G37*
G36*
X77545504Y-95893240D02*
G01*
X77566870Y-95915935D01*
X77579390Y-95969473D01*
X77585400Y-96066713D01*
X77587240Y-96220512D01*
X77587331Y-96297611D01*
X77586475Y-96476639D01*
X77582349Y-96594153D01*
X77572615Y-96663010D01*
X77554935Y-96696068D01*
X77526971Y-96706185D01*
X77512953Y-96706688D01*
X77480403Y-96701981D01*
X77459037Y-96679287D01*
X77446517Y-96625748D01*
X77440507Y-96528508D01*
X77438667Y-96374709D01*
X77438576Y-96297611D01*
X77439432Y-96118582D01*
X77443558Y-96001068D01*
X77453292Y-95932211D01*
X77470972Y-95899153D01*
X77498936Y-95889036D01*
X77512953Y-95888533D01*
X77545504Y-95893240D01*
G37*
G36*
X69867984Y-95591022D02*
G01*
X69990833Y-95595143D01*
X70077318Y-95614870D01*
X70133787Y-95661252D01*
X70166588Y-95745336D01*
X70182071Y-95878171D01*
X70186582Y-96070805D01*
X70186745Y-96145748D01*
X70183916Y-96361153D01*
X70171160Y-96513199D01*
X70142079Y-96612820D01*
X70090270Y-96670951D01*
X70009335Y-96698527D01*
X69892872Y-96706483D01*
X69858415Y-96706688D01*
X69666101Y-96706688D01*
X69666101Y-96557933D01*
X69814857Y-96557933D01*
X70040426Y-96557933D01*
X70019396Y-95721183D01*
X69917126Y-95709416D01*
X69814857Y-95697648D01*
X69814857Y-96557933D01*
X69666101Y-96557933D01*
X69666101Y-95591022D01*
X69867984Y-95591022D01*
G37*
G36*
X71765931Y-95682932D02*
G01*
X71785100Y-95748167D01*
X71785867Y-95776966D01*
X71802498Y-95865540D01*
X71841650Y-95888533D01*
X71887080Y-95919537D01*
X71897434Y-95962911D01*
X71874180Y-96023484D01*
X71841650Y-96037288D01*
X71811342Y-96052598D01*
X71793996Y-96107646D01*
X71786680Y-96216112D01*
X71785867Y-96297611D01*
X71789148Y-96439048D01*
X71800944Y-96519997D01*
X71824186Y-96554137D01*
X71841650Y-96557933D01*
X71887080Y-96588937D01*
X71897434Y-96632310D01*
X71869978Y-96691670D01*
X71800549Y-96705029D01*
X71711836Y-96670501D01*
X71679250Y-96622127D01*
X71657153Y-96519352D01*
X71643591Y-96352705D01*
X71642818Y-96336370D01*
X71632717Y-96197806D01*
X71617847Y-96093318D01*
X71600958Y-96040456D01*
X71595985Y-96037288D01*
X71568958Y-96006106D01*
X71562734Y-95962911D01*
X71578308Y-95902480D01*
X71599923Y-95888533D01*
X71626034Y-95856217D01*
X71637109Y-95778354D01*
X71637112Y-95776966D01*
X71648800Y-95695303D01*
X71692290Y-95666551D01*
X71711489Y-95665400D01*
X71765931Y-95682932D01*
G37*
G36*
X70473903Y-95622026D02*
G01*
X70484256Y-95665400D01*
X70461003Y-95725973D01*
X70428473Y-95739777D01*
X70383043Y-95708773D01*
X70372690Y-95665400D01*
X70395943Y-95604827D01*
X70428473Y-95591022D01*
X70473903Y-95622026D01*
G37*
G36*
X72162277Y-96256221D02*
G01*
X72292169Y-96223257D01*
X72296192Y-96223233D01*
X72362744Y-96197512D01*
X72381201Y-96135848D01*
X72348508Y-96061492D01*
X72321081Y-96033949D01*
X72266637Y-96004800D01*
X72221943Y-96038364D01*
X72214712Y-96047989D01*
X72157266Y-96094969D01*
X72092999Y-96111263D01*
X72050601Y-96092362D01*
X72046189Y-96074477D01*
X72076234Y-96009958D01*
X72147325Y-95942795D01*
X72230895Y-95896534D01*
X72271767Y-95888533D01*
X72369755Y-95906344D01*
X72420523Y-95927030D01*
X72453982Y-95952900D01*
X72475210Y-95997220D01*
X72486892Y-96075038D01*
X72491718Y-96201401D01*
X72492456Y-96329764D01*
X72492456Y-96694001D01*
X72311722Y-96698118D01*
X72196854Y-96692324D01*
X72111091Y-96672942D01*
X72088589Y-96659835D01*
X72060539Y-96596746D01*
X72046546Y-96496621D01*
X72046189Y-96478226D01*
X72050553Y-96459249D01*
X72165532Y-96459249D01*
X72169264Y-96534283D01*
X72219954Y-96588134D01*
X72291795Y-96582117D01*
X72342217Y-96541125D01*
X72375205Y-96463047D01*
X72359873Y-96391383D01*
X72303825Y-96354251D01*
X72291461Y-96353394D01*
X72211234Y-96384880D01*
X72165532Y-96459249D01*
X72050553Y-96459249D01*
X72076902Y-96344661D01*
X72162277Y-96256221D01*
G37*
G36*
X76647155Y-93097454D02*
G01*
X76807983Y-93152261D01*
X76909172Y-93226823D01*
X76965118Y-93333715D01*
X76977660Y-93386236D01*
X76977227Y-93545632D01*
X76910196Y-93671970D01*
X76801447Y-93752716D01*
X76681737Y-93814620D01*
X76795063Y-93862270D01*
X76924049Y-93951452D01*
X77003115Y-94077627D01*
X77031440Y-94222579D01*
X77008201Y-94368093D01*
X76932575Y-94495954D01*
X76827313Y-94576726D01*
X76690697Y-94621538D01*
X76512491Y-94645775D01*
X76322930Y-94648190D01*
X76152247Y-94627534D01*
X76081674Y-94607516D01*
X75944121Y-94538434D01*
X75867955Y-94447845D01*
X75840305Y-94318466D01*
X75839454Y-94282304D01*
X75845146Y-94189402D01*
X75871539Y-94149283D01*
X75932426Y-94140656D01*
X75996334Y-94151000D01*
X76021703Y-94196795D01*
X76025398Y-94265053D01*
X76054884Y-94396021D01*
X76140550Y-94479700D01*
X76278210Y-94512249D01*
X76295247Y-94512545D01*
X76413026Y-94492722D01*
X76499863Y-94422384D01*
X76506155Y-94414557D01*
X76570791Y-94282590D01*
X76571841Y-94149992D01*
X76517383Y-94033677D01*
X76415494Y-93950562D01*
X76274250Y-93917562D01*
X76268817Y-93917523D01*
X76180065Y-93910785D01*
X76143423Y-93880324D01*
X76136965Y-93824550D01*
X76151810Y-93754391D01*
X76210959Y-93732159D01*
X76232382Y-93731578D01*
X76352319Y-93710228D01*
X76462644Y-93657028D01*
X76517582Y-93605147D01*
X76544743Y-93511323D01*
X76536617Y-93395060D01*
X76497899Y-93295836D01*
X76478034Y-93272481D01*
X76372425Y-93217396D01*
X76256953Y-93216192D01*
X76152938Y-93260906D01*
X76081696Y-93343572D01*
X76062587Y-93427698D01*
X76039922Y-93494503D01*
X75976693Y-93502060D01*
X75915180Y-93472876D01*
X75880505Y-93427702D01*
X75892383Y-93349989D01*
X75896586Y-93337786D01*
X75978951Y-93211238D01*
X76115133Y-93121901D01*
X76292350Y-93073867D01*
X76497820Y-93071230D01*
X76647155Y-93097454D01*
G37*
G36*
X62265215Y-96378629D02*
G01*
X62278258Y-96237207D01*
X62313453Y-96078355D01*
X62364356Y-95918604D01*
X62424520Y-95774482D01*
X62487502Y-95662520D01*
X62546856Y-95599246D01*
X62572308Y-95591022D01*
X62616436Y-95608969D01*
X62619351Y-95667853D01*
X62580131Y-95775242D01*
X62539721Y-95858794D01*
X62495635Y-95965109D01*
X62499393Y-96021996D01*
X62544432Y-96037288D01*
X62610422Y-96061907D01*
X62674593Y-96111666D01*
X62726253Y-96206878D01*
X62748995Y-96340739D01*
X62741846Y-96482972D01*
X62703831Y-96603296D01*
X62691079Y-96624036D01*
X62607309Y-96686298D01*
X62492675Y-96707441D01*
X62379662Y-96685323D01*
X62323955Y-96648248D01*
X62281977Y-96560932D01*
X62267541Y-96425818D01*
X62380801Y-96425818D01*
X62402521Y-96520600D01*
X62421709Y-96550495D01*
X62483492Y-96591813D01*
X62538413Y-96566699D01*
X62560873Y-96541934D01*
X62592943Y-96463345D01*
X62596317Y-96361527D01*
X62574973Y-96264805D01*
X62532893Y-96201506D01*
X62511700Y-96191991D01*
X62438298Y-96203912D01*
X62410000Y-96228871D01*
X62382838Y-96316064D01*
X62380801Y-96425818D01*
X62267541Y-96425818D01*
X62265521Y-96406908D01*
X62265215Y-96378629D01*
G37*
G36*
X79104521Y-95918645D02*
G01*
X79112075Y-95948870D01*
X79126435Y-95987751D01*
X79158561Y-95973237D01*
X79252175Y-95917816D01*
X79314265Y-95916140D01*
X79335208Y-95964078D01*
X79314060Y-96023771D01*
X79285189Y-96037288D01*
X79199696Y-96069723D01*
X79143312Y-96167905D01*
X79115470Y-96333150D01*
X79112075Y-96439997D01*
X79108925Y-96583399D01*
X79097580Y-96666220D01*
X79075193Y-96702063D01*
X79056292Y-96706688D01*
X79031322Y-96695003D01*
X79014881Y-96652089D01*
X79005361Y-96566158D01*
X79001155Y-96425421D01*
X79000508Y-96297611D01*
X79002102Y-96114502D01*
X79007954Y-95993936D01*
X79019671Y-95924122D01*
X79038863Y-95893274D01*
X79056292Y-95888533D01*
X79104521Y-95918645D01*
G37*
G36*
X81640918Y-96148855D02*
G01*
X81640431Y-96363247D01*
X81637987Y-96514311D01*
X81632112Y-96613097D01*
X81621334Y-96670653D01*
X81604180Y-96698029D01*
X81579176Y-96706273D01*
X81566540Y-96706688D01*
X81536176Y-96702588D01*
X81515431Y-96682384D01*
X81502480Y-96634224D01*
X81495502Y-96546256D01*
X81492671Y-96406625D01*
X81492163Y-96223233D01*
X81489213Y-96001313D01*
X81479772Y-95849295D01*
X81462952Y-95762917D01*
X81437864Y-95737915D01*
X81403620Y-95770025D01*
X81399191Y-95776966D01*
X81350999Y-95813139D01*
X81312506Y-95787282D01*
X81306218Y-95753174D01*
X81339669Y-95673934D01*
X81425459Y-95615229D01*
X81538649Y-95592205D01*
X81640918Y-95591022D01*
X81640918Y-96148855D01*
G37*
G36*
X80620669Y-95591022D02*
G01*
X80775579Y-95600626D01*
X80870792Y-95636549D01*
X80919324Y-95709459D01*
X80934190Y-95830024D01*
X80934330Y-95848099D01*
X80922433Y-95980693D01*
X80889766Y-96063437D01*
X80881035Y-96072412D01*
X80850670Y-96112214D01*
X80871762Y-96158447D01*
X80903976Y-96192879D01*
X80952127Y-96258755D01*
X80967390Y-96342631D01*
X80961046Y-96439154D01*
X80929660Y-96576313D01*
X80864501Y-96659371D01*
X80752335Y-96699017D01*
X80629711Y-96706688D01*
X80450874Y-96706688D01*
X80450874Y-96562645D01*
X80562441Y-96562645D01*
X80683305Y-96550992D01*
X80767831Y-96533350D01*
X80804657Y-96485938D01*
X80816003Y-96416045D01*
X80804736Y-96286385D01*
X80743373Y-96208461D01*
X80650860Y-96186044D01*
X80598556Y-96192653D01*
X80572307Y-96225025D01*
X80563274Y-96301983D01*
X80562441Y-96374345D01*
X80562441Y-96562645D01*
X80450874Y-96562645D01*
X80450874Y-95889722D01*
X80562441Y-95889722D01*
X80565819Y-95986055D01*
X80587147Y-96027558D01*
X80643220Y-96033769D01*
X80683305Y-96030347D01*
X80765659Y-96014601D01*
X80798550Y-95972604D01*
X80804169Y-95892586D01*
X80781138Y-95779917D01*
X80720193Y-95715216D01*
X80633556Y-95710543D01*
X80623279Y-95714097D01*
X80578964Y-95762387D01*
X80562695Y-95868746D01*
X80562441Y-95889722D01*
X80450874Y-95889722D01*
X80450874Y-95591022D01*
X80620669Y-95591022D01*
G37*
G36*
X67156666Y-95595641D02*
G01*
X67226691Y-95611579D01*
X67248742Y-95641954D01*
X67248825Y-95644667D01*
X67216176Y-95685327D01*
X67115613Y-95707617D01*
X67090772Y-95709748D01*
X66932719Y-95721183D01*
X66910049Y-96074477D01*
X67060843Y-96074477D01*
X67158976Y-96080537D01*
X67202709Y-96105107D01*
X67211636Y-96148855D01*
X67199161Y-96197516D01*
X67148741Y-96219022D01*
X67062880Y-96223233D01*
X66914125Y-96223233D01*
X66914125Y-96464960D01*
X66910401Y-96600549D01*
X66897093Y-96675910D01*
X66871001Y-96704918D01*
X66858341Y-96706688D01*
X66836509Y-96696570D01*
X66821078Y-96659322D01*
X66811016Y-96584608D01*
X66805288Y-96462088D01*
X66802861Y-96281425D01*
X66802558Y-96148855D01*
X66802558Y-95591022D01*
X67025691Y-95591022D01*
X67156666Y-95595641D01*
G37*
G36*
X70697113Y-95977793D02*
G01*
X70737792Y-95909945D01*
X70802874Y-95891912D01*
X70894519Y-95914786D01*
X70979092Y-95936384D01*
X71014415Y-95915756D01*
X71014632Y-95915123D01*
X71054335Y-95893172D01*
X71093762Y-95900404D01*
X71120592Y-95917402D01*
X71138363Y-95952210D01*
X71148365Y-96017143D01*
X71151884Y-96124514D01*
X71150208Y-96286640D01*
X71147315Y-96412515D01*
X71141518Y-96612164D01*
X71134295Y-96751150D01*
X71123187Y-96843182D01*
X71105736Y-96901968D01*
X71079483Y-96941216D01*
X71047267Y-96970381D01*
X70960291Y-97027489D01*
X70882709Y-97033848D01*
X70781767Y-96993423D01*
X70710086Y-96935635D01*
X70676018Y-96866570D01*
X70683616Y-96807870D01*
X70736934Y-96781177D01*
X70741992Y-96781066D01*
X70805486Y-96804773D01*
X70818956Y-96839436D01*
X70846737Y-96883591D01*
X70902631Y-96885922D01*
X70963359Y-96859923D01*
X70992197Y-96790803D01*
X70998255Y-96743877D01*
X71001424Y-96661975D01*
X70986495Y-96642496D01*
X70962925Y-96660202D01*
X70876175Y-96701542D01*
X70774854Y-96696227D01*
X70714827Y-96662061D01*
X70690808Y-96598862D01*
X70675506Y-96472188D01*
X70670201Y-96294726D01*
X70671677Y-96247244D01*
X70780513Y-96247244D01*
X70782973Y-96370568D01*
X70804626Y-96484013D01*
X70843393Y-96566005D01*
X70893334Y-96595122D01*
X70935706Y-96572221D01*
X70960274Y-96550495D01*
X70988949Y-96483396D01*
X71003120Y-96372498D01*
X71003176Y-96245231D01*
X70989505Y-96129025D01*
X70962496Y-96051309D01*
X70953057Y-96040558D01*
X70898211Y-96019379D01*
X70841491Y-96057256D01*
X70799326Y-96135616D01*
X70780513Y-96247244D01*
X70671677Y-96247244D01*
X70676147Y-96103405D01*
X70697113Y-95977793D01*
G37*
G36*
X71438943Y-95617318D02*
G01*
X71451167Y-95665400D01*
X71424871Y-95727554D01*
X71376789Y-95739777D01*
X71314635Y-95713481D01*
X71302412Y-95665400D01*
X71328708Y-95603246D01*
X71376789Y-95591022D01*
X71438943Y-95617318D01*
G37*
G36*
X66570822Y-95594677D02*
G01*
X66590963Y-95613010D01*
X66604135Y-95657068D01*
X66611809Y-95737901D01*
X66615459Y-95866558D01*
X66616558Y-96054087D01*
X66616614Y-96148855D01*
X66616126Y-96363247D01*
X66613682Y-96514311D01*
X66607808Y-96613097D01*
X66597030Y-96670653D01*
X66579876Y-96698029D01*
X66554872Y-96706273D01*
X66542236Y-96706688D01*
X66501984Y-96699154D01*
X66479542Y-96665596D01*
X66469855Y-96589578D01*
X66467858Y-96464960D01*
X66467858Y-96223233D01*
X66244725Y-96223233D01*
X66244725Y-96464960D01*
X66242407Y-96595780D01*
X66232081Y-96668714D01*
X66208691Y-96700200D01*
X66170347Y-96706688D01*
X66141762Y-96703033D01*
X66121620Y-96684700D01*
X66108448Y-96640642D01*
X66100774Y-96559809D01*
X66097124Y-96431152D01*
X66096025Y-96243623D01*
X66095969Y-96148855D01*
X66096457Y-95934463D01*
X66098901Y-95783399D01*
X66104776Y-95684613D01*
X66115553Y-95627057D01*
X66132708Y-95599681D01*
X66157712Y-95591438D01*
X66170347Y-95591022D01*
X66210599Y-95598556D01*
X66233041Y-95632114D01*
X66242729Y-95708132D01*
X66244725Y-95832750D01*
X66244725Y-96074477D01*
X66467858Y-96074477D01*
X66467858Y-95832750D01*
X66470176Y-95701930D01*
X66480502Y-95628996D01*
X66503892Y-95597510D01*
X66542236Y-95591022D01*
X66570822Y-95594677D01*
G37*
X91010500Y-95098000D02*
X92685500Y-95098000D01*
X91010500Y-91978000D02*
X90360500Y-91978000D01*
X91010500Y-95098000D02*
X90360500Y-95098000D01*
X91010500Y-91978000D02*
X91660500Y-91978000D01*
X83134564Y-116051000D02*
X82680436Y-116051000D01*
X83134564Y-114581000D02*
X82680436Y-114581000D01*
X68160000Y-123864000D02*
X72660000Y-123864000D01*
X72660000Y-117364000D02*
X68160000Y-117364000D01*
X66910000Y-119864000D02*
X66910000Y-121364000D01*
X73910000Y-121364000D02*
X73910000Y-119864000D01*
X45850436Y-92683000D02*
X46304564Y-92683000D01*
X45850436Y-91213000D02*
X46304564Y-91213000D01*
X37853252Y-100611000D02*
X37330748Y-100611000D01*
X37853252Y-102081000D02*
X37330748Y-102081000D01*
X50538748Y-95277000D02*
X51061252Y-95277000D01*
X50538748Y-96747000D02*
X51061252Y-96747000D01*
X101510000Y-98720064D02*
X101510000Y-95915936D01*
X104230000Y-98720064D02*
X104230000Y-95915936D01*
D13*
X61214000Y-74803000D02*
X61214000Y-81661000D01*
X65786000Y-81661000D02*
X65786000Y-74803000D01*
X61214000Y-81661000D02*
G75*
G03*
X65786000Y-81661000I2286000J0D01*
G01*
X65786000Y-74803000D02*
G75*
G03*
X61214000Y-74803000I-2286000J0D01*
G01*
D14*
X100584000Y-112522000D02*
X106045000Y-112522000D01*
X100203000Y-110617000D02*
X100203000Y-112395000D01*
X102743000Y-111506000D02*
X102235000Y-111506000D01*
X103124000Y-112014000D02*
X103505000Y-112014000D01*
D15*
X99568000Y-110794800D02*
X100152200Y-110794800D01*
D14*
X103505000Y-110998000D02*
X103124000Y-110998000D01*
X100584000Y-112522000D02*
X100584000Y-112395000D01*
X103886000Y-111506000D02*
X103886000Y-112014000D01*
X103886000Y-111506000D02*
X104394000Y-111506000D01*
D15*
X99568000Y-111810800D02*
X99568000Y-112217200D01*
X99568000Y-111810800D02*
X100152200Y-111810800D01*
X99568000Y-112217200D02*
X100152200Y-112217200D01*
D14*
X100584000Y-110490000D02*
X100584000Y-110617000D01*
X103886000Y-110998000D02*
X103886000Y-111506000D01*
X100584000Y-112395000D02*
X100584000Y-110617000D01*
X102743000Y-110998000D02*
X102743000Y-111506000D01*
D16*
X99314000Y-110998000D02*
X99822000Y-110998000D01*
D15*
X100152200Y-110794800D02*
X100152200Y-111201200D01*
D14*
X100584000Y-110490000D02*
X106045000Y-110490000D01*
X102743000Y-111506000D02*
X102743000Y-112014000D01*
X100203000Y-110617000D02*
X100584000Y-110617000D01*
D15*
X99568000Y-111201200D02*
X100152200Y-111201200D01*
D14*
X100203000Y-112395000D02*
X100584000Y-112395000D01*
D15*
X100152200Y-111810800D02*
X100152200Y-112217200D01*
D16*
X99314000Y-112014000D02*
X99695000Y-112014000D01*
D15*
X99568000Y-110794800D02*
X99568000Y-111201200D01*
D14*
X103124000Y-112014000D02*
X103124000Y-110998000D01*
X106299000Y-110744000D02*
X106299000Y-112268000D01*
X103505000Y-110998000D02*
X103505000Y-112014000D01*
X106299000Y-110744000D02*
G75*
G03*
X106045000Y-110490000I-254000J0D01*
G01*
X106045000Y-112522000D02*
G75*
G03*
X106299000Y-112268000I0J254000D01*
G01*
D12*
X107312000Y-81662000D02*
X107312000Y-84962000D01*
X107312000Y-84962000D02*
X112712000Y-84962000D01*
X107312000Y-81662000D02*
X112712000Y-81662000D01*
X38922000Y-109026000D02*
X37592000Y-109026000D01*
X38922000Y-106426000D02*
X38922000Y-103826000D01*
X36262000Y-106426000D02*
X36262000Y-103826000D01*
X38922000Y-106426000D02*
X36262000Y-106426000D01*
X38922000Y-107696000D02*
X38922000Y-109026000D01*
X38922000Y-103826000D02*
X36262000Y-103826000D01*
X85965000Y-110470000D02*
X85965000Y-105410000D01*
X93105000Y-100350000D02*
X93105000Y-110470000D01*
X93548564Y-112549000D02*
X93094436Y-112549000D01*
X93548564Y-114019000D02*
X93094436Y-114019000D01*
D13*
X51054000Y-74803000D02*
X51054000Y-81661000D01*
X55626000Y-81661000D02*
X55626000Y-74803000D01*
X51054000Y-81661000D02*
G75*
G03*
X55626000Y-81661000I2286000J0D01*
G01*
X55626000Y-74803000D02*
G75*
G03*
X51054000Y-74803000I-2286000J0D01*
G01*
D12*
X37402436Y-100049000D02*
X37856564Y-100049000D01*
X37402436Y-98579000D02*
X37856564Y-98579000D01*
D13*
X77089000Y-77216000D02*
X77089000Y-84074000D01*
X81661000Y-84074000D02*
X81661000Y-77216000D01*
X81661000Y-77216000D02*
G75*
G03*
X77089000Y-77216000I-2286000J0D01*
G01*
X77089000Y-84074000D02*
G75*
G03*
X81661000Y-84074000I2286000J0D01*
G01*
D12*
X97465000Y-119900000D02*
X97465000Y-121400000D01*
X98715000Y-123900000D02*
X103215000Y-123900000D01*
X103215000Y-117400000D02*
X98715000Y-117400000D01*
X104465000Y-121400000D02*
X104465000Y-119900000D01*
D13*
X56134000Y-74803000D02*
X56134000Y-81661000D01*
X60706000Y-81661000D02*
X60706000Y-74803000D01*
X60706000Y-74803000D02*
G75*
G03*
X56134000Y-74803000I-2286000J0D01*
G01*
X56134000Y-81661000D02*
G75*
G03*
X60706000Y-81661000I2286000J0D01*
G01*
D17*
X78105000Y-124968000D02*
X78105000Y-125476000D01*
X78105000Y-98806000D02*
X78105000Y-99314000D01*
X77851000Y-99060000D02*
X78359000Y-99060000D01*
X33909000Y-99060000D02*
X34417000Y-99060000D01*
X121793000Y-99060000D02*
X122301000Y-99060000D01*
X34163000Y-98806000D02*
X34163000Y-99314000D01*
X77851000Y-72898000D02*
X78359000Y-72898000D01*
X77851000Y-125222000D02*
X78359000Y-125222000D01*
X122047000Y-98806000D02*
X122047000Y-99314000D01*
X78105000Y-72644000D02*
X78105000Y-73152000D01*
%LPC*%
D18*
X82042000Y-106426000D03*
X80217000Y-106426000D03*
D19*
X44196000Y-121920000D03*
D20*
X44196000Y-114300000D03*
D21*
X94234000Y-94535000D03*
X94234000Y-92710000D03*
D22*
X76454000Y-113538000D03*
X76454000Y-115363000D03*
D23*
X48260000Y-75692000D03*
X48260000Y-80772000D03*
D22*
X82550000Y-99671500D03*
X82550000Y-101496500D03*
X96266000Y-109935000D03*
X96266000Y-111760000D03*
D21*
X76454000Y-111252000D03*
X76454000Y-109427000D03*
D24*
X59690000Y-108585000D03*
X59690000Y-111125000D03*
D25*
X82042000Y-113030000D03*
X83867000Y-113030000D03*
D26*
X106680000Y-104140000D03*
X106680000Y-102240000D03*
D27*
X37846000Y-115498000D03*
X37846000Y-110998000D03*
D28*
X87480000Y-122864000D03*
X93980000Y-122864000D03*
X93980000Y-118364000D03*
X87480000Y-118364000D03*
D22*
X94361000Y-106760000D03*
X94361000Y-108585000D03*
D18*
X82042000Y-108712000D03*
X80217000Y-108712000D03*
D25*
X92456000Y-115570000D03*
X94281000Y-115570000D03*
D29*
X45085000Y-89408000D03*
X46985000Y-89408000D03*
D28*
X83820000Y-122936000D03*
X77320000Y-122936000D03*
X83820000Y-118436000D03*
X77320000Y-118436000D03*
D30*
X91948000Y-94488000D03*
X91948000Y-92588000D03*
X90073000Y-93538000D03*
D18*
X83820000Y-115316000D03*
X81995000Y-115316000D03*
D28*
X67160000Y-122864000D03*
X73660000Y-122864000D03*
X73660000Y-118364000D03*
X67160000Y-118364000D03*
D25*
X45165000Y-91948000D03*
X46990000Y-91948000D03*
D31*
X38542000Y-101346000D03*
X36642000Y-101346000D03*
D29*
X49850000Y-96012000D03*
X51750000Y-96012000D03*
D27*
X102870000Y-99568000D03*
X102870000Y-95068000D03*
D23*
X63500000Y-80772000D03*
X63500000Y-75692000D03*
D32*
X98552000Y-110236000D03*
X98552000Y-112776000D03*
D33*
X108712000Y-83312000D03*
X112712000Y-83312000D03*
D34*
X37592000Y-107696000D03*
D35*
X37592000Y-105156000D03*
D36*
X86655000Y-110410000D03*
X88095000Y-110410000D03*
X89535000Y-110410000D03*
X90975000Y-110410000D03*
X92415000Y-110410000D03*
X92415000Y-100410000D03*
X90975000Y-100410000D03*
X89535000Y-100410000D03*
X88095000Y-100410000D03*
X86655000Y-100410000D03*
D18*
X94234000Y-113284000D03*
X92409000Y-113284000D03*
D23*
X53340000Y-80772000D03*
X53340000Y-75692000D03*
D25*
X36717000Y-99314000D03*
X38542000Y-99314000D03*
D23*
X79375000Y-78105000D03*
X79375000Y-83185000D03*
D28*
X104215000Y-122900000D03*
X97715000Y-122900000D03*
X104215000Y-118400000D03*
X97715000Y-118400000D03*
D23*
X58420000Y-75692000D03*
X58420000Y-80772000D03*
D37*
X40005000Y-119380000D03*
X40005000Y-78740000D03*
X116205000Y-78740000D03*
X116205000Y-119380000D03*
D38*
X85725000Y-93980000D03*
D39*
X85725000Y-91980000D03*
D34*
X100843000Y-104394000D03*
D35*
X98303000Y-104394000D03*
X95763000Y-104394000D03*
X93223000Y-104394000D03*
X90683000Y-104394000D03*
X88143000Y-104394000D03*
X85603000Y-104394000D03*
D38*
X107502900Y-95631000D03*
D39*
X109502900Y-95631000D03*
D40*
X54885000Y-121920000D03*
D41*
X56155000Y-120650000D03*
X54885000Y-119380000D03*
X116388000Y-99677000D03*
D42*
X119888000Y-101727000D03*
X119888000Y-97627000D03*
D43*
X119848000Y-110744000D03*
X112848000Y-110744000D03*
D39*
X47585000Y-106045000D03*
X45085000Y-106045000D03*
D34*
X41910000Y-97155000D03*
D35*
X41910000Y-99695000D03*
X41910000Y-102235000D03*
X41910000Y-104775000D03*
X41910000Y-107315000D03*
X41910000Y-109855000D03*
D38*
X108264900Y-76708000D03*
D39*
X110264900Y-76708000D03*
D28*
X85471000Y-75819000D03*
D44*
X87971000Y-75819000D03*
X82971000Y-75819000D03*
D38*
X64135000Y-120396000D03*
D39*
X62135000Y-120396000D03*
D43*
X119848000Y-86868000D03*
X112848000Y-86868000D03*
D40*
X54864000Y-110998000D03*
D41*
X56134000Y-109728000D03*
X54864000Y-108458000D03*
D38*
X60960000Y-84515888D03*
D39*
X60960000Y-86515888D03*
D40*
X54885000Y-116459000D03*
D41*
X56155000Y-115189000D03*
X54885000Y-113919000D03*
D38*
X100644900Y-76835000D03*
D39*
X102644900Y-76835000D03*
M02*
