M48
; DRILL file {KiCad (6.0.5)} date Mon May 23 23:46:34 2022
; FORMAT={-:-/ absolute / metric / decimal}
; #@! TF.CreationDate,2022-05-23T23:46:34+08:00
; #@! TF.GenerationSoftware,Kicad,Pcbnew,(6.0.5)
; #@! TF.FileFunction,MixedPlating,1,2
FMAT,2
METRIC
; #@! TA.AperFunction,Plated,PTH,ViaDrill
T1C0.400
; #@! TA.AperFunction,Plated,PTH,ComponentDrill
T2C0.699
; #@! TA.AperFunction,Plated,PTH,ComponentDrill
T3C0.700
; #@! TA.AperFunction,Plated,PTH,ComponentDrill
T4C0.750
; #@! TA.AperFunction,Plated,PTH,ComponentDrill
T5C0.762
; #@! TA.AperFunction,Plated,PTH,ComponentDrill
T6C0.800
; #@! TA.AperFunction,Plated,PTH,ComponentDrill
T7C0.813
; #@! TA.AperFunction,Plated,PTH,ComponentDrill
T8C1.000
; #@! TA.AperFunction,Plated,PTH,ComponentDrill
T9C1.100
; #@! TA.AperFunction,Plated,PTH,ComponentDrill
T10C1.200
; #@! TA.AperFunction,Plated,PTH,ComponentDrill
T11C2.200
; #@! TA.AperFunction,NonPlated,NPTH,ComponentDrill
T12C1.300
; #@! TA.AperFunction,NonPlated,NPTH,ComponentDrill
T13C1.700
; #@! TA.AperFunction,NonPlated,NPTH,ComponentDrill
T14C2.000
%
G90
G05
T1
X46.482Y-95.631
X48.066Y-94.786
X48.514Y-99.187
X50.165Y-101.647
X51.689Y-108.331
X51.942Y-104.484
X58.674Y-98.044
X60.041Y-102.205
X66.09Y-120.431
X67.063Y-105.251
X69.998Y-88.788
X70.358Y-118.364
X71.501Y-85.725
X74.93Y-104.648
X77.343Y-86.36
X77.657Y-116.834
X81.479Y-90.712
X85.613Y-121.317
X85.725Y-88.773
X86.503Y-113.987
X86.655Y-115.018
X86.741Y-83.693
X86.764Y-120.431
X90.853Y-120.317
X92.051Y-108.158
X94.488Y-81.915
X94.789Y-116.881
X95.529Y-105.876
X95.643Y-115.766
X95.704Y-113.988
X97.433Y-115.199
X98.298Y-94.361
X98.425Y-88.138
X98.467Y-100.586
X100.357Y-102.211
X100.41Y-95.915
X100.436Y-118.967
X100.584Y-93.853
X104.267Y-115.443
X106.934Y-118.364
X107.569Y-112.903
X108.099Y-102.106
X110.109Y-108.585
X111.761Y-99.868
X112.522Y-93.98
X115.824Y-104.14
T2
X48.26Y-75.692
X48.26Y-80.772
X53.34Y-75.692
X53.34Y-80.772
X58.42Y-75.692
X58.42Y-80.772
X63.5Y-75.692
X63.5Y-80.772
X79.375Y-78.105
X79.375Y-83.185
T4
X54.864Y-108.458
X54.864Y-110.998
X54.885Y-113.919
X54.885Y-116.459
X54.885Y-119.38
X54.885Y-121.92
X56.134Y-109.728
X56.155Y-115.189
X56.155Y-120.65
T5
X59.69Y-108.585
X59.69Y-111.125
T6
X45.085Y-106.045
X47.585Y-106.045
X60.96Y-84.516
X60.96Y-86.516
X62.135Y-120.396
X64.135Y-120.396
X85.725Y-91.98
X85.725Y-93.98
X100.645Y-76.835
X102.645Y-76.835
X107.503Y-95.631
X108.265Y-76.708
X109.503Y-95.631
X110.265Y-76.708
T7
X98.552Y-110.236
X98.552Y-112.776
T8
X37.592Y-105.156
X37.592Y-107.696
X41.91Y-97.155
X41.91Y-99.695
X41.91Y-102.235
X41.91Y-104.775
X41.91Y-107.315
X41.91Y-109.855
X85.603Y-104.394
X88.143Y-104.394
X90.683Y-104.394
X93.223Y-104.394
X95.763Y-104.394
X98.303Y-104.394
X100.843Y-104.394
T9
X44.196Y-114.3
X44.196Y-121.92
X67.16Y-118.364
X67.16Y-122.864
X73.66Y-118.364
X73.66Y-122.864
X77.32Y-118.436
X77.32Y-122.936
X83.82Y-118.436
X83.82Y-122.936
X87.48Y-118.364
X87.48Y-122.864
X93.98Y-118.364
X93.98Y-122.864
X97.715Y-118.4
X97.715Y-122.9
X104.215Y-118.4
X104.215Y-122.9
T10
X82.971Y-75.819
X87.971Y-75.819
T11
X40.005Y-78.74
X40.005Y-119.38
X116.205Y-78.74
X116.205Y-119.38
T12
X116.388Y-99.677
T13
X112.848Y-86.868
X112.848Y-110.744
X119.848Y-86.868
X119.848Y-110.744
T14
X85.471Y-75.819
T3
G00X120.288Y-97.627
M15
G01X119.488Y-97.627
M16
G05
G00X120.288Y-101.727
M15
G01X119.488Y-101.727
M16
G05
T0
M30
