G04 #@! TF.GenerationSoftware,KiCad,Pcbnew,(6.0.5)*
G04 #@! TF.CreationDate,2022-05-23T23:46:22+08:00*
G04 #@! TF.ProjectId,AT Sprint 3B.1,41542053-7072-4696-9e74-2033422e312e,rev?*
G04 #@! TF.SameCoordinates,Original*
G04 #@! TF.FileFunction,Legend,Bot*
G04 #@! TF.FilePolarity,Positive*
%FSLAX46Y46*%
G04 Gerber Fmt 4.6, Leading zero omitted, Abs format (unit mm)*
G04 Created by KiCad (PCBNEW (6.0.5)) date 2022-05-23 23:46:22*
%MOMM*%
%LPD*%
G01*
G04 APERTURE LIST*
G04 Aperture macros list*
%AMRoundRect*
0 Rectangle with rounded corners*
0 $1 Rounding radius*
0 $2 $3 $4 $5 $6 $7 $8 $9 X,Y pos of 4 corners*
0 Add a 4 corners polygon primitive as box body*
4,1,4,$2,$3,$4,$5,$6,$7,$8,$9,$2,$3,0*
0 Add four circle primitives for the rounded corners*
1,1,$1+$1,$2,$3*
1,1,$1+$1,$4,$5*
1,1,$1+$1,$6,$7*
1,1,$1+$1,$8,$9*
0 Add four rect primitives between the rounded corners*
20,1,$1+$1,$2,$3,$4,$5,0*
20,1,$1+$1,$4,$5,$6,$7,0*
20,1,$1+$1,$6,$7,$8,$9,0*
20,1,$1+$1,$8,$9,$2,$3,0*%
%AMFreePoly0*
4,1,9,3.862500,-0.866500,0.737500,-0.866500,0.737500,-0.450000,-0.737500,-0.450000,-0.737500,0.450000,0.737500,0.450000,0.737500,0.866500,3.862500,0.866500,3.862500,-0.866500,3.862500,-0.866500,$1*%
G04 Aperture macros list end*
%ADD10C,0.150000*%
%ADD11C,0.120000*%
%ADD12C,0.127000*%
%ADD13C,0.400000*%
%ADD14C,0.100000*%
%ADD15R,2.200000X2.200000*%
%ADD16O,2.200000X2.200000*%
%ADD17C,1.651000*%
%ADD18C,1.524000*%
%ADD19C,2.000000*%
%ADD20C,1.676400*%
%ADD21R,1.700000X1.700000*%
%ADD22O,1.700000X1.700000*%
%ADD23C,4.400000*%
%ADD24RoundRect,0.150000X0.150000X-0.587500X0.150000X0.587500X-0.150000X0.587500X-0.150000X-0.587500X0*%
%ADD25R,1.600000X1.600000*%
%ADD26C,1.600000*%
%ADD27RoundRect,0.250000X-0.475000X0.250000X-0.475000X-0.250000X0.475000X-0.250000X0.475000X0.250000X0*%
%ADD28RoundRect,0.250000X0.262500X0.450000X-0.262500X0.450000X-0.262500X-0.450000X0.262500X-0.450000X0*%
%ADD29RoundRect,0.250000X0.475000X-0.250000X0.475000X0.250000X-0.475000X0.250000X-0.475000X-0.250000X0*%
%ADD30RoundRect,0.250000X-0.450000X0.262500X-0.450000X-0.262500X0.450000X-0.262500X0.450000X0.262500X0*%
%ADD31RoundRect,0.250000X0.450000X-0.262500X0.450000X0.262500X-0.450000X0.262500X-0.450000X-0.262500X0*%
%ADD32R,1.300000X0.900000*%
%ADD33FreePoly0,0.000000*%
%ADD34RoundRect,0.250000X-0.250000X-0.475000X0.250000X-0.475000X0.250000X0.475000X-0.250000X0.475000X0*%
%ADD35RoundRect,0.250000X0.250000X0.475000X-0.250000X0.475000X-0.250000X-0.475000X0.250000X-0.475000X0*%
%ADD36R,2.000000X3.500000*%
%ADD37R,0.300000X0.450000*%
%ADD38RoundRect,0.250000X0.425000X1.075000X-0.425000X1.075000X-0.425000X-1.075000X0.425000X-1.075000X0*%
%ADD39RoundRect,0.250000X-0.262500X-0.450000X0.262500X-0.450000X0.262500X0.450000X-0.262500X0.450000X0*%
%ADD40RoundRect,0.150000X-0.825000X-0.150000X0.825000X-0.150000X0.825000X0.150000X-0.825000X0.150000X0*%
%ADD41R,1.300000X1.300000*%
%ADD42C,1.300000*%
%ADD43R,1.900000X2.000000*%
%ADD44O,2.400000X1.200000*%
%ADD45C,1.700000*%
%ADD46R,2.200000X2.800000*%
%ADD47R,2.800000X2.800000*%
%ADD48RoundRect,0.150000X0.587500X0.150000X-0.587500X0.150000X-0.587500X-0.150000X0.587500X-0.150000X0*%
%ADD49RoundRect,0.070000X0.475000X1.075000X-0.475000X1.075000X-0.475000X-1.075000X0.475000X-1.075000X0*%
%ADD50R,3.250000X2.150000*%
%ADD51C,1.500000*%
%ADD52R,0.400000X1.200000*%
%ADD53R,0.600000X2.000000*%
%ADD54R,0.900000X1.200000*%
%ADD55RoundRect,0.100000X0.637500X0.100000X-0.637500X0.100000X-0.637500X-0.100000X0.637500X-0.100000X0*%
%ADD56R,2.000000X0.600000*%
%ADD57R,0.375000X0.500000*%
%ADD58R,0.300000X0.650000*%
%ADD59FreePoly0,180.000000*%
G04 APERTURE END LIST*
D10*
X33985200Y-88874600D02*
X33985200Y-95275400D01*
X33985200Y-92075000D02*
X34213800Y-92075000D01*
X34294819Y-92270247D02*
X34771009Y-92603580D01*
X34294819Y-92841676D02*
X35294819Y-92841676D01*
X35294819Y-92460723D01*
X35247200Y-92365485D01*
X35199580Y-92317866D01*
X35104342Y-92270247D01*
X34961485Y-92270247D01*
X34866247Y-92317866D01*
X34818628Y-92365485D01*
X34771009Y-92460723D01*
X34771009Y-92841676D01*
X34818628Y-91508342D02*
X34818628Y-91841676D01*
X34294819Y-91841676D02*
X35294819Y-91841676D01*
X35294819Y-91365485D01*
X85193095Y-88844380D02*
X85193095Y-87844380D01*
X84955000Y-87844380D01*
X84812142Y-87892000D01*
X84716904Y-87987238D01*
X84669285Y-88082476D01*
X84621666Y-88272952D01*
X84621666Y-88415809D01*
X84669285Y-88606285D01*
X84716904Y-88701523D01*
X84812142Y-88796761D01*
X84955000Y-88844380D01*
X85193095Y-88844380D01*
X84240714Y-87939619D02*
X84193095Y-87892000D01*
X84097857Y-87844380D01*
X83859761Y-87844380D01*
X83764523Y-87892000D01*
X83716904Y-87939619D01*
X83669285Y-88034857D01*
X83669285Y-88130095D01*
X83716904Y-88272952D01*
X84288333Y-88844380D01*
X83669285Y-88844380D01*
X85224857Y-96877142D02*
X85272476Y-96924761D01*
X85415333Y-96972380D01*
X85510571Y-96972380D01*
X85653428Y-96924761D01*
X85748666Y-96829523D01*
X85796285Y-96734285D01*
X85843904Y-96543809D01*
X85843904Y-96400952D01*
X85796285Y-96210476D01*
X85748666Y-96115238D01*
X85653428Y-96020000D01*
X85510571Y-95972380D01*
X85415333Y-95972380D01*
X85272476Y-96020000D01*
X85224857Y-96067619D01*
X84320095Y-95972380D02*
X84796285Y-95972380D01*
X84843904Y-96448571D01*
X84796285Y-96400952D01*
X84701047Y-96353333D01*
X84462952Y-96353333D01*
X84367714Y-96400952D01*
X84320095Y-96448571D01*
X84272476Y-96543809D01*
X84272476Y-96781904D01*
X84320095Y-96877142D01*
X84367714Y-96924761D01*
X84462952Y-96972380D01*
X84701047Y-96972380D01*
X84796285Y-96924761D01*
X84843904Y-96877142D01*
X83939142Y-95972380D02*
X83272476Y-95972380D01*
X83701047Y-96972380D01*
X92657142Y-98417142D02*
X92704761Y-98369523D01*
X92752380Y-98226666D01*
X92752380Y-98131428D01*
X92704761Y-97988571D01*
X92609523Y-97893333D01*
X92514285Y-97845714D01*
X92323809Y-97798095D01*
X92180952Y-97798095D01*
X91990476Y-97845714D01*
X91895238Y-97893333D01*
X91800000Y-97988571D01*
X91752380Y-98131428D01*
X91752380Y-98226666D01*
X91800000Y-98369523D01*
X91847619Y-98417142D01*
X92752380Y-99369523D02*
X92752380Y-98798095D01*
X92752380Y-99083809D02*
X91752380Y-99083809D01*
X91895238Y-98988571D01*
X91990476Y-98893333D01*
X92038095Y-98798095D01*
X92752380Y-99845714D02*
X92752380Y-100036190D01*
X92704761Y-100131428D01*
X92657142Y-100179047D01*
X92514285Y-100274285D01*
X92323809Y-100321904D01*
X91942857Y-100321904D01*
X91847619Y-100274285D01*
X91800000Y-100226666D01*
X91752380Y-100131428D01*
X91752380Y-99940952D01*
X91800000Y-99845714D01*
X91847619Y-99798095D01*
X91942857Y-99750476D01*
X92180952Y-99750476D01*
X92276190Y-99798095D01*
X92323809Y-99845714D01*
X92371428Y-99940952D01*
X92371428Y-100131428D01*
X92323809Y-100226666D01*
X92276190Y-100274285D01*
X92180952Y-100321904D01*
X92146380Y-119905542D02*
X91670190Y-119572209D01*
X92146380Y-119334114D02*
X91146380Y-119334114D01*
X91146380Y-119715066D01*
X91194000Y-119810304D01*
X91241619Y-119857923D01*
X91336857Y-119905542D01*
X91479714Y-119905542D01*
X91574952Y-119857923D01*
X91622571Y-119810304D01*
X91670190Y-119715066D01*
X91670190Y-119334114D01*
X91241619Y-120286495D02*
X91194000Y-120334114D01*
X91146380Y-120429352D01*
X91146380Y-120667447D01*
X91194000Y-120762685D01*
X91241619Y-120810304D01*
X91336857Y-120857923D01*
X91432095Y-120857923D01*
X91574952Y-120810304D01*
X92146380Y-120238876D01*
X92146380Y-120857923D01*
X91146380Y-121191257D02*
X91146380Y-121857923D01*
X92146380Y-121429352D01*
X61602857Y-94108542D02*
X61650476Y-94156161D01*
X61793333Y-94203780D01*
X61888571Y-94203780D01*
X62031428Y-94156161D01*
X62126666Y-94060923D01*
X62174285Y-93965685D01*
X62221904Y-93775209D01*
X62221904Y-93632352D01*
X62174285Y-93441876D01*
X62126666Y-93346638D01*
X62031428Y-93251400D01*
X61888571Y-93203780D01*
X61793333Y-93203780D01*
X61650476Y-93251400D01*
X61602857Y-93299019D01*
X61221904Y-93299019D02*
X61174285Y-93251400D01*
X61079047Y-93203780D01*
X60840952Y-93203780D01*
X60745714Y-93251400D01*
X60698095Y-93299019D01*
X60650476Y-93394257D01*
X60650476Y-93489495D01*
X60698095Y-93632352D01*
X61269523Y-94203780D01*
X60650476Y-94203780D01*
X60079047Y-93632352D02*
X60174285Y-93584733D01*
X60221904Y-93537114D01*
X60269523Y-93441876D01*
X60269523Y-93394257D01*
X60221904Y-93299019D01*
X60174285Y-93251400D01*
X60079047Y-93203780D01*
X59888571Y-93203780D01*
X59793333Y-93251400D01*
X59745714Y-93299019D01*
X59698095Y-93394257D01*
X59698095Y-93441876D01*
X59745714Y-93537114D01*
X59793333Y-93584733D01*
X59888571Y-93632352D01*
X60079047Y-93632352D01*
X60174285Y-93679971D01*
X60221904Y-93727590D01*
X60269523Y-93822828D01*
X60269523Y-94013304D01*
X60221904Y-94108542D01*
X60174285Y-94156161D01*
X60079047Y-94203780D01*
X59888571Y-94203780D01*
X59793333Y-94156161D01*
X59745714Y-94108542D01*
X59698095Y-94013304D01*
X59698095Y-93822828D01*
X59745714Y-93727590D01*
X59793333Y-93679971D01*
X59888571Y-93632352D01*
X107418142Y-107307142D02*
X107465761Y-107259523D01*
X107513380Y-107116666D01*
X107513380Y-107021428D01*
X107465761Y-106878571D01*
X107370523Y-106783333D01*
X107275285Y-106735714D01*
X107084809Y-106688095D01*
X106941952Y-106688095D01*
X106751476Y-106735714D01*
X106656238Y-106783333D01*
X106561000Y-106878571D01*
X106513380Y-107021428D01*
X106513380Y-107116666D01*
X106561000Y-107259523D01*
X106608619Y-107307142D01*
X106513380Y-108211904D02*
X106513380Y-107735714D01*
X106989571Y-107688095D01*
X106941952Y-107735714D01*
X106894333Y-107830952D01*
X106894333Y-108069047D01*
X106941952Y-108164285D01*
X106989571Y-108211904D01*
X107084809Y-108259523D01*
X107322904Y-108259523D01*
X107418142Y-108211904D01*
X107465761Y-108164285D01*
X107513380Y-108069047D01*
X107513380Y-107830952D01*
X107465761Y-107735714D01*
X107418142Y-107688095D01*
X107513380Y-109211904D02*
X107513380Y-108640476D01*
X107513380Y-108926190D02*
X106513380Y-108926190D01*
X106656238Y-108830952D01*
X106751476Y-108735714D01*
X106799095Y-108640476D01*
X76207857Y-108021380D02*
X76541190Y-107545190D01*
X76779285Y-108021380D02*
X76779285Y-107021380D01*
X76398333Y-107021380D01*
X76303095Y-107069000D01*
X76255476Y-107116619D01*
X76207857Y-107211857D01*
X76207857Y-107354714D01*
X76255476Y-107449952D01*
X76303095Y-107497571D01*
X76398333Y-107545190D01*
X76779285Y-107545190D01*
X75826904Y-107116619D02*
X75779285Y-107069000D01*
X75684047Y-107021380D01*
X75445952Y-107021380D01*
X75350714Y-107069000D01*
X75303095Y-107116619D01*
X75255476Y-107211857D01*
X75255476Y-107307095D01*
X75303095Y-107449952D01*
X75874523Y-108021380D01*
X75255476Y-108021380D01*
X74874523Y-107116619D02*
X74826904Y-107069000D01*
X74731666Y-107021380D01*
X74493571Y-107021380D01*
X74398333Y-107069000D01*
X74350714Y-107116619D01*
X74303095Y-107211857D01*
X74303095Y-107307095D01*
X74350714Y-107449952D01*
X74922142Y-108021380D01*
X74303095Y-108021380D01*
X87225142Y-85082142D02*
X87272761Y-85034523D01*
X87320380Y-84891666D01*
X87320380Y-84796428D01*
X87272761Y-84653571D01*
X87177523Y-84558333D01*
X87082285Y-84510714D01*
X86891809Y-84463095D01*
X86748952Y-84463095D01*
X86558476Y-84510714D01*
X86463238Y-84558333D01*
X86368000Y-84653571D01*
X86320380Y-84796428D01*
X86320380Y-84891666D01*
X86368000Y-85034523D01*
X86415619Y-85082142D01*
X87320380Y-86034523D02*
X87320380Y-85463095D01*
X87320380Y-85748809D02*
X86320380Y-85748809D01*
X86463238Y-85653571D01*
X86558476Y-85558333D01*
X86606095Y-85463095D01*
X86320380Y-86367857D02*
X86320380Y-87034523D01*
X87320380Y-86605952D01*
X63603142Y-110482142D02*
X63650761Y-110434523D01*
X63698380Y-110291666D01*
X63698380Y-110196428D01*
X63650761Y-110053571D01*
X63555523Y-109958333D01*
X63460285Y-109910714D01*
X63269809Y-109863095D01*
X63126952Y-109863095D01*
X62936476Y-109910714D01*
X62841238Y-109958333D01*
X62746000Y-110053571D01*
X62698380Y-110196428D01*
X62698380Y-110291666D01*
X62746000Y-110434523D01*
X62793619Y-110482142D01*
X63031714Y-111339285D02*
X63698380Y-111339285D01*
X62650761Y-111101190D02*
X63365047Y-110863095D01*
X63365047Y-111482142D01*
X62698380Y-112053571D02*
X62698380Y-112148809D01*
X62746000Y-112244047D01*
X62793619Y-112291666D01*
X62888857Y-112339285D01*
X63079333Y-112386904D01*
X63317428Y-112386904D01*
X63507904Y-112339285D01*
X63603142Y-112291666D01*
X63650761Y-112244047D01*
X63698380Y-112148809D01*
X63698380Y-112053571D01*
X63650761Y-111958333D01*
X63603142Y-111910714D01*
X63507904Y-111863095D01*
X63317428Y-111815476D01*
X63079333Y-111815476D01*
X62888857Y-111863095D01*
X62793619Y-111910714D01*
X62746000Y-111958333D01*
X62698380Y-112053571D01*
X58008780Y-85513942D02*
X57532590Y-85180609D01*
X58008780Y-84942514D02*
X57008780Y-84942514D01*
X57008780Y-85323466D01*
X57056400Y-85418704D01*
X57104019Y-85466323D01*
X57199257Y-85513942D01*
X57342114Y-85513942D01*
X57437352Y-85466323D01*
X57484971Y-85418704D01*
X57532590Y-85323466D01*
X57532590Y-84942514D01*
X58008780Y-86466323D02*
X58008780Y-85894895D01*
X58008780Y-86180609D02*
X57008780Y-86180609D01*
X57151638Y-86085371D01*
X57246876Y-85990133D01*
X57294495Y-85894895D01*
X57008780Y-86799657D02*
X57008780Y-87466323D01*
X58008780Y-87037752D01*
X36221942Y-89368333D02*
X36269561Y-89320714D01*
X36317180Y-89177857D01*
X36317180Y-89082619D01*
X36269561Y-88939761D01*
X36174323Y-88844523D01*
X36079085Y-88796904D01*
X35888609Y-88749285D01*
X35745752Y-88749285D01*
X35555276Y-88796904D01*
X35460038Y-88844523D01*
X35364800Y-88939761D01*
X35317180Y-89082619D01*
X35317180Y-89177857D01*
X35364800Y-89320714D01*
X35412419Y-89368333D01*
X35412419Y-89749285D02*
X35364800Y-89796904D01*
X35317180Y-89892142D01*
X35317180Y-90130238D01*
X35364800Y-90225476D01*
X35412419Y-90273095D01*
X35507657Y-90320714D01*
X35602895Y-90320714D01*
X35745752Y-90273095D01*
X36317180Y-89701666D01*
X36317180Y-90320714D01*
X63603142Y-114292142D02*
X63650761Y-114244523D01*
X63698380Y-114101666D01*
X63698380Y-114006428D01*
X63650761Y-113863571D01*
X63555523Y-113768333D01*
X63460285Y-113720714D01*
X63269809Y-113673095D01*
X63126952Y-113673095D01*
X62936476Y-113720714D01*
X62841238Y-113768333D01*
X62746000Y-113863571D01*
X62698380Y-114006428D01*
X62698380Y-114101666D01*
X62746000Y-114244523D01*
X62793619Y-114292142D01*
X62698380Y-114625476D02*
X62698380Y-115244523D01*
X63079333Y-114911190D01*
X63079333Y-115054047D01*
X63126952Y-115149285D01*
X63174571Y-115196904D01*
X63269809Y-115244523D01*
X63507904Y-115244523D01*
X63603142Y-115196904D01*
X63650761Y-115149285D01*
X63698380Y-115054047D01*
X63698380Y-114768333D01*
X63650761Y-114673095D01*
X63603142Y-114625476D01*
X63698380Y-115720714D02*
X63698380Y-115911190D01*
X63650761Y-116006428D01*
X63603142Y-116054047D01*
X63460285Y-116149285D01*
X63269809Y-116196904D01*
X62888857Y-116196904D01*
X62793619Y-116149285D01*
X62746000Y-116101666D01*
X62698380Y-116006428D01*
X62698380Y-115815952D01*
X62746000Y-115720714D01*
X62793619Y-115673095D01*
X62888857Y-115625476D01*
X63126952Y-115625476D01*
X63222190Y-115673095D01*
X63269809Y-115720714D01*
X63317428Y-115815952D01*
X63317428Y-116006428D01*
X63269809Y-116101666D01*
X63222190Y-116149285D01*
X63126952Y-116196904D01*
X92281333Y-101433380D02*
X92281333Y-102147666D01*
X92328952Y-102290523D01*
X92424190Y-102385761D01*
X92567047Y-102433380D01*
X92662285Y-102433380D01*
X91376571Y-101766714D02*
X91376571Y-102433380D01*
X91614666Y-101385761D02*
X91852761Y-102100047D01*
X91233714Y-102100047D01*
X44616666Y-76709542D02*
X44664285Y-76757161D01*
X44807142Y-76804780D01*
X44902380Y-76804780D01*
X45045238Y-76757161D01*
X45140476Y-76661923D01*
X45188095Y-76566685D01*
X45235714Y-76376209D01*
X45235714Y-76233352D01*
X45188095Y-76042876D01*
X45140476Y-75947638D01*
X45045238Y-75852400D01*
X44902380Y-75804780D01*
X44807142Y-75804780D01*
X44664285Y-75852400D01*
X44616666Y-75900019D01*
X43759523Y-76138114D02*
X43759523Y-76804780D01*
X43997619Y-75757161D02*
X44235714Y-76471447D01*
X43616666Y-76471447D01*
X102268257Y-123420142D02*
X102315876Y-123467761D01*
X102458733Y-123515380D01*
X102553971Y-123515380D01*
X102696828Y-123467761D01*
X102792066Y-123372523D01*
X102839685Y-123277285D01*
X102887304Y-123086809D01*
X102887304Y-122943952D01*
X102839685Y-122753476D01*
X102792066Y-122658238D01*
X102696828Y-122563000D01*
X102553971Y-122515380D01*
X102458733Y-122515380D01*
X102315876Y-122563000D01*
X102268257Y-122610619D01*
X101411114Y-122848714D02*
X101411114Y-123515380D01*
X101649209Y-122467761D02*
X101887304Y-123182047D01*
X101268257Y-123182047D01*
X100982542Y-122515380D02*
X100363495Y-122515380D01*
X100696828Y-122896333D01*
X100553971Y-122896333D01*
X100458733Y-122943952D01*
X100411114Y-122991571D01*
X100363495Y-123086809D01*
X100363495Y-123324904D01*
X100411114Y-123420142D01*
X100458733Y-123467761D01*
X100553971Y-123515380D01*
X100839685Y-123515380D01*
X100934923Y-123467761D01*
X100982542Y-123420142D01*
X70038980Y-84963095D02*
X70848504Y-84963095D01*
X70943742Y-85010714D01*
X70991361Y-85058333D01*
X71038980Y-85153571D01*
X71038980Y-85344047D01*
X70991361Y-85439285D01*
X70943742Y-85486904D01*
X70848504Y-85534523D01*
X70038980Y-85534523D01*
X71038980Y-86058333D02*
X71038980Y-86248809D01*
X70991361Y-86344047D01*
X70943742Y-86391666D01*
X70800885Y-86486904D01*
X70610409Y-86534523D01*
X70229457Y-86534523D01*
X70134219Y-86486904D01*
X70086600Y-86439285D01*
X70038980Y-86344047D01*
X70038980Y-86153571D01*
X70086600Y-86058333D01*
X70134219Y-86010714D01*
X70229457Y-85963095D01*
X70467552Y-85963095D01*
X70562790Y-86010714D01*
X70610409Y-86058333D01*
X70658028Y-86153571D01*
X70658028Y-86344047D01*
X70610409Y-86439285D01*
X70562790Y-86486904D01*
X70467552Y-86534523D01*
X56211742Y-85513942D02*
X56259361Y-85466323D01*
X56306980Y-85323466D01*
X56306980Y-85228228D01*
X56259361Y-85085371D01*
X56164123Y-84990133D01*
X56068885Y-84942514D01*
X55878409Y-84894895D01*
X55735552Y-84894895D01*
X55545076Y-84942514D01*
X55449838Y-84990133D01*
X55354600Y-85085371D01*
X55306980Y-85228228D01*
X55306980Y-85323466D01*
X55354600Y-85466323D01*
X55402219Y-85513942D01*
X55402219Y-85894895D02*
X55354600Y-85942514D01*
X55306980Y-86037752D01*
X55306980Y-86275847D01*
X55354600Y-86371085D01*
X55402219Y-86418704D01*
X55497457Y-86466323D01*
X55592695Y-86466323D01*
X55735552Y-86418704D01*
X56306980Y-85847276D01*
X56306980Y-86466323D01*
X56306980Y-86942514D02*
X56306980Y-87132990D01*
X56259361Y-87228228D01*
X56211742Y-87275847D01*
X56068885Y-87371085D01*
X55878409Y-87418704D01*
X55497457Y-87418704D01*
X55402219Y-87371085D01*
X55354600Y-87323466D01*
X55306980Y-87228228D01*
X55306980Y-87037752D01*
X55354600Y-86942514D01*
X55402219Y-86894895D01*
X55497457Y-86847276D01*
X55735552Y-86847276D01*
X55830790Y-86894895D01*
X55878409Y-86942514D01*
X55926028Y-87037752D01*
X55926028Y-87228228D01*
X55878409Y-87323466D01*
X55830790Y-87371085D01*
X55735552Y-87418704D01*
X73826666Y-73712342D02*
X73874285Y-73759961D01*
X74017142Y-73807580D01*
X74112380Y-73807580D01*
X74255238Y-73759961D01*
X74350476Y-73664723D01*
X74398095Y-73569485D01*
X74445714Y-73379009D01*
X74445714Y-73236152D01*
X74398095Y-73045676D01*
X74350476Y-72950438D01*
X74255238Y-72855200D01*
X74112380Y-72807580D01*
X74017142Y-72807580D01*
X73874285Y-72855200D01*
X73826666Y-72902819D01*
X73350476Y-73807580D02*
X73160000Y-73807580D01*
X73064761Y-73759961D01*
X73017142Y-73712342D01*
X72921904Y-73569485D01*
X72874285Y-73379009D01*
X72874285Y-72998057D01*
X72921904Y-72902819D01*
X72969523Y-72855200D01*
X73064761Y-72807580D01*
X73255238Y-72807580D01*
X73350476Y-72855200D01*
X73398095Y-72902819D01*
X73445714Y-72998057D01*
X73445714Y-73236152D01*
X73398095Y-73331390D01*
X73350476Y-73379009D01*
X73255238Y-73426628D01*
X73064761Y-73426628D01*
X72969523Y-73379009D01*
X72921904Y-73331390D01*
X72874285Y-73236152D01*
X92933780Y-85558333D02*
X92457590Y-85225000D01*
X92933780Y-84986904D02*
X91933780Y-84986904D01*
X91933780Y-85367857D01*
X91981400Y-85463095D01*
X92029019Y-85510714D01*
X92124257Y-85558333D01*
X92267114Y-85558333D01*
X92362352Y-85510714D01*
X92409971Y-85463095D01*
X92457590Y-85367857D01*
X92457590Y-84986904D01*
X91933780Y-86463095D02*
X91933780Y-85986904D01*
X92409971Y-85939285D01*
X92362352Y-85986904D01*
X92314733Y-86082142D01*
X92314733Y-86320238D01*
X92362352Y-86415476D01*
X92409971Y-86463095D01*
X92505209Y-86510714D01*
X92743304Y-86510714D01*
X92838542Y-86463095D01*
X92886161Y-86415476D01*
X92933780Y-86320238D01*
X92933780Y-86082142D01*
X92886161Y-85986904D01*
X92838542Y-85939285D01*
X113291857Y-95988142D02*
X113339476Y-96035761D01*
X113482333Y-96083380D01*
X113577571Y-96083380D01*
X113720428Y-96035761D01*
X113815666Y-95940523D01*
X113863285Y-95845285D01*
X113910904Y-95654809D01*
X113910904Y-95511952D01*
X113863285Y-95321476D01*
X113815666Y-95226238D01*
X113720428Y-95131000D01*
X113577571Y-95083380D01*
X113482333Y-95083380D01*
X113339476Y-95131000D01*
X113291857Y-95178619D01*
X112387095Y-95083380D02*
X112863285Y-95083380D01*
X112910904Y-95559571D01*
X112863285Y-95511952D01*
X112768047Y-95464333D01*
X112529952Y-95464333D01*
X112434714Y-95511952D01*
X112387095Y-95559571D01*
X112339476Y-95654809D01*
X112339476Y-95892904D01*
X112387095Y-95988142D01*
X112434714Y-96035761D01*
X112529952Y-96083380D01*
X112768047Y-96083380D01*
X112863285Y-96035761D01*
X112910904Y-95988142D01*
X111434714Y-95083380D02*
X111910904Y-95083380D01*
X111958523Y-95559571D01*
X111910904Y-95511952D01*
X111815666Y-95464333D01*
X111577571Y-95464333D01*
X111482333Y-95511952D01*
X111434714Y-95559571D01*
X111387095Y-95654809D01*
X111387095Y-95892904D01*
X111434714Y-95988142D01*
X111482333Y-96035761D01*
X111577571Y-96083380D01*
X111815666Y-96083380D01*
X111910904Y-96035761D01*
X111958523Y-95988142D01*
X66682857Y-94083142D02*
X66730476Y-94130761D01*
X66873333Y-94178380D01*
X66968571Y-94178380D01*
X67111428Y-94130761D01*
X67206666Y-94035523D01*
X67254285Y-93940285D01*
X67301904Y-93749809D01*
X67301904Y-93606952D01*
X67254285Y-93416476D01*
X67206666Y-93321238D01*
X67111428Y-93226000D01*
X66968571Y-93178380D01*
X66873333Y-93178380D01*
X66730476Y-93226000D01*
X66682857Y-93273619D01*
X66301904Y-93273619D02*
X66254285Y-93226000D01*
X66159047Y-93178380D01*
X65920952Y-93178380D01*
X65825714Y-93226000D01*
X65778095Y-93273619D01*
X65730476Y-93368857D01*
X65730476Y-93464095D01*
X65778095Y-93606952D01*
X66349523Y-94178380D01*
X65730476Y-94178380D01*
X65397142Y-93178380D02*
X64730476Y-93178380D01*
X65159047Y-94178380D01*
X70492857Y-123547142D02*
X70540476Y-123594761D01*
X70683333Y-123642380D01*
X70778571Y-123642380D01*
X70921428Y-123594761D01*
X71016666Y-123499523D01*
X71064285Y-123404285D01*
X71111904Y-123213809D01*
X71111904Y-123070952D01*
X71064285Y-122880476D01*
X71016666Y-122785238D01*
X70921428Y-122690000D01*
X70778571Y-122642380D01*
X70683333Y-122642380D01*
X70540476Y-122690000D01*
X70492857Y-122737619D01*
X70159523Y-122642380D02*
X69540476Y-122642380D01*
X69873809Y-123023333D01*
X69730952Y-123023333D01*
X69635714Y-123070952D01*
X69588095Y-123118571D01*
X69540476Y-123213809D01*
X69540476Y-123451904D01*
X69588095Y-123547142D01*
X69635714Y-123594761D01*
X69730952Y-123642380D01*
X70016666Y-123642380D01*
X70111904Y-123594761D01*
X70159523Y-123547142D01*
X68969047Y-123070952D02*
X69064285Y-123023333D01*
X69111904Y-122975714D01*
X69159523Y-122880476D01*
X69159523Y-122832857D01*
X69111904Y-122737619D01*
X69064285Y-122690000D01*
X68969047Y-122642380D01*
X68778571Y-122642380D01*
X68683333Y-122690000D01*
X68635714Y-122737619D01*
X68588095Y-122832857D01*
X68588095Y-122880476D01*
X68635714Y-122975714D01*
X68683333Y-123023333D01*
X68778571Y-123070952D01*
X68969047Y-123070952D01*
X69064285Y-123118571D01*
X69111904Y-123166190D01*
X69159523Y-123261428D01*
X69159523Y-123451904D01*
X69111904Y-123547142D01*
X69064285Y-123594761D01*
X68969047Y-123642380D01*
X68778571Y-123642380D01*
X68683333Y-123594761D01*
X68635714Y-123547142D01*
X68588095Y-123451904D01*
X68588095Y-123261428D01*
X68635714Y-123166190D01*
X68683333Y-123118571D01*
X68778571Y-123070952D01*
X80062342Y-84929742D02*
X80109961Y-84882123D01*
X80157580Y-84739266D01*
X80157580Y-84644028D01*
X80109961Y-84501171D01*
X80014723Y-84405933D01*
X79919485Y-84358314D01*
X79729009Y-84310695D01*
X79586152Y-84310695D01*
X79395676Y-84358314D01*
X79300438Y-84405933D01*
X79205200Y-84501171D01*
X79157580Y-84644028D01*
X79157580Y-84739266D01*
X79205200Y-84882123D01*
X79252819Y-84929742D01*
X80157580Y-85882123D02*
X80157580Y-85310695D01*
X80157580Y-85596409D02*
X79157580Y-85596409D01*
X79300438Y-85501171D01*
X79395676Y-85405933D01*
X79443295Y-85310695D01*
X79157580Y-86215457D02*
X79157580Y-86834504D01*
X79538533Y-86501171D01*
X79538533Y-86644028D01*
X79586152Y-86739266D01*
X79633771Y-86786885D01*
X79729009Y-86834504D01*
X79967104Y-86834504D01*
X80062342Y-86786885D01*
X80109961Y-86739266D01*
X80157580Y-86644028D01*
X80157580Y-86358314D01*
X80109961Y-86263076D01*
X80062342Y-86215457D01*
X48109142Y-85488542D02*
X48156761Y-85440923D01*
X48204380Y-85298066D01*
X48204380Y-85202828D01*
X48156761Y-85059971D01*
X48061523Y-84964733D01*
X47966285Y-84917114D01*
X47775809Y-84869495D01*
X47632952Y-84869495D01*
X47442476Y-84917114D01*
X47347238Y-84964733D01*
X47252000Y-85059971D01*
X47204380Y-85202828D01*
X47204380Y-85298066D01*
X47252000Y-85440923D01*
X47299619Y-85488542D01*
X47204380Y-85821876D02*
X47204380Y-86440923D01*
X47585333Y-86107590D01*
X47585333Y-86250447D01*
X47632952Y-86345685D01*
X47680571Y-86393304D01*
X47775809Y-86440923D01*
X48013904Y-86440923D01*
X48109142Y-86393304D01*
X48156761Y-86345685D01*
X48204380Y-86250447D01*
X48204380Y-85964733D01*
X48156761Y-85869495D01*
X48109142Y-85821876D01*
X47537714Y-87298066D02*
X48204380Y-87298066D01*
X47156761Y-87059971D02*
X47871047Y-86821876D01*
X47871047Y-87440923D01*
X68429142Y-112387142D02*
X68476761Y-112339523D01*
X68524380Y-112196666D01*
X68524380Y-112101428D01*
X68476761Y-111958571D01*
X68381523Y-111863333D01*
X68286285Y-111815714D01*
X68095809Y-111768095D01*
X67952952Y-111768095D01*
X67762476Y-111815714D01*
X67667238Y-111863333D01*
X67572000Y-111958571D01*
X67524380Y-112101428D01*
X67524380Y-112196666D01*
X67572000Y-112339523D01*
X67619619Y-112387142D01*
X67524380Y-112720476D02*
X67524380Y-113339523D01*
X67905333Y-113006190D01*
X67905333Y-113149047D01*
X67952952Y-113244285D01*
X68000571Y-113291904D01*
X68095809Y-113339523D01*
X68333904Y-113339523D01*
X68429142Y-113291904D01*
X68476761Y-113244285D01*
X68524380Y-113149047D01*
X68524380Y-112863333D01*
X68476761Y-112768095D01*
X68429142Y-112720476D01*
X67524380Y-113672857D02*
X67524380Y-114339523D01*
X68524380Y-113910952D01*
X113768142Y-102354142D02*
X113815761Y-102306523D01*
X113863380Y-102163666D01*
X113863380Y-102068428D01*
X113815761Y-101925571D01*
X113720523Y-101830333D01*
X113625285Y-101782714D01*
X113434809Y-101735095D01*
X113291952Y-101735095D01*
X113101476Y-101782714D01*
X113006238Y-101830333D01*
X112911000Y-101925571D01*
X112863380Y-102068428D01*
X112863380Y-102163666D01*
X112911000Y-102306523D01*
X112958619Y-102354142D01*
X112863380Y-102687476D02*
X112863380Y-103306523D01*
X113244333Y-102973190D01*
X113244333Y-103116047D01*
X113291952Y-103211285D01*
X113339571Y-103258904D01*
X113434809Y-103306523D01*
X113672904Y-103306523D01*
X113768142Y-103258904D01*
X113815761Y-103211285D01*
X113863380Y-103116047D01*
X113863380Y-102830333D01*
X113815761Y-102735095D01*
X113768142Y-102687476D01*
X112863380Y-104211285D02*
X112863380Y-103735095D01*
X113339571Y-103687476D01*
X113291952Y-103735095D01*
X113244333Y-103830333D01*
X113244333Y-104068428D01*
X113291952Y-104163666D01*
X113339571Y-104211285D01*
X113434809Y-104258904D01*
X113672904Y-104258904D01*
X113768142Y-104211285D01*
X113815761Y-104163666D01*
X113863380Y-104068428D01*
X113863380Y-103830333D01*
X113815761Y-103735095D01*
X113768142Y-103687476D01*
X109481857Y-121229380D02*
X109815190Y-120753190D01*
X110053285Y-121229380D02*
X110053285Y-120229380D01*
X109672333Y-120229380D01*
X109577095Y-120277000D01*
X109529476Y-120324619D01*
X109481857Y-120419857D01*
X109481857Y-120562714D01*
X109529476Y-120657952D01*
X109577095Y-120705571D01*
X109672333Y-120753190D01*
X110053285Y-120753190D01*
X109148523Y-120229380D02*
X108529476Y-120229380D01*
X108862809Y-120610333D01*
X108719952Y-120610333D01*
X108624714Y-120657952D01*
X108577095Y-120705571D01*
X108529476Y-120800809D01*
X108529476Y-121038904D01*
X108577095Y-121134142D01*
X108624714Y-121181761D01*
X108719952Y-121229380D01*
X109005666Y-121229380D01*
X109100904Y-121181761D01*
X109148523Y-121134142D01*
X108148523Y-120324619D02*
X108100904Y-120277000D01*
X108005666Y-120229380D01*
X107767571Y-120229380D01*
X107672333Y-120277000D01*
X107624714Y-120324619D01*
X107577095Y-120419857D01*
X107577095Y-120515095D01*
X107624714Y-120657952D01*
X108196142Y-121229380D01*
X107577095Y-121229380D01*
X50236380Y-85539342D02*
X49760190Y-85206009D01*
X50236380Y-84967914D02*
X49236380Y-84967914D01*
X49236380Y-85348866D01*
X49284000Y-85444104D01*
X49331619Y-85491723D01*
X49426857Y-85539342D01*
X49569714Y-85539342D01*
X49664952Y-85491723D01*
X49712571Y-85444104D01*
X49760190Y-85348866D01*
X49760190Y-84967914D01*
X50236380Y-86491723D02*
X50236380Y-85920295D01*
X50236380Y-86206009D02*
X49236380Y-86206009D01*
X49379238Y-86110771D01*
X49474476Y-86015533D01*
X49522095Y-85920295D01*
X49664952Y-87063152D02*
X49617333Y-86967914D01*
X49569714Y-86920295D01*
X49474476Y-86872676D01*
X49426857Y-86872676D01*
X49331619Y-86920295D01*
X49284000Y-86967914D01*
X49236380Y-87063152D01*
X49236380Y-87253628D01*
X49284000Y-87348866D01*
X49331619Y-87396485D01*
X49426857Y-87444104D01*
X49474476Y-87444104D01*
X49569714Y-87396485D01*
X49617333Y-87348866D01*
X49664952Y-87253628D01*
X49664952Y-87063152D01*
X49712571Y-86967914D01*
X49760190Y-86920295D01*
X49855428Y-86872676D01*
X50045904Y-86872676D01*
X50141142Y-86920295D01*
X50188761Y-86967914D01*
X50236380Y-87063152D01*
X50236380Y-87253628D01*
X50188761Y-87348866D01*
X50141142Y-87396485D01*
X50045904Y-87444104D01*
X49855428Y-87444104D01*
X49760190Y-87396485D01*
X49712571Y-87348866D01*
X49664952Y-87253628D01*
X71826380Y-119753142D02*
X71350190Y-119419809D01*
X71826380Y-119181714D02*
X70826380Y-119181714D01*
X70826380Y-119562666D01*
X70874000Y-119657904D01*
X70921619Y-119705523D01*
X71016857Y-119753142D01*
X71159714Y-119753142D01*
X71254952Y-119705523D01*
X71302571Y-119657904D01*
X71350190Y-119562666D01*
X71350190Y-119181714D01*
X70826380Y-120086476D02*
X70826380Y-120705523D01*
X71207333Y-120372190D01*
X71207333Y-120515047D01*
X71254952Y-120610285D01*
X71302571Y-120657904D01*
X71397809Y-120705523D01*
X71635904Y-120705523D01*
X71731142Y-120657904D01*
X71778761Y-120610285D01*
X71826380Y-120515047D01*
X71826380Y-120229333D01*
X71778761Y-120134095D01*
X71731142Y-120086476D01*
X70826380Y-121324571D02*
X70826380Y-121419809D01*
X70874000Y-121515047D01*
X70921619Y-121562666D01*
X71016857Y-121610285D01*
X71207333Y-121657904D01*
X71445428Y-121657904D01*
X71635904Y-121610285D01*
X71731142Y-121562666D01*
X71778761Y-121515047D01*
X71826380Y-121419809D01*
X71826380Y-121324571D01*
X71778761Y-121229333D01*
X71731142Y-121181714D01*
X71635904Y-121134095D01*
X71445428Y-121086476D01*
X71207333Y-121086476D01*
X71016857Y-121134095D01*
X70921619Y-121181714D01*
X70874000Y-121229333D01*
X70826380Y-121324571D01*
X92216266Y-77287380D02*
X92549600Y-76811190D01*
X92787695Y-77287380D02*
X92787695Y-76287380D01*
X92406742Y-76287380D01*
X92311504Y-76335000D01*
X92263885Y-76382619D01*
X92216266Y-76477857D01*
X92216266Y-76620714D01*
X92263885Y-76715952D01*
X92311504Y-76763571D01*
X92406742Y-76811190D01*
X92787695Y-76811190D01*
X91882933Y-76287380D02*
X91263885Y-76287380D01*
X91597219Y-76668333D01*
X91454361Y-76668333D01*
X91359123Y-76715952D01*
X91311504Y-76763571D01*
X91263885Y-76858809D01*
X91263885Y-77096904D01*
X91311504Y-77192142D01*
X91359123Y-77239761D01*
X91454361Y-77287380D01*
X91740076Y-77287380D01*
X91835314Y-77239761D01*
X91882933Y-77192142D01*
X74727380Y-100790476D02*
X75727380Y-101457142D01*
X74727380Y-101457142D02*
X75727380Y-100790476D01*
X75727380Y-102361904D02*
X75727380Y-101790476D01*
X75727380Y-102076190D02*
X74727380Y-102076190D01*
X74870238Y-101980952D01*
X74965476Y-101885714D01*
X75013095Y-101790476D01*
X68746666Y-73832980D02*
X69080000Y-73356790D01*
X69318095Y-73832980D02*
X69318095Y-72832980D01*
X68937142Y-72832980D01*
X68841904Y-72880600D01*
X68794285Y-72928219D01*
X68746666Y-73023457D01*
X68746666Y-73166314D01*
X68794285Y-73261552D01*
X68841904Y-73309171D01*
X68937142Y-73356790D01*
X69318095Y-73356790D01*
X67794285Y-73832980D02*
X68365714Y-73832980D01*
X68080000Y-73832980D02*
X68080000Y-72832980D01*
X68175238Y-72975838D01*
X68270476Y-73071076D01*
X68365714Y-73118695D01*
X68892657Y-89555580D02*
X69225990Y-89079390D01*
X69464085Y-89555580D02*
X69464085Y-88555580D01*
X69083133Y-88555580D01*
X68987895Y-88603200D01*
X68940276Y-88650819D01*
X68892657Y-88746057D01*
X68892657Y-88888914D01*
X68940276Y-88984152D01*
X68987895Y-89031771D01*
X69083133Y-89079390D01*
X69464085Y-89079390D01*
X67940276Y-89555580D02*
X68511704Y-89555580D01*
X68225990Y-89555580D02*
X68225990Y-88555580D01*
X68321228Y-88698438D01*
X68416466Y-88793676D01*
X68511704Y-88841295D01*
X67035514Y-88555580D02*
X67511704Y-88555580D01*
X67559323Y-89031771D01*
X67511704Y-88984152D01*
X67416466Y-88936533D01*
X67178371Y-88936533D01*
X67083133Y-88984152D01*
X67035514Y-89031771D01*
X66987895Y-89127009D01*
X66987895Y-89365104D01*
X67035514Y-89460342D01*
X67083133Y-89507961D01*
X67178371Y-89555580D01*
X67416466Y-89555580D01*
X67511704Y-89507961D01*
X67559323Y-89460342D01*
X73540857Y-89511142D02*
X73588476Y-89558761D01*
X73731333Y-89606380D01*
X73826571Y-89606380D01*
X73969428Y-89558761D01*
X74064666Y-89463523D01*
X74112285Y-89368285D01*
X74159904Y-89177809D01*
X74159904Y-89034952D01*
X74112285Y-88844476D01*
X74064666Y-88749238D01*
X73969428Y-88654000D01*
X73826571Y-88606380D01*
X73731333Y-88606380D01*
X73588476Y-88654000D01*
X73540857Y-88701619D01*
X73159904Y-88701619D02*
X73112285Y-88654000D01*
X73017047Y-88606380D01*
X72778952Y-88606380D01*
X72683714Y-88654000D01*
X72636095Y-88701619D01*
X72588476Y-88796857D01*
X72588476Y-88892095D01*
X72636095Y-89034952D01*
X73207523Y-89606380D01*
X72588476Y-89606380D01*
X71683714Y-88606380D02*
X72159904Y-88606380D01*
X72207523Y-89082571D01*
X72159904Y-89034952D01*
X72064666Y-88987333D01*
X71826571Y-88987333D01*
X71731333Y-89034952D01*
X71683714Y-89082571D01*
X71636095Y-89177809D01*
X71636095Y-89415904D01*
X71683714Y-89511142D01*
X71731333Y-89558761D01*
X71826571Y-89606380D01*
X72064666Y-89606380D01*
X72159904Y-89558761D01*
X72207523Y-89511142D01*
X97281904Y-94321380D02*
X97281904Y-95130904D01*
X97234285Y-95226142D01*
X97186666Y-95273761D01*
X97091428Y-95321380D01*
X96900952Y-95321380D01*
X96805714Y-95273761D01*
X96758095Y-95226142D01*
X96710476Y-95130904D01*
X96710476Y-94321380D01*
X95758095Y-94321380D02*
X96234285Y-94321380D01*
X96281904Y-94797571D01*
X96234285Y-94749952D01*
X96139047Y-94702333D01*
X95900952Y-94702333D01*
X95805714Y-94749952D01*
X95758095Y-94797571D01*
X95710476Y-94892809D01*
X95710476Y-95130904D01*
X95758095Y-95226142D01*
X95805714Y-95273761D01*
X95900952Y-95321380D01*
X96139047Y-95321380D01*
X96234285Y-95273761D01*
X96281904Y-95226142D01*
X75699857Y-88143142D02*
X75747476Y-88190761D01*
X75890333Y-88238380D01*
X75985571Y-88238380D01*
X76128428Y-88190761D01*
X76223666Y-88095523D01*
X76271285Y-88000285D01*
X76318904Y-87809809D01*
X76318904Y-87666952D01*
X76271285Y-87476476D01*
X76223666Y-87381238D01*
X76128428Y-87286000D01*
X75985571Y-87238380D01*
X75890333Y-87238380D01*
X75747476Y-87286000D01*
X75699857Y-87333619D01*
X74747476Y-88238380D02*
X75318904Y-88238380D01*
X75033190Y-88238380D02*
X75033190Y-87238380D01*
X75128428Y-87381238D01*
X75223666Y-87476476D01*
X75318904Y-87524095D01*
X73795095Y-88238380D02*
X74366523Y-88238380D01*
X74080809Y-88238380D02*
X74080809Y-87238380D01*
X74176047Y-87381238D01*
X74271285Y-87476476D01*
X74366523Y-87524095D01*
X103036666Y-94178380D02*
X103512857Y-94178380D01*
X103512857Y-93178380D01*
X102274761Y-93178380D02*
X102465238Y-93178380D01*
X102560476Y-93226000D01*
X102608095Y-93273619D01*
X102703333Y-93416476D01*
X102750952Y-93606952D01*
X102750952Y-93987904D01*
X102703333Y-94083142D01*
X102655714Y-94130761D01*
X102560476Y-94178380D01*
X102370000Y-94178380D01*
X102274761Y-94130761D01*
X102227142Y-94083142D01*
X102179523Y-93987904D01*
X102179523Y-93749809D01*
X102227142Y-93654571D01*
X102274761Y-93606952D01*
X102370000Y-93559333D01*
X102560476Y-93559333D01*
X102655714Y-93606952D01*
X102703333Y-93654571D01*
X102750952Y-93749809D01*
X112656857Y-121134142D02*
X112704476Y-121181761D01*
X112847333Y-121229380D01*
X112942571Y-121229380D01*
X113085428Y-121181761D01*
X113180666Y-121086523D01*
X113228285Y-120991285D01*
X113275904Y-120800809D01*
X113275904Y-120657952D01*
X113228285Y-120467476D01*
X113180666Y-120372238D01*
X113085428Y-120277000D01*
X112942571Y-120229380D01*
X112847333Y-120229380D01*
X112704476Y-120277000D01*
X112656857Y-120324619D01*
X111799714Y-120562714D02*
X111799714Y-121229380D01*
X112037809Y-120181761D02*
X112275904Y-120896047D01*
X111656857Y-120896047D01*
X111323523Y-120324619D02*
X111275904Y-120277000D01*
X111180666Y-120229380D01*
X110942571Y-120229380D01*
X110847333Y-120277000D01*
X110799714Y-120324619D01*
X110752095Y-120419857D01*
X110752095Y-120515095D01*
X110799714Y-120657952D01*
X111371142Y-121229380D01*
X110752095Y-121229380D01*
X78087457Y-73737742D02*
X78135076Y-73785361D01*
X78277933Y-73832980D01*
X78373171Y-73832980D01*
X78516028Y-73785361D01*
X78611266Y-73690123D01*
X78658885Y-73594885D01*
X78706504Y-73404409D01*
X78706504Y-73261552D01*
X78658885Y-73071076D01*
X78611266Y-72975838D01*
X78516028Y-72880600D01*
X78373171Y-72832980D01*
X78277933Y-72832980D01*
X78135076Y-72880600D01*
X78087457Y-72928219D01*
X77135076Y-73832980D02*
X77706504Y-73832980D01*
X77420790Y-73832980D02*
X77420790Y-72832980D01*
X77516028Y-72975838D01*
X77611266Y-73071076D01*
X77706504Y-73118695D01*
X76277933Y-73166314D02*
X76277933Y-73832980D01*
X76516028Y-72785361D02*
X76754123Y-73499647D01*
X76135076Y-73499647D01*
X54205142Y-85513942D02*
X54252761Y-85466323D01*
X54300380Y-85323466D01*
X54300380Y-85228228D01*
X54252761Y-85085371D01*
X54157523Y-84990133D01*
X54062285Y-84942514D01*
X53871809Y-84894895D01*
X53728952Y-84894895D01*
X53538476Y-84942514D01*
X53443238Y-84990133D01*
X53348000Y-85085371D01*
X53300380Y-85228228D01*
X53300380Y-85323466D01*
X53348000Y-85466323D01*
X53395619Y-85513942D01*
X53300380Y-85847276D02*
X53300380Y-86466323D01*
X53681333Y-86132990D01*
X53681333Y-86275847D01*
X53728952Y-86371085D01*
X53776571Y-86418704D01*
X53871809Y-86466323D01*
X54109904Y-86466323D01*
X54205142Y-86418704D01*
X54252761Y-86371085D01*
X54300380Y-86275847D01*
X54300380Y-85990133D01*
X54252761Y-85894895D01*
X54205142Y-85847276D01*
X54300380Y-87418704D02*
X54300380Y-86847276D01*
X54300380Y-87132990D02*
X53300380Y-87132990D01*
X53443238Y-87037752D01*
X53538476Y-86942514D01*
X53586095Y-86847276D01*
X96686666Y-87827380D02*
X97020000Y-87351190D01*
X97258095Y-87827380D02*
X97258095Y-86827380D01*
X96877142Y-86827380D01*
X96781904Y-86875000D01*
X96734285Y-86922619D01*
X96686666Y-87017857D01*
X96686666Y-87160714D01*
X96734285Y-87255952D01*
X96781904Y-87303571D01*
X96877142Y-87351190D01*
X97258095Y-87351190D01*
X95829523Y-86827380D02*
X96020000Y-86827380D01*
X96115238Y-86875000D01*
X96162857Y-86922619D01*
X96258095Y-87065476D01*
X96305714Y-87255952D01*
X96305714Y-87636904D01*
X96258095Y-87732142D01*
X96210476Y-87779761D01*
X96115238Y-87827380D01*
X95924761Y-87827380D01*
X95829523Y-87779761D01*
X95781904Y-87732142D01*
X95734285Y-87636904D01*
X95734285Y-87398809D01*
X95781904Y-87303571D01*
X95829523Y-87255952D01*
X95924761Y-87208333D01*
X96115238Y-87208333D01*
X96210476Y-87255952D01*
X96258095Y-87303571D01*
X96305714Y-87398809D01*
X95351504Y-83450180D02*
X95351504Y-84259704D01*
X95303885Y-84354942D01*
X95256266Y-84402561D01*
X95161028Y-84450180D01*
X94970552Y-84450180D01*
X94875314Y-84402561D01*
X94827695Y-84354942D01*
X94780076Y-84259704D01*
X94780076Y-83450180D01*
X94399123Y-83450180D02*
X93780076Y-83450180D01*
X94113409Y-83831133D01*
X93970552Y-83831133D01*
X93875314Y-83878752D01*
X93827695Y-83926371D01*
X93780076Y-84021609D01*
X93780076Y-84259704D01*
X93827695Y-84354942D01*
X93875314Y-84402561D01*
X93970552Y-84450180D01*
X94256266Y-84450180D01*
X94351504Y-84402561D01*
X94399123Y-84354942D01*
X90495380Y-81875333D02*
X90019190Y-81542000D01*
X90495380Y-81303904D02*
X89495380Y-81303904D01*
X89495380Y-81684857D01*
X89543000Y-81780095D01*
X89590619Y-81827714D01*
X89685857Y-81875333D01*
X89828714Y-81875333D01*
X89923952Y-81827714D01*
X89971571Y-81780095D01*
X90019190Y-81684857D01*
X90019190Y-81303904D01*
X89828714Y-82732476D02*
X90495380Y-82732476D01*
X89447761Y-82494380D02*
X90162047Y-82256285D01*
X90162047Y-82875333D01*
X59761380Y-101592142D02*
X59285190Y-101258809D01*
X59761380Y-101020714D02*
X58761380Y-101020714D01*
X58761380Y-101401666D01*
X58809000Y-101496904D01*
X58856619Y-101544523D01*
X58951857Y-101592142D01*
X59094714Y-101592142D01*
X59189952Y-101544523D01*
X59237571Y-101496904D01*
X59285190Y-101401666D01*
X59285190Y-101020714D01*
X59761380Y-102544523D02*
X59761380Y-101973095D01*
X59761380Y-102258809D02*
X58761380Y-102258809D01*
X58904238Y-102163571D01*
X58999476Y-102068333D01*
X59047095Y-101973095D01*
X59761380Y-103020714D02*
X59761380Y-103211190D01*
X59713761Y-103306428D01*
X59666142Y-103354047D01*
X59523285Y-103449285D01*
X59332809Y-103496904D01*
X58951857Y-103496904D01*
X58856619Y-103449285D01*
X58809000Y-103401666D01*
X58761380Y-103306428D01*
X58761380Y-103115952D01*
X58809000Y-103020714D01*
X58856619Y-102973095D01*
X58951857Y-102925476D01*
X59189952Y-102925476D01*
X59285190Y-102973095D01*
X59332809Y-103020714D01*
X59380428Y-103115952D01*
X59380428Y-103306428D01*
X59332809Y-103401666D01*
X59285190Y-103449285D01*
X59189952Y-103496904D01*
X106979980Y-80351333D02*
X106503790Y-80018000D01*
X106979980Y-79779904D02*
X105979980Y-79779904D01*
X105979980Y-80160857D01*
X106027600Y-80256095D01*
X106075219Y-80303714D01*
X106170457Y-80351333D01*
X106313314Y-80351333D01*
X106408552Y-80303714D01*
X106456171Y-80256095D01*
X106503790Y-80160857D01*
X106503790Y-79779904D01*
X106979980Y-80827523D02*
X106979980Y-81018000D01*
X106932361Y-81113238D01*
X106884742Y-81160857D01*
X106741885Y-81256095D01*
X106551409Y-81303714D01*
X106170457Y-81303714D01*
X106075219Y-81256095D01*
X106027600Y-81208476D01*
X105979980Y-81113238D01*
X105979980Y-80922761D01*
X106027600Y-80827523D01*
X106075219Y-80779904D01*
X106170457Y-80732285D01*
X106408552Y-80732285D01*
X106503790Y-80779904D01*
X106551409Y-80827523D01*
X106599028Y-80922761D01*
X106599028Y-81113238D01*
X106551409Y-81208476D01*
X106503790Y-81256095D01*
X106408552Y-81303714D01*
X100972857Y-84881980D02*
X101306190Y-84405790D01*
X101544285Y-84881980D02*
X101544285Y-83881980D01*
X101163333Y-83881980D01*
X101068095Y-83929600D01*
X101020476Y-83977219D01*
X100972857Y-84072457D01*
X100972857Y-84215314D01*
X101020476Y-84310552D01*
X101068095Y-84358171D01*
X101163333Y-84405790D01*
X101544285Y-84405790D01*
X100020476Y-84881980D02*
X100591904Y-84881980D01*
X100306190Y-84881980D02*
X100306190Y-83881980D01*
X100401428Y-84024838D01*
X100496666Y-84120076D01*
X100591904Y-84167695D01*
X99401428Y-83881980D02*
X99306190Y-83881980D01*
X99210952Y-83929600D01*
X99163333Y-83977219D01*
X99115714Y-84072457D01*
X99068095Y-84262933D01*
X99068095Y-84501028D01*
X99115714Y-84691504D01*
X99163333Y-84786742D01*
X99210952Y-84834361D01*
X99306190Y-84881980D01*
X99401428Y-84881980D01*
X99496666Y-84834361D01*
X99544285Y-84786742D01*
X99591904Y-84691504D01*
X99639523Y-84501028D01*
X99639523Y-84262933D01*
X99591904Y-84072457D01*
X99544285Y-83977219D01*
X99496666Y-83929600D01*
X99401428Y-83881980D01*
X75318857Y-117038380D02*
X75652190Y-116562190D01*
X75890285Y-117038380D02*
X75890285Y-116038380D01*
X75509333Y-116038380D01*
X75414095Y-116086000D01*
X75366476Y-116133619D01*
X75318857Y-116228857D01*
X75318857Y-116371714D01*
X75366476Y-116466952D01*
X75414095Y-116514571D01*
X75509333Y-116562190D01*
X75890285Y-116562190D01*
X74366476Y-117038380D02*
X74937904Y-117038380D01*
X74652190Y-117038380D02*
X74652190Y-116038380D01*
X74747428Y-116181238D01*
X74842666Y-116276476D01*
X74937904Y-116324095D01*
X74033142Y-116038380D02*
X73414095Y-116038380D01*
X73747428Y-116419333D01*
X73604571Y-116419333D01*
X73509333Y-116466952D01*
X73461714Y-116514571D01*
X73414095Y-116609809D01*
X73414095Y-116847904D01*
X73461714Y-116943142D01*
X73509333Y-116990761D01*
X73604571Y-117038380D01*
X73890285Y-117038380D01*
X73985523Y-116990761D01*
X74033142Y-116943142D01*
X58866019Y-120605561D02*
X58818400Y-120510323D01*
X58723161Y-120415085D01*
X58580304Y-120272228D01*
X58532685Y-120176990D01*
X58532685Y-120081752D01*
X58770780Y-120129371D02*
X58723161Y-120034133D01*
X58627923Y-119938895D01*
X58437447Y-119891276D01*
X58104114Y-119891276D01*
X57913638Y-119938895D01*
X57818400Y-120034133D01*
X57770780Y-120129371D01*
X57770780Y-120319847D01*
X57818400Y-120415085D01*
X57913638Y-120510323D01*
X58104114Y-120557942D01*
X58437447Y-120557942D01*
X58627923Y-120510323D01*
X58723161Y-120415085D01*
X58770780Y-120319847D01*
X58770780Y-120129371D01*
X58104114Y-121415085D02*
X58770780Y-121415085D01*
X57723161Y-121176990D02*
X58437447Y-120938895D01*
X58437447Y-121557942D01*
X54014666Y-95448380D02*
X54490857Y-95448380D01*
X54490857Y-94448380D01*
X53728952Y-94543619D02*
X53681333Y-94496000D01*
X53586095Y-94448380D01*
X53348000Y-94448380D01*
X53252761Y-94496000D01*
X53205142Y-94543619D01*
X53157523Y-94638857D01*
X53157523Y-94734095D01*
X53205142Y-94876952D01*
X53776571Y-95448380D01*
X53157523Y-95448380D01*
X90495380Y-79843333D02*
X90019190Y-79510000D01*
X90495380Y-79271904D02*
X89495380Y-79271904D01*
X89495380Y-79652857D01*
X89543000Y-79748095D01*
X89590619Y-79795714D01*
X89685857Y-79843333D01*
X89828714Y-79843333D01*
X89923952Y-79795714D01*
X89971571Y-79748095D01*
X90019190Y-79652857D01*
X90019190Y-79271904D01*
X89590619Y-80224285D02*
X89543000Y-80271904D01*
X89495380Y-80367142D01*
X89495380Y-80605238D01*
X89543000Y-80700476D01*
X89590619Y-80748095D01*
X89685857Y-80795714D01*
X89781095Y-80795714D01*
X89923952Y-80748095D01*
X90495380Y-80176666D01*
X90495380Y-80795714D01*
X120403857Y-94591142D02*
X120451476Y-94638761D01*
X120594333Y-94686380D01*
X120689571Y-94686380D01*
X120832428Y-94638761D01*
X120927666Y-94543523D01*
X120975285Y-94448285D01*
X121022904Y-94257809D01*
X121022904Y-94114952D01*
X120975285Y-93924476D01*
X120927666Y-93829238D01*
X120832428Y-93734000D01*
X120689571Y-93686380D01*
X120594333Y-93686380D01*
X120451476Y-93734000D01*
X120403857Y-93781619D01*
X120022904Y-93781619D02*
X119975285Y-93734000D01*
X119880047Y-93686380D01*
X119641952Y-93686380D01*
X119546714Y-93734000D01*
X119499095Y-93781619D01*
X119451476Y-93876857D01*
X119451476Y-93972095D01*
X119499095Y-94114952D01*
X120070523Y-94686380D01*
X119451476Y-94686380D01*
X119070523Y-93781619D02*
X119022904Y-93734000D01*
X118927666Y-93686380D01*
X118689571Y-93686380D01*
X118594333Y-93734000D01*
X118546714Y-93781619D01*
X118499095Y-93876857D01*
X118499095Y-93972095D01*
X118546714Y-94114952D01*
X119118142Y-94686380D01*
X118499095Y-94686380D01*
X117681333Y-102576380D02*
X117681333Y-103290666D01*
X117728952Y-103433523D01*
X117824190Y-103528761D01*
X117967047Y-103576380D01*
X118062285Y-103576380D01*
X117252761Y-102671619D02*
X117205142Y-102624000D01*
X117109904Y-102576380D01*
X116871809Y-102576380D01*
X116776571Y-102624000D01*
X116728952Y-102671619D01*
X116681333Y-102766857D01*
X116681333Y-102862095D01*
X116728952Y-103004952D01*
X117300380Y-103576380D01*
X116681333Y-103576380D01*
X81795857Y-123420142D02*
X81843476Y-123467761D01*
X81986333Y-123515380D01*
X82081571Y-123515380D01*
X82224428Y-123467761D01*
X82319666Y-123372523D01*
X82367285Y-123277285D01*
X82414904Y-123086809D01*
X82414904Y-122943952D01*
X82367285Y-122753476D01*
X82319666Y-122658238D01*
X82224428Y-122563000D01*
X82081571Y-122515380D01*
X81986333Y-122515380D01*
X81843476Y-122563000D01*
X81795857Y-122610619D01*
X80938714Y-122848714D02*
X80938714Y-123515380D01*
X81176809Y-122467761D02*
X81414904Y-123182047D01*
X80795857Y-123182047D01*
X79938714Y-122515380D02*
X80414904Y-122515380D01*
X80462523Y-122991571D01*
X80414904Y-122943952D01*
X80319666Y-122896333D01*
X80081571Y-122896333D01*
X79986333Y-122943952D01*
X79938714Y-122991571D01*
X79891095Y-123086809D01*
X79891095Y-123324904D01*
X79938714Y-123420142D01*
X79986333Y-123467761D01*
X80081571Y-123515380D01*
X80319666Y-123515380D01*
X80414904Y-123467761D01*
X80462523Y-123420142D01*
X110243857Y-101036380D02*
X110577190Y-100560190D01*
X110815285Y-101036380D02*
X110815285Y-100036380D01*
X110434333Y-100036380D01*
X110339095Y-100084000D01*
X110291476Y-100131619D01*
X110243857Y-100226857D01*
X110243857Y-100369714D01*
X110291476Y-100464952D01*
X110339095Y-100512571D01*
X110434333Y-100560190D01*
X110815285Y-100560190D01*
X109910523Y-100036380D02*
X109291476Y-100036380D01*
X109624809Y-100417333D01*
X109481952Y-100417333D01*
X109386714Y-100464952D01*
X109339095Y-100512571D01*
X109291476Y-100607809D01*
X109291476Y-100845904D01*
X109339095Y-100941142D01*
X109386714Y-100988761D01*
X109481952Y-101036380D01*
X109767666Y-101036380D01*
X109862904Y-100988761D01*
X109910523Y-100941142D01*
X108339095Y-101036380D02*
X108910523Y-101036380D01*
X108624809Y-101036380D02*
X108624809Y-100036380D01*
X108720047Y-100179238D01*
X108815285Y-100274476D01*
X108910523Y-100322095D01*
X117681333Y-114133380D02*
X117681333Y-114847666D01*
X117728952Y-114990523D01*
X117824190Y-115085761D01*
X117967047Y-115133380D01*
X118062285Y-115133380D01*
X117300380Y-114133380D02*
X116681333Y-114133380D01*
X117014666Y-114514333D01*
X116871809Y-114514333D01*
X116776571Y-114561952D01*
X116728952Y-114609571D01*
X116681333Y-114704809D01*
X116681333Y-114942904D01*
X116728952Y-115038142D01*
X116776571Y-115085761D01*
X116871809Y-115133380D01*
X117157523Y-115133380D01*
X117252761Y-115085761D01*
X117300380Y-115038142D01*
X79154257Y-88622142D02*
X79201876Y-88669761D01*
X79344733Y-88717380D01*
X79439971Y-88717380D01*
X79582828Y-88669761D01*
X79678066Y-88574523D01*
X79725685Y-88479285D01*
X79773304Y-88288809D01*
X79773304Y-88145952D01*
X79725685Y-87955476D01*
X79678066Y-87860238D01*
X79582828Y-87765000D01*
X79439971Y-87717380D01*
X79344733Y-87717380D01*
X79201876Y-87765000D01*
X79154257Y-87812619D01*
X78297114Y-88050714D02*
X78297114Y-88717380D01*
X78535209Y-87669761D02*
X78773304Y-88384047D01*
X78154257Y-88384047D01*
X77868542Y-87717380D02*
X77201876Y-87717380D01*
X77630447Y-88717380D01*
X50966666Y-77420742D02*
X51014285Y-77468361D01*
X51157142Y-77515980D01*
X51252380Y-77515980D01*
X51395238Y-77468361D01*
X51490476Y-77373123D01*
X51538095Y-77277885D01*
X51585714Y-77087409D01*
X51585714Y-76944552D01*
X51538095Y-76754076D01*
X51490476Y-76658838D01*
X51395238Y-76563600D01*
X51252380Y-76515980D01*
X51157142Y-76515980D01*
X51014285Y-76563600D01*
X50966666Y-76611219D01*
X50061904Y-76515980D02*
X50538095Y-76515980D01*
X50585714Y-76992171D01*
X50538095Y-76944552D01*
X50442857Y-76896933D01*
X50204761Y-76896933D01*
X50109523Y-76944552D01*
X50061904Y-76992171D01*
X50014285Y-77087409D01*
X50014285Y-77325504D01*
X50061904Y-77420742D01*
X50109523Y-77468361D01*
X50204761Y-77515980D01*
X50442857Y-77515980D01*
X50538095Y-77468361D01*
X50585714Y-77420742D01*
X46972457Y-108688142D02*
X47020076Y-108735761D01*
X47162933Y-108783380D01*
X47258171Y-108783380D01*
X47401028Y-108735761D01*
X47496266Y-108640523D01*
X47543885Y-108545285D01*
X47591504Y-108354809D01*
X47591504Y-108211952D01*
X47543885Y-108021476D01*
X47496266Y-107926238D01*
X47401028Y-107831000D01*
X47258171Y-107783380D01*
X47162933Y-107783380D01*
X47020076Y-107831000D01*
X46972457Y-107878619D01*
X46067695Y-107783380D02*
X46543885Y-107783380D01*
X46591504Y-108259571D01*
X46543885Y-108211952D01*
X46448647Y-108164333D01*
X46210552Y-108164333D01*
X46115314Y-108211952D01*
X46067695Y-108259571D01*
X46020076Y-108354809D01*
X46020076Y-108592904D01*
X46067695Y-108688142D01*
X46115314Y-108735761D01*
X46210552Y-108783380D01*
X46448647Y-108783380D01*
X46543885Y-108735761D01*
X46591504Y-108688142D01*
X45543885Y-108783380D02*
X45353409Y-108783380D01*
X45258171Y-108735761D01*
X45210552Y-108688142D01*
X45115314Y-108545285D01*
X45067695Y-108354809D01*
X45067695Y-107973857D01*
X45115314Y-107878619D01*
X45162933Y-107831000D01*
X45258171Y-107783380D01*
X45448647Y-107783380D01*
X45543885Y-107831000D01*
X45591504Y-107878619D01*
X45639123Y-107973857D01*
X45639123Y-108211952D01*
X45591504Y-108307190D01*
X45543885Y-108354809D01*
X45448647Y-108402428D01*
X45258171Y-108402428D01*
X45162933Y-108354809D01*
X45115314Y-108307190D01*
X45067695Y-108211952D01*
X38526980Y-83475533D02*
X38526980Y-82999342D01*
X37526980Y-82999342D01*
X37526980Y-84285057D02*
X37526980Y-83808866D01*
X38003171Y-83761247D01*
X37955552Y-83808866D01*
X37907933Y-83904104D01*
X37907933Y-84142200D01*
X37955552Y-84237438D01*
X38003171Y-84285057D01*
X38098409Y-84332676D01*
X38336504Y-84332676D01*
X38431742Y-84285057D01*
X38479361Y-84237438D01*
X38526980Y-84142200D01*
X38526980Y-83904104D01*
X38479361Y-83808866D01*
X38431742Y-83761247D01*
X65412857Y-105132142D02*
X65460476Y-105179761D01*
X65603333Y-105227380D01*
X65698571Y-105227380D01*
X65841428Y-105179761D01*
X65936666Y-105084523D01*
X65984285Y-104989285D01*
X66031904Y-104798809D01*
X66031904Y-104655952D01*
X65984285Y-104465476D01*
X65936666Y-104370238D01*
X65841428Y-104275000D01*
X65698571Y-104227380D01*
X65603333Y-104227380D01*
X65460476Y-104275000D01*
X65412857Y-104322619D01*
X65031904Y-104322619D02*
X64984285Y-104275000D01*
X64889047Y-104227380D01*
X64650952Y-104227380D01*
X64555714Y-104275000D01*
X64508095Y-104322619D01*
X64460476Y-104417857D01*
X64460476Y-104513095D01*
X64508095Y-104655952D01*
X65079523Y-105227380D01*
X64460476Y-105227380D01*
X63603333Y-104560714D02*
X63603333Y-105227380D01*
X63841428Y-104179761D02*
X64079523Y-104894047D01*
X63460476Y-104894047D01*
X48655219Y-97694761D02*
X48607600Y-97599523D01*
X48512361Y-97504285D01*
X48369504Y-97361428D01*
X48321885Y-97266190D01*
X48321885Y-97170952D01*
X48559980Y-97218571D02*
X48512361Y-97123333D01*
X48417123Y-97028095D01*
X48226647Y-96980476D01*
X47893314Y-96980476D01*
X47702838Y-97028095D01*
X47607600Y-97123333D01*
X47559980Y-97218571D01*
X47559980Y-97409047D01*
X47607600Y-97504285D01*
X47702838Y-97599523D01*
X47893314Y-97647142D01*
X48226647Y-97647142D01*
X48417123Y-97599523D01*
X48512361Y-97504285D01*
X48559980Y-97409047D01*
X48559980Y-97218571D01*
X47655219Y-98028095D02*
X47607600Y-98075714D01*
X47559980Y-98170952D01*
X47559980Y-98409047D01*
X47607600Y-98504285D01*
X47655219Y-98551904D01*
X47750457Y-98599523D01*
X47845695Y-98599523D01*
X47988552Y-98551904D01*
X48559980Y-97980476D01*
X48559980Y-98599523D01*
X101162380Y-96512142D02*
X100686190Y-96178809D01*
X101162380Y-95940714D02*
X100162380Y-95940714D01*
X100162380Y-96321666D01*
X100210000Y-96416904D01*
X100257619Y-96464523D01*
X100352857Y-96512142D01*
X100495714Y-96512142D01*
X100590952Y-96464523D01*
X100638571Y-96416904D01*
X100686190Y-96321666D01*
X100686190Y-95940714D01*
X101162380Y-97464523D02*
X101162380Y-96893095D01*
X101162380Y-97178809D02*
X100162380Y-97178809D01*
X100305238Y-97083571D01*
X100400476Y-96988333D01*
X100448095Y-96893095D01*
X101162380Y-98416904D02*
X101162380Y-97845476D01*
X101162380Y-98131190D02*
X100162380Y-98131190D01*
X100305238Y-98035952D01*
X100400476Y-97940714D01*
X100448095Y-97845476D01*
X79978238Y-108764619D02*
X80073476Y-108717000D01*
X80168714Y-108621761D01*
X80311571Y-108478904D01*
X80406809Y-108431285D01*
X80502047Y-108431285D01*
X80454428Y-108669380D02*
X80549666Y-108621761D01*
X80644904Y-108526523D01*
X80692523Y-108336047D01*
X80692523Y-108002714D01*
X80644904Y-107812238D01*
X80549666Y-107717000D01*
X80454428Y-107669380D01*
X80263952Y-107669380D01*
X80168714Y-107717000D01*
X80073476Y-107812238D01*
X80025857Y-108002714D01*
X80025857Y-108336047D01*
X80073476Y-108526523D01*
X80168714Y-108621761D01*
X80263952Y-108669380D01*
X80454428Y-108669380D01*
X79692523Y-107669380D02*
X79073476Y-107669380D01*
X79406809Y-108050333D01*
X79263952Y-108050333D01*
X79168714Y-108097952D01*
X79121095Y-108145571D01*
X79073476Y-108240809D01*
X79073476Y-108478904D01*
X79121095Y-108574142D01*
X79168714Y-108621761D01*
X79263952Y-108669380D01*
X79549666Y-108669380D01*
X79644904Y-108621761D01*
X79692523Y-108574142D01*
X90685857Y-123420142D02*
X90733476Y-123467761D01*
X90876333Y-123515380D01*
X90971571Y-123515380D01*
X91114428Y-123467761D01*
X91209666Y-123372523D01*
X91257285Y-123277285D01*
X91304904Y-123086809D01*
X91304904Y-122943952D01*
X91257285Y-122753476D01*
X91209666Y-122658238D01*
X91114428Y-122563000D01*
X90971571Y-122515380D01*
X90876333Y-122515380D01*
X90733476Y-122563000D01*
X90685857Y-122610619D01*
X89828714Y-122848714D02*
X89828714Y-123515380D01*
X90066809Y-122467761D02*
X90304904Y-123182047D01*
X89685857Y-123182047D01*
X88876333Y-122848714D02*
X88876333Y-123515380D01*
X89114428Y-122467761D02*
X89352523Y-123182047D01*
X88733476Y-123182047D01*
X71254857Y-94210142D02*
X71302476Y-94257761D01*
X71445333Y-94305380D01*
X71540571Y-94305380D01*
X71683428Y-94257761D01*
X71778666Y-94162523D01*
X71826285Y-94067285D01*
X71873904Y-93876809D01*
X71873904Y-93733952D01*
X71826285Y-93543476D01*
X71778666Y-93448238D01*
X71683428Y-93353000D01*
X71540571Y-93305380D01*
X71445333Y-93305380D01*
X71302476Y-93353000D01*
X71254857Y-93400619D01*
X70873904Y-93400619D02*
X70826285Y-93353000D01*
X70731047Y-93305380D01*
X70492952Y-93305380D01*
X70397714Y-93353000D01*
X70350095Y-93400619D01*
X70302476Y-93495857D01*
X70302476Y-93591095D01*
X70350095Y-93733952D01*
X70921523Y-94305380D01*
X70302476Y-94305380D01*
X69445333Y-93305380D02*
X69635809Y-93305380D01*
X69731047Y-93353000D01*
X69778666Y-93400619D01*
X69873904Y-93543476D01*
X69921523Y-93733952D01*
X69921523Y-94114904D01*
X69873904Y-94210142D01*
X69826285Y-94257761D01*
X69731047Y-94305380D01*
X69540571Y-94305380D01*
X69445333Y-94257761D01*
X69397714Y-94210142D01*
X69350095Y-94114904D01*
X69350095Y-93876809D01*
X69397714Y-93781571D01*
X69445333Y-93733952D01*
X69540571Y-93686333D01*
X69731047Y-93686333D01*
X69826285Y-93733952D01*
X69873904Y-93781571D01*
X69921523Y-93876809D01*
X80621142Y-79748142D02*
X80668761Y-79700523D01*
X80716380Y-79557666D01*
X80716380Y-79462428D01*
X80668761Y-79319571D01*
X80573523Y-79224333D01*
X80478285Y-79176714D01*
X80287809Y-79129095D01*
X80144952Y-79129095D01*
X79954476Y-79176714D01*
X79859238Y-79224333D01*
X79764000Y-79319571D01*
X79716380Y-79462428D01*
X79716380Y-79557666D01*
X79764000Y-79700523D01*
X79811619Y-79748142D01*
X80716380Y-80700523D02*
X80716380Y-80129095D01*
X80716380Y-80414809D02*
X79716380Y-80414809D01*
X79859238Y-80319571D01*
X79954476Y-80224333D01*
X80002095Y-80129095D01*
X79716380Y-81605285D02*
X79716380Y-81129095D01*
X80192571Y-81081476D01*
X80144952Y-81129095D01*
X80097333Y-81224333D01*
X80097333Y-81462428D01*
X80144952Y-81557666D01*
X80192571Y-81605285D01*
X80287809Y-81652904D01*
X80525904Y-81652904D01*
X80621142Y-81605285D01*
X80668761Y-81557666D01*
X80716380Y-81462428D01*
X80716380Y-81224333D01*
X80668761Y-81129095D01*
X80621142Y-81081476D01*
X101988857Y-109450142D02*
X102036476Y-109497761D01*
X102179333Y-109545380D01*
X102274571Y-109545380D01*
X102417428Y-109497761D01*
X102512666Y-109402523D01*
X102560285Y-109307285D01*
X102607904Y-109116809D01*
X102607904Y-108973952D01*
X102560285Y-108783476D01*
X102512666Y-108688238D01*
X102417428Y-108593000D01*
X102274571Y-108545380D01*
X102179333Y-108545380D01*
X102036476Y-108593000D01*
X101988857Y-108640619D01*
X101655523Y-108545380D02*
X101036476Y-108545380D01*
X101369809Y-108926333D01*
X101226952Y-108926333D01*
X101131714Y-108973952D01*
X101084095Y-109021571D01*
X101036476Y-109116809D01*
X101036476Y-109354904D01*
X101084095Y-109450142D01*
X101131714Y-109497761D01*
X101226952Y-109545380D01*
X101512666Y-109545380D01*
X101607904Y-109497761D01*
X101655523Y-109450142D01*
X100179333Y-108545380D02*
X100369809Y-108545380D01*
X100465047Y-108593000D01*
X100512666Y-108640619D01*
X100607904Y-108783476D01*
X100655523Y-108973952D01*
X100655523Y-109354904D01*
X100607904Y-109450142D01*
X100560285Y-109497761D01*
X100465047Y-109545380D01*
X100274571Y-109545380D01*
X100179333Y-109497761D01*
X100131714Y-109450142D01*
X100084095Y-109354904D01*
X100084095Y-109116809D01*
X100131714Y-109021571D01*
X100179333Y-108973952D01*
X100274571Y-108926333D01*
X100465047Y-108926333D01*
X100560285Y-108973952D01*
X100607904Y-109021571D01*
X100655523Y-109116809D01*
X70580238Y-101852619D02*
X70675476Y-101805000D01*
X70770714Y-101709761D01*
X70913571Y-101566904D01*
X71008809Y-101519285D01*
X71104047Y-101519285D01*
X71056428Y-101757380D02*
X71151666Y-101709761D01*
X71246904Y-101614523D01*
X71294523Y-101424047D01*
X71294523Y-101090714D01*
X71246904Y-100900238D01*
X71151666Y-100805000D01*
X71056428Y-100757380D01*
X70865952Y-100757380D01*
X70770714Y-100805000D01*
X70675476Y-100900238D01*
X70627857Y-101090714D01*
X70627857Y-101424047D01*
X70675476Y-101614523D01*
X70770714Y-101709761D01*
X70865952Y-101757380D01*
X71056428Y-101757380D01*
X69675476Y-101757380D02*
X70246904Y-101757380D01*
X69961190Y-101757380D02*
X69961190Y-100757380D01*
X70056428Y-100900238D01*
X70151666Y-100995476D01*
X70246904Y-101043095D01*
X38949380Y-101774666D02*
X39663666Y-101774666D01*
X39806523Y-101727047D01*
X39901761Y-101631809D01*
X39949380Y-101488952D01*
X39949380Y-101393714D01*
X39949380Y-102774666D02*
X39949380Y-102203238D01*
X39949380Y-102488952D02*
X38949380Y-102488952D01*
X39092238Y-102393714D01*
X39187476Y-102298476D01*
X39235095Y-102203238D01*
X113672857Y-75388742D02*
X113720476Y-75436361D01*
X113863333Y-75483980D01*
X113958571Y-75483980D01*
X114101428Y-75436361D01*
X114196666Y-75341123D01*
X114244285Y-75245885D01*
X114291904Y-75055409D01*
X114291904Y-74912552D01*
X114244285Y-74722076D01*
X114196666Y-74626838D01*
X114101428Y-74531600D01*
X113958571Y-74483980D01*
X113863333Y-74483980D01*
X113720476Y-74531600D01*
X113672857Y-74579219D01*
X112768095Y-74483980D02*
X113244285Y-74483980D01*
X113291904Y-74960171D01*
X113244285Y-74912552D01*
X113149047Y-74864933D01*
X112910952Y-74864933D01*
X112815714Y-74912552D01*
X112768095Y-74960171D01*
X112720476Y-75055409D01*
X112720476Y-75293504D01*
X112768095Y-75388742D01*
X112815714Y-75436361D01*
X112910952Y-75483980D01*
X113149047Y-75483980D01*
X113244285Y-75436361D01*
X113291904Y-75388742D01*
X111863333Y-74817314D02*
X111863333Y-75483980D01*
X112101428Y-74436361D02*
X112339523Y-75150647D01*
X111720476Y-75150647D01*
X71127857Y-117038380D02*
X71461190Y-116562190D01*
X71699285Y-117038380D02*
X71699285Y-116038380D01*
X71318333Y-116038380D01*
X71223095Y-116086000D01*
X71175476Y-116133619D01*
X71127857Y-116228857D01*
X71127857Y-116371714D01*
X71175476Y-116466952D01*
X71223095Y-116514571D01*
X71318333Y-116562190D01*
X71699285Y-116562190D01*
X70175476Y-117038380D02*
X70746904Y-117038380D01*
X70461190Y-117038380D02*
X70461190Y-116038380D01*
X70556428Y-116181238D01*
X70651666Y-116276476D01*
X70746904Y-116324095D01*
X69318333Y-116371714D02*
X69318333Y-117038380D01*
X69556428Y-115990761D02*
X69794523Y-116705047D01*
X69175476Y-116705047D01*
X48172666Y-95448380D02*
X48648857Y-95448380D01*
X48648857Y-94448380D01*
X47315523Y-95448380D02*
X47886952Y-95448380D01*
X47601238Y-95448380D02*
X47601238Y-94448380D01*
X47696476Y-94591238D01*
X47791714Y-94686476D01*
X47886952Y-94734095D01*
X85542380Y-109847142D02*
X85066190Y-109513809D01*
X85542380Y-109275714D02*
X84542380Y-109275714D01*
X84542380Y-109656666D01*
X84590000Y-109751904D01*
X84637619Y-109799523D01*
X84732857Y-109847142D01*
X84875714Y-109847142D01*
X84970952Y-109799523D01*
X85018571Y-109751904D01*
X85066190Y-109656666D01*
X85066190Y-109275714D01*
X84637619Y-110228095D02*
X84590000Y-110275714D01*
X84542380Y-110370952D01*
X84542380Y-110609047D01*
X84590000Y-110704285D01*
X84637619Y-110751904D01*
X84732857Y-110799523D01*
X84828095Y-110799523D01*
X84970952Y-110751904D01*
X85542380Y-110180476D01*
X85542380Y-110799523D01*
X84542380Y-111132857D02*
X84542380Y-111751904D01*
X84923333Y-111418571D01*
X84923333Y-111561428D01*
X84970952Y-111656666D01*
X85018571Y-111704285D01*
X85113809Y-111751904D01*
X85351904Y-111751904D01*
X85447142Y-111704285D01*
X85494761Y-111656666D01*
X85542380Y-111561428D01*
X85542380Y-111275714D01*
X85494761Y-111180476D01*
X85447142Y-111132857D01*
X73255142Y-97147142D02*
X73302761Y-97099523D01*
X73350380Y-96956666D01*
X73350380Y-96861428D01*
X73302761Y-96718571D01*
X73207523Y-96623333D01*
X73112285Y-96575714D01*
X72921809Y-96528095D01*
X72778952Y-96528095D01*
X72588476Y-96575714D01*
X72493238Y-96623333D01*
X72398000Y-96718571D01*
X72350380Y-96861428D01*
X72350380Y-96956666D01*
X72398000Y-97099523D01*
X72445619Y-97147142D01*
X72445619Y-97528095D02*
X72398000Y-97575714D01*
X72350380Y-97670952D01*
X72350380Y-97909047D01*
X72398000Y-98004285D01*
X72445619Y-98051904D01*
X72540857Y-98099523D01*
X72636095Y-98099523D01*
X72778952Y-98051904D01*
X73350380Y-97480476D01*
X73350380Y-98099523D01*
X72350380Y-98432857D02*
X72350380Y-99051904D01*
X72731333Y-98718571D01*
X72731333Y-98861428D01*
X72778952Y-98956666D01*
X72826571Y-99004285D01*
X72921809Y-99051904D01*
X73159904Y-99051904D01*
X73255142Y-99004285D01*
X73302761Y-98956666D01*
X73350380Y-98861428D01*
X73350380Y-98575714D01*
X73302761Y-98480476D01*
X73255142Y-98432857D01*
X106960942Y-85513942D02*
X107008561Y-85466323D01*
X107056180Y-85323466D01*
X107056180Y-85228228D01*
X107008561Y-85085371D01*
X106913323Y-84990133D01*
X106818085Y-84942514D01*
X106627609Y-84894895D01*
X106484752Y-84894895D01*
X106294276Y-84942514D01*
X106199038Y-84990133D01*
X106103800Y-85085371D01*
X106056180Y-85228228D01*
X106056180Y-85323466D01*
X106103800Y-85466323D01*
X106151419Y-85513942D01*
X106151419Y-85894895D02*
X106103800Y-85942514D01*
X106056180Y-86037752D01*
X106056180Y-86275847D01*
X106103800Y-86371085D01*
X106151419Y-86418704D01*
X106246657Y-86466323D01*
X106341895Y-86466323D01*
X106484752Y-86418704D01*
X107056180Y-85847276D01*
X107056180Y-86466323D01*
X107056180Y-87418704D02*
X107056180Y-86847276D01*
X107056180Y-87132990D02*
X106056180Y-87132990D01*
X106199038Y-87037752D01*
X106294276Y-86942514D01*
X106341895Y-86847276D01*
X66066942Y-79849742D02*
X66114561Y-79802123D01*
X66162180Y-79659266D01*
X66162180Y-79564028D01*
X66114561Y-79421171D01*
X66019323Y-79325933D01*
X65924085Y-79278314D01*
X65733609Y-79230695D01*
X65590752Y-79230695D01*
X65400276Y-79278314D01*
X65305038Y-79325933D01*
X65209800Y-79421171D01*
X65162180Y-79564028D01*
X65162180Y-79659266D01*
X65209800Y-79802123D01*
X65257419Y-79849742D01*
X66162180Y-80802123D02*
X66162180Y-80230695D01*
X66162180Y-80516409D02*
X65162180Y-80516409D01*
X65305038Y-80421171D01*
X65400276Y-80325933D01*
X65447895Y-80230695D01*
X65162180Y-81421171D02*
X65162180Y-81516409D01*
X65209800Y-81611647D01*
X65257419Y-81659266D01*
X65352657Y-81706885D01*
X65543133Y-81754504D01*
X65781228Y-81754504D01*
X65971704Y-81706885D01*
X66066942Y-81659266D01*
X66114561Y-81611647D01*
X66162180Y-81516409D01*
X66162180Y-81421171D01*
X66114561Y-81325933D01*
X66066942Y-81278314D01*
X65971704Y-81230695D01*
X65781228Y-81183076D01*
X65543133Y-81183076D01*
X65352657Y-81230695D01*
X65257419Y-81278314D01*
X65209800Y-81325933D01*
X65162180Y-81421171D01*
X60840857Y-118086142D02*
X60888476Y-118133761D01*
X61031333Y-118181380D01*
X61126571Y-118181380D01*
X61269428Y-118133761D01*
X61364666Y-118038523D01*
X61412285Y-117943285D01*
X61459904Y-117752809D01*
X61459904Y-117609952D01*
X61412285Y-117419476D01*
X61364666Y-117324238D01*
X61269428Y-117229000D01*
X61126571Y-117181380D01*
X61031333Y-117181380D01*
X60888476Y-117229000D01*
X60840857Y-117276619D01*
X59936095Y-117181380D02*
X60412285Y-117181380D01*
X60459904Y-117657571D01*
X60412285Y-117609952D01*
X60317047Y-117562333D01*
X60078952Y-117562333D01*
X59983714Y-117609952D01*
X59936095Y-117657571D01*
X59888476Y-117752809D01*
X59888476Y-117990904D01*
X59936095Y-118086142D01*
X59983714Y-118133761D01*
X60078952Y-118181380D01*
X60317047Y-118181380D01*
X60412285Y-118133761D01*
X60459904Y-118086142D01*
X59031333Y-117181380D02*
X59221809Y-117181380D01*
X59317047Y-117229000D01*
X59364666Y-117276619D01*
X59459904Y-117419476D01*
X59507523Y-117609952D01*
X59507523Y-117990904D01*
X59459904Y-118086142D01*
X59412285Y-118133761D01*
X59317047Y-118181380D01*
X59126571Y-118181380D01*
X59031333Y-118133761D01*
X58983714Y-118086142D01*
X58936095Y-117990904D01*
X58936095Y-117752809D01*
X58983714Y-117657571D01*
X59031333Y-117609952D01*
X59126571Y-117562333D01*
X59317047Y-117562333D01*
X59412285Y-117609952D01*
X59459904Y-117657571D01*
X59507523Y-117752809D01*
X61126666Y-77420742D02*
X61174285Y-77468361D01*
X61317142Y-77515980D01*
X61412380Y-77515980D01*
X61555238Y-77468361D01*
X61650476Y-77373123D01*
X61698095Y-77277885D01*
X61745714Y-77087409D01*
X61745714Y-76944552D01*
X61698095Y-76754076D01*
X61650476Y-76658838D01*
X61555238Y-76563600D01*
X61412380Y-76515980D01*
X61317142Y-76515980D01*
X61174285Y-76563600D01*
X61126666Y-76611219D01*
X60793333Y-76515980D02*
X60126666Y-76515980D01*
X60555238Y-77515980D01*
X48245780Y-101498495D02*
X49055304Y-101498495D01*
X49150542Y-101546114D01*
X49198161Y-101593733D01*
X49245780Y-101688971D01*
X49245780Y-101879447D01*
X49198161Y-101974685D01*
X49150542Y-102022304D01*
X49055304Y-102069923D01*
X48245780Y-102069923D01*
X48674352Y-102688971D02*
X48626733Y-102593733D01*
X48579114Y-102546114D01*
X48483876Y-102498495D01*
X48436257Y-102498495D01*
X48341019Y-102546114D01*
X48293400Y-102593733D01*
X48245780Y-102688971D01*
X48245780Y-102879447D01*
X48293400Y-102974685D01*
X48341019Y-103022304D01*
X48436257Y-103069923D01*
X48483876Y-103069923D01*
X48579114Y-103022304D01*
X48626733Y-102974685D01*
X48674352Y-102879447D01*
X48674352Y-102688971D01*
X48721971Y-102593733D01*
X48769590Y-102546114D01*
X48864828Y-102498495D01*
X49055304Y-102498495D01*
X49150542Y-102546114D01*
X49198161Y-102593733D01*
X49245780Y-102688971D01*
X49245780Y-102879447D01*
X49198161Y-102974685D01*
X49150542Y-103022304D01*
X49055304Y-103069923D01*
X48864828Y-103069923D01*
X48769590Y-103022304D01*
X48721971Y-102974685D01*
X48674352Y-102879447D01*
X105417857Y-100814142D02*
X105465476Y-100861761D01*
X105608333Y-100909380D01*
X105703571Y-100909380D01*
X105846428Y-100861761D01*
X105941666Y-100766523D01*
X105989285Y-100671285D01*
X106036904Y-100480809D01*
X106036904Y-100337952D01*
X105989285Y-100147476D01*
X105941666Y-100052238D01*
X105846428Y-99957000D01*
X105703571Y-99909380D01*
X105608333Y-99909380D01*
X105465476Y-99957000D01*
X105417857Y-100004619D01*
X104513095Y-99909380D02*
X104989285Y-99909380D01*
X105036904Y-100385571D01*
X104989285Y-100337952D01*
X104894047Y-100290333D01*
X104655952Y-100290333D01*
X104560714Y-100337952D01*
X104513095Y-100385571D01*
X104465476Y-100480809D01*
X104465476Y-100718904D01*
X104513095Y-100814142D01*
X104560714Y-100861761D01*
X104655952Y-100909380D01*
X104894047Y-100909380D01*
X104989285Y-100861761D01*
X105036904Y-100814142D01*
X103846428Y-99909380D02*
X103751190Y-99909380D01*
X103655952Y-99957000D01*
X103608333Y-100004619D01*
X103560714Y-100099857D01*
X103513095Y-100290333D01*
X103513095Y-100528428D01*
X103560714Y-100718904D01*
X103608333Y-100814142D01*
X103655952Y-100861761D01*
X103751190Y-100909380D01*
X103846428Y-100909380D01*
X103941666Y-100861761D01*
X103989285Y-100814142D01*
X104036904Y-100718904D01*
X104084523Y-100528428D01*
X104084523Y-100290333D01*
X104036904Y-100099857D01*
X103989285Y-100004619D01*
X103941666Y-99957000D01*
X103846428Y-99909380D01*
X117681333Y-90130380D02*
X117681333Y-90844666D01*
X117728952Y-90987523D01*
X117824190Y-91082761D01*
X117967047Y-91130380D01*
X118062285Y-91130380D01*
X116776571Y-90130380D02*
X116967047Y-90130380D01*
X117062285Y-90178000D01*
X117109904Y-90225619D01*
X117205142Y-90368476D01*
X117252761Y-90558952D01*
X117252761Y-90939904D01*
X117205142Y-91035142D01*
X117157523Y-91082761D01*
X117062285Y-91130380D01*
X116871809Y-91130380D01*
X116776571Y-91082761D01*
X116728952Y-91035142D01*
X116681333Y-90939904D01*
X116681333Y-90701809D01*
X116728952Y-90606571D01*
X116776571Y-90558952D01*
X116871809Y-90511333D01*
X117062285Y-90511333D01*
X117157523Y-90558952D01*
X117205142Y-90606571D01*
X117252761Y-90701809D01*
X43981666Y-95480142D02*
X44029285Y-95527761D01*
X44172142Y-95575380D01*
X44267380Y-95575380D01*
X44410238Y-95527761D01*
X44505476Y-95432523D01*
X44553095Y-95337285D01*
X44600714Y-95146809D01*
X44600714Y-95003952D01*
X44553095Y-94813476D01*
X44505476Y-94718238D01*
X44410238Y-94623000D01*
X44267380Y-94575380D01*
X44172142Y-94575380D01*
X44029285Y-94623000D01*
X43981666Y-94670619D01*
X43648333Y-94575380D02*
X43029285Y-94575380D01*
X43362619Y-94956333D01*
X43219761Y-94956333D01*
X43124523Y-95003952D01*
X43076904Y-95051571D01*
X43029285Y-95146809D01*
X43029285Y-95384904D01*
X43076904Y-95480142D01*
X43124523Y-95527761D01*
X43219761Y-95575380D01*
X43505476Y-95575380D01*
X43600714Y-95527761D01*
X43648333Y-95480142D01*
X77785980Y-79883095D02*
X78595504Y-79883095D01*
X78690742Y-79930714D01*
X78738361Y-79978333D01*
X78785980Y-80073571D01*
X78785980Y-80264047D01*
X78738361Y-80359285D01*
X78690742Y-80406904D01*
X78595504Y-80454523D01*
X77785980Y-80454523D01*
X77881219Y-80883095D02*
X77833600Y-80930714D01*
X77785980Y-81025952D01*
X77785980Y-81264047D01*
X77833600Y-81359285D01*
X77881219Y-81406904D01*
X77976457Y-81454523D01*
X78071695Y-81454523D01*
X78214552Y-81406904D01*
X78785980Y-80835476D01*
X78785980Y-81454523D01*
X79065380Y-112545904D02*
X78065380Y-112545904D01*
X78065380Y-112784000D01*
X78113000Y-112926857D01*
X78208238Y-113022095D01*
X78303476Y-113069714D01*
X78493952Y-113117333D01*
X78636809Y-113117333D01*
X78827285Y-113069714D01*
X78922523Y-113022095D01*
X79017761Y-112926857D01*
X79065380Y-112784000D01*
X79065380Y-112545904D01*
X78398714Y-113974476D02*
X79065380Y-113974476D01*
X78017761Y-113736380D02*
X78732047Y-113498285D01*
X78732047Y-114117333D01*
X68794380Y-97028095D02*
X69603904Y-97028095D01*
X69699142Y-97075714D01*
X69746761Y-97123333D01*
X69794380Y-97218571D01*
X69794380Y-97409047D01*
X69746761Y-97504285D01*
X69699142Y-97551904D01*
X69603904Y-97599523D01*
X68794380Y-97599523D01*
X68794380Y-97980476D02*
X68794380Y-98647142D01*
X69794380Y-98218571D01*
X51493657Y-97816942D02*
X51541276Y-97864561D01*
X51684133Y-97912180D01*
X51779371Y-97912180D01*
X51922228Y-97864561D01*
X52017466Y-97769323D01*
X52065085Y-97674085D01*
X52112704Y-97483609D01*
X52112704Y-97340752D01*
X52065085Y-97150276D01*
X52017466Y-97055038D01*
X51922228Y-96959800D01*
X51779371Y-96912180D01*
X51684133Y-96912180D01*
X51541276Y-96959800D01*
X51493657Y-97007419D01*
X51160323Y-96912180D02*
X50541276Y-96912180D01*
X50874609Y-97293133D01*
X50731752Y-97293133D01*
X50636514Y-97340752D01*
X50588895Y-97388371D01*
X50541276Y-97483609D01*
X50541276Y-97721704D01*
X50588895Y-97816942D01*
X50636514Y-97864561D01*
X50731752Y-97912180D01*
X51017466Y-97912180D01*
X51112704Y-97864561D01*
X51160323Y-97816942D01*
X50160323Y-97007419D02*
X50112704Y-96959800D01*
X50017466Y-96912180D01*
X49779371Y-96912180D01*
X49684133Y-96959800D01*
X49636514Y-97007419D01*
X49588895Y-97102657D01*
X49588895Y-97197895D01*
X49636514Y-97340752D01*
X50207942Y-97912180D01*
X49588895Y-97912180D01*
X105227380Y-109085142D02*
X104751190Y-108751809D01*
X105227380Y-108513714D02*
X104227380Y-108513714D01*
X104227380Y-108894666D01*
X104275000Y-108989904D01*
X104322619Y-109037523D01*
X104417857Y-109085142D01*
X104560714Y-109085142D01*
X104655952Y-109037523D01*
X104703571Y-108989904D01*
X104751190Y-108894666D01*
X104751190Y-108513714D01*
X105227380Y-110037523D02*
X105227380Y-109466095D01*
X105227380Y-109751809D02*
X104227380Y-109751809D01*
X104370238Y-109656571D01*
X104465476Y-109561333D01*
X104513095Y-109466095D01*
X104322619Y-110418476D02*
X104275000Y-110466095D01*
X104227380Y-110561333D01*
X104227380Y-110799428D01*
X104275000Y-110894666D01*
X104322619Y-110942285D01*
X104417857Y-110989904D01*
X104513095Y-110989904D01*
X104655952Y-110942285D01*
X105227380Y-110370857D01*
X105227380Y-110989904D01*
X56046666Y-79630542D02*
X56094285Y-79678161D01*
X56237142Y-79725780D01*
X56332380Y-79725780D01*
X56475238Y-79678161D01*
X56570476Y-79582923D01*
X56618095Y-79487685D01*
X56665714Y-79297209D01*
X56665714Y-79154352D01*
X56618095Y-78963876D01*
X56570476Y-78868638D01*
X56475238Y-78773400D01*
X56332380Y-78725780D01*
X56237142Y-78725780D01*
X56094285Y-78773400D01*
X56046666Y-78821019D01*
X55189523Y-78725780D02*
X55380000Y-78725780D01*
X55475238Y-78773400D01*
X55522857Y-78821019D01*
X55618095Y-78963876D01*
X55665714Y-79154352D01*
X55665714Y-79535304D01*
X55618095Y-79630542D01*
X55570476Y-79678161D01*
X55475238Y-79725780D01*
X55284761Y-79725780D01*
X55189523Y-79678161D01*
X55141904Y-79630542D01*
X55094285Y-79535304D01*
X55094285Y-79297209D01*
X55141904Y-79201971D01*
X55189523Y-79154352D01*
X55284761Y-79106733D01*
X55475238Y-79106733D01*
X55570476Y-79154352D01*
X55618095Y-79201971D01*
X55665714Y-79297209D01*
X57310257Y-97766142D02*
X57357876Y-97813761D01*
X57500733Y-97861380D01*
X57595971Y-97861380D01*
X57738828Y-97813761D01*
X57834066Y-97718523D01*
X57881685Y-97623285D01*
X57929304Y-97432809D01*
X57929304Y-97289952D01*
X57881685Y-97099476D01*
X57834066Y-97004238D01*
X57738828Y-96909000D01*
X57595971Y-96861380D01*
X57500733Y-96861380D01*
X57357876Y-96909000D01*
X57310257Y-96956619D01*
X56976923Y-96861380D02*
X56357876Y-96861380D01*
X56691209Y-97242333D01*
X56548352Y-97242333D01*
X56453114Y-97289952D01*
X56405495Y-97337571D01*
X56357876Y-97432809D01*
X56357876Y-97670904D01*
X56405495Y-97766142D01*
X56453114Y-97813761D01*
X56548352Y-97861380D01*
X56834066Y-97861380D01*
X56929304Y-97813761D01*
X56976923Y-97766142D01*
X55738828Y-96861380D02*
X55643590Y-96861380D01*
X55548352Y-96909000D01*
X55500733Y-96956619D01*
X55453114Y-97051857D01*
X55405495Y-97242333D01*
X55405495Y-97480428D01*
X55453114Y-97670904D01*
X55500733Y-97766142D01*
X55548352Y-97813761D01*
X55643590Y-97861380D01*
X55738828Y-97861380D01*
X55834066Y-97813761D01*
X55881685Y-97766142D01*
X55929304Y-97670904D01*
X55976923Y-97480428D01*
X55976923Y-97242333D01*
X55929304Y-97051857D01*
X55881685Y-96956619D01*
X55834066Y-96909000D01*
X55738828Y-96861380D01*
X80081380Y-120007142D02*
X79605190Y-119673809D01*
X80081380Y-119435714D02*
X79081380Y-119435714D01*
X79081380Y-119816666D01*
X79129000Y-119911904D01*
X79176619Y-119959523D01*
X79271857Y-120007142D01*
X79414714Y-120007142D01*
X79509952Y-119959523D01*
X79557571Y-119911904D01*
X79605190Y-119816666D01*
X79605190Y-119435714D01*
X79176619Y-120388095D02*
X79129000Y-120435714D01*
X79081380Y-120530952D01*
X79081380Y-120769047D01*
X79129000Y-120864285D01*
X79176619Y-120911904D01*
X79271857Y-120959523D01*
X79367095Y-120959523D01*
X79509952Y-120911904D01*
X80081380Y-120340476D01*
X80081380Y-120959523D01*
X80081380Y-121435714D02*
X80081380Y-121626190D01*
X80033761Y-121721428D01*
X79986142Y-121769047D01*
X79843285Y-121864285D01*
X79652809Y-121911904D01*
X79271857Y-121911904D01*
X79176619Y-121864285D01*
X79129000Y-121816666D01*
X79081380Y-121721428D01*
X79081380Y-121530952D01*
X79129000Y-121435714D01*
X79176619Y-121388095D01*
X79271857Y-121340476D01*
X79509952Y-121340476D01*
X79605190Y-121388095D01*
X79652809Y-121435714D01*
X79700428Y-121530952D01*
X79700428Y-121721428D01*
X79652809Y-121816666D01*
X79605190Y-121864285D01*
X79509952Y-121911904D01*
X100629980Y-119727742D02*
X100153790Y-119394409D01*
X100629980Y-119156314D02*
X99629980Y-119156314D01*
X99629980Y-119537266D01*
X99677600Y-119632504D01*
X99725219Y-119680123D01*
X99820457Y-119727742D01*
X99963314Y-119727742D01*
X100058552Y-119680123D01*
X100106171Y-119632504D01*
X100153790Y-119537266D01*
X100153790Y-119156314D01*
X99725219Y-120108695D02*
X99677600Y-120156314D01*
X99629980Y-120251552D01*
X99629980Y-120489647D01*
X99677600Y-120584885D01*
X99725219Y-120632504D01*
X99820457Y-120680123D01*
X99915695Y-120680123D01*
X100058552Y-120632504D01*
X100629980Y-120061076D01*
X100629980Y-120680123D01*
X100058552Y-121251552D02*
X100010933Y-121156314D01*
X99963314Y-121108695D01*
X99868076Y-121061076D01*
X99820457Y-121061076D01*
X99725219Y-121108695D01*
X99677600Y-121156314D01*
X99629980Y-121251552D01*
X99629980Y-121442028D01*
X99677600Y-121537266D01*
X99725219Y-121584885D01*
X99820457Y-121632504D01*
X99868076Y-121632504D01*
X99963314Y-121584885D01*
X100010933Y-121537266D01*
X100058552Y-121442028D01*
X100058552Y-121251552D01*
X100106171Y-121156314D01*
X100153790Y-121108695D01*
X100249028Y-121061076D01*
X100439504Y-121061076D01*
X100534742Y-121108695D01*
X100582361Y-121156314D01*
X100629980Y-121251552D01*
X100629980Y-121442028D01*
X100582361Y-121537266D01*
X100534742Y-121584885D01*
X100439504Y-121632504D01*
X100249028Y-121632504D01*
X100153790Y-121584885D01*
X100106171Y-121537266D01*
X100058552Y-121442028D01*
X106960942Y-82542142D02*
X107008561Y-82494523D01*
X107056180Y-82351666D01*
X107056180Y-82256428D01*
X107008561Y-82113571D01*
X106913323Y-82018333D01*
X106818085Y-81970714D01*
X106627609Y-81923095D01*
X106484752Y-81923095D01*
X106294276Y-81970714D01*
X106199038Y-82018333D01*
X106103800Y-82113571D01*
X106056180Y-82256428D01*
X106056180Y-82351666D01*
X106103800Y-82494523D01*
X106151419Y-82542142D01*
X106151419Y-82923095D02*
X106103800Y-82970714D01*
X106056180Y-83065952D01*
X106056180Y-83304047D01*
X106103800Y-83399285D01*
X106151419Y-83446904D01*
X106246657Y-83494523D01*
X106341895Y-83494523D01*
X106484752Y-83446904D01*
X107056180Y-82875476D01*
X107056180Y-83494523D01*
X106056180Y-84113571D02*
X106056180Y-84208809D01*
X106103800Y-84304047D01*
X106151419Y-84351666D01*
X106246657Y-84399285D01*
X106437133Y-84446904D01*
X106675228Y-84446904D01*
X106865704Y-84399285D01*
X106960942Y-84351666D01*
X107008561Y-84304047D01*
X107056180Y-84208809D01*
X107056180Y-84113571D01*
X107008561Y-84018333D01*
X106960942Y-83970714D01*
X106865704Y-83923095D01*
X106675228Y-83875476D01*
X106437133Y-83875476D01*
X106246657Y-83923095D01*
X106151419Y-83970714D01*
X106103800Y-84018333D01*
X106056180Y-84113571D01*
X43306904Y-85685380D02*
X43306904Y-86494904D01*
X43259285Y-86590142D01*
X43211666Y-86637761D01*
X43116428Y-86685380D01*
X42925952Y-86685380D01*
X42830714Y-86637761D01*
X42783095Y-86590142D01*
X42735476Y-86494904D01*
X42735476Y-85685380D01*
X41735476Y-86685380D02*
X42306904Y-86685380D01*
X42021190Y-86685380D02*
X42021190Y-85685380D01*
X42116428Y-85828238D01*
X42211666Y-85923476D01*
X42306904Y-85971095D01*
X58866019Y-109658161D02*
X58818400Y-109562923D01*
X58723161Y-109467685D01*
X58580304Y-109324828D01*
X58532685Y-109229590D01*
X58532685Y-109134352D01*
X58770780Y-109181971D02*
X58723161Y-109086733D01*
X58627923Y-108991495D01*
X58437447Y-108943876D01*
X58104114Y-108943876D01*
X57913638Y-108991495D01*
X57818400Y-109086733D01*
X57770780Y-109181971D01*
X57770780Y-109372447D01*
X57818400Y-109467685D01*
X57913638Y-109562923D01*
X58104114Y-109610542D01*
X58437447Y-109610542D01*
X58627923Y-109562923D01*
X58723161Y-109467685D01*
X58770780Y-109372447D01*
X58770780Y-109181971D01*
X57770780Y-110467685D02*
X57770780Y-110277209D01*
X57818400Y-110181971D01*
X57866019Y-110134352D01*
X58008876Y-110039114D01*
X58199352Y-109991495D01*
X58580304Y-109991495D01*
X58675542Y-110039114D01*
X58723161Y-110086733D01*
X58770780Y-110181971D01*
X58770780Y-110372447D01*
X58723161Y-110467685D01*
X58675542Y-110515304D01*
X58580304Y-110562923D01*
X58342209Y-110562923D01*
X58246971Y-110515304D01*
X58199352Y-110467685D01*
X58151733Y-110372447D01*
X58151733Y-110181971D01*
X58199352Y-110086733D01*
X58246971Y-110039114D01*
X58342209Y-109991495D01*
X92190866Y-74747380D02*
X92524200Y-74271190D01*
X92762295Y-74747380D02*
X92762295Y-73747380D01*
X92381342Y-73747380D01*
X92286104Y-73795000D01*
X92238485Y-73842619D01*
X92190866Y-73937857D01*
X92190866Y-74080714D01*
X92238485Y-74175952D01*
X92286104Y-74223571D01*
X92381342Y-74271190D01*
X92762295Y-74271190D01*
X91857533Y-73747380D02*
X91190866Y-73747380D01*
X91619438Y-74747380D01*
X66549542Y-77303333D02*
X66597161Y-77255714D01*
X66644780Y-77112857D01*
X66644780Y-77017619D01*
X66597161Y-76874761D01*
X66501923Y-76779523D01*
X66406685Y-76731904D01*
X66216209Y-76684285D01*
X66073352Y-76684285D01*
X65882876Y-76731904D01*
X65787638Y-76779523D01*
X65692400Y-76874761D01*
X65644780Y-77017619D01*
X65644780Y-77112857D01*
X65692400Y-77255714D01*
X65740019Y-77303333D01*
X66073352Y-77874761D02*
X66025733Y-77779523D01*
X65978114Y-77731904D01*
X65882876Y-77684285D01*
X65835257Y-77684285D01*
X65740019Y-77731904D01*
X65692400Y-77779523D01*
X65644780Y-77874761D01*
X65644780Y-78065238D01*
X65692400Y-78160476D01*
X65740019Y-78208095D01*
X65835257Y-78255714D01*
X65882876Y-78255714D01*
X65978114Y-78208095D01*
X66025733Y-78160476D01*
X66073352Y-78065238D01*
X66073352Y-77874761D01*
X66120971Y-77779523D01*
X66168590Y-77731904D01*
X66263828Y-77684285D01*
X66454304Y-77684285D01*
X66549542Y-77731904D01*
X66597161Y-77779523D01*
X66644780Y-77874761D01*
X66644780Y-78065238D01*
X66597161Y-78160476D01*
X66549542Y-78208095D01*
X66454304Y-78255714D01*
X66263828Y-78255714D01*
X66168590Y-78208095D01*
X66120971Y-78160476D01*
X66073352Y-78065238D01*
X61602857Y-82500742D02*
X61650476Y-82548361D01*
X61793333Y-82595980D01*
X61888571Y-82595980D01*
X62031428Y-82548361D01*
X62126666Y-82453123D01*
X62174285Y-82357885D01*
X62221904Y-82167409D01*
X62221904Y-82024552D01*
X62174285Y-81834076D01*
X62126666Y-81738838D01*
X62031428Y-81643600D01*
X61888571Y-81595980D01*
X61793333Y-81595980D01*
X61650476Y-81643600D01*
X61602857Y-81691219D01*
X60698095Y-81595980D02*
X61174285Y-81595980D01*
X61221904Y-82072171D01*
X61174285Y-82024552D01*
X61079047Y-81976933D01*
X60840952Y-81976933D01*
X60745714Y-82024552D01*
X60698095Y-82072171D01*
X60650476Y-82167409D01*
X60650476Y-82405504D01*
X60698095Y-82500742D01*
X60745714Y-82548361D01*
X60840952Y-82595980D01*
X61079047Y-82595980D01*
X61174285Y-82548361D01*
X61221904Y-82500742D01*
X60079047Y-82024552D02*
X60174285Y-81976933D01*
X60221904Y-81929314D01*
X60269523Y-81834076D01*
X60269523Y-81786457D01*
X60221904Y-81691219D01*
X60174285Y-81643600D01*
X60079047Y-81595980D01*
X59888571Y-81595980D01*
X59793333Y-81643600D01*
X59745714Y-81691219D01*
X59698095Y-81786457D01*
X59698095Y-81834076D01*
X59745714Y-81929314D01*
X59793333Y-81976933D01*
X59888571Y-82024552D01*
X60079047Y-82024552D01*
X60174285Y-82072171D01*
X60221904Y-82119790D01*
X60269523Y-82215028D01*
X60269523Y-82405504D01*
X60221904Y-82500742D01*
X60174285Y-82548361D01*
X60079047Y-82595980D01*
X59888571Y-82595980D01*
X59793333Y-82548361D01*
X59745714Y-82500742D01*
X59698095Y-82405504D01*
X59698095Y-82215028D01*
X59745714Y-82119790D01*
X59793333Y-82072171D01*
X59888571Y-82024552D01*
X90812857Y-90958942D02*
X90860476Y-91006561D01*
X91003333Y-91054180D01*
X91098571Y-91054180D01*
X91241428Y-91006561D01*
X91336666Y-90911323D01*
X91384285Y-90816085D01*
X91431904Y-90625609D01*
X91431904Y-90482752D01*
X91384285Y-90292276D01*
X91336666Y-90197038D01*
X91241428Y-90101800D01*
X91098571Y-90054180D01*
X91003333Y-90054180D01*
X90860476Y-90101800D01*
X90812857Y-90149419D01*
X89860476Y-91054180D02*
X90431904Y-91054180D01*
X90146190Y-91054180D02*
X90146190Y-90054180D01*
X90241428Y-90197038D01*
X90336666Y-90292276D01*
X90431904Y-90339895D01*
X89289047Y-90482752D02*
X89384285Y-90435133D01*
X89431904Y-90387514D01*
X89479523Y-90292276D01*
X89479523Y-90244657D01*
X89431904Y-90149419D01*
X89384285Y-90101800D01*
X89289047Y-90054180D01*
X89098571Y-90054180D01*
X89003333Y-90101800D01*
X88955714Y-90149419D01*
X88908095Y-90244657D01*
X88908095Y-90292276D01*
X88955714Y-90387514D01*
X89003333Y-90435133D01*
X89098571Y-90482752D01*
X89289047Y-90482752D01*
X89384285Y-90530371D01*
X89431904Y-90577990D01*
X89479523Y-90673228D01*
X89479523Y-90863704D01*
X89431904Y-90958942D01*
X89384285Y-91006561D01*
X89289047Y-91054180D01*
X89098571Y-91054180D01*
X89003333Y-91006561D01*
X88955714Y-90958942D01*
X88908095Y-90863704D01*
X88908095Y-90673228D01*
X88955714Y-90577990D01*
X89003333Y-90530371D01*
X89098571Y-90482752D01*
X71629542Y-79875142D02*
X71677161Y-79827523D01*
X71724780Y-79684666D01*
X71724780Y-79589428D01*
X71677161Y-79446571D01*
X71581923Y-79351333D01*
X71486685Y-79303714D01*
X71296209Y-79256095D01*
X71153352Y-79256095D01*
X70962876Y-79303714D01*
X70867638Y-79351333D01*
X70772400Y-79446571D01*
X70724780Y-79589428D01*
X70724780Y-79684666D01*
X70772400Y-79827523D01*
X70820019Y-79875142D01*
X71724780Y-80827523D02*
X71724780Y-80256095D01*
X71724780Y-80541809D02*
X70724780Y-80541809D01*
X70867638Y-80446571D01*
X70962876Y-80351333D01*
X71010495Y-80256095D01*
X70820019Y-81208476D02*
X70772400Y-81256095D01*
X70724780Y-81351333D01*
X70724780Y-81589428D01*
X70772400Y-81684666D01*
X70820019Y-81732285D01*
X70915257Y-81779904D01*
X71010495Y-81779904D01*
X71153352Y-81732285D01*
X71724780Y-81160857D01*
X71724780Y-81779904D01*
X58840619Y-115119161D02*
X58793000Y-115023923D01*
X58697761Y-114928685D01*
X58554904Y-114785828D01*
X58507285Y-114690590D01*
X58507285Y-114595352D01*
X58745380Y-114642971D02*
X58697761Y-114547733D01*
X58602523Y-114452495D01*
X58412047Y-114404876D01*
X58078714Y-114404876D01*
X57888238Y-114452495D01*
X57793000Y-114547733D01*
X57745380Y-114642971D01*
X57745380Y-114833447D01*
X57793000Y-114928685D01*
X57888238Y-115023923D01*
X58078714Y-115071542D01*
X58412047Y-115071542D01*
X58602523Y-115023923D01*
X58697761Y-114928685D01*
X58745380Y-114833447D01*
X58745380Y-114642971D01*
X57745380Y-115976304D02*
X57745380Y-115500114D01*
X58221571Y-115452495D01*
X58173952Y-115500114D01*
X58126333Y-115595352D01*
X58126333Y-115833447D01*
X58173952Y-115928685D01*
X58221571Y-115976304D01*
X58316809Y-116023923D01*
X58554904Y-116023923D01*
X58650142Y-115976304D01*
X58697761Y-115928685D01*
X58745380Y-115833447D01*
X58745380Y-115595352D01*
X58697761Y-115500114D01*
X58650142Y-115452495D01*
X98585257Y-75439542D02*
X98632876Y-75487161D01*
X98775733Y-75534780D01*
X98870971Y-75534780D01*
X99013828Y-75487161D01*
X99109066Y-75391923D01*
X99156685Y-75296685D01*
X99204304Y-75106209D01*
X99204304Y-74963352D01*
X99156685Y-74772876D01*
X99109066Y-74677638D01*
X99013828Y-74582400D01*
X98870971Y-74534780D01*
X98775733Y-74534780D01*
X98632876Y-74582400D01*
X98585257Y-74630019D01*
X97680495Y-74534780D02*
X98156685Y-74534780D01*
X98204304Y-75010971D01*
X98156685Y-74963352D01*
X98061447Y-74915733D01*
X97823352Y-74915733D01*
X97728114Y-74963352D01*
X97680495Y-75010971D01*
X97632876Y-75106209D01*
X97632876Y-75344304D01*
X97680495Y-75439542D01*
X97728114Y-75487161D01*
X97823352Y-75534780D01*
X98061447Y-75534780D01*
X98156685Y-75487161D01*
X98204304Y-75439542D01*
X97299542Y-74534780D02*
X96680495Y-74534780D01*
X97013828Y-74915733D01*
X96870971Y-74915733D01*
X96775733Y-74963352D01*
X96728114Y-75010971D01*
X96680495Y-75106209D01*
X96680495Y-75344304D01*
X96728114Y-75439542D01*
X96775733Y-75487161D01*
X96870971Y-75534780D01*
X97156685Y-75534780D01*
X97251923Y-75487161D01*
X97299542Y-75439542D01*
X45950142Y-101719142D02*
X45997761Y-101671523D01*
X46045380Y-101528666D01*
X46045380Y-101433428D01*
X45997761Y-101290571D01*
X45902523Y-101195333D01*
X45807285Y-101147714D01*
X45616809Y-101100095D01*
X45473952Y-101100095D01*
X45283476Y-101147714D01*
X45188238Y-101195333D01*
X45093000Y-101290571D01*
X45045380Y-101433428D01*
X45045380Y-101528666D01*
X45093000Y-101671523D01*
X45140619Y-101719142D01*
X45378714Y-102576285D02*
X46045380Y-102576285D01*
X44997761Y-102338190D02*
X45712047Y-102100095D01*
X45712047Y-102719142D01*
X46045380Y-103623904D02*
X46045380Y-103052476D01*
X46045380Y-103338190D02*
X45045380Y-103338190D01*
X45188238Y-103242952D01*
X45283476Y-103147714D01*
X45331095Y-103052476D01*
X85320142Y-81399142D02*
X85367761Y-81351523D01*
X85415380Y-81208666D01*
X85415380Y-81113428D01*
X85367761Y-80970571D01*
X85272523Y-80875333D01*
X85177285Y-80827714D01*
X84986809Y-80780095D01*
X84843952Y-80780095D01*
X84653476Y-80827714D01*
X84558238Y-80875333D01*
X84463000Y-80970571D01*
X84415380Y-81113428D01*
X84415380Y-81208666D01*
X84463000Y-81351523D01*
X84510619Y-81399142D01*
X85415380Y-82351523D02*
X85415380Y-81780095D01*
X85415380Y-82065809D02*
X84415380Y-82065809D01*
X84558238Y-81970571D01*
X84653476Y-81875333D01*
X84701095Y-81780095D01*
X84415380Y-83208666D02*
X84415380Y-83018190D01*
X84463000Y-82922952D01*
X84510619Y-82875333D01*
X84653476Y-82780095D01*
X84843952Y-82732476D01*
X85224904Y-82732476D01*
X85320142Y-82780095D01*
X85367761Y-82827714D01*
X85415380Y-82922952D01*
X85415380Y-83113428D01*
X85367761Y-83208666D01*
X85320142Y-83256285D01*
X85224904Y-83303904D01*
X84986809Y-83303904D01*
X84891571Y-83256285D01*
X84843952Y-83208666D01*
X84796333Y-83113428D01*
X84796333Y-82922952D01*
X84843952Y-82827714D01*
X84891571Y-82780095D01*
X84986809Y-82732476D01*
X39536666Y-95378542D02*
X39584285Y-95426161D01*
X39727142Y-95473780D01*
X39822380Y-95473780D01*
X39965238Y-95426161D01*
X40060476Y-95330923D01*
X40108095Y-95235685D01*
X40155714Y-95045209D01*
X40155714Y-94902352D01*
X40108095Y-94711876D01*
X40060476Y-94616638D01*
X39965238Y-94521400D01*
X39822380Y-94473780D01*
X39727142Y-94473780D01*
X39584285Y-94521400D01*
X39536666Y-94569019D01*
X38584285Y-95473780D02*
X39155714Y-95473780D01*
X38870000Y-95473780D02*
X38870000Y-94473780D01*
X38965238Y-94616638D01*
X39060476Y-94711876D01*
X39155714Y-94759495D01*
X102280980Y-88098333D02*
X101804790Y-87765000D01*
X102280980Y-87526904D02*
X101280980Y-87526904D01*
X101280980Y-87907857D01*
X101328600Y-88003095D01*
X101376219Y-88050714D01*
X101471457Y-88098333D01*
X101614314Y-88098333D01*
X101709552Y-88050714D01*
X101757171Y-88003095D01*
X101804790Y-87907857D01*
X101804790Y-87526904D01*
X101709552Y-88669761D02*
X101661933Y-88574523D01*
X101614314Y-88526904D01*
X101519076Y-88479285D01*
X101471457Y-88479285D01*
X101376219Y-88526904D01*
X101328600Y-88574523D01*
X101280980Y-88669761D01*
X101280980Y-88860238D01*
X101328600Y-88955476D01*
X101376219Y-89003095D01*
X101471457Y-89050714D01*
X101519076Y-89050714D01*
X101614314Y-89003095D01*
X101661933Y-88955476D01*
X101709552Y-88860238D01*
X101709552Y-88669761D01*
X101757171Y-88574523D01*
X101804790Y-88526904D01*
X101900028Y-88479285D01*
X102090504Y-88479285D01*
X102185742Y-88526904D01*
X102233361Y-88574523D01*
X102280980Y-88669761D01*
X102280980Y-88860238D01*
X102233361Y-88955476D01*
X102185742Y-89003095D01*
X102090504Y-89050714D01*
X101900028Y-89050714D01*
X101804790Y-89003095D01*
X101757171Y-88955476D01*
X101709552Y-88860238D01*
X97408904Y-98131380D02*
X97408904Y-98940904D01*
X97361285Y-99036142D01*
X97313666Y-99083761D01*
X97218428Y-99131380D01*
X97027952Y-99131380D01*
X96932714Y-99083761D01*
X96885095Y-99036142D01*
X96837476Y-98940904D01*
X96837476Y-98131380D01*
X95932714Y-98464714D02*
X95932714Y-99131380D01*
X96170809Y-98083761D02*
X96408904Y-98798047D01*
X95789857Y-98798047D01*
X63888857Y-89580980D02*
X64222190Y-89104790D01*
X64460285Y-89580980D02*
X64460285Y-88580980D01*
X64079333Y-88580980D01*
X63984095Y-88628600D01*
X63936476Y-88676219D01*
X63888857Y-88771457D01*
X63888857Y-88914314D01*
X63936476Y-89009552D01*
X63984095Y-89057171D01*
X64079333Y-89104790D01*
X64460285Y-89104790D01*
X62936476Y-89580980D02*
X63507904Y-89580980D01*
X63222190Y-89580980D02*
X63222190Y-88580980D01*
X63317428Y-88723838D01*
X63412666Y-88819076D01*
X63507904Y-88866695D01*
X62079333Y-88580980D02*
X62269809Y-88580980D01*
X62365047Y-88628600D01*
X62412666Y-88676219D01*
X62507904Y-88819076D01*
X62555523Y-89009552D01*
X62555523Y-89390504D01*
X62507904Y-89485742D01*
X62460285Y-89533361D01*
X62365047Y-89580980D01*
X62174571Y-89580980D01*
X62079333Y-89533361D01*
X62031714Y-89485742D01*
X61984095Y-89390504D01*
X61984095Y-89152409D01*
X62031714Y-89057171D01*
X62079333Y-89009552D01*
X62174571Y-88961933D01*
X62365047Y-88961933D01*
X62460285Y-89009552D01*
X62507904Y-89057171D01*
X62555523Y-89152409D01*
X77971495Y-89063580D02*
X77971495Y-89873104D01*
X77923876Y-89968342D01*
X77876257Y-90015961D01*
X77781019Y-90063580D01*
X77590542Y-90063580D01*
X77495304Y-90015961D01*
X77447685Y-89968342D01*
X77400066Y-89873104D01*
X77400066Y-89063580D01*
X76400066Y-90063580D02*
X76971495Y-90063580D01*
X76685780Y-90063580D02*
X76685780Y-89063580D01*
X76781019Y-89206438D01*
X76876257Y-89301676D01*
X76971495Y-89349295D01*
X75781019Y-89063580D02*
X75685780Y-89063580D01*
X75590542Y-89111200D01*
X75542923Y-89158819D01*
X75495304Y-89254057D01*
X75447685Y-89444533D01*
X75447685Y-89682628D01*
X75495304Y-89873104D01*
X75542923Y-89968342D01*
X75590542Y-90015961D01*
X75685780Y-90063580D01*
X75781019Y-90063580D01*
X75876257Y-90015961D01*
X75923876Y-89968342D01*
X75971495Y-89873104D01*
X76019114Y-89682628D01*
X76019114Y-89444533D01*
X75971495Y-89254057D01*
X75923876Y-89158819D01*
X75876257Y-89111200D01*
X75781019Y-89063580D01*
X52173142Y-85488542D02*
X52220761Y-85440923D01*
X52268380Y-85298066D01*
X52268380Y-85202828D01*
X52220761Y-85059971D01*
X52125523Y-84964733D01*
X52030285Y-84917114D01*
X51839809Y-84869495D01*
X51696952Y-84869495D01*
X51506476Y-84917114D01*
X51411238Y-84964733D01*
X51316000Y-85059971D01*
X51268380Y-85202828D01*
X51268380Y-85298066D01*
X51316000Y-85440923D01*
X51363619Y-85488542D01*
X51268380Y-85821876D02*
X51268380Y-86440923D01*
X51649333Y-86107590D01*
X51649333Y-86250447D01*
X51696952Y-86345685D01*
X51744571Y-86393304D01*
X51839809Y-86440923D01*
X52077904Y-86440923D01*
X52173142Y-86393304D01*
X52220761Y-86345685D01*
X52268380Y-86250447D01*
X52268380Y-85964733D01*
X52220761Y-85869495D01*
X52173142Y-85821876D01*
X51268380Y-86774257D02*
X51268380Y-87393304D01*
X51649333Y-87059971D01*
X51649333Y-87202828D01*
X51696952Y-87298066D01*
X51744571Y-87345685D01*
X51839809Y-87393304D01*
X52077904Y-87393304D01*
X52173142Y-87345685D01*
X52220761Y-87298066D01*
X52268380Y-87202828D01*
X52268380Y-86917114D01*
X52220761Y-86821876D01*
X52173142Y-86774257D01*
X80716380Y-92424642D02*
X80240190Y-92091309D01*
X80716380Y-91853214D02*
X79716380Y-91853214D01*
X79716380Y-92234166D01*
X79764000Y-92329404D01*
X79811619Y-92377023D01*
X79906857Y-92424642D01*
X80049714Y-92424642D01*
X80144952Y-92377023D01*
X80192571Y-92329404D01*
X80240190Y-92234166D01*
X80240190Y-91853214D01*
X80049714Y-93281785D02*
X80716380Y-93281785D01*
X79668761Y-93043690D02*
X80383047Y-92805595D01*
X80383047Y-93424642D01*
X79811619Y-93757976D02*
X79764000Y-93805595D01*
X79716380Y-93900833D01*
X79716380Y-94138928D01*
X79764000Y-94234166D01*
X79811619Y-94281785D01*
X79906857Y-94329404D01*
X80002095Y-94329404D01*
X80144952Y-94281785D01*
X80716380Y-93710357D01*
X80716380Y-94329404D01*
X92201904Y-116800380D02*
X92201904Y-117609904D01*
X92154285Y-117705142D01*
X92106666Y-117752761D01*
X92011428Y-117800380D01*
X91820952Y-117800380D01*
X91725714Y-117752761D01*
X91678095Y-117705142D01*
X91630476Y-117609904D01*
X91630476Y-116800380D01*
X90725714Y-116800380D02*
X90916190Y-116800380D01*
X91011428Y-116848000D01*
X91059047Y-116895619D01*
X91154285Y-117038476D01*
X91201904Y-117228952D01*
X91201904Y-117609904D01*
X91154285Y-117705142D01*
X91106666Y-117752761D01*
X91011428Y-117800380D01*
X90820952Y-117800380D01*
X90725714Y-117752761D01*
X90678095Y-117705142D01*
X90630476Y-117609904D01*
X90630476Y-117371809D01*
X90678095Y-117276571D01*
X90725714Y-117228952D01*
X90820952Y-117181333D01*
X91011428Y-117181333D01*
X91106666Y-117228952D01*
X91154285Y-117276571D01*
X91201904Y-117371809D01*
D11*
X82895000Y-85725000D02*
X82895000Y-85075000D01*
X82895000Y-85725000D02*
X82895000Y-86375000D01*
X86015000Y-85725000D02*
X86015000Y-87400000D01*
X86015000Y-85725000D02*
X86015000Y-85075000D01*
X88236000Y-92380000D02*
X86765000Y-92380000D01*
X84685000Y-91939000D02*
X83360000Y-91939000D01*
X86903000Y-90659000D02*
X84547000Y-90659000D01*
X84685000Y-91779000D02*
X83435000Y-91779000D01*
X87820000Y-91459000D02*
X86765000Y-91459000D01*
X88180000Y-92179000D02*
X86765000Y-92179000D01*
X86736000Y-90579000D02*
X84714000Y-90579000D01*
X87626000Y-91219000D02*
X86765000Y-91219000D01*
X84685000Y-91059000D02*
X83982000Y-91059000D01*
X88301000Y-92820000D02*
X86765000Y-92820000D01*
X88167000Y-92139000D02*
X86765000Y-92139000D01*
X88253000Y-92460000D02*
X86765000Y-92460000D01*
X84685000Y-92139000D02*
X83283000Y-92139000D01*
X84685000Y-91379000D02*
X83690000Y-91379000D01*
X84685000Y-92620000D02*
X83169000Y-92620000D01*
X87510000Y-91099000D02*
X86765000Y-91099000D01*
X87108000Y-90779000D02*
X84342000Y-90779000D01*
X87330000Y-90939000D02*
X84120000Y-90939000D01*
X84685000Y-92580000D02*
X83175000Y-92580000D01*
X88305000Y-92980000D02*
X86765000Y-92980000D01*
X87949000Y-91659000D02*
X86765000Y-91659000D01*
X88073000Y-91899000D02*
X86765000Y-91899000D01*
X87225000Y-90859000D02*
X84225000Y-90859000D01*
X84685000Y-91099000D02*
X83940000Y-91099000D01*
X84685000Y-92540000D02*
X83182000Y-92540000D01*
X84685000Y-92820000D02*
X83149000Y-92820000D01*
X87200000Y-95784775D02*
X87200000Y-95284775D01*
X84685000Y-91659000D02*
X83501000Y-91659000D01*
X86640000Y-90539000D02*
X84810000Y-90539000D01*
X88193000Y-92219000D02*
X86765000Y-92219000D01*
X84685000Y-91819000D02*
X83415000Y-91819000D01*
X88139000Y-92059000D02*
X86765000Y-92059000D01*
X84685000Y-91139000D02*
X83899000Y-91139000D01*
X88298000Y-92780000D02*
X86765000Y-92780000D01*
X88054000Y-91859000D02*
X86765000Y-91859000D01*
X88286000Y-92660000D02*
X86765000Y-92660000D01*
X84685000Y-92980000D02*
X83145000Y-92980000D01*
X86976000Y-90699000D02*
X84474000Y-90699000D01*
X88123000Y-92019000D02*
X86765000Y-92019000D01*
X87925000Y-91619000D02*
X86765000Y-91619000D01*
X84685000Y-92340000D02*
X83224000Y-92340000D01*
X84685000Y-92940000D02*
X83145000Y-92940000D01*
X84685000Y-90979000D02*
X84072000Y-90979000D01*
X87847000Y-91499000D02*
X86765000Y-91499000D01*
X88226000Y-92340000D02*
X86765000Y-92340000D01*
X87168000Y-90819000D02*
X84282000Y-90819000D01*
X87696000Y-91299000D02*
X86765000Y-91299000D01*
X88090000Y-91939000D02*
X86765000Y-91939000D01*
X87662000Y-91259000D02*
X86765000Y-91259000D01*
X84685000Y-91179000D02*
X83861000Y-91179000D01*
X88303000Y-92860000D02*
X86765000Y-92860000D01*
X84685000Y-92300000D02*
X83234000Y-92300000D01*
X84685000Y-91579000D02*
X83550000Y-91579000D01*
X84685000Y-91979000D02*
X83343000Y-91979000D01*
X84685000Y-91219000D02*
X83824000Y-91219000D01*
X88015000Y-91779000D02*
X86765000Y-91779000D01*
X88290000Y-92700000D02*
X86765000Y-92700000D01*
X84685000Y-92700000D02*
X83160000Y-92700000D01*
X88035000Y-91819000D02*
X86765000Y-91819000D01*
X87790000Y-91419000D02*
X86765000Y-91419000D01*
X84685000Y-91019000D02*
X84026000Y-91019000D01*
X87760000Y-91379000D02*
X86765000Y-91379000D01*
X87378000Y-90979000D02*
X86765000Y-90979000D01*
X84685000Y-92460000D02*
X83197000Y-92460000D01*
X84685000Y-92179000D02*
X83270000Y-92179000D01*
X87729000Y-91339000D02*
X86765000Y-91339000D01*
X84685000Y-91699000D02*
X83478000Y-91699000D01*
X84685000Y-91419000D02*
X83660000Y-91419000D01*
X84685000Y-92420000D02*
X83205000Y-92420000D01*
X87044000Y-90739000D02*
X84406000Y-90739000D01*
X88294000Y-92740000D02*
X86765000Y-92740000D01*
X84685000Y-92860000D02*
X83147000Y-92860000D01*
X84685000Y-92660000D02*
X83164000Y-92660000D01*
X84685000Y-91339000D02*
X83721000Y-91339000D01*
X84685000Y-91899000D02*
X83377000Y-91899000D01*
X88153000Y-92099000D02*
X86765000Y-92099000D01*
X88261000Y-92500000D02*
X86765000Y-92500000D01*
X88305000Y-92940000D02*
X86765000Y-92940000D01*
X88304000Y-92900000D02*
X86765000Y-92900000D01*
X84685000Y-92500000D02*
X83189000Y-92500000D01*
X87972000Y-91699000D02*
X86765000Y-91699000D01*
X84685000Y-92900000D02*
X83146000Y-92900000D01*
X87900000Y-91579000D02*
X86765000Y-91579000D01*
X87551000Y-91139000D02*
X86765000Y-91139000D01*
X88275000Y-92580000D02*
X86765000Y-92580000D01*
X84685000Y-92780000D02*
X83152000Y-92780000D01*
X87468000Y-91059000D02*
X86765000Y-91059000D01*
X87589000Y-91179000D02*
X86765000Y-91179000D01*
X84685000Y-92019000D02*
X83327000Y-92019000D01*
X84685000Y-91739000D02*
X83457000Y-91739000D01*
X84685000Y-92059000D02*
X83311000Y-92059000D01*
X84685000Y-92259000D02*
X83245000Y-92259000D01*
X87279000Y-90899000D02*
X84171000Y-90899000D01*
X86823000Y-90619000D02*
X84627000Y-90619000D01*
X84685000Y-92099000D02*
X83297000Y-92099000D01*
X88281000Y-92620000D02*
X86765000Y-92620000D01*
X87874000Y-91539000D02*
X86765000Y-91539000D01*
X84685000Y-91259000D02*
X83788000Y-91259000D01*
X88205000Y-92259000D02*
X86765000Y-92259000D01*
X88216000Y-92300000D02*
X86765000Y-92300000D01*
X87450000Y-95534775D02*
X86950000Y-95534775D01*
X86243000Y-90419000D02*
X85207000Y-90419000D01*
X86530000Y-90499000D02*
X84920000Y-90499000D01*
X86402000Y-90459000D02*
X85048000Y-90459000D01*
X84685000Y-91499000D02*
X83603000Y-91499000D01*
X88107000Y-91979000D02*
X86765000Y-91979000D01*
X84685000Y-91859000D02*
X83396000Y-91859000D01*
X84685000Y-92380000D02*
X83214000Y-92380000D01*
X87993000Y-91739000D02*
X86765000Y-91739000D01*
X87424000Y-91019000D02*
X86765000Y-91019000D01*
X86009000Y-90379000D02*
X85441000Y-90379000D01*
X84685000Y-92740000D02*
X83156000Y-92740000D01*
X84685000Y-91459000D02*
X83630000Y-91459000D01*
X84685000Y-91299000D02*
X83754000Y-91299000D01*
X88268000Y-92540000D02*
X86765000Y-92540000D01*
X88245000Y-92420000D02*
X86765000Y-92420000D01*
X84685000Y-92219000D02*
X83257000Y-92219000D01*
X84685000Y-91539000D02*
X83576000Y-91539000D01*
X84685000Y-91619000D02*
X83525000Y-91619000D01*
X88345000Y-92980000D02*
G75*
G03*
X88345000Y-92980000I-2620000J0D01*
G01*
X93245000Y-98798748D02*
X93245000Y-99321252D01*
X94715000Y-98798748D02*
X94715000Y-99321252D01*
X94207064Y-119915000D02*
X93752936Y-119915000D01*
X94207064Y-121385000D02*
X93752936Y-121385000D01*
X61695000Y-91178748D02*
X61695000Y-91701252D01*
X60225000Y-91178748D02*
X60225000Y-91701252D01*
X106326000Y-105036252D02*
X106326000Y-104513748D01*
X107796000Y-105036252D02*
X107796000Y-104513748D01*
X76300000Y-109627936D02*
X76300000Y-110082064D01*
X74830000Y-109627936D02*
X74830000Y-110082064D01*
X89000000Y-85986252D02*
X89000000Y-85463748D01*
X87530000Y-85986252D02*
X87530000Y-85463748D01*
X65505000Y-110863748D02*
X65505000Y-111386252D01*
X64035000Y-110863748D02*
X64035000Y-111386252D01*
X58647000Y-89508064D02*
X58647000Y-89053936D01*
X57177000Y-89508064D02*
X57177000Y-89053936D01*
X36730000Y-89273748D02*
X36730000Y-89796252D01*
X38200000Y-89273748D02*
X38200000Y-89796252D01*
X65505000Y-114673748D02*
X65505000Y-115196252D01*
X64035000Y-114673748D02*
X64035000Y-115196252D01*
X100843000Y-105724000D02*
X102173000Y-105724000D01*
X99573000Y-103064000D02*
X84273000Y-103064000D01*
X102173000Y-105724000D02*
X102173000Y-104394000D01*
X84273000Y-105724000D02*
X84273000Y-103064000D01*
X99573000Y-105724000D02*
X99573000Y-103064000D01*
X99573000Y-105724000D02*
X84273000Y-105724000D01*
X45185000Y-79001252D02*
X45185000Y-78478748D01*
X43715000Y-79001252D02*
X43715000Y-78478748D01*
X101627000Y-120388748D02*
X101627000Y-120911252D01*
X103097000Y-120388748D02*
X103097000Y-120911252D01*
X66250000Y-88085000D02*
X66250000Y-87855000D01*
X66250000Y-88085000D02*
X68970000Y-88085000D01*
X68970000Y-88085000D02*
X68970000Y-86775000D01*
X66250000Y-83365000D02*
X66250000Y-83595000D01*
X68970000Y-83365000D02*
X66250000Y-83365000D01*
X68970000Y-84675000D02*
X68970000Y-83365000D01*
X65110000Y-87855000D02*
X66250000Y-87855000D01*
X56615000Y-89542252D02*
X56615000Y-89019748D01*
X55145000Y-89542252D02*
X55145000Y-89019748D01*
X73398748Y-74195000D02*
X73921252Y-74195000D01*
X73398748Y-75665000D02*
X73921252Y-75665000D01*
X91540000Y-85952064D02*
X91540000Y-85497936D01*
X90070000Y-85952064D02*
X90070000Y-85497936D01*
X110103900Y-97666000D02*
X110103900Y-96671000D01*
X108662900Y-98207000D02*
X108662900Y-96671000D01*
X109983900Y-97753000D02*
X109983900Y-96671000D01*
X109743900Y-94591000D02*
X109743900Y-93363000D01*
X110183900Y-97602000D02*
X110183900Y-96671000D01*
X109142900Y-94591000D02*
X109142900Y-93130000D01*
X109663900Y-97941000D02*
X109663900Y-96671000D01*
X108822900Y-98192000D02*
X108822900Y-96671000D01*
X109022900Y-94591000D02*
X109022900Y-93103000D01*
X109263900Y-94591000D02*
X109263900Y-93163000D01*
X110223900Y-97568000D02*
X110223900Y-96671000D01*
X110063900Y-97696000D02*
X110063900Y-96671000D01*
X108742900Y-94591000D02*
X108742900Y-93062000D01*
X110903900Y-96642000D02*
X110903900Y-94620000D01*
X111023900Y-96308000D02*
X111023900Y-94954000D01*
X110463900Y-94591000D02*
X110463900Y-93932000D01*
X108942900Y-94591000D02*
X108942900Y-93088000D01*
X109062900Y-98151000D02*
X109062900Y-96671000D01*
X109943900Y-94591000D02*
X109943900Y-93482000D01*
X109102900Y-98142000D02*
X109102900Y-96671000D01*
X109623900Y-97960000D02*
X109623900Y-96671000D01*
X109623900Y-94591000D02*
X109623900Y-93302000D01*
X109303900Y-94591000D02*
X109303900Y-93176000D01*
X109463900Y-94591000D02*
X109463900Y-93233000D01*
X109543900Y-97996000D02*
X109543900Y-96671000D01*
X111103900Y-95915000D02*
X111103900Y-95347000D01*
X110143900Y-94591000D02*
X110143900Y-93627000D01*
X108622900Y-98209000D02*
X108622900Y-96671000D01*
X109303900Y-98086000D02*
X109303900Y-96671000D01*
X110383900Y-97416000D02*
X110383900Y-96671000D01*
X110623900Y-97131000D02*
X110623900Y-94131000D01*
X109943900Y-97780000D02*
X109943900Y-96671000D01*
X110583900Y-97185000D02*
X110583900Y-94077000D01*
X110423900Y-97374000D02*
X110423900Y-96671000D01*
X108862900Y-94591000D02*
X108862900Y-93075000D01*
X110943900Y-96546000D02*
X110943900Y-94716000D01*
X109663900Y-94591000D02*
X109663900Y-93321000D01*
X109823900Y-94591000D02*
X109823900Y-93407000D01*
X110543900Y-97236000D02*
X110543900Y-94026000D01*
X108702900Y-98204000D02*
X108702900Y-96671000D01*
X109863900Y-97831000D02*
X109863900Y-96671000D01*
X109423900Y-94591000D02*
X109423900Y-93217000D01*
X109343900Y-94591000D02*
X109343900Y-93189000D01*
X108782900Y-98196000D02*
X108782900Y-96671000D01*
X110423900Y-94591000D02*
X110423900Y-93888000D01*
X108902900Y-94591000D02*
X108902900Y-93081000D01*
X108502900Y-98211000D02*
X108502900Y-96671000D01*
X108702900Y-94591000D02*
X108702900Y-93058000D01*
X108822900Y-94591000D02*
X108822900Y-93070000D01*
X109903900Y-94591000D02*
X109903900Y-93456000D01*
X108662900Y-94591000D02*
X108662900Y-93055000D01*
X110143900Y-97635000D02*
X110143900Y-96671000D01*
X109783900Y-97878000D02*
X109783900Y-96671000D01*
X110103900Y-94591000D02*
X110103900Y-93596000D01*
X110063900Y-94591000D02*
X110063900Y-93566000D01*
X108902900Y-98181000D02*
X108902900Y-96671000D01*
X110263900Y-94591000D02*
X110263900Y-93730000D01*
X110863900Y-96729000D02*
X110863900Y-94533000D01*
X110343900Y-97457000D02*
X110343900Y-96671000D01*
X110983900Y-96436000D02*
X110983900Y-94826000D01*
X109383900Y-98059000D02*
X109383900Y-96671000D01*
X109863900Y-94591000D02*
X109863900Y-93431000D01*
X108582900Y-94591000D02*
X108582900Y-93052000D01*
X110023900Y-97726000D02*
X110023900Y-96671000D01*
X109182900Y-94591000D02*
X109182900Y-93140000D01*
X108982900Y-98167000D02*
X108982900Y-96671000D01*
X105698125Y-97106000D02*
X106198125Y-97106000D01*
X110023900Y-94591000D02*
X110023900Y-93536000D01*
X108622900Y-94591000D02*
X108622900Y-93053000D01*
X109503900Y-98013000D02*
X109503900Y-96671000D01*
X109022900Y-98159000D02*
X109022900Y-96671000D01*
X110703900Y-97014000D02*
X110703900Y-94248000D01*
X109383900Y-94591000D02*
X109383900Y-93203000D01*
X109463900Y-98029000D02*
X109463900Y-96671000D01*
X109223900Y-94591000D02*
X109223900Y-93151000D01*
X108502900Y-94591000D02*
X108502900Y-93051000D01*
X110263900Y-97532000D02*
X110263900Y-96671000D01*
X108982900Y-94591000D02*
X108982900Y-93095000D01*
X109583900Y-94591000D02*
X109583900Y-93283000D01*
X108542900Y-94591000D02*
X108542900Y-93051000D01*
X110223900Y-94591000D02*
X110223900Y-93694000D01*
X110783900Y-96882000D02*
X110783900Y-94380000D01*
X110303900Y-97495000D02*
X110303900Y-96671000D01*
X109062900Y-94591000D02*
X109062900Y-93111000D01*
X109423900Y-98045000D02*
X109423900Y-96671000D01*
X108862900Y-98187000D02*
X108862900Y-96671000D01*
X109903900Y-97806000D02*
X109903900Y-96671000D01*
X109703900Y-94591000D02*
X109703900Y-93341000D01*
X110183900Y-94591000D02*
X110183900Y-93660000D01*
X109983900Y-94591000D02*
X109983900Y-93509000D01*
X109102900Y-94591000D02*
X109102900Y-93120000D01*
X109503900Y-94591000D02*
X109503900Y-93249000D01*
X109343900Y-98073000D02*
X109343900Y-96671000D01*
X109783900Y-94591000D02*
X109783900Y-93384000D01*
X110663900Y-97074000D02*
X110663900Y-94188000D01*
X110743900Y-96950000D02*
X110743900Y-94312000D01*
X108782900Y-94591000D02*
X108782900Y-93066000D01*
X111063900Y-96149000D02*
X111063900Y-95113000D01*
X110303900Y-94591000D02*
X110303900Y-93767000D01*
X109182900Y-98122000D02*
X109182900Y-96671000D01*
X110383900Y-94591000D02*
X110383900Y-93846000D01*
X110503900Y-94591000D02*
X110503900Y-93978000D01*
X110343900Y-94591000D02*
X110343900Y-93805000D01*
X109743900Y-97899000D02*
X109743900Y-96671000D01*
X108942900Y-98174000D02*
X108942900Y-96671000D01*
X109703900Y-97921000D02*
X109703900Y-96671000D01*
X109823900Y-97855000D02*
X109823900Y-96671000D01*
X108542900Y-98211000D02*
X108542900Y-96671000D01*
X109543900Y-94591000D02*
X109543900Y-93266000D01*
X105948125Y-97356000D02*
X105948125Y-96856000D01*
X110503900Y-97284000D02*
X110503900Y-96671000D01*
X110823900Y-96809000D02*
X110823900Y-94453000D01*
X108742900Y-98200000D02*
X108742900Y-96671000D01*
X109583900Y-97979000D02*
X109583900Y-96671000D01*
X109223900Y-98111000D02*
X109223900Y-96671000D01*
X110463900Y-97330000D02*
X110463900Y-96671000D01*
X108582900Y-98210000D02*
X108582900Y-96671000D01*
X109142900Y-98132000D02*
X109142900Y-96671000D01*
X109263900Y-98099000D02*
X109263900Y-96671000D01*
X111122900Y-95631000D02*
G75*
G03*
X111122900Y-95631000I-2620000J0D01*
G01*
X65305000Y-91178748D02*
X65305000Y-91701252D01*
X66775000Y-91178748D02*
X66775000Y-91701252D01*
X68353000Y-120388748D02*
X68353000Y-120911252D01*
X69823000Y-120388748D02*
X69823000Y-120911252D01*
X80545000Y-85463748D02*
X80545000Y-85986252D01*
X82015000Y-85463748D02*
X82015000Y-85986252D01*
X48487000Y-89542252D02*
X48487000Y-89019748D01*
X47017000Y-89542252D02*
X47017000Y-89019748D01*
X70746252Y-112295000D02*
X70223748Y-112295000D01*
X70746252Y-113765000D02*
X70223748Y-113765000D01*
X112368000Y-103258252D02*
X112368000Y-102735748D01*
X110898000Y-103258252D02*
X110898000Y-102735748D01*
X108739000Y-118591064D02*
X108739000Y-118136936D01*
X110209000Y-118591064D02*
X110209000Y-118136936D01*
X50519000Y-89508064D02*
X50519000Y-89053936D01*
X49049000Y-89508064D02*
X49049000Y-89053936D01*
X73887064Y-119915000D02*
X73432936Y-119915000D01*
X73887064Y-121385000D02*
X73432936Y-121385000D01*
X94842064Y-76100000D02*
X94387936Y-76100000D01*
X94842064Y-77570000D02*
X94387936Y-77570000D01*
X76675000Y-100300000D02*
X76675000Y-102900000D01*
X80275000Y-97900000D02*
X78475000Y-97900000D01*
X82075000Y-100300000D02*
X82675000Y-100300000D01*
X82075000Y-102900000D02*
X82075000Y-100300000D01*
X78475000Y-105300000D02*
X80275000Y-105300000D01*
X80275000Y-96400000D02*
X80275000Y-97900000D01*
X68807064Y-75665000D02*
X68352936Y-75665000D01*
X68807064Y-74195000D02*
X68352936Y-74195000D01*
X67591000Y-91212936D02*
X67591000Y-91667064D01*
X69061000Y-91212936D02*
X69061000Y-91667064D01*
X72163000Y-91178748D02*
X72163000Y-91701252D01*
X73633000Y-91178748D02*
X73633000Y-91701252D01*
X97293000Y-97170000D02*
X97293000Y-95870000D01*
X95493000Y-95620000D02*
X95493000Y-97170000D01*
X74795748Y-86841000D02*
X75318252Y-86841000D01*
X74795748Y-85371000D02*
X75318252Y-85371000D01*
X104272064Y-92800000D02*
X101467936Y-92800000D01*
X104272064Y-90080000D02*
X101467936Y-90080000D01*
X110771000Y-118102748D02*
X110771000Y-118625252D01*
X112241000Y-118102748D02*
X112241000Y-118625252D01*
X77731252Y-74195000D02*
X77208748Y-74195000D01*
X77731252Y-75665000D02*
X77208748Y-75665000D01*
X53113000Y-89542252D02*
X53113000Y-89019748D01*
X54583000Y-89542252D02*
X54583000Y-89019748D01*
X96292936Y-84990000D02*
X96747064Y-84990000D01*
X96292936Y-86460000D02*
X96747064Y-86460000D01*
X94615000Y-78085000D02*
X92665000Y-78085000D01*
X94615000Y-83205000D02*
X96565000Y-83205000D01*
X94615000Y-78085000D02*
X96565000Y-78085000D01*
X94615000Y-83205000D02*
X91165000Y-83205000D01*
X87857064Y-82777000D02*
X87402936Y-82777000D01*
X87857064Y-81307000D02*
X87402936Y-81307000D01*
X58520000Y-102007936D02*
X58520000Y-102462064D01*
X57050000Y-102007936D02*
X57050000Y-102462064D01*
X103912936Y-81380000D02*
X104367064Y-81380000D01*
X103912936Y-79910000D02*
X104367064Y-79910000D01*
X101065000Y-81687936D02*
X101065000Y-82142064D01*
X99595000Y-81687936D02*
X99595000Y-82142064D01*
X74776064Y-115797000D02*
X74321936Y-115797000D01*
X74776064Y-114327000D02*
X74321936Y-114327000D01*
X53035000Y-122450000D02*
X53035000Y-118850000D01*
X57485001Y-120650000D02*
G75*
G03*
X53046522Y-118811522I-2600001J0D01*
G01*
X53046522Y-122488478D02*
G75*
G03*
X57485000Y-120650000I1838478J1838478D01*
G01*
X57790064Y-94070000D02*
X54985936Y-94070000D01*
X57790064Y-91350000D02*
X54985936Y-91350000D01*
X87402936Y-80745000D02*
X87857064Y-80745000D01*
X87402936Y-79275000D02*
X87857064Y-79275000D01*
X116324748Y-93499000D02*
X116847252Y-93499000D01*
X116324748Y-94969000D02*
X116847252Y-94969000D01*
D12*
X123888000Y-97777000D02*
X123888000Y-101577000D01*
X123888000Y-97777000D02*
X122388000Y-97777000D01*
X114388000Y-100987000D02*
X114388000Y-102177000D01*
X122388000Y-97777000D02*
X122388000Y-97177000D01*
X122388000Y-102177000D02*
X122388000Y-101577000D01*
X114388000Y-97177000D02*
X114388000Y-98367000D01*
X114388000Y-102177000D02*
X118518000Y-102177000D01*
X122388000Y-97177000D02*
X121438000Y-97177000D01*
X123888000Y-101577000D02*
X122388000Y-101577000D01*
X121438000Y-102177000D02*
X122388000Y-102177000D01*
X118518000Y-97177000D02*
X114388000Y-97177000D01*
D13*
X111988000Y-99707000D02*
G75*
G03*
X111988000Y-99707000I-200000J0D01*
G01*
D11*
X81053000Y-120388748D02*
X81053000Y-120911252D01*
X82523000Y-120388748D02*
X82523000Y-120911252D01*
X110336000Y-102769936D02*
X110336000Y-103224064D01*
X108866000Y-102769936D02*
X108866000Y-103224064D01*
X123448000Y-108144000D02*
X123448000Y-107644000D01*
X123448000Y-113344000D02*
X125948000Y-113344000D01*
X125948000Y-108144000D02*
X123448000Y-108144000D01*
X119648000Y-113844000D02*
X119648000Y-115844000D01*
X122248000Y-113844000D02*
X122248000Y-115844000D01*
X108748000Y-113844000D02*
X109948000Y-113844000D01*
X108748000Y-107644000D02*
X108748000Y-113844000D01*
X123448000Y-113844000D02*
X123448000Y-113344000D01*
X125948000Y-113344000D02*
X125948000Y-108144000D01*
X117648000Y-107644000D02*
X108748000Y-107644000D01*
X113148000Y-113844000D02*
X119648000Y-113844000D01*
X123448000Y-107644000D02*
X120248000Y-107644000D01*
X122248000Y-113844000D02*
X123448000Y-113844000D01*
X81272748Y-90397000D02*
X81795252Y-90397000D01*
X81272748Y-88927000D02*
X81795252Y-88927000D01*
X51535000Y-79636252D02*
X51535000Y-79113748D01*
X50065000Y-79636252D02*
X50065000Y-79113748D01*
X48355000Y-106840000D02*
X48355000Y-107465000D01*
X48355000Y-104625000D02*
X48355000Y-105250000D01*
X44315000Y-104625000D02*
X44315000Y-105250000D01*
X48355000Y-107465000D02*
X44315000Y-107465000D01*
X44315000Y-106840000D02*
X44315000Y-107465000D01*
X48355000Y-104625000D02*
X44315000Y-104625000D01*
X43312064Y-82460000D02*
X40507936Y-82460000D01*
X43312064Y-85180000D02*
X40507936Y-85180000D01*
X65031252Y-103859000D02*
X64508748Y-103859000D01*
X65031252Y-102389000D02*
X64508748Y-102389000D01*
X44160000Y-97790000D02*
X44160000Y-98440000D01*
X47280000Y-97790000D02*
X47280000Y-97140000D01*
X47280000Y-97790000D02*
X47280000Y-99465000D01*
X44160000Y-97790000D02*
X44160000Y-97140000D01*
X99795000Y-97382064D02*
X99795000Y-96927936D01*
X98325000Y-97382064D02*
X98325000Y-96927936D01*
X79883000Y-109057000D02*
X81558000Y-109057000D01*
X79883000Y-112177000D02*
X79233000Y-112177000D01*
X79883000Y-109057000D02*
X79233000Y-109057000D01*
X79883000Y-112177000D02*
X80533000Y-112177000D01*
X88673000Y-120388748D02*
X88673000Y-120911252D01*
X90143000Y-120388748D02*
X90143000Y-120911252D01*
X71347000Y-91178748D02*
X71347000Y-91701252D01*
X69877000Y-91178748D02*
X69877000Y-91701252D01*
X82288748Y-79275000D02*
X82811252Y-79275000D01*
X82288748Y-80745000D02*
X82811252Y-80745000D01*
X101033948Y-108024600D02*
X101556452Y-108024600D01*
X101033948Y-106554600D02*
X101556452Y-106554600D01*
D14*
X67010000Y-108655000D02*
X67360000Y-108655000D01*
X73335000Y-108655000D02*
X73335000Y-110105000D01*
X73510000Y-104705000D02*
X73960000Y-104705000D01*
X73960000Y-104705000D02*
X73960000Y-105080000D01*
X73960000Y-108030000D02*
X73960000Y-108280000D01*
X73635000Y-108655000D02*
X73335000Y-108655000D01*
X73960000Y-108280000D02*
X73635000Y-108655000D01*
X67010000Y-108305000D02*
X67010000Y-108655000D01*
X67335000Y-104705000D02*
X67010000Y-104705000D01*
X67010000Y-104705000D02*
X67010000Y-105005000D01*
D11*
X43240000Y-98425000D02*
X40580000Y-98425000D01*
X43240000Y-98425000D02*
X43240000Y-111185000D01*
X43240000Y-111185000D02*
X40580000Y-111185000D01*
X40580000Y-98425000D02*
X40580000Y-111185000D01*
X40580000Y-95825000D02*
X40580000Y-97155000D01*
X41910000Y-95825000D02*
X40580000Y-95825000D01*
X110465900Y-78998000D02*
X110465900Y-77748000D01*
X110585900Y-75668000D02*
X110585900Y-74484000D01*
X109784900Y-75668000D02*
X109784900Y-74180000D01*
X111225900Y-78407000D02*
X111225900Y-77748000D01*
X111185900Y-75668000D02*
X111185900Y-74965000D01*
X110985900Y-78645000D02*
X110985900Y-77748000D01*
X110665900Y-75668000D02*
X110665900Y-74533000D01*
X111585900Y-77886000D02*
X111585900Y-75530000D01*
X109304900Y-75668000D02*
X109304900Y-74128000D01*
X109904900Y-79209000D02*
X109904900Y-77748000D01*
X110585900Y-78932000D02*
X110585900Y-77748000D01*
X109664900Y-75668000D02*
X109664900Y-74158000D01*
X110105900Y-79150000D02*
X110105900Y-77748000D01*
X109744900Y-75668000D02*
X109744900Y-74172000D01*
X109864900Y-75668000D02*
X109864900Y-74197000D01*
X110905900Y-78712000D02*
X110905900Y-77748000D01*
X110505900Y-78976000D02*
X110505900Y-77748000D01*
X109584900Y-79269000D02*
X109584900Y-77748000D01*
X110705900Y-78857000D02*
X110705900Y-77748000D01*
X110945900Y-75668000D02*
X110945900Y-74737000D01*
X111785900Y-77385000D02*
X111785900Y-76031000D01*
X110345900Y-79056000D02*
X110345900Y-77748000D01*
X109704900Y-75668000D02*
X109704900Y-74165000D01*
X106710125Y-78433000D02*
X106710125Y-77933000D01*
X109664900Y-79258000D02*
X109664900Y-77748000D01*
X110025900Y-75668000D02*
X110025900Y-74240000D01*
X110745900Y-75668000D02*
X110745900Y-74586000D01*
X110545900Y-75668000D02*
X110545900Y-74461000D01*
X110145900Y-75668000D02*
X110145900Y-74280000D01*
X111745900Y-77513000D02*
X111745900Y-75903000D01*
X109424900Y-79284000D02*
X109424900Y-77748000D01*
X109904900Y-75668000D02*
X109904900Y-74207000D01*
X109344900Y-79287000D02*
X109344900Y-77748000D01*
X110905900Y-75668000D02*
X110905900Y-74704000D01*
X111625900Y-77806000D02*
X111625900Y-75610000D01*
X110545900Y-78955000D02*
X110545900Y-77748000D01*
X110625900Y-75668000D02*
X110625900Y-74508000D01*
X110945900Y-78679000D02*
X110945900Y-77748000D01*
X110345900Y-75668000D02*
X110345900Y-74360000D01*
X109384900Y-79286000D02*
X109384900Y-77748000D01*
X110265900Y-79090000D02*
X110265900Y-77748000D01*
X109264900Y-79288000D02*
X109264900Y-77748000D01*
X111105900Y-78534000D02*
X111105900Y-77748000D01*
X106460125Y-78183000D02*
X106960125Y-78183000D01*
X110825900Y-75668000D02*
X110825900Y-74643000D01*
X109985900Y-79188000D02*
X109985900Y-77748000D01*
X110225900Y-79106000D02*
X110225900Y-77748000D01*
X111385900Y-78208000D02*
X111385900Y-75208000D01*
X111185900Y-78451000D02*
X111185900Y-77748000D01*
X110865900Y-78743000D02*
X110865900Y-77748000D01*
X111025900Y-78609000D02*
X111025900Y-77748000D01*
X109784900Y-79236000D02*
X109784900Y-77748000D01*
X110065900Y-75668000D02*
X110065900Y-74253000D01*
X109864900Y-79219000D02*
X109864900Y-77748000D01*
X110025900Y-79176000D02*
X110025900Y-77748000D01*
X111145900Y-75668000D02*
X111145900Y-74923000D01*
X109624900Y-75668000D02*
X109624900Y-74152000D01*
X110305900Y-75668000D02*
X110305900Y-74343000D01*
X111305900Y-78313000D02*
X111305900Y-75103000D01*
X110665900Y-78883000D02*
X110665900Y-77748000D01*
X110785900Y-75668000D02*
X110785900Y-74613000D01*
X110185900Y-75668000D02*
X110185900Y-74294000D01*
X110505900Y-75668000D02*
X110505900Y-74440000D01*
X111265900Y-78361000D02*
X111265900Y-77748000D01*
X110265900Y-75668000D02*
X110265900Y-74326000D01*
X109824900Y-75668000D02*
X109824900Y-74188000D01*
X109544900Y-75668000D02*
X109544900Y-74143000D01*
X111265900Y-75668000D02*
X111265900Y-75055000D01*
X109264900Y-75668000D02*
X109264900Y-74128000D01*
X109704900Y-79251000D02*
X109704900Y-77748000D01*
X110425900Y-79018000D02*
X110425900Y-77748000D01*
X111025900Y-75668000D02*
X111025900Y-74807000D01*
X111665900Y-77719000D02*
X111665900Y-75697000D01*
X111145900Y-78493000D02*
X111145900Y-77748000D01*
X109344900Y-75668000D02*
X109344900Y-74129000D01*
X111505900Y-78027000D02*
X111505900Y-75389000D01*
X111545900Y-77959000D02*
X111545900Y-75457000D01*
X110225900Y-75668000D02*
X110225900Y-74310000D01*
X111065900Y-75668000D02*
X111065900Y-74844000D01*
X110145900Y-79136000D02*
X110145900Y-77748000D01*
X109824900Y-79228000D02*
X109824900Y-77748000D01*
X111825900Y-77226000D02*
X111825900Y-76190000D01*
X110625900Y-78908000D02*
X110625900Y-77748000D01*
X110705900Y-75668000D02*
X110705900Y-74559000D01*
X111465900Y-78091000D02*
X111465900Y-75325000D01*
X109944900Y-75668000D02*
X109944900Y-74217000D01*
X111425900Y-78151000D02*
X111425900Y-75265000D01*
X109944900Y-79199000D02*
X109944900Y-77748000D01*
X109544900Y-79273000D02*
X109544900Y-77748000D01*
X111865900Y-76992000D02*
X111865900Y-76424000D01*
X109624900Y-79264000D02*
X109624900Y-77748000D01*
X109504900Y-79277000D02*
X109504900Y-77748000D01*
X110745900Y-78830000D02*
X110745900Y-77748000D01*
X111705900Y-77623000D02*
X111705900Y-75793000D01*
X110785900Y-78803000D02*
X110785900Y-77748000D01*
X110865900Y-75668000D02*
X110865900Y-74673000D01*
X109384900Y-75668000D02*
X109384900Y-74130000D01*
X111105900Y-75668000D02*
X111105900Y-74882000D01*
X110065900Y-79163000D02*
X110065900Y-77748000D01*
X109504900Y-75668000D02*
X109504900Y-74139000D01*
X110985900Y-75668000D02*
X110985900Y-74771000D01*
X109985900Y-75668000D02*
X109985900Y-74228000D01*
X111065900Y-78572000D02*
X111065900Y-77748000D01*
X109424900Y-75668000D02*
X109424900Y-74132000D01*
X109304900Y-79288000D02*
X109304900Y-77748000D01*
X110425900Y-75668000D02*
X110425900Y-74398000D01*
X109464900Y-75668000D02*
X109464900Y-74135000D01*
X110305900Y-79073000D02*
X110305900Y-77748000D01*
X110385900Y-75668000D02*
X110385900Y-74379000D01*
X110385900Y-79037000D02*
X110385900Y-77748000D01*
X110105900Y-75668000D02*
X110105900Y-74266000D01*
X111225900Y-75668000D02*
X111225900Y-75009000D01*
X109584900Y-75668000D02*
X109584900Y-74147000D01*
X110185900Y-79122000D02*
X110185900Y-77748000D01*
X109464900Y-79281000D02*
X109464900Y-77748000D01*
X111345900Y-78262000D02*
X111345900Y-75154000D01*
X110825900Y-78773000D02*
X110825900Y-77748000D01*
X109744900Y-79244000D02*
X109744900Y-77748000D01*
X110465900Y-75668000D02*
X110465900Y-74418000D01*
X111884900Y-76708000D02*
G75*
G03*
X111884900Y-76708000I-2620000J0D01*
G01*
X70257936Y-114327000D02*
X70712064Y-114327000D01*
X70257936Y-115797000D02*
X70712064Y-115797000D01*
X88521000Y-77819000D02*
X86771000Y-78569000D01*
X86771000Y-73069000D02*
X88521000Y-73819000D01*
X88511148Y-75169000D02*
X88521000Y-73819000D01*
X88511148Y-76469000D02*
X88521000Y-77819000D01*
X86771000Y-73069000D02*
G75*
G03*
X82521000Y-75119000I-1296522J-2742576D01*
G01*
X82520999Y-76519000D02*
G75*
G03*
X86771000Y-78569000I2953490J692600D01*
G01*
X51186064Y-94070000D02*
X48381936Y-94070000D01*
X51186064Y-91350000D02*
X48381936Y-91350000D01*
X82704000Y-110717064D02*
X82704000Y-110262936D01*
X84174000Y-110717064D02*
X84174000Y-110262936D01*
X73560000Y-98051252D02*
X73560000Y-97528748D01*
X75030000Y-98051252D02*
X75030000Y-97528748D01*
X104401252Y-86460000D02*
X103878748Y-86460000D01*
X104401252Y-84990000D02*
X103878748Y-84990000D01*
X66575000Y-80256748D02*
X66575000Y-80779252D01*
X68045000Y-80256748D02*
X68045000Y-80779252D01*
X61534000Y-118361000D02*
X61534000Y-119356000D01*
X62014000Y-121436000D02*
X62014000Y-122725000D01*
X62254000Y-117968000D02*
X62254000Y-119356000D01*
X63135000Y-117816000D02*
X63135000Y-119356000D01*
X62334000Y-117941000D02*
X62334000Y-119356000D01*
X62815000Y-121436000D02*
X62815000Y-122957000D01*
X61934000Y-121436000D02*
X61934000Y-122686000D01*
X60654000Y-119591000D02*
X60654000Y-121201000D01*
X65689775Y-118671000D02*
X65689775Y-119171000D01*
X61534000Y-121436000D02*
X61534000Y-122431000D01*
X61454000Y-121436000D02*
X61454000Y-122367000D01*
X61454000Y-118425000D02*
X61454000Y-119356000D01*
X60614000Y-119719000D02*
X60614000Y-121073000D01*
X62374000Y-121436000D02*
X62374000Y-122864000D01*
X60694000Y-119481000D02*
X60694000Y-121311000D01*
X61294000Y-121436000D02*
X61294000Y-122222000D01*
X61214000Y-121436000D02*
X61214000Y-122139000D01*
X61494000Y-118392000D02*
X61494000Y-119356000D01*
X61134000Y-118743000D02*
X61134000Y-119356000D01*
X61414000Y-118459000D02*
X61414000Y-119356000D01*
X62615000Y-117868000D02*
X62615000Y-119356000D01*
X61894000Y-118128000D02*
X61894000Y-119356000D01*
X65939775Y-118921000D02*
X65439775Y-118921000D01*
X60974000Y-118953000D02*
X60974000Y-121839000D01*
X60774000Y-119298000D02*
X60774000Y-121494000D01*
X62655000Y-117860000D02*
X62655000Y-119356000D01*
X62294000Y-117954000D02*
X62294000Y-119356000D01*
X62655000Y-121436000D02*
X62655000Y-122932000D01*
X62735000Y-117846000D02*
X62735000Y-119356000D01*
X62174000Y-117998000D02*
X62174000Y-119356000D01*
X62294000Y-121436000D02*
X62294000Y-122838000D01*
X62054000Y-118048000D02*
X62054000Y-119356000D01*
X60854000Y-119145000D02*
X60854000Y-121647000D01*
X63055000Y-121436000D02*
X63055000Y-122975000D01*
X62414000Y-121436000D02*
X62414000Y-122876000D01*
X62975000Y-121436000D02*
X62975000Y-122972000D01*
X61214000Y-118653000D02*
X61214000Y-119356000D01*
X61494000Y-121436000D02*
X61494000Y-122400000D01*
X62695000Y-117853000D02*
X62695000Y-119356000D01*
X62615000Y-121436000D02*
X62615000Y-122924000D01*
X61654000Y-121436000D02*
X61654000Y-122518000D01*
X62414000Y-117916000D02*
X62414000Y-119356000D01*
X62855000Y-117831000D02*
X62855000Y-119356000D01*
X61934000Y-118106000D02*
X61934000Y-119356000D01*
X61814000Y-118172000D02*
X61814000Y-119356000D01*
X61414000Y-121436000D02*
X61414000Y-122333000D01*
X61294000Y-118570000D02*
X61294000Y-119356000D01*
X61574000Y-118331000D02*
X61574000Y-119356000D01*
X61974000Y-118086000D02*
X61974000Y-119356000D01*
X62775000Y-117840000D02*
X62775000Y-119356000D01*
X62254000Y-121436000D02*
X62254000Y-122824000D01*
X62495000Y-121436000D02*
X62495000Y-122897000D01*
X62094000Y-121436000D02*
X62094000Y-122761000D01*
X61334000Y-121436000D02*
X61334000Y-122260000D01*
X60934000Y-119013000D02*
X60934000Y-121779000D01*
X61574000Y-121436000D02*
X61574000Y-122461000D01*
X62174000Y-121436000D02*
X62174000Y-122794000D01*
X62455000Y-121436000D02*
X62455000Y-122887000D01*
X63015000Y-117818000D02*
X63015000Y-119356000D01*
X61774000Y-121436000D02*
X61774000Y-122596000D01*
X61134000Y-121436000D02*
X61134000Y-122049000D01*
X60814000Y-119218000D02*
X60814000Y-121574000D01*
X61094000Y-118791000D02*
X61094000Y-122001000D01*
X61894000Y-121436000D02*
X61894000Y-122664000D01*
X61374000Y-121436000D02*
X61374000Y-122297000D01*
X62334000Y-121436000D02*
X62334000Y-122851000D01*
X61734000Y-121436000D02*
X61734000Y-122571000D01*
X61654000Y-118274000D02*
X61654000Y-119356000D01*
X61254000Y-118611000D02*
X61254000Y-119356000D01*
X62374000Y-117928000D02*
X62374000Y-119356000D01*
X62535000Y-121436000D02*
X62535000Y-122907000D01*
X60534000Y-120112000D02*
X60534000Y-120680000D01*
X62455000Y-117905000D02*
X62455000Y-119356000D01*
X61734000Y-118221000D02*
X61734000Y-119356000D01*
X62935000Y-117823000D02*
X62935000Y-119356000D01*
X60894000Y-119077000D02*
X60894000Y-121715000D01*
X61014000Y-118896000D02*
X61014000Y-121896000D01*
X61974000Y-121436000D02*
X61974000Y-122706000D01*
X62014000Y-118067000D02*
X62014000Y-119356000D01*
X61854000Y-121436000D02*
X61854000Y-122643000D01*
X62975000Y-117820000D02*
X62975000Y-119356000D01*
X62855000Y-121436000D02*
X62855000Y-122961000D01*
X62214000Y-121436000D02*
X62214000Y-122810000D01*
X61774000Y-118196000D02*
X61774000Y-119356000D01*
X62815000Y-117835000D02*
X62815000Y-119356000D01*
X63135000Y-121436000D02*
X63135000Y-122976000D01*
X62575000Y-117876000D02*
X62575000Y-119356000D01*
X62935000Y-121436000D02*
X62935000Y-122969000D01*
X63015000Y-121436000D02*
X63015000Y-122974000D01*
X60574000Y-119878000D02*
X60574000Y-120914000D01*
X62775000Y-121436000D02*
X62775000Y-122952000D01*
X63095000Y-117816000D02*
X63095000Y-119356000D01*
X62695000Y-121436000D02*
X62695000Y-122939000D01*
X62134000Y-121436000D02*
X62134000Y-122778000D01*
X62214000Y-117982000D02*
X62214000Y-119356000D01*
X61614000Y-118301000D02*
X61614000Y-119356000D01*
X61814000Y-121436000D02*
X61814000Y-122620000D01*
X62575000Y-121436000D02*
X62575000Y-122916000D01*
X62134000Y-118014000D02*
X62134000Y-119356000D01*
X61174000Y-118697000D02*
X61174000Y-119356000D01*
X61694000Y-118247000D02*
X61694000Y-119356000D01*
X62895000Y-121436000D02*
X62895000Y-122965000D01*
X61374000Y-118495000D02*
X61374000Y-119356000D01*
X62735000Y-121436000D02*
X62735000Y-122946000D01*
X61854000Y-118149000D02*
X61854000Y-119356000D01*
X61054000Y-118842000D02*
X61054000Y-121950000D01*
X61614000Y-121436000D02*
X61614000Y-122491000D01*
X63095000Y-121436000D02*
X63095000Y-122976000D01*
X61694000Y-121436000D02*
X61694000Y-122545000D01*
X60734000Y-119385000D02*
X60734000Y-121407000D01*
X62895000Y-117827000D02*
X62895000Y-119356000D01*
X61174000Y-121436000D02*
X61174000Y-122095000D01*
X63055000Y-117817000D02*
X63055000Y-119356000D01*
X62535000Y-117885000D02*
X62535000Y-119356000D01*
X62495000Y-117895000D02*
X62495000Y-119356000D01*
X61254000Y-121436000D02*
X61254000Y-122181000D01*
X61334000Y-118532000D02*
X61334000Y-119356000D01*
X62094000Y-118031000D02*
X62094000Y-119356000D01*
X62054000Y-121436000D02*
X62054000Y-122744000D01*
X65755000Y-120396000D02*
G75*
G03*
X65755000Y-120396000I-2620000J0D01*
G01*
X60225000Y-79636252D02*
X60225000Y-79113748D01*
X61695000Y-79636252D02*
X61695000Y-79113748D01*
D10*
X55980000Y-99460000D02*
X55980000Y-105010000D01*
X49430000Y-105010000D02*
X50330000Y-105010000D01*
X49430000Y-99460000D02*
X50230000Y-99460000D01*
X50230000Y-99460000D02*
X50230000Y-98185000D01*
X55980000Y-105010000D02*
X55080000Y-105010000D01*
X55980000Y-99460000D02*
X55080000Y-99460000D01*
X49430000Y-99460000D02*
X49430000Y-105010000D01*
D11*
X105510000Y-102608748D02*
X105510000Y-103131252D01*
X104040000Y-102608748D02*
X104040000Y-103131252D01*
X108748000Y-83768000D02*
X108748000Y-89968000D01*
X122248000Y-89968000D02*
X123448000Y-89968000D01*
X123448000Y-83768000D02*
X120248000Y-83768000D01*
X113148000Y-89968000D02*
X119648000Y-89968000D01*
X123448000Y-89968000D02*
X123448000Y-89468000D01*
X125948000Y-84268000D02*
X123448000Y-84268000D01*
X122248000Y-89968000D02*
X122248000Y-91968000D01*
X123448000Y-89468000D02*
X125948000Y-89468000D01*
X125948000Y-89468000D02*
X125948000Y-84268000D01*
X108748000Y-89968000D02*
X109948000Y-89968000D01*
X123448000Y-84268000D02*
X123448000Y-83768000D01*
X117648000Y-83768000D02*
X108748000Y-83768000D01*
X119648000Y-89968000D02*
X119648000Y-91968000D01*
X44076252Y-92610000D02*
X43553748Y-92610000D01*
X44076252Y-94080000D02*
X43553748Y-94080000D01*
D10*
X77505000Y-78570000D02*
X77505000Y-82720000D01*
X72355000Y-78570000D02*
X72355000Y-82720000D01*
X77505000Y-82720000D02*
X77360000Y-82720000D01*
X72355000Y-78570000D02*
X72405000Y-78570000D01*
X77505000Y-78570000D02*
X77360000Y-78570000D01*
X72355000Y-82720000D02*
X72500000Y-82720000D01*
X72405000Y-78570000D02*
X72405000Y-77170000D01*
D11*
X73315000Y-113903000D02*
X73315000Y-111903000D01*
X73315000Y-113903000D02*
X77215000Y-113903000D01*
X73315000Y-111903000D02*
X77215000Y-111903000D01*
X64770000Y-101175000D02*
X66970000Y-101175000D01*
X64770000Y-94405000D02*
X68370000Y-94405000D01*
X64770000Y-94405000D02*
X62570000Y-94405000D01*
X64770000Y-101175000D02*
X62570000Y-101175000D01*
X51061252Y-96620000D02*
X50538748Y-96620000D01*
X51061252Y-95150000D02*
X50538748Y-95150000D01*
X105510000Y-106907064D02*
X105510000Y-106452936D01*
X104040000Y-106907064D02*
X104040000Y-106452936D01*
X56615000Y-76573748D02*
X56615000Y-77096252D01*
X55145000Y-76573748D02*
X55145000Y-77096252D01*
X56776252Y-95150000D02*
X56253748Y-95150000D01*
X56776252Y-96620000D02*
X56253748Y-96620000D01*
X76988936Y-121385000D02*
X77443064Y-121385000D01*
X76988936Y-119915000D02*
X77443064Y-119915000D01*
X97562936Y-119915000D02*
X98017064Y-119915000D01*
X97562936Y-121385000D02*
X98017064Y-121385000D01*
X104401252Y-83920000D02*
X103878748Y-83920000D01*
X104401252Y-82450000D02*
X103878748Y-82450000D01*
D10*
X40470000Y-86960000D02*
X40470000Y-87105000D01*
X44620000Y-86960000D02*
X44620000Y-87105000D01*
X40470000Y-92060000D02*
X39070000Y-92060000D01*
X40470000Y-92110000D02*
X44620000Y-92110000D01*
X40470000Y-92110000D02*
X40470000Y-92060000D01*
X40470000Y-86960000D02*
X44620000Y-86960000D01*
X44620000Y-92110000D02*
X44620000Y-91965000D01*
D11*
X53014000Y-111528000D02*
X53014000Y-107928000D01*
X57464001Y-109728000D02*
G75*
G03*
X53025522Y-107889522I-2600001J0D01*
G01*
X53025522Y-111566478D02*
G75*
G03*
X57464000Y-109728000I1838478J1838478D01*
G01*
X94387936Y-73560000D02*
X94842064Y-73560000D01*
X94387936Y-75030000D02*
X94842064Y-75030000D01*
X68841252Y-78205000D02*
X68318748Y-78205000D01*
X68841252Y-76735000D02*
X68318748Y-76735000D01*
X59862000Y-87876888D02*
X62058000Y-87876888D01*
X58811000Y-86956888D02*
X59920000Y-86956888D01*
X58449000Y-86115888D02*
X59920000Y-86115888D01*
X59134000Y-87356888D02*
X59920000Y-87356888D01*
X62000000Y-86796888D02*
X63207000Y-86796888D01*
X59949000Y-87916888D02*
X61971000Y-87916888D01*
X62000000Y-85915888D02*
X63510000Y-85915888D01*
X62000000Y-85515888D02*
X63540000Y-85515888D01*
X58895000Y-87076888D02*
X59920000Y-87076888D01*
X58956000Y-87156888D02*
X59920000Y-87156888D01*
X58384000Y-85675888D02*
X59920000Y-85675888D01*
X58925000Y-87116888D02*
X59920000Y-87116888D01*
X62000000Y-85555888D02*
X63540000Y-85555888D01*
X62000000Y-86676888D02*
X63270000Y-86676888D01*
X62000000Y-86195888D02*
X63451000Y-86195888D01*
X59460000Y-87636888D02*
X62460000Y-87636888D01*
X62000000Y-87076888D02*
X63025000Y-87076888D01*
X58532000Y-86396888D02*
X59920000Y-86396888D01*
X58631000Y-86636888D02*
X59920000Y-86636888D01*
X62000000Y-86996888D02*
X63082000Y-86996888D01*
X59641000Y-87756888D02*
X62279000Y-87756888D01*
X62000000Y-86356888D02*
X63402000Y-86356888D01*
X62000000Y-86115888D02*
X63471000Y-86115888D01*
X59023000Y-87236888D02*
X59920000Y-87236888D01*
X59175000Y-87396888D02*
X59920000Y-87396888D01*
X62000000Y-86316888D02*
X63415000Y-86316888D01*
X62000000Y-85595888D02*
X63539000Y-85595888D01*
X60155000Y-87996888D02*
X61765000Y-87996888D01*
X58380000Y-85555888D02*
X59920000Y-85555888D01*
X58399000Y-85835888D02*
X59920000Y-85835888D01*
X59709000Y-87796888D02*
X62211000Y-87796888D01*
X58785000Y-86916888D02*
X59920000Y-86916888D01*
X59235000Y-82961113D02*
X59735000Y-82961113D01*
X58760000Y-86876888D02*
X59920000Y-86876888D01*
X59307000Y-87516888D02*
X59920000Y-87516888D01*
X62000000Y-87236888D02*
X62897000Y-87236888D01*
X62000000Y-86756888D02*
X63228000Y-86756888D01*
X62000000Y-86155888D02*
X63461000Y-86155888D01*
X59577000Y-87716888D02*
X62343000Y-87716888D01*
X59059000Y-87276888D02*
X59920000Y-87276888D01*
X58692000Y-86756888D02*
X59920000Y-86756888D01*
X62000000Y-85955888D02*
X63503000Y-85955888D01*
X58382000Y-85635888D02*
X59920000Y-85635888D01*
X60442000Y-88076888D02*
X61478000Y-88076888D01*
X62000000Y-87356888D02*
X62786000Y-87356888D01*
X58518000Y-86356888D02*
X59920000Y-86356888D01*
X62000000Y-87156888D02*
X62964000Y-87156888D01*
X60283000Y-88036888D02*
X61637000Y-88036888D01*
X58505000Y-86316888D02*
X59920000Y-86316888D01*
X59406000Y-87596888D02*
X62514000Y-87596888D01*
X58387000Y-85715888D02*
X59920000Y-85715888D01*
X58612000Y-86596888D02*
X59920000Y-86596888D01*
X62000000Y-87116888D02*
X62995000Y-87116888D01*
X58650000Y-86676888D02*
X59920000Y-86676888D01*
X62000000Y-87516888D02*
X62613000Y-87516888D01*
X62000000Y-85675888D02*
X63536000Y-85675888D01*
X58578000Y-86516888D02*
X59920000Y-86516888D01*
X58989000Y-87196888D02*
X59920000Y-87196888D01*
X62000000Y-86556888D02*
X63325000Y-86556888D01*
X62000000Y-86636888D02*
X63289000Y-86636888D01*
X58736000Y-86836888D02*
X59920000Y-86836888D01*
X62000000Y-86075888D02*
X63480000Y-86075888D01*
X58410000Y-85915888D02*
X59920000Y-85915888D01*
X62000000Y-86596888D02*
X63308000Y-86596888D01*
X62000000Y-86876888D02*
X63160000Y-86876888D01*
X58546000Y-86436888D02*
X59920000Y-86436888D01*
X58381000Y-85595888D02*
X59920000Y-85595888D01*
X58380000Y-85515888D02*
X59920000Y-85515888D01*
X60676000Y-88116888D02*
X61244000Y-88116888D01*
X58562000Y-86476888D02*
X59920000Y-86476888D01*
X59355000Y-87556888D02*
X62565000Y-87556888D01*
X62000000Y-87436888D02*
X62703000Y-87436888D01*
X58432000Y-86035888D02*
X59920000Y-86035888D01*
X62000000Y-86035888D02*
X63488000Y-86035888D01*
X58670000Y-86716888D02*
X59920000Y-86716888D01*
X58395000Y-85795888D02*
X59920000Y-85795888D01*
X62000000Y-86716888D02*
X63250000Y-86716888D01*
X58838000Y-86996888D02*
X59920000Y-86996888D01*
X62000000Y-86836888D02*
X63184000Y-86836888D01*
X59217000Y-87436888D02*
X59920000Y-87436888D01*
X59261000Y-87476888D02*
X59920000Y-87476888D01*
X62000000Y-87036888D02*
X63055000Y-87036888D01*
X62000000Y-86236888D02*
X63440000Y-86236888D01*
X59782000Y-87836888D02*
X62138000Y-87836888D01*
X62000000Y-87196888D02*
X62931000Y-87196888D01*
X62000000Y-86276888D02*
X63428000Y-86276888D01*
X62000000Y-86396888D02*
X63388000Y-86396888D01*
X58391000Y-85755888D02*
X59920000Y-85755888D01*
X62000000Y-87276888D02*
X62861000Y-87276888D01*
X58459000Y-86155888D02*
X59920000Y-86155888D01*
X62000000Y-86476888D02*
X63358000Y-86476888D01*
X58865000Y-87036888D02*
X59920000Y-87036888D01*
X58713000Y-86796888D02*
X59920000Y-86796888D01*
X62000000Y-86956888D02*
X63109000Y-86956888D01*
X62000000Y-85795888D02*
X63525000Y-85795888D01*
X62000000Y-85635888D02*
X63538000Y-85635888D01*
X58404000Y-85875888D02*
X59920000Y-85875888D01*
X62000000Y-87476888D02*
X62659000Y-87476888D01*
X58417000Y-85955888D02*
X59920000Y-85955888D01*
X59485000Y-82711113D02*
X59485000Y-83211113D01*
X58492000Y-86276888D02*
X59920000Y-86276888D01*
X59096000Y-87316888D02*
X59920000Y-87316888D01*
X59517000Y-87676888D02*
X62403000Y-87676888D01*
X60045000Y-87956888D02*
X61875000Y-87956888D01*
X62000000Y-86436888D02*
X63374000Y-86436888D01*
X62000000Y-85835888D02*
X63521000Y-85835888D01*
X58595000Y-86556888D02*
X59920000Y-86556888D01*
X58440000Y-86075888D02*
X59920000Y-86075888D01*
X62000000Y-85875888D02*
X63516000Y-85875888D01*
X62000000Y-85755888D02*
X63529000Y-85755888D01*
X62000000Y-86916888D02*
X63135000Y-86916888D01*
X58480000Y-86236888D02*
X59920000Y-86236888D01*
X62000000Y-85715888D02*
X63533000Y-85715888D01*
X58469000Y-86195888D02*
X59920000Y-86195888D01*
X62000000Y-87396888D02*
X62745000Y-87396888D01*
X62000000Y-85995888D02*
X63496000Y-85995888D01*
X62000000Y-87316888D02*
X62824000Y-87316888D01*
X58424000Y-85995888D02*
X59920000Y-85995888D01*
X62000000Y-86516888D02*
X63342000Y-86516888D01*
X63580000Y-85515888D02*
G75*
G03*
X63580000Y-85515888I-2620000J0D01*
G01*
X89908748Y-88165000D02*
X90431252Y-88165000D01*
X89908748Y-89635000D02*
X90431252Y-89635000D01*
X68861000Y-80256748D02*
X68861000Y-80779252D01*
X70331000Y-80256748D02*
X70331000Y-80779252D01*
X53035000Y-116989000D02*
X53035000Y-113389000D01*
X53046522Y-117027478D02*
G75*
G03*
X57485000Y-115189000I1838478J1838478D01*
G01*
X57485001Y-115189000D02*
G75*
G03*
X53046522Y-113350522I-2600001J0D01*
G01*
X102605900Y-75795000D02*
X102605900Y-74437000D01*
X102725900Y-79183000D02*
X102725900Y-77875000D01*
X102925900Y-75795000D02*
X102925900Y-74588000D01*
X102805900Y-79145000D02*
X102805900Y-77875000D01*
X104205900Y-77353000D02*
X104205900Y-76317000D01*
X102685900Y-79200000D02*
X102685900Y-77875000D01*
X101684900Y-75795000D02*
X101684900Y-74255000D01*
X103205900Y-78900000D02*
X103205900Y-77875000D01*
X101804900Y-79411000D02*
X101804900Y-77875000D01*
X102244900Y-75795000D02*
X102244900Y-74324000D01*
X102084900Y-75795000D02*
X102084900Y-74292000D01*
X103605900Y-75795000D02*
X103605900Y-75136000D01*
X101644900Y-79415000D02*
X101644900Y-77875000D01*
X101844900Y-75795000D02*
X101844900Y-74262000D01*
X103045900Y-79010000D02*
X103045900Y-77875000D01*
X102204900Y-79355000D02*
X102204900Y-77875000D01*
X103325900Y-75795000D02*
X103325900Y-74864000D01*
X103965900Y-78013000D02*
X103965900Y-75657000D01*
X98840125Y-78310000D02*
X99340125Y-78310000D01*
X103565900Y-75795000D02*
X103565900Y-75092000D01*
X102805900Y-75795000D02*
X102805900Y-74525000D01*
X103125900Y-75795000D02*
X103125900Y-74713000D01*
X101844900Y-79408000D02*
X101844900Y-77875000D01*
X103645900Y-75795000D02*
X103645900Y-75182000D01*
X103245900Y-75795000D02*
X103245900Y-74800000D01*
X103285900Y-75795000D02*
X103285900Y-74831000D01*
X103525900Y-78620000D02*
X103525900Y-77875000D01*
X101764900Y-75795000D02*
X101764900Y-74257000D01*
X104045900Y-77846000D02*
X104045900Y-75824000D01*
X102405900Y-75795000D02*
X102405900Y-74367000D01*
X103245900Y-78870000D02*
X103245900Y-77875000D01*
X103125900Y-78957000D02*
X103125900Y-77875000D01*
X102124900Y-75795000D02*
X102124900Y-74299000D01*
X102965900Y-75795000D02*
X102965900Y-74611000D01*
X102965900Y-79059000D02*
X102965900Y-77875000D01*
X103005900Y-75795000D02*
X103005900Y-74635000D01*
X103365900Y-78772000D02*
X103365900Y-77875000D01*
X102685900Y-75795000D02*
X102685900Y-74470000D01*
X103645900Y-78488000D02*
X103645900Y-77875000D01*
X104245900Y-77119000D02*
X104245900Y-76551000D01*
X103165900Y-75795000D02*
X103165900Y-74740000D01*
X101724900Y-75795000D02*
X101724900Y-74256000D01*
X103165900Y-78930000D02*
X103165900Y-77875000D01*
X102445900Y-75795000D02*
X102445900Y-74380000D01*
X102324900Y-79326000D02*
X102324900Y-77875000D01*
X102845900Y-75795000D02*
X102845900Y-74545000D01*
X104125900Y-77640000D02*
X104125900Y-76030000D01*
X101924900Y-79400000D02*
X101924900Y-77875000D01*
X99090125Y-78560000D02*
X99090125Y-78060000D01*
X102164900Y-75795000D02*
X102164900Y-74307000D01*
X102645900Y-75795000D02*
X102645900Y-74453000D01*
X103285900Y-78839000D02*
X103285900Y-77875000D01*
X102365900Y-79315000D02*
X102365900Y-77875000D01*
X101644900Y-75795000D02*
X101644900Y-74255000D01*
X104005900Y-77933000D02*
X104005900Y-75737000D01*
X103405900Y-75795000D02*
X103405900Y-74934000D01*
X102525900Y-75795000D02*
X102525900Y-74407000D01*
X103845900Y-78218000D02*
X103845900Y-75452000D01*
X102284900Y-75795000D02*
X102284900Y-74334000D01*
X102445900Y-79290000D02*
X102445900Y-77875000D01*
X103365900Y-75795000D02*
X103365900Y-74898000D01*
X103605900Y-78534000D02*
X103605900Y-77875000D01*
X103085900Y-78984000D02*
X103085900Y-77875000D01*
X101964900Y-79396000D02*
X101964900Y-77875000D01*
X103045900Y-75795000D02*
X103045900Y-74660000D01*
X102885900Y-79103000D02*
X102885900Y-77875000D01*
X102044900Y-75795000D02*
X102044900Y-74285000D01*
X103885900Y-78154000D02*
X103885900Y-75516000D01*
X102204900Y-75795000D02*
X102204900Y-74315000D01*
X102124900Y-79371000D02*
X102124900Y-77875000D01*
X102605900Y-79233000D02*
X102605900Y-77875000D01*
X101684900Y-79415000D02*
X101684900Y-77875000D01*
X103085900Y-75795000D02*
X103085900Y-74686000D01*
X102284900Y-79336000D02*
X102284900Y-77875000D01*
X101924900Y-75795000D02*
X101924900Y-74270000D01*
X102405900Y-79303000D02*
X102405900Y-77875000D01*
X102925900Y-79082000D02*
X102925900Y-77875000D01*
X103325900Y-78806000D02*
X103325900Y-77875000D01*
X102525900Y-79263000D02*
X102525900Y-77875000D01*
X103405900Y-78736000D02*
X103405900Y-77875000D01*
X103485900Y-75795000D02*
X103485900Y-75009000D01*
X102845900Y-79125000D02*
X102845900Y-77875000D01*
X102765900Y-75795000D02*
X102765900Y-74506000D01*
X104165900Y-77512000D02*
X104165900Y-76158000D01*
X102244900Y-79346000D02*
X102244900Y-77875000D01*
X104085900Y-77750000D02*
X104085900Y-75920000D01*
X103765900Y-78335000D02*
X103765900Y-75335000D01*
X103685900Y-78440000D02*
X103685900Y-75230000D01*
X102324900Y-75795000D02*
X102324900Y-74344000D01*
X102485900Y-75795000D02*
X102485900Y-74393000D01*
X103485900Y-78661000D02*
X103485900Y-77875000D01*
X102725900Y-75795000D02*
X102725900Y-74487000D01*
X102084900Y-79378000D02*
X102084900Y-77875000D01*
X103925900Y-78086000D02*
X103925900Y-75584000D01*
X102004900Y-79391000D02*
X102004900Y-77875000D01*
X102164900Y-79363000D02*
X102164900Y-77875000D01*
X101724900Y-79414000D02*
X101724900Y-77875000D01*
X103805900Y-78278000D02*
X103805900Y-75392000D01*
X103525900Y-75795000D02*
X103525900Y-75050000D01*
X102885900Y-75795000D02*
X102885900Y-74567000D01*
X102485900Y-79277000D02*
X102485900Y-77875000D01*
X101884900Y-75795000D02*
X101884900Y-74266000D01*
X101804900Y-75795000D02*
X101804900Y-74259000D01*
X101964900Y-75795000D02*
X101964900Y-74274000D01*
X103445900Y-75795000D02*
X103445900Y-74971000D01*
X102565900Y-75795000D02*
X102565900Y-74421000D01*
X102565900Y-79249000D02*
X102565900Y-77875000D01*
X103205900Y-75795000D02*
X103205900Y-74770000D01*
X102765900Y-79164000D02*
X102765900Y-77875000D01*
X101884900Y-79404000D02*
X101884900Y-77875000D01*
X102645900Y-79217000D02*
X102645900Y-77875000D01*
X103725900Y-78389000D02*
X103725900Y-75281000D01*
X102044900Y-79385000D02*
X102044900Y-77875000D01*
X101764900Y-79413000D02*
X101764900Y-77875000D01*
X102365900Y-75795000D02*
X102365900Y-74355000D01*
X102004900Y-75795000D02*
X102004900Y-74279000D01*
X103445900Y-78699000D02*
X103445900Y-77875000D01*
X103005900Y-79035000D02*
X103005900Y-77875000D01*
X103565900Y-78578000D02*
X103565900Y-77875000D01*
X104264900Y-76835000D02*
G75*
G03*
X104264900Y-76835000I-2620000J0D01*
G01*
X47979000Y-101973748D02*
X47979000Y-102496252D01*
X46509000Y-101973748D02*
X46509000Y-102496252D01*
X82288748Y-81307000D02*
X82811252Y-81307000D01*
X82288748Y-82777000D02*
X82811252Y-82777000D01*
X39108748Y-94080000D02*
X39631252Y-94080000D01*
X39108748Y-92610000D02*
X39631252Y-92610000D01*
X103912936Y-89000000D02*
X104367064Y-89000000D01*
X103912936Y-87530000D02*
X104367064Y-87530000D01*
X95620000Y-101638000D02*
X95620000Y-99738000D01*
X97420000Y-100038000D02*
X97420000Y-101638000D01*
X62511000Y-91212936D02*
X62511000Y-91667064D01*
X63981000Y-91212936D02*
X63981000Y-91667064D01*
X75302000Y-90350000D02*
X75302000Y-91660000D01*
X79162000Y-90580000D02*
X78022000Y-90580000D01*
X78022000Y-95070000D02*
X78022000Y-94840000D01*
X75302000Y-95070000D02*
X78022000Y-95070000D01*
X75302000Y-93760000D02*
X75302000Y-95070000D01*
X78022000Y-90350000D02*
X78022000Y-90580000D01*
X78022000Y-90350000D02*
X75302000Y-90350000D01*
X52551000Y-89542252D02*
X52551000Y-89019748D01*
X51081000Y-89542252D02*
X51081000Y-89019748D01*
X82523000Y-92840436D02*
X82523000Y-93294564D01*
X81053000Y-92840436D02*
X81053000Y-93294564D01*
X93750000Y-116593000D02*
X93750000Y-116318000D01*
X89130000Y-116593000D02*
X89130000Y-116318000D01*
X91440000Y-106673000D02*
X93750000Y-106673000D01*
X89130000Y-106673000D02*
X89130000Y-106948000D01*
X93750000Y-106673000D02*
X93750000Y-106948000D01*
X91440000Y-116593000D02*
X89130000Y-116593000D01*
X91440000Y-106673000D02*
X89130000Y-106673000D01*
X93750000Y-106948000D02*
X95040000Y-106948000D01*
X91440000Y-116593000D02*
X93750000Y-116593000D01*
%LPC*%
D15*
X44196000Y-121920000D03*
D16*
X44196000Y-114300000D03*
D17*
X48260000Y-75692000D03*
X48260000Y-80772000D03*
D18*
X59690000Y-108585000D03*
X59690000Y-111125000D03*
D19*
X87480000Y-122864000D03*
X93980000Y-122864000D03*
X93980000Y-118364000D03*
X87480000Y-118364000D03*
X83820000Y-122936000D03*
X77320000Y-122936000D03*
X83820000Y-118436000D03*
X77320000Y-118436000D03*
X67160000Y-122864000D03*
X73660000Y-122864000D03*
X73660000Y-118364000D03*
X67160000Y-118364000D03*
D17*
X63500000Y-80772000D03*
X63500000Y-75692000D03*
D20*
X98552000Y-110236000D03*
X98552000Y-112776000D03*
D21*
X37592000Y-107696000D03*
D22*
X37592000Y-105156000D03*
D17*
X53340000Y-80772000D03*
X53340000Y-75692000D03*
X79375000Y-78105000D03*
X79375000Y-83185000D03*
D19*
X104215000Y-122900000D03*
X97715000Y-122900000D03*
X104215000Y-118400000D03*
X97715000Y-118400000D03*
D17*
X58420000Y-75692000D03*
X58420000Y-80772000D03*
D23*
X40005000Y-119380000D03*
X40005000Y-78740000D03*
X116205000Y-78740000D03*
X116205000Y-119380000D03*
D24*
X85405000Y-86662500D03*
X83505000Y-86662500D03*
X84455000Y-84787500D03*
D25*
X85725000Y-93980000D03*
D26*
X85725000Y-91980000D03*
D27*
X93980000Y-98110000D03*
X93980000Y-100010000D03*
D28*
X94892500Y-120650000D03*
X93067500Y-120650000D03*
D27*
X60960000Y-90490000D03*
X60960000Y-92390000D03*
D29*
X107061000Y-105725000D03*
X107061000Y-103825000D03*
D30*
X75565000Y-108942500D03*
X75565000Y-110767500D03*
D29*
X88265000Y-86675000D03*
X88265000Y-84775000D03*
D27*
X64770000Y-110175000D03*
X64770000Y-112075000D03*
D31*
X57912000Y-90193500D03*
X57912000Y-88368500D03*
D27*
X37465000Y-88585000D03*
X37465000Y-90485000D03*
X64770000Y-113985000D03*
X64770000Y-115885000D03*
D21*
X100843000Y-104394000D03*
D22*
X98303000Y-104394000D03*
X95763000Y-104394000D03*
X93223000Y-104394000D03*
X90683000Y-104394000D03*
X88143000Y-104394000D03*
X85603000Y-104394000D03*
D29*
X44450000Y-79690000D03*
X44450000Y-77790000D03*
D27*
X102362000Y-119700000D03*
X102362000Y-121600000D03*
D32*
X65660000Y-87225000D03*
D33*
X65747500Y-85725000D03*
D32*
X65660000Y-84225000D03*
D29*
X55880000Y-90231000D03*
X55880000Y-88331000D03*
D34*
X72710000Y-74930000D03*
X74610000Y-74930000D03*
D31*
X90805000Y-86637500D03*
X90805000Y-84812500D03*
D25*
X107502900Y-95631000D03*
D26*
X109502900Y-95631000D03*
D27*
X66040000Y-90490000D03*
X66040000Y-92390000D03*
X69088000Y-119700000D03*
X69088000Y-121600000D03*
X81280000Y-84775000D03*
X81280000Y-86675000D03*
D29*
X47752000Y-90231000D03*
X47752000Y-88331000D03*
D35*
X71435000Y-113030000D03*
X69535000Y-113030000D03*
D29*
X111633000Y-103947000D03*
X111633000Y-102047000D03*
D31*
X109474000Y-119276500D03*
X109474000Y-117451500D03*
X49784000Y-90193500D03*
X49784000Y-88368500D03*
D28*
X74572500Y-120650000D03*
X72747500Y-120650000D03*
X95527500Y-76835000D03*
X93702500Y-76835000D03*
D36*
X81475000Y-98350000D03*
X81475000Y-104850000D03*
X77275000Y-104850000D03*
X77275000Y-98350000D03*
D28*
X69492500Y-74930000D03*
X67667500Y-74930000D03*
D30*
X68326000Y-90527500D03*
X68326000Y-92352500D03*
D27*
X72898000Y-90490000D03*
X72898000Y-92390000D03*
D37*
X95893000Y-95820000D03*
X96393000Y-95820000D03*
X96893000Y-95820000D03*
X96893000Y-97220000D03*
X95893000Y-97220000D03*
D34*
X74107000Y-86106000D03*
X76007000Y-86106000D03*
D38*
X105120000Y-91440000D03*
X100620000Y-91440000D03*
D27*
X111506000Y-117414000D03*
X111506000Y-119314000D03*
D35*
X78420000Y-74930000D03*
X76520000Y-74930000D03*
D29*
X53848000Y-90231000D03*
X53848000Y-88331000D03*
D39*
X95607500Y-85725000D03*
X97432500Y-85725000D03*
D40*
X92140000Y-82550000D03*
X92140000Y-81280000D03*
X92140000Y-80010000D03*
X92140000Y-78740000D03*
X97090000Y-78740000D03*
X97090000Y-80010000D03*
X97090000Y-81280000D03*
X97090000Y-82550000D03*
D28*
X88542500Y-82042000D03*
X86717500Y-82042000D03*
D30*
X57785000Y-101322500D03*
X57785000Y-103147500D03*
D39*
X103227500Y-80645000D03*
X105052500Y-80645000D03*
D30*
X100330000Y-81002500D03*
X100330000Y-82827500D03*
D28*
X75461500Y-115062000D03*
X73636500Y-115062000D03*
D41*
X54885000Y-121920000D03*
D42*
X56155000Y-120650000D03*
X54885000Y-119380000D03*
D38*
X58638000Y-92710000D03*
X54138000Y-92710000D03*
D39*
X86717500Y-80010000D03*
X88542500Y-80010000D03*
D34*
X115636000Y-94234000D03*
X117536000Y-94234000D03*
D42*
X116388000Y-99677000D03*
D43*
X113438000Y-99677000D03*
D44*
X119888000Y-101727000D03*
X119888000Y-97627000D03*
D27*
X81788000Y-119700000D03*
X81788000Y-121600000D03*
D30*
X109601000Y-102084500D03*
X109601000Y-103909500D03*
D45*
X119848000Y-110744000D03*
X112848000Y-110744000D03*
D46*
X118948000Y-107044000D03*
X120948000Y-114444000D03*
D47*
X111548000Y-114444000D03*
D34*
X80584000Y-89662000D03*
X82484000Y-89662000D03*
D29*
X50800000Y-80325000D03*
X50800000Y-78425000D03*
D26*
X47585000Y-106045000D03*
X45085000Y-106045000D03*
D38*
X44160000Y-83820000D03*
X39660000Y-83820000D03*
D35*
X65720000Y-103124000D03*
X63820000Y-103124000D03*
D24*
X46670000Y-98727500D03*
X44770000Y-98727500D03*
X45720000Y-96852500D03*
D31*
X99060000Y-98067500D03*
X99060000Y-96242500D03*
D48*
X80820500Y-109667000D03*
X80820500Y-111567000D03*
X78945500Y-110617000D03*
D27*
X89408000Y-119700000D03*
X89408000Y-121600000D03*
X70612000Y-90490000D03*
X70612000Y-92390000D03*
D34*
X81600000Y-80010000D03*
X83500000Y-80010000D03*
X100345200Y-107289600D03*
X102245200Y-107289600D03*
D49*
X72785000Y-109580000D03*
D50*
X70485000Y-103780000D03*
D49*
X70485000Y-109580000D03*
X68185000Y-109580000D03*
D21*
X41910000Y-97155000D03*
D22*
X41910000Y-99695000D03*
X41910000Y-102235000D03*
X41910000Y-104775000D03*
X41910000Y-107315000D03*
X41910000Y-109855000D03*
D25*
X108264900Y-76708000D03*
D26*
X110264900Y-76708000D03*
D39*
X69572500Y-115062000D03*
X71397500Y-115062000D03*
D19*
X85471000Y-75819000D03*
D51*
X87971000Y-75819000D03*
X82971000Y-75819000D03*
D38*
X52034000Y-92710000D03*
X47534000Y-92710000D03*
D31*
X83439000Y-111402500D03*
X83439000Y-109577500D03*
D29*
X74295000Y-98740000D03*
X74295000Y-96840000D03*
D35*
X105090000Y-85725000D03*
X103190000Y-85725000D03*
D27*
X67310000Y-79568000D03*
X67310000Y-81468000D03*
D25*
X64135000Y-120396000D03*
D26*
X62135000Y-120396000D03*
D29*
X60960000Y-80325000D03*
X60960000Y-78425000D03*
D52*
X50755000Y-98785000D03*
X51405000Y-98785000D03*
X52055000Y-98785000D03*
X52705000Y-98785000D03*
X53355000Y-98785000D03*
X54005000Y-98785000D03*
X54655000Y-98785000D03*
X54655000Y-105685000D03*
X54005000Y-105685000D03*
X53355000Y-105685000D03*
X52705000Y-105685000D03*
X52055000Y-105685000D03*
X51405000Y-105685000D03*
X50755000Y-105685000D03*
D27*
X104775000Y-101920000D03*
X104775000Y-103820000D03*
D45*
X119848000Y-86868000D03*
X112848000Y-86868000D03*
D46*
X118948000Y-83168000D03*
X120948000Y-90568000D03*
D47*
X111548000Y-90568000D03*
D35*
X44765000Y-93345000D03*
X42865000Y-93345000D03*
D53*
X73025000Y-77920000D03*
X74295000Y-77920000D03*
X75565000Y-77920000D03*
X76835000Y-77920000D03*
X76835000Y-83370000D03*
X75565000Y-83370000D03*
X74295000Y-83370000D03*
X73025000Y-83370000D03*
D54*
X73915000Y-112903000D03*
X77215000Y-112903000D03*
D55*
X67632500Y-94865000D03*
X67632500Y-95515000D03*
X67632500Y-96165000D03*
X67632500Y-96815000D03*
X67632500Y-97465000D03*
X67632500Y-98115000D03*
X67632500Y-98765000D03*
X67632500Y-99415000D03*
X67632500Y-100065000D03*
X67632500Y-100715000D03*
X61907500Y-100715000D03*
X61907500Y-100065000D03*
X61907500Y-99415000D03*
X61907500Y-98765000D03*
X61907500Y-98115000D03*
X61907500Y-97465000D03*
X61907500Y-96815000D03*
X61907500Y-96165000D03*
X61907500Y-95515000D03*
X61907500Y-94865000D03*
D35*
X51750000Y-95885000D03*
X49850000Y-95885000D03*
D31*
X104775000Y-107592500D03*
X104775000Y-105767500D03*
D27*
X55880000Y-75885000D03*
X55880000Y-77785000D03*
D35*
X57465000Y-95885000D03*
X55565000Y-95885000D03*
D39*
X76303500Y-120650000D03*
X78128500Y-120650000D03*
X96877500Y-120650000D03*
X98702500Y-120650000D03*
D35*
X105090000Y-83185000D03*
X103190000Y-83185000D03*
D56*
X39820000Y-91440000D03*
X39820000Y-90170000D03*
X39820000Y-88900000D03*
X39820000Y-87630000D03*
X45270000Y-87630000D03*
X45270000Y-88900000D03*
X45270000Y-90170000D03*
X45270000Y-91440000D03*
D41*
X54864000Y-110998000D03*
D42*
X56134000Y-109728000D03*
X54864000Y-108458000D03*
D39*
X93702500Y-74295000D03*
X95527500Y-74295000D03*
D35*
X69530000Y-77470000D03*
X67630000Y-77470000D03*
D25*
X60960000Y-84515888D03*
D26*
X60960000Y-86515888D03*
D34*
X89220000Y-88900000D03*
X91120000Y-88900000D03*
D27*
X69596000Y-79568000D03*
X69596000Y-81468000D03*
D41*
X54885000Y-116459000D03*
D42*
X56155000Y-115189000D03*
X54885000Y-113919000D03*
D25*
X100644900Y-76835000D03*
D26*
X102644900Y-76835000D03*
D27*
X47244000Y-101285000D03*
X47244000Y-103185000D03*
D34*
X81600000Y-82042000D03*
X83500000Y-82042000D03*
X38420000Y-93345000D03*
X40320000Y-93345000D03*
D39*
X103227500Y-88265000D03*
X105052500Y-88265000D03*
D57*
X95982500Y-99988000D03*
D58*
X96520000Y-99913000D03*
D57*
X97057500Y-99988000D03*
X97057500Y-101688000D03*
D58*
X96520000Y-101763000D03*
D57*
X95982500Y-101688000D03*
D30*
X63246000Y-90527500D03*
X63246000Y-92352500D03*
D32*
X78612000Y-91210000D03*
D59*
X78524500Y-92710000D03*
D32*
X78612000Y-94210000D03*
D29*
X51816000Y-90231000D03*
X51816000Y-88331000D03*
D30*
X81788000Y-92155000D03*
X81788000Y-93980000D03*
D55*
X94302500Y-107408000D03*
X94302500Y-108058000D03*
X94302500Y-108708000D03*
X94302500Y-109358000D03*
X94302500Y-110008000D03*
X94302500Y-110658000D03*
X94302500Y-111308000D03*
X94302500Y-111958000D03*
X94302500Y-112608000D03*
X94302500Y-113258000D03*
X94302500Y-113908000D03*
X94302500Y-114558000D03*
X94302500Y-115208000D03*
X94302500Y-115858000D03*
X88577500Y-115858000D03*
X88577500Y-115208000D03*
X88577500Y-114558000D03*
X88577500Y-113908000D03*
X88577500Y-113258000D03*
X88577500Y-112608000D03*
X88577500Y-111958000D03*
X88577500Y-111308000D03*
X88577500Y-110658000D03*
X88577500Y-110008000D03*
X88577500Y-109358000D03*
X88577500Y-108708000D03*
X88577500Y-108058000D03*
X88577500Y-107408000D03*
M02*
