%FSLAX45Y45*%
G04 Gerber Fmt 4.5, Leading zero omitted, Abs format (unit mm)*
G04 Created by KiCad (PCBNEW (6.0.5)) date 2022-05-21 16:41:09*
%MOMM*%
%LPD*%
G01*
G04 APERTURE LIST*
%TA.AperFunction,Profile*%
%ADD10C,0.100000*%
%TD*%
%ADD11C,0.200000*%
%ADD12C,0.076200*%
%ADD13C,0.080000*%
%ADD14C,0.100000*%
%ADD15C,0.120000*%
G04 APERTURE END LIST*
D10*
X9994236Y-4761836D02*
X13716000Y-4762500D01*
X9194800Y-6184900D02*
X9194136Y-5561936D01*
X14530042Y-5577750D02*
G75*
G03*
X13716000Y-4762500I-802602J12630D01*
G01*
X9994236Y-4761836D02*
G75*
G03*
X9194136Y-5561936I0J-800100D01*
G01*
X13716000Y-6985000D02*
G75*
G03*
X14528800Y-6184900I12585J800116D01*
G01*
X9994900Y-6985000D02*
X13716000Y-6985000D01*
X9194800Y-6184900D02*
G75*
G03*
X9994900Y-6985000I800100J0D01*
G01*
X14530041Y-5577750D02*
X14528800Y-6184900D01*
D11*
D12*
X9740900Y-6020500D02*
X9817100Y-6096700D01*
X9817100Y-6020500D02*
X9740900Y-6096700D01*
X9994900Y-6020500D02*
X10071100Y-6096700D01*
X10071100Y-6020500D02*
X9994900Y-6096700D01*
X10985500Y-5803200D02*
X11061700Y-5879400D01*
X11061700Y-5803200D02*
X10985500Y-5879400D01*
X11239500Y-5803200D02*
X11315700Y-5879400D01*
X11315700Y-5803200D02*
X11239500Y-5879400D01*
X11772900Y-5537200D02*
X11849100Y-5613400D01*
X11849100Y-5537200D02*
X11772900Y-5613400D01*
X11976100Y-5537200D02*
X12052300Y-5613400D01*
X12052300Y-5537200D02*
X11976100Y-5613400D01*
X12179300Y-5537200D02*
X12255500Y-5613400D01*
X12255500Y-5537200D02*
X12179300Y-5613400D01*
X12382500Y-5537200D02*
X12458700Y-5613400D01*
X12458700Y-5537200D02*
X12382500Y-5613400D01*
D13*
X9721400Y-6400800D02*
G75*
G03*
X9721400Y-6400800I-40000J0D01*
G01*
X10221400Y-6400800D02*
G75*
G03*
X10221400Y-6400800I-40000J0D01*
G01*
X10530200Y-6239700D02*
G75*
G03*
X10530200Y-6239700I-40000J0D01*
G01*
X10530200Y-6739700D02*
G75*
G03*
X10530200Y-6739700I-40000J0D01*
G01*
X10619100Y-5494400D02*
G75*
G03*
X10619100Y-5494400I-40000J0D01*
G01*
X10619100Y-5994400D02*
G75*
G03*
X10619100Y-5994400I-40000J0D01*
G01*
X10978700Y-5549900D02*
G75*
G03*
X10978700Y-5549900I-40000J0D01*
G01*
X11478700Y-5549900D02*
G75*
G03*
X11478700Y-5549900I-40000J0D01*
G01*
X13074600Y-5063400D02*
G75*
G03*
X13074600Y-5063400I-40000J0D01*
G01*
X13074600Y-5563400D02*
G75*
G03*
X13074600Y-5563400I-40000J0D01*
G01*
X13392100Y-5063400D02*
G75*
G03*
X13392100Y-5063400I-40000J0D01*
G01*
X13392100Y-5563400D02*
G75*
G03*
X13392100Y-5563400I-40000J0D01*
G01*
X13709600Y-5063400D02*
G75*
G03*
X13709600Y-5063400I-40000J0D01*
G01*
X13709600Y-5563400D02*
G75*
G03*
X13709600Y-5563400I-40000J0D01*
G01*
X14077900Y-5346700D02*
G75*
G03*
X14077900Y-5346700I-40000J0D01*
G01*
X14331900Y-5346700D02*
G75*
G03*
X14331900Y-5346700I-40000J0D01*
G01*
D14*
X10782300Y-5106200D02*
X10782300Y-5206200D01*
X10732300Y-5156200D02*
X10832300Y-5156200D01*
X11036300Y-5106200D02*
X11036300Y-5206200D01*
X10986300Y-5156200D02*
X11086300Y-5156200D01*
X11290300Y-5106200D02*
X11290300Y-5206200D01*
X11240300Y-5156200D02*
X11340300Y-5156200D01*
X11544300Y-5106200D02*
X11544300Y-5206200D01*
X11494300Y-5156200D02*
X11594300Y-5156200D01*
X11798300Y-5106200D02*
X11798300Y-5206200D01*
X11748300Y-5156200D02*
X11848300Y-5156200D01*
X12052300Y-5106200D02*
X12052300Y-5206200D01*
X12002300Y-5156200D02*
X12102300Y-5156200D01*
D15*
X12771827Y-6036827D02*
X12771827Y-5951973D01*
X12686973Y-5951973D01*
X12686973Y-6036827D01*
X12771827Y-6036827D01*
X13203627Y-6519427D02*
X13203627Y-6434573D01*
X13118773Y-6434573D01*
X13118773Y-6519427D01*
X13203627Y-6519427D01*
X13271827Y-6036827D02*
X13271827Y-5951973D01*
X13186973Y-5951973D01*
X13186973Y-6036827D01*
X13271827Y-6036827D01*
X13703627Y-6519427D02*
X13703627Y-6434573D01*
X13618773Y-6434573D01*
X13618773Y-6519427D01*
X13703627Y-6519427D01*
D11*
X12979400Y-6094400D02*
X13079400Y-5994400D01*
X12979400Y-5894400D01*
X12879400Y-5994400D01*
X12979400Y-6094400D01*
X13411200Y-6577000D02*
X13511200Y-6477000D01*
X13411200Y-6377000D01*
X13311200Y-6477000D01*
X13411200Y-6577000D01*
X9446755Y-7300575D02*
X9446755Y-7100575D01*
X9494374Y-7100575D01*
X9522946Y-7110099D01*
X9541993Y-7129147D01*
X9551517Y-7148194D01*
X9561041Y-7186289D01*
X9561041Y-7214861D01*
X9551517Y-7252956D01*
X9541993Y-7272004D01*
X9522946Y-7291051D01*
X9494374Y-7300575D01*
X9446755Y-7300575D01*
X9646755Y-7300575D02*
X9646755Y-7167242D01*
X9646755Y-7205337D02*
X9656279Y-7186289D01*
X9665803Y-7176766D01*
X9684850Y-7167242D01*
X9703898Y-7167242D01*
X9770565Y-7300575D02*
X9770565Y-7167242D01*
X9770565Y-7100575D02*
X9761041Y-7110099D01*
X9770565Y-7119623D01*
X9780089Y-7110099D01*
X9770565Y-7100575D01*
X9770565Y-7119623D01*
X9894374Y-7300575D02*
X9875327Y-7291051D01*
X9865803Y-7272004D01*
X9865803Y-7100575D01*
X9999136Y-7300575D02*
X9980089Y-7291051D01*
X9970565Y-7272004D01*
X9970565Y-7100575D01*
X10227708Y-7300575D02*
X10227708Y-7100575D01*
X10294374Y-7243432D01*
X10361041Y-7100575D01*
X10361041Y-7300575D01*
X10541993Y-7300575D02*
X10541993Y-7195813D01*
X10532470Y-7176766D01*
X10513422Y-7167242D01*
X10475327Y-7167242D01*
X10456279Y-7176766D01*
X10541993Y-7291051D02*
X10522946Y-7300575D01*
X10475327Y-7300575D01*
X10456279Y-7291051D01*
X10446755Y-7272004D01*
X10446755Y-7252956D01*
X10456279Y-7233908D01*
X10475327Y-7224385D01*
X10522946Y-7224385D01*
X10541993Y-7214861D01*
X10637231Y-7167242D02*
X10637231Y-7367242D01*
X10637231Y-7176766D02*
X10656279Y-7167242D01*
X10694374Y-7167242D01*
X10713422Y-7176766D01*
X10722946Y-7186289D01*
X10732470Y-7205337D01*
X10732470Y-7262480D01*
X10722946Y-7281527D01*
X10713422Y-7291051D01*
X10694374Y-7300575D01*
X10656279Y-7300575D01*
X10637231Y-7291051D01*
X10818184Y-7281527D02*
X10827708Y-7291051D01*
X10818184Y-7300575D01*
X10808660Y-7291051D01*
X10818184Y-7281527D01*
X10818184Y-7300575D01*
X10818184Y-7176766D02*
X10827708Y-7186289D01*
X10818184Y-7195813D01*
X10808660Y-7186289D01*
X10818184Y-7176766D01*
X10818184Y-7195813D01*
D12*
X9112936Y-7591999D02*
X9189136Y-7668199D01*
X9189136Y-7591999D02*
X9112936Y-7668199D01*
D11*
X9484850Y-7520575D02*
X9503898Y-7520575D01*
X9522946Y-7530099D01*
X9532470Y-7539623D01*
X9541993Y-7558670D01*
X9551517Y-7596766D01*
X9551517Y-7644385D01*
X9541993Y-7682480D01*
X9532470Y-7701527D01*
X9522946Y-7711051D01*
X9503898Y-7720575D01*
X9484850Y-7720575D01*
X9465803Y-7711051D01*
X9456279Y-7701527D01*
X9446755Y-7682480D01*
X9437231Y-7644385D01*
X9437231Y-7596766D01*
X9446755Y-7558670D01*
X9456279Y-7539623D01*
X9465803Y-7530099D01*
X9484850Y-7520575D01*
X9637231Y-7701527D02*
X9646755Y-7711051D01*
X9637231Y-7720575D01*
X9627708Y-7711051D01*
X9637231Y-7701527D01*
X9637231Y-7720575D01*
X9713422Y-7520575D02*
X9846755Y-7520575D01*
X9761041Y-7720575D01*
X10008660Y-7520575D02*
X9970565Y-7520575D01*
X9951517Y-7530099D01*
X9941993Y-7539623D01*
X9922946Y-7568194D01*
X9913422Y-7606289D01*
X9913422Y-7682480D01*
X9922946Y-7701527D01*
X9932470Y-7711051D01*
X9951517Y-7720575D01*
X9989612Y-7720575D01*
X10008660Y-7711051D01*
X10018184Y-7701527D01*
X10027708Y-7682480D01*
X10027708Y-7634861D01*
X10018184Y-7615813D01*
X10008660Y-7606289D01*
X9989612Y-7596766D01*
X9951517Y-7596766D01*
X9932470Y-7606289D01*
X9922946Y-7615813D01*
X9913422Y-7634861D01*
X10103898Y-7539623D02*
X10113422Y-7530099D01*
X10132470Y-7520575D01*
X10180089Y-7520575D01*
X10199136Y-7530099D01*
X10208660Y-7539623D01*
X10218184Y-7558670D01*
X10218184Y-7577718D01*
X10208660Y-7606289D01*
X10094374Y-7720575D01*
X10218184Y-7720575D01*
X10303898Y-7720575D02*
X10303898Y-7587242D01*
X10303898Y-7606289D02*
X10313422Y-7596766D01*
X10332470Y-7587242D01*
X10361041Y-7587242D01*
X10380089Y-7596766D01*
X10389612Y-7615813D01*
X10389612Y-7720575D01*
X10389612Y-7615813D02*
X10399136Y-7596766D01*
X10418184Y-7587242D01*
X10446755Y-7587242D01*
X10465803Y-7596766D01*
X10475327Y-7615813D01*
X10475327Y-7720575D01*
X10570565Y-7720575D02*
X10570565Y-7587242D01*
X10570565Y-7606289D02*
X10580089Y-7596766D01*
X10599136Y-7587242D01*
X10627708Y-7587242D01*
X10646755Y-7596766D01*
X10656279Y-7615813D01*
X10656279Y-7720575D01*
X10656279Y-7615813D02*
X10665803Y-7596766D01*
X10684850Y-7587242D01*
X10713422Y-7587242D01*
X10732470Y-7596766D01*
X10741993Y-7615813D01*
X10741993Y-7720575D01*
X11132470Y-7511051D02*
X10961041Y-7768194D01*
X11389612Y-7520575D02*
X11408660Y-7520575D01*
X11427708Y-7530099D01*
X11437231Y-7539623D01*
X11446755Y-7558670D01*
X11456279Y-7596766D01*
X11456279Y-7644385D01*
X11446755Y-7682480D01*
X11437231Y-7701527D01*
X11427708Y-7711051D01*
X11408660Y-7720575D01*
X11389612Y-7720575D01*
X11370565Y-7711051D01*
X11361041Y-7701527D01*
X11351517Y-7682480D01*
X11341993Y-7644385D01*
X11341993Y-7596766D01*
X11351517Y-7558670D01*
X11361041Y-7539623D01*
X11370565Y-7530099D01*
X11389612Y-7520575D01*
X11541993Y-7701527D02*
X11551517Y-7711051D01*
X11541993Y-7720575D01*
X11532469Y-7711051D01*
X11541993Y-7701527D01*
X11541993Y-7720575D01*
X11675327Y-7520575D02*
X11694374Y-7520575D01*
X11713422Y-7530099D01*
X11722946Y-7539623D01*
X11732469Y-7558670D01*
X11741993Y-7596766D01*
X11741993Y-7644385D01*
X11732469Y-7682480D01*
X11722946Y-7701527D01*
X11713422Y-7711051D01*
X11694374Y-7720575D01*
X11675327Y-7720575D01*
X11656279Y-7711051D01*
X11646755Y-7701527D01*
X11637231Y-7682480D01*
X11627708Y-7644385D01*
X11627708Y-7596766D01*
X11637231Y-7558670D01*
X11646755Y-7539623D01*
X11656279Y-7530099D01*
X11675327Y-7520575D01*
X11808660Y-7520575D02*
X11932469Y-7520575D01*
X11865803Y-7596766D01*
X11894374Y-7596766D01*
X11913422Y-7606289D01*
X11922946Y-7615813D01*
X11932469Y-7634861D01*
X11932469Y-7682480D01*
X11922946Y-7701527D01*
X11913422Y-7711051D01*
X11894374Y-7720575D01*
X11837231Y-7720575D01*
X11818184Y-7711051D01*
X11808660Y-7701527D01*
X12056279Y-7520575D02*
X12075327Y-7520575D01*
X12094374Y-7530099D01*
X12103898Y-7539623D01*
X12113422Y-7558670D01*
X12122946Y-7596766D01*
X12122946Y-7644385D01*
X12113422Y-7682480D01*
X12103898Y-7701527D01*
X12094374Y-7711051D01*
X12075327Y-7720575D01*
X12056279Y-7720575D01*
X12037231Y-7711051D01*
X12027708Y-7701527D01*
X12018184Y-7682480D01*
X12008660Y-7644385D01*
X12008660Y-7596766D01*
X12018184Y-7558670D01*
X12027708Y-7539623D01*
X12037231Y-7530099D01*
X12056279Y-7520575D01*
X12246755Y-7520575D02*
X12265803Y-7520575D01*
X12284850Y-7530099D01*
X12294374Y-7539623D01*
X12303898Y-7558670D01*
X12313422Y-7596766D01*
X12313422Y-7644385D01*
X12303898Y-7682480D01*
X12294374Y-7701527D01*
X12284850Y-7711051D01*
X12265803Y-7720575D01*
X12246755Y-7720575D01*
X12227708Y-7711051D01*
X12218184Y-7701527D01*
X12208660Y-7682480D01*
X12199136Y-7644385D01*
X12199136Y-7596766D01*
X12208660Y-7558670D01*
X12218184Y-7539623D01*
X12227708Y-7530099D01*
X12246755Y-7520575D01*
X12389612Y-7520575D02*
X12389612Y-7558670D01*
X12465803Y-7520575D02*
X12465803Y-7558670D01*
X12761041Y-7796766D02*
X12751517Y-7787242D01*
X12732469Y-7758670D01*
X12722946Y-7739623D01*
X12713422Y-7711051D01*
X12703898Y-7663432D01*
X12703898Y-7625337D01*
X12713422Y-7577718D01*
X12722946Y-7549147D01*
X12732469Y-7530099D01*
X12751517Y-7501527D01*
X12761041Y-7492004D01*
X12865803Y-7606289D02*
X12846755Y-7596766D01*
X12837231Y-7587242D01*
X12827708Y-7568194D01*
X12827708Y-7558670D01*
X12837231Y-7539623D01*
X12846755Y-7530099D01*
X12865803Y-7520575D01*
X12903898Y-7520575D01*
X12922946Y-7530099D01*
X12932469Y-7539623D01*
X12941993Y-7558670D01*
X12941993Y-7568194D01*
X12932469Y-7587242D01*
X12922946Y-7596766D01*
X12903898Y-7606289D01*
X12865803Y-7606289D01*
X12846755Y-7615813D01*
X12837231Y-7625337D01*
X12827708Y-7644385D01*
X12827708Y-7682480D01*
X12837231Y-7701527D01*
X12846755Y-7711051D01*
X12865803Y-7720575D01*
X12903898Y-7720575D01*
X12922946Y-7711051D01*
X12932469Y-7701527D01*
X12941993Y-7682480D01*
X12941993Y-7644385D01*
X12932469Y-7625337D01*
X12922946Y-7615813D01*
X12903898Y-7606289D01*
X13180088Y-7720575D02*
X13180088Y-7520575D01*
X13265803Y-7720575D02*
X13265803Y-7615813D01*
X13256279Y-7596766D01*
X13237231Y-7587242D01*
X13208660Y-7587242D01*
X13189612Y-7596766D01*
X13180088Y-7606289D01*
X13389612Y-7720575D02*
X13370565Y-7711051D01*
X13361041Y-7701527D01*
X13351517Y-7682480D01*
X13351517Y-7625337D01*
X13361041Y-7606289D01*
X13370565Y-7596766D01*
X13389612Y-7587242D01*
X13418184Y-7587242D01*
X13437231Y-7596766D01*
X13446755Y-7606289D01*
X13456279Y-7625337D01*
X13456279Y-7682480D01*
X13446755Y-7701527D01*
X13437231Y-7711051D01*
X13418184Y-7720575D01*
X13389612Y-7720575D01*
X13570565Y-7720575D02*
X13551517Y-7711051D01*
X13541993Y-7692004D01*
X13541993Y-7520575D01*
X13722946Y-7711051D02*
X13703898Y-7720575D01*
X13665803Y-7720575D01*
X13646755Y-7711051D01*
X13637231Y-7692004D01*
X13637231Y-7615813D01*
X13646755Y-7596766D01*
X13665803Y-7587242D01*
X13703898Y-7587242D01*
X13722946Y-7596766D01*
X13732469Y-7615813D01*
X13732469Y-7634861D01*
X13637231Y-7653908D01*
X13808660Y-7711051D02*
X13827708Y-7720575D01*
X13865803Y-7720575D01*
X13884850Y-7711051D01*
X13894374Y-7692004D01*
X13894374Y-7682480D01*
X13884850Y-7663432D01*
X13865803Y-7653908D01*
X13837231Y-7653908D01*
X13818184Y-7644385D01*
X13808660Y-7625337D01*
X13808660Y-7615813D01*
X13818184Y-7596766D01*
X13837231Y-7587242D01*
X13865803Y-7587242D01*
X13884850Y-7596766D01*
X13961041Y-7796766D02*
X13970565Y-7787242D01*
X13989612Y-7758670D01*
X13999136Y-7739623D01*
X14008660Y-7711051D01*
X14018184Y-7663432D01*
X14018184Y-7625337D01*
X14008660Y-7577718D01*
X13999136Y-7549147D01*
X13989612Y-7530099D01*
X13970565Y-7501527D01*
X13961041Y-7492004D01*
D13*
X9189136Y-7894099D02*
G75*
G03*
X9189136Y-7894099I-40000J0D01*
G01*
D11*
X9484850Y-7784575D02*
X9503898Y-7784575D01*
X9522946Y-7794099D01*
X9532470Y-7803623D01*
X9541993Y-7822670D01*
X9551517Y-7860766D01*
X9551517Y-7908385D01*
X9541993Y-7946480D01*
X9532470Y-7965527D01*
X9522946Y-7975051D01*
X9503898Y-7984575D01*
X9484850Y-7984575D01*
X9465803Y-7975051D01*
X9456279Y-7965527D01*
X9446755Y-7946480D01*
X9437231Y-7908385D01*
X9437231Y-7860766D01*
X9446755Y-7822670D01*
X9456279Y-7803623D01*
X9465803Y-7794099D01*
X9484850Y-7784575D01*
X9637231Y-7965527D02*
X9646755Y-7975051D01*
X9637231Y-7984575D01*
X9627708Y-7975051D01*
X9637231Y-7965527D01*
X9637231Y-7984575D01*
X9761041Y-7870289D02*
X9741993Y-7860766D01*
X9732470Y-7851242D01*
X9722946Y-7832194D01*
X9722946Y-7822670D01*
X9732470Y-7803623D01*
X9741993Y-7794099D01*
X9761041Y-7784575D01*
X9799136Y-7784575D01*
X9818184Y-7794099D01*
X9827708Y-7803623D01*
X9837231Y-7822670D01*
X9837231Y-7832194D01*
X9827708Y-7851242D01*
X9818184Y-7860766D01*
X9799136Y-7870289D01*
X9761041Y-7870289D01*
X9741993Y-7879813D01*
X9732470Y-7889337D01*
X9722946Y-7908385D01*
X9722946Y-7946480D01*
X9732470Y-7965527D01*
X9741993Y-7975051D01*
X9761041Y-7984575D01*
X9799136Y-7984575D01*
X9818184Y-7975051D01*
X9827708Y-7965527D01*
X9837231Y-7946480D01*
X9837231Y-7908385D01*
X9827708Y-7889337D01*
X9818184Y-7879813D01*
X9799136Y-7870289D01*
X9961041Y-7784575D02*
X9980089Y-7784575D01*
X9999136Y-7794099D01*
X10008660Y-7803623D01*
X10018184Y-7822670D01*
X10027708Y-7860766D01*
X10027708Y-7908385D01*
X10018184Y-7946480D01*
X10008660Y-7965527D01*
X9999136Y-7975051D01*
X9980089Y-7984575D01*
X9961041Y-7984575D01*
X9941993Y-7975051D01*
X9932470Y-7965527D01*
X9922946Y-7946480D01*
X9913422Y-7908385D01*
X9913422Y-7860766D01*
X9922946Y-7822670D01*
X9932470Y-7803623D01*
X9941993Y-7794099D01*
X9961041Y-7784575D01*
X10151517Y-7784575D02*
X10170565Y-7784575D01*
X10189612Y-7794099D01*
X10199136Y-7803623D01*
X10208660Y-7822670D01*
X10218184Y-7860766D01*
X10218184Y-7908385D01*
X10208660Y-7946480D01*
X10199136Y-7965527D01*
X10189612Y-7975051D01*
X10170565Y-7984575D01*
X10151517Y-7984575D01*
X10132470Y-7975051D01*
X10122946Y-7965527D01*
X10113422Y-7946480D01*
X10103898Y-7908385D01*
X10103898Y-7860766D01*
X10113422Y-7822670D01*
X10122946Y-7803623D01*
X10132470Y-7794099D01*
X10151517Y-7784575D01*
X10303898Y-7984575D02*
X10303898Y-7851242D01*
X10303898Y-7870289D02*
X10313422Y-7860766D01*
X10332470Y-7851242D01*
X10361041Y-7851242D01*
X10380089Y-7860766D01*
X10389612Y-7879813D01*
X10389612Y-7984575D01*
X10389612Y-7879813D02*
X10399136Y-7860766D01*
X10418184Y-7851242D01*
X10446755Y-7851242D01*
X10465803Y-7860766D01*
X10475327Y-7879813D01*
X10475327Y-7984575D01*
X10570565Y-7984575D02*
X10570565Y-7851242D01*
X10570565Y-7870289D02*
X10580089Y-7860766D01*
X10599136Y-7851242D01*
X10627708Y-7851242D01*
X10646755Y-7860766D01*
X10656279Y-7879813D01*
X10656279Y-7984575D01*
X10656279Y-7879813D02*
X10665803Y-7860766D01*
X10684850Y-7851242D01*
X10713422Y-7851242D01*
X10732470Y-7860766D01*
X10741993Y-7879813D01*
X10741993Y-7984575D01*
X11132470Y-7775051D02*
X10961041Y-8032194D01*
X11389612Y-7784575D02*
X11408660Y-7784575D01*
X11427708Y-7794099D01*
X11437231Y-7803623D01*
X11446755Y-7822670D01*
X11456279Y-7860766D01*
X11456279Y-7908385D01*
X11446755Y-7946480D01*
X11437231Y-7965527D01*
X11427708Y-7975051D01*
X11408660Y-7984575D01*
X11389612Y-7984575D01*
X11370565Y-7975051D01*
X11361041Y-7965527D01*
X11351517Y-7946480D01*
X11341993Y-7908385D01*
X11341993Y-7860766D01*
X11351517Y-7822670D01*
X11361041Y-7803623D01*
X11370565Y-7794099D01*
X11389612Y-7784575D01*
X11541993Y-7965527D02*
X11551517Y-7975051D01*
X11541993Y-7984575D01*
X11532469Y-7975051D01*
X11541993Y-7965527D01*
X11541993Y-7984575D01*
X11675327Y-7784575D02*
X11694374Y-7784575D01*
X11713422Y-7794099D01*
X11722946Y-7803623D01*
X11732469Y-7822670D01*
X11741993Y-7860766D01*
X11741993Y-7908385D01*
X11732469Y-7946480D01*
X11722946Y-7965527D01*
X11713422Y-7975051D01*
X11694374Y-7984575D01*
X11675327Y-7984575D01*
X11656279Y-7975051D01*
X11646755Y-7965527D01*
X11637231Y-7946480D01*
X11627708Y-7908385D01*
X11627708Y-7860766D01*
X11637231Y-7822670D01*
X11646755Y-7803623D01*
X11656279Y-7794099D01*
X11675327Y-7784575D01*
X11808660Y-7784575D02*
X11932469Y-7784575D01*
X11865803Y-7860766D01*
X11894374Y-7860766D01*
X11913422Y-7870289D01*
X11922946Y-7879813D01*
X11932469Y-7898861D01*
X11932469Y-7946480D01*
X11922946Y-7965527D01*
X11913422Y-7975051D01*
X11894374Y-7984575D01*
X11837231Y-7984575D01*
X11818184Y-7975051D01*
X11808660Y-7965527D01*
X12122946Y-7984575D02*
X12008660Y-7984575D01*
X12065803Y-7984575D02*
X12065803Y-7784575D01*
X12046755Y-7813147D01*
X12027708Y-7832194D01*
X12008660Y-7841718D01*
X12303898Y-7784575D02*
X12208660Y-7784575D01*
X12199136Y-7879813D01*
X12208660Y-7870289D01*
X12227708Y-7860766D01*
X12275327Y-7860766D01*
X12294374Y-7870289D01*
X12303898Y-7879813D01*
X12313422Y-7898861D01*
X12313422Y-7946480D01*
X12303898Y-7965527D01*
X12294374Y-7975051D01*
X12275327Y-7984575D01*
X12227708Y-7984575D01*
X12208660Y-7975051D01*
X12199136Y-7965527D01*
X12389612Y-7784575D02*
X12389612Y-7822670D01*
X12465803Y-7784575D02*
X12465803Y-7822670D01*
X12761041Y-8060766D02*
X12751517Y-8051242D01*
X12732469Y-8022670D01*
X12722946Y-8003623D01*
X12713422Y-7975051D01*
X12703898Y-7927432D01*
X12703898Y-7889337D01*
X12713422Y-7841718D01*
X12722946Y-7813147D01*
X12732469Y-7794099D01*
X12751517Y-7765527D01*
X12761041Y-7756004D01*
X12941993Y-7984575D02*
X12827708Y-7984575D01*
X12884850Y-7984575D02*
X12884850Y-7784575D01*
X12865803Y-7813147D01*
X12846755Y-7832194D01*
X12827708Y-7841718D01*
X13113422Y-7784575D02*
X13075327Y-7784575D01*
X13056279Y-7794099D01*
X13046755Y-7803623D01*
X13027708Y-7832194D01*
X13018184Y-7870289D01*
X13018184Y-7946480D01*
X13027708Y-7965527D01*
X13037231Y-7975051D01*
X13056279Y-7984575D01*
X13094374Y-7984575D01*
X13113422Y-7975051D01*
X13122946Y-7965527D01*
X13132469Y-7946480D01*
X13132469Y-7898861D01*
X13122946Y-7879813D01*
X13113422Y-7870289D01*
X13094374Y-7860766D01*
X13056279Y-7860766D01*
X13037231Y-7870289D01*
X13027708Y-7879813D01*
X13018184Y-7898861D01*
X13370565Y-7984575D02*
X13370565Y-7784575D01*
X13456279Y-7984575D02*
X13456279Y-7879813D01*
X13446755Y-7860766D01*
X13427708Y-7851242D01*
X13399136Y-7851242D01*
X13380088Y-7860766D01*
X13370565Y-7870289D01*
X13580088Y-7984575D02*
X13561041Y-7975051D01*
X13551517Y-7965527D01*
X13541993Y-7946480D01*
X13541993Y-7889337D01*
X13551517Y-7870289D01*
X13561041Y-7860766D01*
X13580088Y-7851242D01*
X13608660Y-7851242D01*
X13627708Y-7860766D01*
X13637231Y-7870289D01*
X13646755Y-7889337D01*
X13646755Y-7946480D01*
X13637231Y-7965527D01*
X13627708Y-7975051D01*
X13608660Y-7984575D01*
X13580088Y-7984575D01*
X13761041Y-7984575D02*
X13741993Y-7975051D01*
X13732469Y-7956004D01*
X13732469Y-7784575D01*
X13913422Y-7975051D02*
X13894374Y-7984575D01*
X13856279Y-7984575D01*
X13837231Y-7975051D01*
X13827708Y-7956004D01*
X13827708Y-7879813D01*
X13837231Y-7860766D01*
X13856279Y-7851242D01*
X13894374Y-7851242D01*
X13913422Y-7860766D01*
X13922946Y-7879813D01*
X13922946Y-7898861D01*
X13827708Y-7917908D01*
X13999136Y-7975051D02*
X14018184Y-7984575D01*
X14056279Y-7984575D01*
X14075327Y-7975051D01*
X14084850Y-7956004D01*
X14084850Y-7946480D01*
X14075327Y-7927432D01*
X14056279Y-7917908D01*
X14027708Y-7917908D01*
X14008660Y-7908385D01*
X13999136Y-7889337D01*
X13999136Y-7879813D01*
X14008660Y-7860766D01*
X14027708Y-7851242D01*
X14056279Y-7851242D01*
X14075327Y-7860766D01*
X14151517Y-8060766D02*
X14161041Y-8051242D01*
X14180088Y-8022670D01*
X14189612Y-8003623D01*
X14199136Y-7975051D01*
X14208660Y-7927432D01*
X14208660Y-7889337D01*
X14199136Y-7841718D01*
X14189612Y-7813147D01*
X14180088Y-7794099D01*
X14161041Y-7765527D01*
X14151517Y-7756004D01*
D14*
X9139136Y-8108099D02*
X9139136Y-8208099D01*
X9089136Y-8158099D02*
X9189136Y-8158099D01*
D11*
X9551517Y-8248575D02*
X9437231Y-8248575D01*
X9494374Y-8248575D02*
X9494374Y-8048575D01*
X9475327Y-8077147D01*
X9456279Y-8096194D01*
X9437231Y-8105718D01*
X9637231Y-8229527D02*
X9646755Y-8239051D01*
X9637231Y-8248575D01*
X9627708Y-8239051D01*
X9637231Y-8229527D01*
X9637231Y-8248575D01*
X9770565Y-8048575D02*
X9789612Y-8048575D01*
X9808660Y-8058099D01*
X9818184Y-8067623D01*
X9827708Y-8086670D01*
X9837231Y-8124766D01*
X9837231Y-8172385D01*
X9827708Y-8210480D01*
X9818184Y-8229527D01*
X9808660Y-8239051D01*
X9789612Y-8248575D01*
X9770565Y-8248575D01*
X9751517Y-8239051D01*
X9741993Y-8229527D01*
X9732470Y-8210480D01*
X9722946Y-8172385D01*
X9722946Y-8124766D01*
X9732470Y-8086670D01*
X9741993Y-8067623D01*
X9751517Y-8058099D01*
X9770565Y-8048575D01*
X9961041Y-8048575D02*
X9980089Y-8048575D01*
X9999136Y-8058099D01*
X10008660Y-8067623D01*
X10018184Y-8086670D01*
X10027708Y-8124766D01*
X10027708Y-8172385D01*
X10018184Y-8210480D01*
X10008660Y-8229527D01*
X9999136Y-8239051D01*
X9980089Y-8248575D01*
X9961041Y-8248575D01*
X9941993Y-8239051D01*
X9932470Y-8229527D01*
X9922946Y-8210480D01*
X9913422Y-8172385D01*
X9913422Y-8124766D01*
X9922946Y-8086670D01*
X9932470Y-8067623D01*
X9941993Y-8058099D01*
X9961041Y-8048575D01*
X10151517Y-8048575D02*
X10170565Y-8048575D01*
X10189612Y-8058099D01*
X10199136Y-8067623D01*
X10208660Y-8086670D01*
X10218184Y-8124766D01*
X10218184Y-8172385D01*
X10208660Y-8210480D01*
X10199136Y-8229527D01*
X10189612Y-8239051D01*
X10170565Y-8248575D01*
X10151517Y-8248575D01*
X10132470Y-8239051D01*
X10122946Y-8229527D01*
X10113422Y-8210480D01*
X10103898Y-8172385D01*
X10103898Y-8124766D01*
X10113422Y-8086670D01*
X10122946Y-8067623D01*
X10132470Y-8058099D01*
X10151517Y-8048575D01*
X10303898Y-8248575D02*
X10303898Y-8115242D01*
X10303898Y-8134289D02*
X10313422Y-8124766D01*
X10332470Y-8115242D01*
X10361041Y-8115242D01*
X10380089Y-8124766D01*
X10389612Y-8143813D01*
X10389612Y-8248575D01*
X10389612Y-8143813D02*
X10399136Y-8124766D01*
X10418184Y-8115242D01*
X10446755Y-8115242D01*
X10465803Y-8124766D01*
X10475327Y-8143813D01*
X10475327Y-8248575D01*
X10570565Y-8248575D02*
X10570565Y-8115242D01*
X10570565Y-8134289D02*
X10580089Y-8124766D01*
X10599136Y-8115242D01*
X10627708Y-8115242D01*
X10646755Y-8124766D01*
X10656279Y-8143813D01*
X10656279Y-8248575D01*
X10656279Y-8143813D02*
X10665803Y-8124766D01*
X10684850Y-8115242D01*
X10713422Y-8115242D01*
X10732470Y-8124766D01*
X10741993Y-8143813D01*
X10741993Y-8248575D01*
X11132470Y-8039051D02*
X10961041Y-8296194D01*
X11389612Y-8048575D02*
X11408660Y-8048575D01*
X11427708Y-8058099D01*
X11437231Y-8067623D01*
X11446755Y-8086670D01*
X11456279Y-8124766D01*
X11456279Y-8172385D01*
X11446755Y-8210480D01*
X11437231Y-8229527D01*
X11427708Y-8239051D01*
X11408660Y-8248575D01*
X11389612Y-8248575D01*
X11370565Y-8239051D01*
X11361041Y-8229527D01*
X11351517Y-8210480D01*
X11341993Y-8172385D01*
X11341993Y-8124766D01*
X11351517Y-8086670D01*
X11361041Y-8067623D01*
X11370565Y-8058099D01*
X11389612Y-8048575D01*
X11541993Y-8229527D02*
X11551517Y-8239051D01*
X11541993Y-8248575D01*
X11532469Y-8239051D01*
X11541993Y-8229527D01*
X11541993Y-8248575D01*
X11675327Y-8048575D02*
X11694374Y-8048575D01*
X11713422Y-8058099D01*
X11722946Y-8067623D01*
X11732469Y-8086670D01*
X11741993Y-8124766D01*
X11741993Y-8172385D01*
X11732469Y-8210480D01*
X11722946Y-8229527D01*
X11713422Y-8239051D01*
X11694374Y-8248575D01*
X11675327Y-8248575D01*
X11656279Y-8239051D01*
X11646755Y-8229527D01*
X11637231Y-8210480D01*
X11627708Y-8172385D01*
X11627708Y-8124766D01*
X11637231Y-8086670D01*
X11646755Y-8067623D01*
X11656279Y-8058099D01*
X11675327Y-8048575D01*
X11808660Y-8048575D02*
X11932469Y-8048575D01*
X11865803Y-8124766D01*
X11894374Y-8124766D01*
X11913422Y-8134289D01*
X11922946Y-8143813D01*
X11932469Y-8162861D01*
X11932469Y-8210480D01*
X11922946Y-8229527D01*
X11913422Y-8239051D01*
X11894374Y-8248575D01*
X11837231Y-8248575D01*
X11818184Y-8239051D01*
X11808660Y-8229527D01*
X12027708Y-8248575D02*
X12065803Y-8248575D01*
X12084850Y-8239051D01*
X12094374Y-8229527D01*
X12113422Y-8200956D01*
X12122946Y-8162861D01*
X12122946Y-8086670D01*
X12113422Y-8067623D01*
X12103898Y-8058099D01*
X12084850Y-8048575D01*
X12046755Y-8048575D01*
X12027708Y-8058099D01*
X12018184Y-8067623D01*
X12008660Y-8086670D01*
X12008660Y-8134289D01*
X12018184Y-8153337D01*
X12027708Y-8162861D01*
X12046755Y-8172385D01*
X12084850Y-8172385D01*
X12103898Y-8162861D01*
X12113422Y-8153337D01*
X12122946Y-8134289D01*
X12294374Y-8115242D02*
X12294374Y-8248575D01*
X12246755Y-8039051D02*
X12199136Y-8181908D01*
X12322946Y-8181908D01*
X12389612Y-8048575D02*
X12389612Y-8086670D01*
X12465803Y-8048575D02*
X12465803Y-8086670D01*
X12761041Y-8324766D02*
X12751517Y-8315242D01*
X12732469Y-8286670D01*
X12722946Y-8267623D01*
X12713422Y-8239051D01*
X12703898Y-8191432D01*
X12703898Y-8153337D01*
X12713422Y-8105718D01*
X12722946Y-8077147D01*
X12732469Y-8058099D01*
X12751517Y-8029527D01*
X12761041Y-8020004D01*
X12922946Y-8048575D02*
X12884850Y-8048575D01*
X12865803Y-8058099D01*
X12856279Y-8067623D01*
X12837231Y-8096194D01*
X12827708Y-8134289D01*
X12827708Y-8210480D01*
X12837231Y-8229527D01*
X12846755Y-8239051D01*
X12865803Y-8248575D01*
X12903898Y-8248575D01*
X12922946Y-8239051D01*
X12932469Y-8229527D01*
X12941993Y-8210480D01*
X12941993Y-8162861D01*
X12932469Y-8143813D01*
X12922946Y-8134289D01*
X12903898Y-8124766D01*
X12865803Y-8124766D01*
X12846755Y-8134289D01*
X12837231Y-8143813D01*
X12827708Y-8162861D01*
X13180088Y-8248575D02*
X13180088Y-8048575D01*
X13265803Y-8248575D02*
X13265803Y-8143813D01*
X13256279Y-8124766D01*
X13237231Y-8115242D01*
X13208660Y-8115242D01*
X13189612Y-8124766D01*
X13180088Y-8134289D01*
X13389612Y-8248575D02*
X13370565Y-8239051D01*
X13361041Y-8229527D01*
X13351517Y-8210480D01*
X13351517Y-8153337D01*
X13361041Y-8134289D01*
X13370565Y-8124766D01*
X13389612Y-8115242D01*
X13418184Y-8115242D01*
X13437231Y-8124766D01*
X13446755Y-8134289D01*
X13456279Y-8153337D01*
X13456279Y-8210480D01*
X13446755Y-8229527D01*
X13437231Y-8239051D01*
X13418184Y-8248575D01*
X13389612Y-8248575D01*
X13570565Y-8248575D02*
X13551517Y-8239051D01*
X13541993Y-8220004D01*
X13541993Y-8048575D01*
X13722946Y-8239051D02*
X13703898Y-8248575D01*
X13665803Y-8248575D01*
X13646755Y-8239051D01*
X13637231Y-8220004D01*
X13637231Y-8143813D01*
X13646755Y-8124766D01*
X13665803Y-8115242D01*
X13703898Y-8115242D01*
X13722946Y-8124766D01*
X13732469Y-8143813D01*
X13732469Y-8162861D01*
X13637231Y-8181908D01*
X13808660Y-8239051D02*
X13827708Y-8248575D01*
X13865803Y-8248575D01*
X13884850Y-8239051D01*
X13894374Y-8220004D01*
X13894374Y-8210480D01*
X13884850Y-8191432D01*
X13865803Y-8181908D01*
X13837231Y-8181908D01*
X13818184Y-8172385D01*
X13808660Y-8153337D01*
X13808660Y-8143813D01*
X13818184Y-8124766D01*
X13837231Y-8115242D01*
X13865803Y-8115242D01*
X13884850Y-8124766D01*
X13961041Y-8324766D02*
X13970565Y-8315242D01*
X13989612Y-8286670D01*
X13999136Y-8267623D01*
X14008660Y-8239051D01*
X14018184Y-8191432D01*
X14018184Y-8153337D01*
X14008660Y-8105718D01*
X13999136Y-8077147D01*
X13989612Y-8058099D01*
X13970565Y-8029527D01*
X13961041Y-8020004D01*
D15*
X9171563Y-8464526D02*
X9171563Y-8379672D01*
X9086709Y-8379672D01*
X9086709Y-8464526D01*
X9171563Y-8464526D01*
D11*
X9551517Y-8512575D02*
X9437231Y-8512575D01*
X9494374Y-8512575D02*
X9494374Y-8312575D01*
X9475327Y-8341147D01*
X9456279Y-8360194D01*
X9437231Y-8369718D01*
X9637231Y-8493528D02*
X9646755Y-8503051D01*
X9637231Y-8512575D01*
X9627708Y-8503051D01*
X9637231Y-8493528D01*
X9637231Y-8512575D01*
X9722946Y-8331623D02*
X9732470Y-8322099D01*
X9751517Y-8312575D01*
X9799136Y-8312575D01*
X9818184Y-8322099D01*
X9827708Y-8331623D01*
X9837231Y-8350670D01*
X9837231Y-8369718D01*
X9827708Y-8398289D01*
X9713422Y-8512575D01*
X9837231Y-8512575D01*
X9961041Y-8312575D02*
X9980089Y-8312575D01*
X9999136Y-8322099D01*
X10008660Y-8331623D01*
X10018184Y-8350670D01*
X10027708Y-8388766D01*
X10027708Y-8436385D01*
X10018184Y-8474480D01*
X10008660Y-8493528D01*
X9999136Y-8503051D01*
X9980089Y-8512575D01*
X9961041Y-8512575D01*
X9941993Y-8503051D01*
X9932470Y-8493528D01*
X9922946Y-8474480D01*
X9913422Y-8436385D01*
X9913422Y-8388766D01*
X9922946Y-8350670D01*
X9932470Y-8331623D01*
X9941993Y-8322099D01*
X9961041Y-8312575D01*
X10151517Y-8312575D02*
X10170565Y-8312575D01*
X10189612Y-8322099D01*
X10199136Y-8331623D01*
X10208660Y-8350670D01*
X10218184Y-8388766D01*
X10218184Y-8436385D01*
X10208660Y-8474480D01*
X10199136Y-8493528D01*
X10189612Y-8503051D01*
X10170565Y-8512575D01*
X10151517Y-8512575D01*
X10132470Y-8503051D01*
X10122946Y-8493528D01*
X10113422Y-8474480D01*
X10103898Y-8436385D01*
X10103898Y-8388766D01*
X10113422Y-8350670D01*
X10122946Y-8331623D01*
X10132470Y-8322099D01*
X10151517Y-8312575D01*
X10303898Y-8512575D02*
X10303898Y-8379242D01*
X10303898Y-8398289D02*
X10313422Y-8388766D01*
X10332470Y-8379242D01*
X10361041Y-8379242D01*
X10380089Y-8388766D01*
X10389612Y-8407813D01*
X10389612Y-8512575D01*
X10389612Y-8407813D02*
X10399136Y-8388766D01*
X10418184Y-8379242D01*
X10446755Y-8379242D01*
X10465803Y-8388766D01*
X10475327Y-8407813D01*
X10475327Y-8512575D01*
X10570565Y-8512575D02*
X10570565Y-8379242D01*
X10570565Y-8398289D02*
X10580089Y-8388766D01*
X10599136Y-8379242D01*
X10627708Y-8379242D01*
X10646755Y-8388766D01*
X10656279Y-8407813D01*
X10656279Y-8512575D01*
X10656279Y-8407813D02*
X10665803Y-8388766D01*
X10684850Y-8379242D01*
X10713422Y-8379242D01*
X10732470Y-8388766D01*
X10741993Y-8407813D01*
X10741993Y-8512575D01*
X11132470Y-8303051D02*
X10961041Y-8560194D01*
X11389612Y-8312575D02*
X11408660Y-8312575D01*
X11427708Y-8322099D01*
X11437231Y-8331623D01*
X11446755Y-8350670D01*
X11456279Y-8388766D01*
X11456279Y-8436385D01*
X11446755Y-8474480D01*
X11437231Y-8493528D01*
X11427708Y-8503051D01*
X11408660Y-8512575D01*
X11389612Y-8512575D01*
X11370565Y-8503051D01*
X11361041Y-8493528D01*
X11351517Y-8474480D01*
X11341993Y-8436385D01*
X11341993Y-8388766D01*
X11351517Y-8350670D01*
X11361041Y-8331623D01*
X11370565Y-8322099D01*
X11389612Y-8312575D01*
X11541993Y-8493528D02*
X11551517Y-8503051D01*
X11541993Y-8512575D01*
X11532469Y-8503051D01*
X11541993Y-8493528D01*
X11541993Y-8512575D01*
X11675327Y-8312575D02*
X11694374Y-8312575D01*
X11713422Y-8322099D01*
X11722946Y-8331623D01*
X11732469Y-8350670D01*
X11741993Y-8388766D01*
X11741993Y-8436385D01*
X11732469Y-8474480D01*
X11722946Y-8493528D01*
X11713422Y-8503051D01*
X11694374Y-8512575D01*
X11675327Y-8512575D01*
X11656279Y-8503051D01*
X11646755Y-8493528D01*
X11637231Y-8474480D01*
X11627708Y-8436385D01*
X11627708Y-8388766D01*
X11637231Y-8350670D01*
X11646755Y-8331623D01*
X11656279Y-8322099D01*
X11675327Y-8312575D01*
X11913422Y-8379242D02*
X11913422Y-8512575D01*
X11865803Y-8303051D02*
X11818184Y-8445909D01*
X11941993Y-8445909D01*
X11999136Y-8312575D02*
X12132469Y-8312575D01*
X12046755Y-8512575D01*
X12199136Y-8331623D02*
X12208660Y-8322099D01*
X12227708Y-8312575D01*
X12275327Y-8312575D01*
X12294374Y-8322099D01*
X12303898Y-8331623D01*
X12313422Y-8350670D01*
X12313422Y-8369718D01*
X12303898Y-8398289D01*
X12189612Y-8512575D01*
X12313422Y-8512575D01*
X12389612Y-8312575D02*
X12389612Y-8350670D01*
X12465803Y-8312575D02*
X12465803Y-8350670D01*
X12761041Y-8588766D02*
X12751517Y-8579242D01*
X12732469Y-8550670D01*
X12722946Y-8531623D01*
X12713422Y-8503051D01*
X12703898Y-8455432D01*
X12703898Y-8417337D01*
X12713422Y-8369718D01*
X12722946Y-8341147D01*
X12732469Y-8322099D01*
X12751517Y-8293527D01*
X12761041Y-8284004D01*
X12922946Y-8379242D02*
X12922946Y-8512575D01*
X12875327Y-8303051D02*
X12827708Y-8445909D01*
X12951517Y-8445909D01*
X13180088Y-8512575D02*
X13180088Y-8312575D01*
X13265803Y-8512575D02*
X13265803Y-8407813D01*
X13256279Y-8388766D01*
X13237231Y-8379242D01*
X13208660Y-8379242D01*
X13189612Y-8388766D01*
X13180088Y-8398289D01*
X13389612Y-8512575D02*
X13370565Y-8503051D01*
X13361041Y-8493528D01*
X13351517Y-8474480D01*
X13351517Y-8417337D01*
X13361041Y-8398289D01*
X13370565Y-8388766D01*
X13389612Y-8379242D01*
X13418184Y-8379242D01*
X13437231Y-8388766D01*
X13446755Y-8398289D01*
X13456279Y-8417337D01*
X13456279Y-8474480D01*
X13446755Y-8493528D01*
X13437231Y-8503051D01*
X13418184Y-8512575D01*
X13389612Y-8512575D01*
X13570565Y-8512575D02*
X13551517Y-8503051D01*
X13541993Y-8484004D01*
X13541993Y-8312575D01*
X13722946Y-8503051D02*
X13703898Y-8512575D01*
X13665803Y-8512575D01*
X13646755Y-8503051D01*
X13637231Y-8484004D01*
X13637231Y-8407813D01*
X13646755Y-8388766D01*
X13665803Y-8379242D01*
X13703898Y-8379242D01*
X13722946Y-8388766D01*
X13732469Y-8407813D01*
X13732469Y-8426861D01*
X13637231Y-8445909D01*
X13808660Y-8503051D02*
X13827708Y-8512575D01*
X13865803Y-8512575D01*
X13884850Y-8503051D01*
X13894374Y-8484004D01*
X13894374Y-8474480D01*
X13884850Y-8455432D01*
X13865803Y-8445909D01*
X13837231Y-8445909D01*
X13818184Y-8436385D01*
X13808660Y-8417337D01*
X13808660Y-8407813D01*
X13818184Y-8388766D01*
X13837231Y-8379242D01*
X13865803Y-8379242D01*
X13884850Y-8388766D01*
X13961041Y-8588766D02*
X13970565Y-8579242D01*
X13989612Y-8550670D01*
X13999136Y-8531623D01*
X14008660Y-8503051D01*
X14018184Y-8455432D01*
X14018184Y-8417337D01*
X14008660Y-8369718D01*
X13999136Y-8341147D01*
X13989612Y-8322099D01*
X13970565Y-8293527D01*
X13961041Y-8284004D01*
X9089136Y-8786099D02*
X9189136Y-8686099D01*
X9089136Y-8586099D01*
X8989136Y-8686099D01*
X9089136Y-8786099D01*
X9437231Y-8595623D02*
X9446755Y-8586099D01*
X9465803Y-8576575D01*
X9513422Y-8576575D01*
X9532470Y-8586099D01*
X9541993Y-8595623D01*
X9551517Y-8614670D01*
X9551517Y-8633718D01*
X9541993Y-8662289D01*
X9427708Y-8776575D01*
X9551517Y-8776575D01*
X9637231Y-8757528D02*
X9646755Y-8767051D01*
X9637231Y-8776575D01*
X9627708Y-8767051D01*
X9637231Y-8757528D01*
X9637231Y-8776575D01*
X9770565Y-8576575D02*
X9789612Y-8576575D01*
X9808660Y-8586099D01*
X9818184Y-8595623D01*
X9827708Y-8614670D01*
X9837231Y-8652766D01*
X9837231Y-8700385D01*
X9827708Y-8738480D01*
X9818184Y-8757528D01*
X9808660Y-8767051D01*
X9789612Y-8776575D01*
X9770565Y-8776575D01*
X9751517Y-8767051D01*
X9741993Y-8757528D01*
X9732470Y-8738480D01*
X9722946Y-8700385D01*
X9722946Y-8652766D01*
X9732470Y-8614670D01*
X9741993Y-8595623D01*
X9751517Y-8586099D01*
X9770565Y-8576575D01*
X9961041Y-8576575D02*
X9980089Y-8576575D01*
X9999136Y-8586099D01*
X10008660Y-8595623D01*
X10018184Y-8614670D01*
X10027708Y-8652766D01*
X10027708Y-8700385D01*
X10018184Y-8738480D01*
X10008660Y-8757528D01*
X9999136Y-8767051D01*
X9980089Y-8776575D01*
X9961041Y-8776575D01*
X9941993Y-8767051D01*
X9932470Y-8757528D01*
X9922946Y-8738480D01*
X9913422Y-8700385D01*
X9913422Y-8652766D01*
X9922946Y-8614670D01*
X9932470Y-8595623D01*
X9941993Y-8586099D01*
X9961041Y-8576575D01*
X10151517Y-8576575D02*
X10170565Y-8576575D01*
X10189612Y-8586099D01*
X10199136Y-8595623D01*
X10208660Y-8614670D01*
X10218184Y-8652766D01*
X10218184Y-8700385D01*
X10208660Y-8738480D01*
X10199136Y-8757528D01*
X10189612Y-8767051D01*
X10170565Y-8776575D01*
X10151517Y-8776575D01*
X10132470Y-8767051D01*
X10122946Y-8757528D01*
X10113422Y-8738480D01*
X10103898Y-8700385D01*
X10103898Y-8652766D01*
X10113422Y-8614670D01*
X10122946Y-8595623D01*
X10132470Y-8586099D01*
X10151517Y-8576575D01*
X10303898Y-8776575D02*
X10303898Y-8643242D01*
X10303898Y-8662289D02*
X10313422Y-8652766D01*
X10332470Y-8643242D01*
X10361041Y-8643242D01*
X10380089Y-8652766D01*
X10389612Y-8671813D01*
X10389612Y-8776575D01*
X10389612Y-8671813D02*
X10399136Y-8652766D01*
X10418184Y-8643242D01*
X10446755Y-8643242D01*
X10465803Y-8652766D01*
X10475327Y-8671813D01*
X10475327Y-8776575D01*
X10570565Y-8776575D02*
X10570565Y-8643242D01*
X10570565Y-8662289D02*
X10580089Y-8652766D01*
X10599136Y-8643242D01*
X10627708Y-8643242D01*
X10646755Y-8652766D01*
X10656279Y-8671813D01*
X10656279Y-8776575D01*
X10656279Y-8671813D02*
X10665803Y-8652766D01*
X10684850Y-8643242D01*
X10713422Y-8643242D01*
X10732470Y-8652766D01*
X10741993Y-8671813D01*
X10741993Y-8776575D01*
X11132470Y-8567051D02*
X10961041Y-8824194D01*
X11389612Y-8576575D02*
X11408660Y-8576575D01*
X11427708Y-8586099D01*
X11437231Y-8595623D01*
X11446755Y-8614670D01*
X11456279Y-8652766D01*
X11456279Y-8700385D01*
X11446755Y-8738480D01*
X11437231Y-8757528D01*
X11427708Y-8767051D01*
X11408660Y-8776575D01*
X11389612Y-8776575D01*
X11370565Y-8767051D01*
X11361041Y-8757528D01*
X11351517Y-8738480D01*
X11341993Y-8700385D01*
X11341993Y-8652766D01*
X11351517Y-8614670D01*
X11361041Y-8595623D01*
X11370565Y-8586099D01*
X11389612Y-8576575D01*
X11541993Y-8757528D02*
X11551517Y-8767051D01*
X11541993Y-8776575D01*
X11532469Y-8767051D01*
X11541993Y-8757528D01*
X11541993Y-8776575D01*
X11675327Y-8576575D02*
X11694374Y-8576575D01*
X11713422Y-8586099D01*
X11722946Y-8595623D01*
X11732469Y-8614670D01*
X11741993Y-8652766D01*
X11741993Y-8700385D01*
X11732469Y-8738480D01*
X11722946Y-8757528D01*
X11713422Y-8767051D01*
X11694374Y-8776575D01*
X11675327Y-8776575D01*
X11656279Y-8767051D01*
X11646755Y-8757528D01*
X11637231Y-8738480D01*
X11627708Y-8700385D01*
X11627708Y-8652766D01*
X11637231Y-8614670D01*
X11646755Y-8595623D01*
X11656279Y-8586099D01*
X11675327Y-8576575D01*
X11808660Y-8576575D02*
X11941993Y-8576575D01*
X11856279Y-8776575D01*
X12046755Y-8662289D02*
X12027708Y-8652766D01*
X12018184Y-8643242D01*
X12008660Y-8624194D01*
X12008660Y-8614670D01*
X12018184Y-8595623D01*
X12027708Y-8586099D01*
X12046755Y-8576575D01*
X12084850Y-8576575D01*
X12103898Y-8586099D01*
X12113422Y-8595623D01*
X12122946Y-8614670D01*
X12122946Y-8624194D01*
X12113422Y-8643242D01*
X12103898Y-8652766D01*
X12084850Y-8662289D01*
X12046755Y-8662289D01*
X12027708Y-8671813D01*
X12018184Y-8681337D01*
X12008660Y-8700385D01*
X12008660Y-8738480D01*
X12018184Y-8757528D01*
X12027708Y-8767051D01*
X12046755Y-8776575D01*
X12084850Y-8776575D01*
X12103898Y-8767051D01*
X12113422Y-8757528D01*
X12122946Y-8738480D01*
X12122946Y-8700385D01*
X12113422Y-8681337D01*
X12103898Y-8671813D01*
X12084850Y-8662289D01*
X12189612Y-8576575D02*
X12322946Y-8576575D01*
X12237231Y-8776575D01*
X12389612Y-8576575D02*
X12389612Y-8614670D01*
X12465803Y-8576575D02*
X12465803Y-8614670D01*
X12761041Y-8852766D02*
X12751517Y-8843242D01*
X12732469Y-8814670D01*
X12722946Y-8795623D01*
X12713422Y-8767051D01*
X12703898Y-8719432D01*
X12703898Y-8681337D01*
X12713422Y-8633718D01*
X12722946Y-8605147D01*
X12732469Y-8586099D01*
X12751517Y-8557528D01*
X12761041Y-8548004D01*
X12827708Y-8595623D02*
X12837231Y-8586099D01*
X12856279Y-8576575D01*
X12903898Y-8576575D01*
X12922946Y-8586099D01*
X12932469Y-8595623D01*
X12941993Y-8614670D01*
X12941993Y-8633718D01*
X12932469Y-8662289D01*
X12818184Y-8776575D01*
X12941993Y-8776575D01*
X13180088Y-8776575D02*
X13180088Y-8576575D01*
X13265803Y-8776575D02*
X13265803Y-8671813D01*
X13256279Y-8652766D01*
X13237231Y-8643242D01*
X13208660Y-8643242D01*
X13189612Y-8652766D01*
X13180088Y-8662289D01*
X13389612Y-8776575D02*
X13370565Y-8767051D01*
X13361041Y-8757528D01*
X13351517Y-8738480D01*
X13351517Y-8681337D01*
X13361041Y-8662289D01*
X13370565Y-8652766D01*
X13389612Y-8643242D01*
X13418184Y-8643242D01*
X13437231Y-8652766D01*
X13446755Y-8662289D01*
X13456279Y-8681337D01*
X13456279Y-8738480D01*
X13446755Y-8757528D01*
X13437231Y-8767051D01*
X13418184Y-8776575D01*
X13389612Y-8776575D01*
X13570565Y-8776575D02*
X13551517Y-8767051D01*
X13541993Y-8748004D01*
X13541993Y-8576575D01*
X13722946Y-8767051D02*
X13703898Y-8776575D01*
X13665803Y-8776575D01*
X13646755Y-8767051D01*
X13637231Y-8748004D01*
X13637231Y-8671813D01*
X13646755Y-8652766D01*
X13665803Y-8643242D01*
X13703898Y-8643242D01*
X13722946Y-8652766D01*
X13732469Y-8671813D01*
X13732469Y-8690861D01*
X13637231Y-8709909D01*
X13808660Y-8767051D02*
X13827708Y-8776575D01*
X13865803Y-8776575D01*
X13884850Y-8767051D01*
X13894374Y-8748004D01*
X13894374Y-8738480D01*
X13884850Y-8719432D01*
X13865803Y-8709909D01*
X13837231Y-8709909D01*
X13818184Y-8700385D01*
X13808660Y-8681337D01*
X13808660Y-8671813D01*
X13818184Y-8652766D01*
X13837231Y-8643242D01*
X13865803Y-8643242D01*
X13884850Y-8652766D01*
X13961041Y-8852766D02*
X13970565Y-8843242D01*
X13989612Y-8814670D01*
X13999136Y-8795623D01*
X14008660Y-8767051D01*
X14018184Y-8719432D01*
X14018184Y-8681337D01*
X14008660Y-8633718D01*
X13999136Y-8605147D01*
X13989612Y-8586099D01*
X13970565Y-8557528D01*
X13961041Y-8548004D01*
X14322946Y-8852766D02*
X14313422Y-8843242D01*
X14294374Y-8814670D01*
X14284850Y-8795623D01*
X14275327Y-8767051D01*
X14265803Y-8719432D01*
X14265803Y-8681337D01*
X14275327Y-8633718D01*
X14284850Y-8605147D01*
X14294374Y-8586099D01*
X14313422Y-8557528D01*
X14322946Y-8548004D01*
X14399136Y-8643242D02*
X14399136Y-8776575D01*
X14399136Y-8662289D02*
X14408660Y-8652766D01*
X14427708Y-8643242D01*
X14456279Y-8643242D01*
X14475327Y-8652766D01*
X14484850Y-8671813D01*
X14484850Y-8776575D01*
X14608660Y-8776575D02*
X14589612Y-8767051D01*
X14580088Y-8757528D01*
X14570565Y-8738480D01*
X14570565Y-8681337D01*
X14580088Y-8662289D01*
X14589612Y-8652766D01*
X14608660Y-8643242D01*
X14637231Y-8643242D01*
X14656279Y-8652766D01*
X14665803Y-8662289D01*
X14675327Y-8681337D01*
X14675327Y-8738480D01*
X14665803Y-8757528D01*
X14656279Y-8767051D01*
X14637231Y-8776575D01*
X14608660Y-8776575D01*
X14732469Y-8643242D02*
X14808660Y-8643242D01*
X14761041Y-8576575D02*
X14761041Y-8748004D01*
X14770565Y-8767051D01*
X14789612Y-8776575D01*
X14808660Y-8776575D01*
X15027708Y-8643242D02*
X15027708Y-8843242D01*
X15027708Y-8652766D02*
X15046755Y-8643242D01*
X15084850Y-8643242D01*
X15103898Y-8652766D01*
X15113422Y-8662289D01*
X15122946Y-8681337D01*
X15122946Y-8738480D01*
X15113422Y-8757528D01*
X15103898Y-8767051D01*
X15084850Y-8776575D01*
X15046755Y-8776575D01*
X15027708Y-8767051D01*
X15237231Y-8776575D02*
X15218184Y-8767051D01*
X15208660Y-8748004D01*
X15208660Y-8576575D01*
X15399136Y-8776575D02*
X15399136Y-8671813D01*
X15389612Y-8652766D01*
X15370565Y-8643242D01*
X15332469Y-8643242D01*
X15313422Y-8652766D01*
X15399136Y-8767051D02*
X15380088Y-8776575D01*
X15332469Y-8776575D01*
X15313422Y-8767051D01*
X15303898Y-8748004D01*
X15303898Y-8728956D01*
X15313422Y-8709909D01*
X15332469Y-8700385D01*
X15380088Y-8700385D01*
X15399136Y-8690861D01*
X15465803Y-8643242D02*
X15541993Y-8643242D01*
X15494374Y-8576575D02*
X15494374Y-8748004D01*
X15503898Y-8767051D01*
X15522946Y-8776575D01*
X15541993Y-8776575D01*
X15684850Y-8767051D02*
X15665803Y-8776575D01*
X15627708Y-8776575D01*
X15608660Y-8767051D01*
X15599136Y-8748004D01*
X15599136Y-8671813D01*
X15608660Y-8652766D01*
X15627708Y-8643242D01*
X15665803Y-8643242D01*
X15684850Y-8652766D01*
X15694374Y-8671813D01*
X15694374Y-8690861D01*
X15599136Y-8709909D01*
X15865803Y-8776575D02*
X15865803Y-8576575D01*
X15865803Y-8767051D02*
X15846755Y-8776575D01*
X15808660Y-8776575D01*
X15789612Y-8767051D01*
X15780088Y-8757528D01*
X15770565Y-8738480D01*
X15770565Y-8681337D01*
X15780088Y-8662289D01*
X15789612Y-8652766D01*
X15808660Y-8643242D01*
X15846755Y-8643242D01*
X15865803Y-8652766D01*
X15941993Y-8852766D02*
X15951517Y-8843242D01*
X15970565Y-8814670D01*
X15980088Y-8795623D01*
X15989612Y-8767051D01*
X15999136Y-8719432D01*
X15999136Y-8681337D01*
X15989612Y-8633718D01*
X15980088Y-8605147D01*
X15970565Y-8586099D01*
X15951517Y-8557528D01*
X15941993Y-8548004D01*
M02*
