G04 #@! TF.GenerationSoftware,KiCad,Pcbnew,(6.0.5)*
G04 #@! TF.CreationDate,2022-05-21T16:28:54+08:00*
G04 #@! TF.ProjectId,AT Sprint 3B.1 filter,41542053-7072-4696-9e74-2033422e3120,rev?*
G04 #@! TF.SameCoordinates,Original*
G04 #@! TF.FileFunction,Legend,Top*
G04 #@! TF.FilePolarity,Positive*
%FSLAX46Y46*%
G04 Gerber Fmt 4.6, Leading zero omitted, Abs format (unit mm)*
G04 Created by KiCad (PCBNEW (6.0.5)) date 2022-05-21 16:28:54*
%MOMM*%
%LPD*%
G01*
G04 APERTURE LIST*
%ADD10C,0.200000*%
%ADD11C,0.100000*%
%ADD12C,0.150000*%
%ADD13C,0.120000*%
%ADD14C,0.050000*%
G04 APERTURE END LIST*
D10*
X140716000Y-64093813D02*
X140716000Y-61955406D01*
X142763813Y-59907593D02*
G75*
G03*
X142763813Y-59907593I-2047813J0D01*
G01*
X145013407Y-59796406D02*
G75*
G03*
X145013407Y-59796406I-4297407J0D01*
G01*
X136461500Y-59817000D02*
X138620500Y-59817000D01*
X140716000Y-57721500D02*
X140716000Y-55562500D01*
X142811500Y-59817000D02*
X144970500Y-59817000D01*
D11*
X140204095Y-59751833D02*
X140442190Y-59751833D01*
X140156476Y-59894690D02*
X140323142Y-59394690D01*
X140489809Y-59894690D01*
X140894571Y-59894690D02*
X140656476Y-59894690D01*
X140656476Y-59394690D01*
X140989809Y-59394690D02*
X141275523Y-59394690D01*
X141132666Y-59894690D02*
X141132666Y-59394690D01*
X140418380Y-60699690D02*
X140180285Y-60699690D01*
X140180285Y-60199690D01*
X140751714Y-60437785D02*
X140585047Y-60437785D01*
X140585047Y-60699690D02*
X140585047Y-60199690D01*
X140823142Y-60199690D01*
X141227904Y-60366357D02*
X141227904Y-60699690D01*
X141108857Y-60175880D02*
X140989809Y-60533023D01*
X141299333Y-60533023D01*
X128123190Y-63627771D02*
X128099380Y-63651580D01*
X128027952Y-63675390D01*
X127980333Y-63675390D01*
X127908904Y-63651580D01*
X127861285Y-63603961D01*
X127837476Y-63556342D01*
X127813666Y-63461104D01*
X127813666Y-63389676D01*
X127837476Y-63294438D01*
X127861285Y-63246819D01*
X127908904Y-63199200D01*
X127980333Y-63175390D01*
X128027952Y-63175390D01*
X128099380Y-63199200D01*
X128123190Y-63223009D01*
X128266047Y-63175390D02*
X128551761Y-63175390D01*
X128408904Y-63675390D02*
X128408904Y-63175390D01*
X128670809Y-63175390D02*
X128980333Y-63175390D01*
X128813666Y-63365866D01*
X128885095Y-63365866D01*
X128932714Y-63389676D01*
X128956523Y-63413485D01*
X128980333Y-63461104D01*
X128980333Y-63580152D01*
X128956523Y-63627771D01*
X128932714Y-63651580D01*
X128885095Y-63675390D01*
X128742238Y-63675390D01*
X128694619Y-63651580D01*
X128670809Y-63627771D01*
X135565390Y-68326771D02*
X135541580Y-68350580D01*
X135470152Y-68374390D01*
X135422533Y-68374390D01*
X135351104Y-68350580D01*
X135303485Y-68302961D01*
X135279676Y-68255342D01*
X135255866Y-68160104D01*
X135255866Y-68088676D01*
X135279676Y-67993438D01*
X135303485Y-67945819D01*
X135351104Y-67898200D01*
X135422533Y-67874390D01*
X135470152Y-67874390D01*
X135541580Y-67898200D01*
X135565390Y-67922009D01*
X135708247Y-67874390D02*
X135993961Y-67874390D01*
X135851104Y-68374390D02*
X135851104Y-67874390D01*
X136136819Y-67922009D02*
X136160628Y-67898200D01*
X136208247Y-67874390D01*
X136327295Y-67874390D01*
X136374914Y-67898200D01*
X136398723Y-67922009D01*
X136422533Y-67969628D01*
X136422533Y-68017247D01*
X136398723Y-68088676D01*
X136113009Y-68374390D01*
X136422533Y-68374390D01*
X140088180Y-51407190D02*
X139850085Y-51407190D01*
X139850085Y-50907190D01*
X140421514Y-51145285D02*
X140254847Y-51145285D01*
X140254847Y-51407190D02*
X140254847Y-50907190D01*
X140492942Y-50907190D01*
X140897704Y-51073857D02*
X140897704Y-51407190D01*
X140778657Y-50883380D02*
X140659609Y-51240523D01*
X140969133Y-51240523D01*
X113792047Y-49027590D02*
X113792047Y-49384733D01*
X113768238Y-49456161D01*
X113720619Y-49503780D01*
X113649190Y-49527590D01*
X113601571Y-49527590D01*
X114196809Y-49265685D02*
X114030142Y-49265685D01*
X114030142Y-49527590D02*
X114030142Y-49027590D01*
X114268238Y-49027590D01*
X114720619Y-49527590D02*
X114434904Y-49527590D01*
X114577761Y-49527590D02*
X114577761Y-49027590D01*
X114530142Y-49099019D01*
X114482523Y-49146638D01*
X114434904Y-49170447D01*
X99016380Y-66116971D02*
X98992571Y-66140780D01*
X98921142Y-66164590D01*
X98873523Y-66164590D01*
X98802095Y-66140780D01*
X98754476Y-66093161D01*
X98730666Y-66045542D01*
X98706857Y-65950304D01*
X98706857Y-65878876D01*
X98730666Y-65783638D01*
X98754476Y-65736019D01*
X98802095Y-65688400D01*
X98873523Y-65664590D01*
X98921142Y-65664590D01*
X98992571Y-65688400D01*
X99016380Y-65712209D01*
X99397333Y-65902685D02*
X99230666Y-65902685D01*
X99230666Y-66164590D02*
X99230666Y-65664590D01*
X99468761Y-65664590D01*
X99611619Y-65664590D02*
X99921142Y-65664590D01*
X99754476Y-65855066D01*
X99825904Y-65855066D01*
X99873523Y-65878876D01*
X99897333Y-65902685D01*
X99921142Y-65950304D01*
X99921142Y-66069352D01*
X99897333Y-66116971D01*
X99873523Y-66140780D01*
X99825904Y-66164590D01*
X99683047Y-66164590D01*
X99635428Y-66140780D01*
X99611619Y-66116971D01*
X136405180Y-49022771D02*
X136381371Y-49046580D01*
X136309942Y-49070390D01*
X136262323Y-49070390D01*
X136190895Y-49046580D01*
X136143276Y-48998961D01*
X136119466Y-48951342D01*
X136095657Y-48856104D01*
X136095657Y-48784676D01*
X136119466Y-48689438D01*
X136143276Y-48641819D01*
X136190895Y-48594200D01*
X136262323Y-48570390D01*
X136309942Y-48570390D01*
X136381371Y-48594200D01*
X136405180Y-48618009D01*
X136786133Y-48808485D02*
X136619466Y-48808485D01*
X136619466Y-49070390D02*
X136619466Y-48570390D01*
X136857561Y-48570390D01*
X137000419Y-48570390D02*
X137333752Y-48570390D01*
X137119466Y-49070390D01*
X130080580Y-49073571D02*
X130056771Y-49097380D01*
X129985342Y-49121190D01*
X129937723Y-49121190D01*
X129866295Y-49097380D01*
X129818676Y-49049761D01*
X129794866Y-49002142D01*
X129771057Y-48906904D01*
X129771057Y-48835476D01*
X129794866Y-48740238D01*
X129818676Y-48692619D01*
X129866295Y-48645000D01*
X129937723Y-48621190D01*
X129985342Y-48621190D01*
X130056771Y-48645000D01*
X130080580Y-48668809D01*
X130461533Y-48859285D02*
X130294866Y-48859285D01*
X130294866Y-49121190D02*
X130294866Y-48621190D01*
X130532961Y-48621190D01*
X130961533Y-48621190D02*
X130723438Y-48621190D01*
X130699628Y-48859285D01*
X130723438Y-48835476D01*
X130771057Y-48811666D01*
X130890104Y-48811666D01*
X130937723Y-48835476D01*
X130961533Y-48859285D01*
X130985342Y-48906904D01*
X130985342Y-49025952D01*
X130961533Y-49073571D01*
X130937723Y-49097380D01*
X130890104Y-49121190D01*
X130771057Y-49121190D01*
X130723438Y-49097380D01*
X130699628Y-49073571D01*
X107925371Y-57828619D02*
X107949180Y-57852428D01*
X107972990Y-57923857D01*
X107972990Y-57971476D01*
X107949180Y-58042904D01*
X107901561Y-58090523D01*
X107853942Y-58114333D01*
X107758704Y-58138142D01*
X107687276Y-58138142D01*
X107592038Y-58114333D01*
X107544419Y-58090523D01*
X107496800Y-58042904D01*
X107472990Y-57971476D01*
X107472990Y-57923857D01*
X107496800Y-57852428D01*
X107520609Y-57828619D01*
X107711085Y-57447666D02*
X107711085Y-57614333D01*
X107972990Y-57614333D02*
X107472990Y-57614333D01*
X107472990Y-57376238D01*
X107639657Y-56971476D02*
X107972990Y-56971476D01*
X107449180Y-57090523D02*
X107806323Y-57209571D01*
X107806323Y-56900047D01*
X111208380Y-64227190D02*
X110970285Y-64227190D01*
X110970285Y-63727190D01*
X111541714Y-63965285D02*
X111375047Y-63965285D01*
X111375047Y-64227190D02*
X111375047Y-63727190D01*
X111613142Y-63727190D01*
X112065523Y-64227190D02*
X111779809Y-64227190D01*
X111922666Y-64227190D02*
X111922666Y-63727190D01*
X111875047Y-63798619D01*
X111827428Y-63846238D01*
X111779809Y-63870047D01*
X98762380Y-55224190D02*
X98524285Y-55224190D01*
X98524285Y-54724190D01*
X99095714Y-54962285D02*
X98929047Y-54962285D01*
X98929047Y-55224190D02*
X98929047Y-54724190D01*
X99167142Y-54724190D01*
X99333809Y-54771809D02*
X99357619Y-54748000D01*
X99405238Y-54724190D01*
X99524285Y-54724190D01*
X99571904Y-54748000D01*
X99595714Y-54771809D01*
X99619523Y-54819428D01*
X99619523Y-54867047D01*
X99595714Y-54938476D01*
X99310000Y-55224190D01*
X99619523Y-55224190D01*
X133280980Y-49048171D02*
X133257171Y-49071980D01*
X133185742Y-49095790D01*
X133138123Y-49095790D01*
X133066695Y-49071980D01*
X133019076Y-49024361D01*
X132995266Y-48976742D01*
X132971457Y-48881504D01*
X132971457Y-48810076D01*
X132995266Y-48714838D01*
X133019076Y-48667219D01*
X133066695Y-48619600D01*
X133138123Y-48595790D01*
X133185742Y-48595790D01*
X133257171Y-48619600D01*
X133280980Y-48643409D01*
X133661933Y-48833885D02*
X133495266Y-48833885D01*
X133495266Y-49095790D02*
X133495266Y-48595790D01*
X133733361Y-48595790D01*
X134138123Y-48595790D02*
X134042885Y-48595790D01*
X133995266Y-48619600D01*
X133971457Y-48643409D01*
X133923838Y-48714838D01*
X133900028Y-48810076D01*
X133900028Y-49000552D01*
X133923838Y-49048171D01*
X133947647Y-49071980D01*
X133995266Y-49095790D01*
X134090504Y-49095790D01*
X134138123Y-49071980D01*
X134161933Y-49048171D01*
X134185742Y-49000552D01*
X134185742Y-48881504D01*
X134161933Y-48833885D01*
X134138123Y-48810076D01*
X134090504Y-48786266D01*
X133995266Y-48786266D01*
X133947647Y-48810076D01*
X133923838Y-48833885D01*
X133900028Y-48881504D01*
X120860380Y-61821190D02*
X120622285Y-61821190D01*
X120622285Y-61321190D01*
X121193714Y-61559285D02*
X121027047Y-61559285D01*
X121027047Y-61821190D02*
X121027047Y-61321190D01*
X121265142Y-61321190D01*
X121408000Y-61321190D02*
X121717523Y-61321190D01*
X121550857Y-61511666D01*
X121622285Y-61511666D01*
X121669904Y-61535476D01*
X121693714Y-61559285D01*
X121717523Y-61606904D01*
X121717523Y-61725952D01*
X121693714Y-61773571D01*
X121669904Y-61797380D01*
X121622285Y-61821190D01*
X121479428Y-61821190D01*
X121431809Y-61797380D01*
X121408000Y-61773571D01*
D12*
X105259142Y-65492238D02*
X105306761Y-65539857D01*
X105354380Y-65682714D01*
X105354380Y-65777952D01*
X105306761Y-65920809D01*
X105211523Y-66016047D01*
X105116285Y-66063666D01*
X104925809Y-66111285D01*
X104782952Y-66111285D01*
X104592476Y-66063666D01*
X104497238Y-66016047D01*
X104402000Y-65920809D01*
X104354380Y-65777952D01*
X104354380Y-65682714D01*
X104402000Y-65539857D01*
X104449619Y-65492238D01*
X104830571Y-64730333D02*
X104830571Y-65063666D01*
X105354380Y-65063666D02*
X104354380Y-65063666D01*
X104354380Y-64587476D01*
X104449619Y-64254142D02*
X104402000Y-64206523D01*
X104354380Y-64111285D01*
X104354380Y-63873190D01*
X104402000Y-63777952D01*
X104449619Y-63730333D01*
X104544857Y-63682714D01*
X104640095Y-63682714D01*
X104782952Y-63730333D01*
X105354380Y-64301761D01*
X105354380Y-63682714D01*
D11*
X111817980Y-53899571D02*
X111794171Y-53923380D01*
X111722742Y-53947190D01*
X111675123Y-53947190D01*
X111603695Y-53923380D01*
X111556076Y-53875761D01*
X111532266Y-53828142D01*
X111508457Y-53732904D01*
X111508457Y-53661476D01*
X111532266Y-53566238D01*
X111556076Y-53518619D01*
X111603695Y-53471000D01*
X111675123Y-53447190D01*
X111722742Y-53447190D01*
X111794171Y-53471000D01*
X111817980Y-53494809D01*
X112198933Y-53685285D02*
X112032266Y-53685285D01*
X112032266Y-53947190D02*
X112032266Y-53447190D01*
X112270361Y-53447190D01*
X112722742Y-53947190D02*
X112437028Y-53947190D01*
X112579885Y-53947190D02*
X112579885Y-53447190D01*
X112532266Y-53518619D01*
X112484647Y-53566238D01*
X112437028Y-53590047D01*
D13*
X126753852Y-59294000D02*
X126744000Y-57944000D01*
X128494000Y-57194000D02*
X126744000Y-57944000D01*
X126753852Y-60594000D02*
X126744000Y-61944000D01*
X126744000Y-61944000D02*
X128494000Y-62694000D01*
X132744000Y-59244000D02*
G75*
G03*
X128494000Y-57194000I-2953478J-692576D01*
G01*
X128494000Y-62694000D02*
G75*
G03*
X132744000Y-60644000I1296510J2742602D01*
G01*
X137152148Y-65420000D02*
X137162000Y-66770000D01*
X135412000Y-67520000D02*
X137162000Y-66770000D01*
X137152148Y-64120000D02*
X137162000Y-62770000D01*
X137162000Y-62770000D02*
X135412000Y-62020000D01*
X131162000Y-65470000D02*
G75*
G03*
X135412000Y-67520000I2953478J692576D01*
G01*
X135412000Y-62020000D02*
G75*
G03*
X131162000Y-64070000I-1296510J-2742602D01*
G01*
X141891118Y-52547000D02*
G75*
G03*
X141891118Y-54387000I-1512118J-920000D01*
G01*
X119253000Y-52892000D02*
X106493000Y-52892000D01*
X119253000Y-50232000D02*
X106493000Y-50232000D01*
X121853000Y-50232000D02*
X121853000Y-51562000D01*
X119253000Y-50232000D02*
X119253000Y-52892000D01*
X120523000Y-50232000D02*
X121853000Y-50232000D01*
X106493000Y-50232000D02*
X106493000Y-52892000D01*
X101934000Y-62638000D02*
X101934000Y-62953000D01*
X101934000Y-65063000D02*
X101934000Y-65378000D01*
X96694000Y-65378000D02*
X101934000Y-65378000D01*
X96694000Y-65063000D02*
X96694000Y-65378000D01*
X96694000Y-62638000D02*
X96694000Y-62953000D01*
X96694000Y-62638000D02*
X101934000Y-62638000D01*
X138066000Y-55754000D02*
X138066000Y-50514000D01*
X135326000Y-50514000D02*
X135641000Y-50514000D01*
X137751000Y-55754000D02*
X138066000Y-55754000D01*
X137751000Y-50514000D02*
X138066000Y-50514000D01*
X135326000Y-55754000D02*
X135326000Y-50514000D01*
X135326000Y-55754000D02*
X135641000Y-55754000D01*
X131716000Y-55754000D02*
X131716000Y-50514000D01*
X128976000Y-55754000D02*
X128976000Y-50514000D01*
X128976000Y-55754000D02*
X129291000Y-55754000D01*
X131401000Y-50514000D02*
X131716000Y-50514000D01*
X131401000Y-55754000D02*
X131716000Y-55754000D01*
X128976000Y-50514000D02*
X129291000Y-50514000D01*
X106846000Y-60064000D02*
X107161000Y-60064000D01*
X107161000Y-60064000D02*
X107161000Y-54824000D01*
X106846000Y-54824000D02*
X107161000Y-54824000D01*
X104421000Y-60064000D02*
X104736000Y-60064000D01*
X104421000Y-54824000D02*
X104736000Y-54824000D01*
X104421000Y-60064000D02*
X104421000Y-54824000D01*
D12*
X111506000Y-59236000D02*
X111506000Y-61801360D01*
X111506000Y-66101580D02*
X111506000Y-68766000D01*
X106741000Y-64001000D02*
X109405420Y-64001000D01*
X113715800Y-64001000D02*
X116271000Y-64001000D01*
X116271000Y-64001000D02*
G75*
G03*
X116271000Y-64001000I-4765000J0D01*
G01*
D13*
X112074000Y-58921000D02*
G75*
G03*
X112074000Y-58921000I-60000J0D01*
G01*
D12*
X113606580Y-64001000D02*
G75*
G03*
X113606580Y-64001000I-2100580J0D01*
G01*
X103825000Y-54998000D02*
X101160580Y-54998000D01*
X99060000Y-59763000D02*
X99060000Y-57197640D01*
X99060000Y-52897420D02*
X99060000Y-50233000D01*
X96850200Y-54998000D02*
X94295000Y-54998000D01*
X101160580Y-54998000D02*
G75*
G03*
X101160580Y-54998000I-2100580J0D01*
G01*
X103825000Y-54998000D02*
G75*
G03*
X103825000Y-54998000I-4765000J0D01*
G01*
D13*
X98612000Y-60078000D02*
G75*
G03*
X98612000Y-60078000I-60000J0D01*
G01*
X134891000Y-50514000D02*
X134891000Y-55754000D01*
X134891000Y-55754000D02*
X134576000Y-55754000D01*
X134891000Y-50514000D02*
X134576000Y-50514000D01*
X132466000Y-55754000D02*
X132151000Y-55754000D01*
X132151000Y-50514000D02*
X132151000Y-55754000D01*
X132466000Y-50514000D02*
X132151000Y-50514000D01*
D12*
X125923000Y-61595000D02*
G75*
G03*
X125923000Y-61595000I-4765000J0D01*
G01*
X123258580Y-61595000D02*
G75*
G03*
X123258580Y-61595000I-2100580J0D01*
G01*
D14*
X122234000Y-56645000D02*
G75*
G03*
X122234000Y-56645000I-60000J0D01*
G01*
X124268000Y-56635000D02*
G75*
G03*
X124268000Y-56635000I-60000J0D01*
G01*
X118109999Y-56545000D02*
G75*
G03*
X124208000Y-56695000I3070538J800570D01*
G01*
X120158000Y-56545000D02*
G75*
G03*
X122174000Y-56705000I1073764J748628D01*
G01*
D12*
X121158000Y-63695580D02*
X121158000Y-66360000D01*
X123367800Y-61595000D02*
X125923000Y-61595000D01*
X116393000Y-61595000D02*
X119057420Y-61595000D01*
X121158000Y-56830000D02*
X121158000Y-59395360D01*
D13*
X105957000Y-62277000D02*
X106272000Y-62277000D01*
X103532000Y-62277000D02*
X103847000Y-62277000D01*
X103532000Y-67517000D02*
X103532000Y-62277000D01*
X106272000Y-67517000D02*
X106272000Y-62277000D01*
X105957000Y-67517000D02*
X106272000Y-67517000D01*
X103532000Y-67517000D02*
X103847000Y-67517000D01*
X114507000Y-54444000D02*
X114507000Y-54129000D01*
X109267000Y-56869000D02*
X109267000Y-56554000D01*
X114507000Y-56869000D02*
X109267000Y-56869000D01*
X109267000Y-54444000D02*
X109267000Y-54129000D01*
X114507000Y-54129000D02*
X109267000Y-54129000D01*
X114507000Y-56869000D02*
X114507000Y-56554000D01*
M02*
