G04 #@! TF.GenerationSoftware,KiCad,Pcbnew,(6.0.5)*
G04 #@! TF.CreationDate,2022-05-21T16:28:54+08:00*
G04 #@! TF.ProjectId,AT Sprint 3B.1 filter,41542053-7072-4696-9e74-2033422e3120,rev?*
G04 #@! TF.SameCoordinates,Original*
G04 #@! TF.FileFunction,Copper,L2,Bot*
G04 #@! TF.FilePolarity,Positive*
%FSLAX46Y46*%
G04 Gerber Fmt 4.6, Leading zero omitted, Abs format (unit mm)*
G04 Created by KiCad (PCBNEW (6.0.5)) date 2022-05-21 16:28:54*
%MOMM*%
%LPD*%
G01*
G04 APERTURE LIST*
G04 Aperture macros list*
%AMRoundRect*
0 Rectangle with rounded corners*
0 $1 Rounding radius*
0 $2 $3 $4 $5 $6 $7 $8 $9 X,Y pos of 4 corners*
0 Add a 4 corners polygon primitive as box body*
4,1,4,$2,$3,$4,$5,$6,$7,$8,$9,$2,$3,0*
0 Add four circle primitives for the rounded corners*
1,1,$1+$1,$2,$3*
1,1,$1+$1,$4,$5*
1,1,$1+$1,$6,$7*
1,1,$1+$1,$8,$9*
0 Add four rect primitives between the rounded corners*
20,1,$1+$1,$2,$3,$4,$5,0*
20,1,$1+$1,$4,$5,$6,$7,0*
20,1,$1+$1,$6,$7,$8,$9,0*
20,1,$1+$1,$8,$9,$2,$3,0*%
G04 Aperture macros list end*
G04 #@! TA.AperFunction,NonConductor*
%ADD10C,0.200000*%
G04 #@! TD*
G04 #@! TA.AperFunction,ComponentPad*
%ADD11C,1.500000*%
G04 #@! TD*
G04 #@! TA.AperFunction,ComponentPad*
%ADD12C,1.600000*%
G04 #@! TD*
G04 #@! TA.AperFunction,ComponentPad*
%ADD13O,1.600000X1.600000*%
G04 #@! TD*
G04 #@! TA.AperFunction,ComponentPad*
%ADD14R,1.700000X1.700000*%
G04 #@! TD*
G04 #@! TA.AperFunction,ComponentPad*
%ADD15O,1.700000X1.700000*%
G04 #@! TD*
G04 #@! TA.AperFunction,ComponentPad*
%ADD16C,1.524000*%
G04 #@! TD*
G04 #@! TA.AperFunction,SMDPad,CuDef*
%ADD17RoundRect,0.250000X-0.450000X0.350000X-0.450000X-0.350000X0.450000X-0.350000X0.450000X0.350000X0*%
G04 #@! TD*
G04 #@! TA.AperFunction,Conductor*
%ADD18C,0.250000*%
G04 #@! TD*
G04 APERTURE END LIST*
D10*
X145288000Y-132207000D02*
X91948000Y-132207000D01*
D11*
X127294000Y-59944000D03*
X132294000Y-59944000D03*
X136612000Y-64770000D03*
X131612000Y-64770000D03*
D12*
X140379000Y-53467000D03*
D13*
X142919000Y-53467000D03*
D14*
X120523000Y-51562000D03*
D15*
X117983000Y-51562000D03*
X115443000Y-51562000D03*
X112903000Y-51562000D03*
X110363000Y-51562000D03*
X107823000Y-51562000D03*
D12*
X96814000Y-64008000D03*
X101814000Y-64008000D03*
X136696000Y-55634000D03*
X136696000Y-50634000D03*
X130346000Y-55634000D03*
X130346000Y-50634000D03*
X105791000Y-59944000D03*
X105791000Y-54944000D03*
D16*
X112776000Y-58413000D03*
X110236000Y-58413000D03*
X97790000Y-60586000D03*
X100330000Y-60586000D03*
D12*
X133521000Y-50634000D03*
X133521000Y-55634000D03*
D16*
X118110000Y-55753000D03*
X124206000Y-55753000D03*
X120142000Y-55753000D03*
X122174000Y-55753000D03*
D12*
X104902000Y-67397000D03*
X104902000Y-62397000D03*
X114387000Y-55499000D03*
X109387000Y-55499000D03*
D17*
X115443000Y-60214000D03*
X115443000Y-62214000D03*
D18*
X111531400Y-57643400D02*
X111531400Y-59994800D01*
X109387000Y-55499000D02*
X111531400Y-57643400D01*
X120142000Y-57515000D02*
X115443000Y-62214000D01*
X120142000Y-55753000D02*
X120142000Y-57515000D01*
X113750600Y-62214000D02*
X115443000Y-62214000D01*
X111531400Y-59994800D02*
X113750600Y-62214000D01*
X131936300Y-55634000D02*
X133521000Y-55634000D01*
X120523000Y-51562000D02*
X127864300Y-51562000D01*
X127864300Y-51562000D02*
X131936300Y-55634000D01*
X117983000Y-51562000D02*
X122174000Y-55753000D01*
X116293000Y-52412000D02*
X116293000Y-59364000D01*
X116293000Y-59364000D02*
X115443000Y-60214000D01*
X115443000Y-51562000D02*
X116293000Y-52412000D01*
G04 #@! TA.AperFunction,Conductor*
G36*
X137115134Y-48133492D02*
G01*
X137132708Y-48134728D01*
X137161046Y-48138728D01*
X137169933Y-48137437D01*
X137169934Y-48137437D01*
X137183351Y-48135488D01*
X137204053Y-48134206D01*
X137685929Y-48144108D01*
X137694683Y-48144593D01*
X137786651Y-48152906D01*
X138207000Y-48190902D01*
X138215679Y-48191992D01*
X138494949Y-48236987D01*
X138723551Y-48273819D01*
X138732154Y-48275514D01*
X139233091Y-48392459D01*
X139241554Y-48394748D01*
X139733168Y-48546253D01*
X139741400Y-48549108D01*
X140221323Y-48734448D01*
X140229332Y-48737866D01*
X140652925Y-48936326D01*
X140695174Y-48956120D01*
X140702979Y-48960114D01*
X141152473Y-49210212D01*
X141159982Y-49214738D01*
X141591035Y-49495515D01*
X141598210Y-49500554D01*
X142008657Y-49810600D01*
X142015462Y-49816123D01*
X142403379Y-50153986D01*
X142409754Y-50159940D01*
X142773241Y-50523965D01*
X142779216Y-50530381D01*
X143116493Y-50918787D01*
X143122008Y-50925603D01*
X143431461Y-51336528D01*
X143436488Y-51343711D01*
X143716604Y-51775146D01*
X143721120Y-51782661D01*
X143970566Y-52232552D01*
X143974548Y-52240362D01*
X144050458Y-52403014D01*
X144061142Y-52473200D01*
X144032184Y-52538023D01*
X143972777Y-52576899D01*
X143901783Y-52577485D01*
X143847186Y-52545395D01*
X143766875Y-52465084D01*
X143758467Y-52458028D01*
X143580007Y-52333069D01*
X143570511Y-52327586D01*
X143373053Y-52235510D01*
X143362761Y-52231764D01*
X143190497Y-52185606D01*
X143176401Y-52185942D01*
X143173000Y-52193884D01*
X143173000Y-53194885D01*
X143177475Y-53210124D01*
X143178865Y-53211329D01*
X143186548Y-53213000D01*
X144186967Y-53213000D01*
X144223024Y-53202413D01*
X144247720Y-53186541D01*
X144318716Y-53186539D01*
X144378443Y-53224921D01*
X144403688Y-53270506D01*
X144532167Y-53689607D01*
X144533762Y-53694811D01*
X144536036Y-53703270D01*
X144633541Y-54123749D01*
X144652239Y-54204382D01*
X144653920Y-54212983D01*
X144683571Y-54398764D01*
X144734992Y-54720956D01*
X144736072Y-54729657D01*
X144741151Y-54786789D01*
X144780123Y-55225180D01*
X144781622Y-55242044D01*
X144782093Y-55250788D01*
X144788852Y-55605257D01*
X144791137Y-55725080D01*
X144789339Y-55748823D01*
X144788427Y-55754132D01*
X144786879Y-55763138D01*
X144787903Y-55772058D01*
X144791011Y-55799130D01*
X144791833Y-55813758D01*
X144779774Y-61714794D01*
X144779601Y-61799242D01*
X144778101Y-61818368D01*
X144774309Y-61842714D01*
X144775473Y-61851617D01*
X144775473Y-61851621D01*
X144777240Y-61865134D01*
X144778229Y-61885812D01*
X144768636Y-62163688D01*
X144761819Y-62361134D01*
X144761220Y-62369803D01*
X144708731Y-62875187D01*
X144707536Y-62883794D01*
X144666665Y-63118424D01*
X144629330Y-63332756D01*
X144620339Y-63384368D01*
X144618555Y-63392862D01*
X144497065Y-63886224D01*
X144494698Y-63894584D01*
X144339486Y-64378423D01*
X144336560Y-64386569D01*
X144225644Y-64664749D01*
X144148368Y-64858559D01*
X144144873Y-64866515D01*
X143924607Y-65324392D01*
X143920572Y-65332088D01*
X143669274Y-65773691D01*
X143664719Y-65781090D01*
X143383756Y-66204061D01*
X143383581Y-66204324D01*
X143378526Y-66211392D01*
X143068875Y-66614256D01*
X143063368Y-66620933D01*
X142726677Y-67001506D01*
X142720698Y-67007811D01*
X142358601Y-67364250D01*
X142352202Y-67370129D01*
X142314459Y-67402475D01*
X142048502Y-67630402D01*
X141966396Y-67700767D01*
X141959607Y-67706191D01*
X141551914Y-68009461D01*
X141544767Y-68014403D01*
X141334232Y-68149525D01*
X141117165Y-68288839D01*
X141109704Y-68293272D01*
X140664183Y-68537593D01*
X140656425Y-68541506D01*
X140195131Y-68754537D01*
X140187136Y-68757900D01*
X139949691Y-68848267D01*
X139712255Y-68938630D01*
X139704032Y-68941439D01*
X139217823Y-69089009D01*
X139209426Y-69091244D01*
X138714224Y-69204947D01*
X138705693Y-69206599D01*
X138617156Y-69220589D01*
X138203790Y-69285906D01*
X138195188Y-69286963D01*
X137942109Y-69309225D01*
X137689042Y-69331486D01*
X137680365Y-69331949D01*
X137221509Y-69340559D01*
X137215210Y-69340677D01*
X137212385Y-69340730D01*
X137188680Y-69338932D01*
X137183200Y-69337990D01*
X137183199Y-69337990D01*
X137174354Y-69336470D01*
X137137707Y-69340677D01*
X137123337Y-69341499D01*
X99998367Y-69341499D01*
X99978982Y-69339999D01*
X99964148Y-69337689D01*
X99964145Y-69337689D01*
X99955276Y-69336308D01*
X99946373Y-69337472D01*
X99946371Y-69337472D01*
X99933121Y-69339204D01*
X99912291Y-69340187D01*
X99418984Y-69322569D01*
X99410012Y-69321927D01*
X98887181Y-69265717D01*
X98878278Y-69264437D01*
X98548546Y-69204947D01*
X98360780Y-69171070D01*
X98351994Y-69169159D01*
X97842474Y-69039112D01*
X97833854Y-69036580D01*
X97649597Y-68975254D01*
X97334911Y-68870516D01*
X97326484Y-68867373D01*
X96840656Y-68666137D01*
X96832474Y-68662400D01*
X96362256Y-68427026D01*
X96354362Y-68422716D01*
X95902115Y-68154385D01*
X95894553Y-68149525D01*
X95462608Y-67849619D01*
X95455408Y-67844229D01*
X95045965Y-67514280D01*
X95039167Y-67508390D01*
X94919526Y-67397000D01*
X103588502Y-67397000D01*
X103608457Y-67625087D01*
X103609881Y-67630400D01*
X103609881Y-67630402D01*
X103628736Y-67700767D01*
X103667716Y-67846243D01*
X103670039Y-67851224D01*
X103670039Y-67851225D01*
X103762151Y-68048762D01*
X103762154Y-68048767D01*
X103764477Y-68053749D01*
X103895802Y-68241300D01*
X104057700Y-68403198D01*
X104062208Y-68406355D01*
X104062211Y-68406357D01*
X104140389Y-68461098D01*
X104245251Y-68534523D01*
X104250233Y-68536846D01*
X104250238Y-68536849D01*
X104393508Y-68603656D01*
X104452757Y-68631284D01*
X104458065Y-68632706D01*
X104458067Y-68632707D01*
X104668598Y-68689119D01*
X104668600Y-68689119D01*
X104673913Y-68690543D01*
X104902000Y-68710498D01*
X105130087Y-68690543D01*
X105135400Y-68689119D01*
X105135402Y-68689119D01*
X105345933Y-68632707D01*
X105345935Y-68632706D01*
X105351243Y-68631284D01*
X105410492Y-68603656D01*
X105553762Y-68536849D01*
X105553767Y-68536846D01*
X105558749Y-68534523D01*
X105663611Y-68461098D01*
X105741789Y-68406357D01*
X105741792Y-68406355D01*
X105746300Y-68403198D01*
X105908198Y-68241300D01*
X106039523Y-68053749D01*
X106041846Y-68048767D01*
X106041849Y-68048762D01*
X106133961Y-67851225D01*
X106133961Y-67851224D01*
X106136284Y-67846243D01*
X106175265Y-67700767D01*
X106194119Y-67630402D01*
X106194119Y-67630400D01*
X106195543Y-67625087D01*
X106215498Y-67397000D01*
X106195543Y-67168913D01*
X106188788Y-67143703D01*
X106137707Y-66953067D01*
X106137706Y-66953065D01*
X106136284Y-66947757D01*
X106045018Y-66752035D01*
X106041849Y-66745238D01*
X106041846Y-66745233D01*
X106039523Y-66740251D01*
X105951300Y-66614256D01*
X105911357Y-66557211D01*
X105911355Y-66557208D01*
X105908198Y-66552700D01*
X105746300Y-66390802D01*
X105741792Y-66387645D01*
X105741789Y-66387643D01*
X105663611Y-66332902D01*
X105558749Y-66259477D01*
X105553767Y-66257154D01*
X105553762Y-66257151D01*
X105356225Y-66165039D01*
X105356224Y-66165039D01*
X105351243Y-66162716D01*
X105345935Y-66161294D01*
X105345933Y-66161293D01*
X105135402Y-66104881D01*
X105135400Y-66104881D01*
X105130087Y-66103457D01*
X104902000Y-66083502D01*
X104673913Y-66103457D01*
X104668600Y-66104881D01*
X104668598Y-66104881D01*
X104458067Y-66161293D01*
X104458065Y-66161294D01*
X104452757Y-66162716D01*
X104447776Y-66165039D01*
X104447775Y-66165039D01*
X104250238Y-66257151D01*
X104250233Y-66257154D01*
X104245251Y-66259477D01*
X104140389Y-66332902D01*
X104062211Y-66387643D01*
X104062208Y-66387645D01*
X104057700Y-66390802D01*
X103895802Y-66552700D01*
X103892645Y-66557208D01*
X103892643Y-66557211D01*
X103852700Y-66614256D01*
X103764477Y-66740251D01*
X103762154Y-66745233D01*
X103762151Y-66745238D01*
X103758982Y-66752035D01*
X103667716Y-66947757D01*
X103666294Y-66953065D01*
X103666293Y-66953067D01*
X103615212Y-67143703D01*
X103608457Y-67168913D01*
X103588502Y-67397000D01*
X94919526Y-67397000D01*
X94654297Y-67150063D01*
X94647937Y-67143703D01*
X94289610Y-66758833D01*
X94283720Y-66752035D01*
X93953771Y-66342592D01*
X93948381Y-66335392D01*
X93648475Y-65903447D01*
X93643612Y-65895880D01*
X93626110Y-65866381D01*
X93598686Y-65820161D01*
X130926393Y-65820161D01*
X130935687Y-65832175D01*
X130976088Y-65860464D01*
X130985584Y-65865947D01*
X131175113Y-65954326D01*
X131185405Y-65958072D01*
X131387401Y-66012196D01*
X131398196Y-66014099D01*
X131606525Y-66032326D01*
X131617475Y-66032326D01*
X131825804Y-66014099D01*
X131836599Y-66012196D01*
X132038595Y-65958072D01*
X132048887Y-65954326D01*
X132238416Y-65865947D01*
X132247912Y-65860464D01*
X132289148Y-65831590D01*
X132297523Y-65821112D01*
X132290457Y-65807668D01*
X131624811Y-65142021D01*
X131610868Y-65134408D01*
X131609034Y-65134539D01*
X131602420Y-65138790D01*
X130932820Y-65808391D01*
X130926393Y-65820161D01*
X93598686Y-65820161D01*
X93375282Y-65443633D01*
X93370974Y-65435744D01*
X93365057Y-65423922D01*
X93222330Y-65138790D01*
X93135600Y-64965526D01*
X93131863Y-64957344D01*
X92930627Y-64471516D01*
X92927484Y-64463089D01*
X92801588Y-64084833D01*
X92776016Y-64008000D01*
X95500502Y-64008000D01*
X95520457Y-64236087D01*
X95521881Y-64241400D01*
X95521881Y-64241402D01*
X95549025Y-64342702D01*
X95579716Y-64457243D01*
X95582039Y-64462224D01*
X95582039Y-64462225D01*
X95674151Y-64659762D01*
X95674154Y-64659767D01*
X95676477Y-64664749D01*
X95679634Y-64669257D01*
X95787158Y-64822817D01*
X95807802Y-64852300D01*
X95969700Y-65014198D01*
X95974208Y-65017355D01*
X95974211Y-65017357D01*
X96040762Y-65063956D01*
X96157251Y-65145523D01*
X96162233Y-65147846D01*
X96162238Y-65147849D01*
X96359775Y-65239961D01*
X96364757Y-65242284D01*
X96370065Y-65243706D01*
X96370067Y-65243707D01*
X96580598Y-65300119D01*
X96580600Y-65300119D01*
X96585913Y-65301543D01*
X96814000Y-65321498D01*
X97042087Y-65301543D01*
X97047400Y-65300119D01*
X97047402Y-65300119D01*
X97257933Y-65243707D01*
X97257935Y-65243706D01*
X97263243Y-65242284D01*
X97268225Y-65239961D01*
X97465762Y-65147849D01*
X97465767Y-65147846D01*
X97470749Y-65145523D01*
X97587238Y-65063956D01*
X97653789Y-65017357D01*
X97653792Y-65017355D01*
X97658300Y-65014198D01*
X97820198Y-64852300D01*
X97840843Y-64822817D01*
X97948366Y-64669257D01*
X97951523Y-64664749D01*
X97953846Y-64659767D01*
X97953849Y-64659762D01*
X98045961Y-64462225D01*
X98045961Y-64462224D01*
X98048284Y-64457243D01*
X98078976Y-64342702D01*
X98106119Y-64241402D01*
X98106119Y-64241400D01*
X98107543Y-64236087D01*
X98127498Y-64008000D01*
X100500502Y-64008000D01*
X100520457Y-64236087D01*
X100521881Y-64241400D01*
X100521881Y-64241402D01*
X100549025Y-64342702D01*
X100579716Y-64457243D01*
X100582039Y-64462224D01*
X100582039Y-64462225D01*
X100674151Y-64659762D01*
X100674154Y-64659767D01*
X100676477Y-64664749D01*
X100679634Y-64669257D01*
X100787158Y-64822817D01*
X100807802Y-64852300D01*
X100969700Y-65014198D01*
X100974208Y-65017355D01*
X100974211Y-65017357D01*
X101040762Y-65063956D01*
X101157251Y-65145523D01*
X101162233Y-65147846D01*
X101162238Y-65147849D01*
X101359775Y-65239961D01*
X101364757Y-65242284D01*
X101370065Y-65243706D01*
X101370067Y-65243707D01*
X101580598Y-65300119D01*
X101580600Y-65300119D01*
X101585913Y-65301543D01*
X101814000Y-65321498D01*
X102042087Y-65301543D01*
X102047400Y-65300119D01*
X102047402Y-65300119D01*
X102257933Y-65243707D01*
X102257935Y-65243706D01*
X102263243Y-65242284D01*
X102268225Y-65239961D01*
X102465762Y-65147849D01*
X102465767Y-65147846D01*
X102470749Y-65145523D01*
X102587238Y-65063956D01*
X102653789Y-65017357D01*
X102653792Y-65017355D01*
X102658300Y-65014198D01*
X102820198Y-64852300D01*
X102840843Y-64822817D01*
X102873992Y-64775475D01*
X130349674Y-64775475D01*
X130367901Y-64983804D01*
X130369804Y-64994599D01*
X130423928Y-65196595D01*
X130427674Y-65206887D01*
X130516054Y-65396417D01*
X130521534Y-65405907D01*
X130550411Y-65447149D01*
X130560887Y-65455523D01*
X130574334Y-65448455D01*
X131239979Y-64782811D01*
X131246356Y-64771132D01*
X131976408Y-64771132D01*
X131976539Y-64772966D01*
X131980790Y-64779580D01*
X132650391Y-65449180D01*
X132664328Y-65456790D01*
X132678957Y-65455744D01*
X132748331Y-65470835D01*
X132795936Y-65517647D01*
X132796099Y-65517536D01*
X132932544Y-65718307D01*
X133099332Y-65894681D01*
X133103358Y-65897759D01*
X133103359Y-65897760D01*
X133288154Y-66039047D01*
X133288158Y-66039050D01*
X133292174Y-66042120D01*
X133506109Y-66156831D01*
X133735631Y-66235862D01*
X133834978Y-66253022D01*
X133970926Y-66276504D01*
X133970932Y-66276505D01*
X133974836Y-66277179D01*
X133978797Y-66277359D01*
X133978798Y-66277359D01*
X134002506Y-66278436D01*
X134002525Y-66278436D01*
X134003925Y-66278500D01*
X134173001Y-66278500D01*
X134175509Y-66278298D01*
X134175514Y-66278298D01*
X134348924Y-66264346D01*
X134348929Y-66264345D01*
X134353965Y-66263940D01*
X134358873Y-66262734D01*
X134358876Y-66262734D01*
X134584792Y-66207244D01*
X134589706Y-66206037D01*
X134594358Y-66204062D01*
X134594362Y-66204061D01*
X134808498Y-66113165D01*
X134813156Y-66111188D01*
X134919037Y-66044511D01*
X135014288Y-65984528D01*
X135014291Y-65984526D01*
X135018567Y-65981833D01*
X135107479Y-65903447D01*
X135196858Y-65824650D01*
X135196861Y-65824647D01*
X135200655Y-65821302D01*
X135354734Y-65633722D01*
X135357275Y-65629356D01*
X135357280Y-65629349D01*
X135403470Y-65549986D01*
X135455024Y-65501172D01*
X135524784Y-65487979D01*
X135590602Y-65514596D01*
X135615582Y-65541095D01*
X135644251Y-65582038D01*
X135799962Y-65737749D01*
X135804471Y-65740906D01*
X135804473Y-65740908D01*
X135861859Y-65781090D01*
X135980346Y-65864056D01*
X136179924Y-65957120D01*
X136392629Y-66014115D01*
X136612000Y-66033307D01*
X136831371Y-66014115D01*
X137044076Y-65957120D01*
X137243654Y-65864056D01*
X137362141Y-65781090D01*
X137419527Y-65740908D01*
X137419529Y-65740906D01*
X137424038Y-65737749D01*
X137579749Y-65582038D01*
X137623757Y-65519189D01*
X137702899Y-65406162D01*
X137702900Y-65406160D01*
X137706056Y-65401653D01*
X137708379Y-65396671D01*
X137708382Y-65396666D01*
X137779707Y-65243707D01*
X137799120Y-65202076D01*
X137856115Y-64989371D01*
X137875307Y-64770000D01*
X137856115Y-64550629D01*
X137799120Y-64337924D01*
X137749077Y-64230607D01*
X137708382Y-64143334D01*
X137708379Y-64143329D01*
X137706056Y-64138347D01*
X137659387Y-64071697D01*
X137582908Y-63962473D01*
X137582906Y-63962470D01*
X137579749Y-63957962D01*
X137424038Y-63802251D01*
X137399963Y-63785393D01*
X137306342Y-63719839D01*
X137243654Y-63675944D01*
X137044076Y-63582880D01*
X136831371Y-63525885D01*
X136612000Y-63506693D01*
X136392629Y-63525885D01*
X136179924Y-63582880D01*
X136086562Y-63626415D01*
X135985334Y-63673618D01*
X135985329Y-63673621D01*
X135980347Y-63675944D01*
X135975840Y-63679100D01*
X135975838Y-63679101D01*
X135804473Y-63799092D01*
X135804470Y-63799094D01*
X135799962Y-63802251D01*
X135644251Y-63957962D01*
X135641094Y-63962470D01*
X135641092Y-63962473D01*
X135616977Y-63996913D01*
X135561520Y-64041241D01*
X135490900Y-64048550D01*
X135427540Y-64016519D01*
X135409552Y-63995465D01*
X135387131Y-63962473D01*
X135291456Y-63821693D01*
X135124668Y-63645319D01*
X135046656Y-63585674D01*
X134935846Y-63500953D01*
X134935842Y-63500950D01*
X134931826Y-63497880D01*
X134926599Y-63495077D01*
X134722352Y-63385561D01*
X134717891Y-63383169D01*
X134488369Y-63304138D01*
X134389022Y-63286978D01*
X134253074Y-63263496D01*
X134253068Y-63263495D01*
X134249164Y-63262821D01*
X134245203Y-63262641D01*
X134245202Y-63262641D01*
X134221494Y-63261564D01*
X134221475Y-63261564D01*
X134220075Y-63261500D01*
X134050999Y-63261500D01*
X134048491Y-63261702D01*
X134048486Y-63261702D01*
X133875076Y-63275654D01*
X133875071Y-63275655D01*
X133870035Y-63276060D01*
X133865127Y-63277266D01*
X133865124Y-63277266D01*
X133706877Y-63316135D01*
X133634294Y-63333963D01*
X133629642Y-63335938D01*
X133629638Y-63335939D01*
X133581817Y-63356238D01*
X133410844Y-63428812D01*
X133406560Y-63431510D01*
X133209712Y-63555472D01*
X133209709Y-63555474D01*
X133205433Y-63558167D01*
X133178481Y-63581928D01*
X133027142Y-63715350D01*
X133027139Y-63715353D01*
X133023345Y-63718698D01*
X133020135Y-63722606D01*
X133020134Y-63722607D01*
X132878872Y-63894584D01*
X132869266Y-63906278D01*
X132866721Y-63910650D01*
X132866718Y-63910655D01*
X132801398Y-64022884D01*
X132749845Y-64071697D01*
X132679528Y-64084833D01*
X132665248Y-64083355D01*
X132649666Y-64091545D01*
X131984021Y-64757189D01*
X131976408Y-64771132D01*
X131246356Y-64771132D01*
X131247592Y-64768868D01*
X131247461Y-64767034D01*
X131243210Y-64760420D01*
X130573609Y-64090820D01*
X130561839Y-64084393D01*
X130549824Y-64093689D01*
X130521534Y-64134093D01*
X130516054Y-64143583D01*
X130427674Y-64333113D01*
X130423928Y-64343405D01*
X130369804Y-64545401D01*
X130367901Y-64556196D01*
X130349674Y-64764525D01*
X130349674Y-64775475D01*
X102873992Y-64775475D01*
X102948366Y-64669257D01*
X102951523Y-64664749D01*
X102953846Y-64659767D01*
X102953849Y-64659762D01*
X103045961Y-64462225D01*
X103045961Y-64462224D01*
X103048284Y-64457243D01*
X103078976Y-64342702D01*
X103106119Y-64241402D01*
X103106119Y-64241400D01*
X103107543Y-64236087D01*
X103127498Y-64008000D01*
X103107543Y-63779913D01*
X103091191Y-63718887D01*
X130926477Y-63718887D01*
X130933545Y-63732334D01*
X131599189Y-64397979D01*
X131613132Y-64405592D01*
X131614966Y-64405461D01*
X131621580Y-64401210D01*
X132291180Y-63731609D01*
X132297607Y-63719839D01*
X132288313Y-63707825D01*
X132247912Y-63679536D01*
X132238416Y-63674053D01*
X132048887Y-63585674D01*
X132038595Y-63581928D01*
X131836599Y-63527804D01*
X131825804Y-63525901D01*
X131617475Y-63507674D01*
X131606525Y-63507674D01*
X131398196Y-63525901D01*
X131387401Y-63527804D01*
X131185405Y-63581928D01*
X131175113Y-63585674D01*
X130985583Y-63674054D01*
X130976093Y-63679534D01*
X130934851Y-63708411D01*
X130926477Y-63718887D01*
X103091191Y-63718887D01*
X103049707Y-63564067D01*
X103049706Y-63564065D01*
X103048284Y-63558757D01*
X103045961Y-63553775D01*
X103012987Y-63483062D01*
X104180493Y-63483062D01*
X104189789Y-63495077D01*
X104240994Y-63530931D01*
X104250489Y-63536414D01*
X104447947Y-63628490D01*
X104458239Y-63632236D01*
X104668688Y-63688625D01*
X104679481Y-63690528D01*
X104896525Y-63709517D01*
X104907475Y-63709517D01*
X105124519Y-63690528D01*
X105135312Y-63688625D01*
X105345761Y-63632236D01*
X105356053Y-63628490D01*
X105553511Y-63536414D01*
X105563006Y-63530931D01*
X105615048Y-63494491D01*
X105623424Y-63484012D01*
X105616356Y-63470566D01*
X104914812Y-62769022D01*
X104900868Y-62761408D01*
X104899035Y-62761539D01*
X104892420Y-62765790D01*
X104186923Y-63471287D01*
X104180493Y-63483062D01*
X103012987Y-63483062D01*
X102953849Y-63356238D01*
X102953846Y-63356233D01*
X102951523Y-63351251D01*
X102820198Y-63163700D01*
X102658300Y-63001802D01*
X102653792Y-62998645D01*
X102653789Y-62998643D01*
X102528363Y-62910819D01*
X102470749Y-62870477D01*
X102465767Y-62868154D01*
X102465762Y-62868151D01*
X102268225Y-62776039D01*
X102268224Y-62776039D01*
X102263243Y-62773716D01*
X102257935Y-62772294D01*
X102257933Y-62772293D01*
X102047402Y-62715881D01*
X102047400Y-62715881D01*
X102042087Y-62714457D01*
X101814000Y-62694502D01*
X101585913Y-62714457D01*
X101580600Y-62715881D01*
X101580598Y-62715881D01*
X101370067Y-62772293D01*
X101370065Y-62772294D01*
X101364757Y-62773716D01*
X101359776Y-62776039D01*
X101359775Y-62776039D01*
X101162238Y-62868151D01*
X101162233Y-62868154D01*
X101157251Y-62870477D01*
X101099637Y-62910819D01*
X100974211Y-62998643D01*
X100974208Y-62998645D01*
X100969700Y-63001802D01*
X100807802Y-63163700D01*
X100676477Y-63351251D01*
X100674154Y-63356233D01*
X100674151Y-63356238D01*
X100582039Y-63553775D01*
X100579716Y-63558757D01*
X100578294Y-63564065D01*
X100578293Y-63564067D01*
X100536809Y-63718887D01*
X100520457Y-63779913D01*
X100500502Y-64008000D01*
X98127498Y-64008000D01*
X98107543Y-63779913D01*
X98091191Y-63718887D01*
X98049707Y-63564067D01*
X98049706Y-63564065D01*
X98048284Y-63558757D01*
X98045961Y-63553775D01*
X97953849Y-63356238D01*
X97953846Y-63356233D01*
X97951523Y-63351251D01*
X97820198Y-63163700D01*
X97658300Y-63001802D01*
X97653792Y-62998645D01*
X97653789Y-62998643D01*
X97528363Y-62910819D01*
X97470749Y-62870477D01*
X97465767Y-62868154D01*
X97465762Y-62868151D01*
X97268225Y-62776039D01*
X97268224Y-62776039D01*
X97263243Y-62773716D01*
X97257935Y-62772294D01*
X97257933Y-62772293D01*
X97047402Y-62715881D01*
X97047400Y-62715881D01*
X97042087Y-62714457D01*
X96814000Y-62694502D01*
X96585913Y-62714457D01*
X96580600Y-62715881D01*
X96580598Y-62715881D01*
X96370067Y-62772293D01*
X96370065Y-62772294D01*
X96364757Y-62773716D01*
X96359776Y-62776039D01*
X96359775Y-62776039D01*
X96162238Y-62868151D01*
X96162233Y-62868154D01*
X96157251Y-62870477D01*
X96099637Y-62910819D01*
X95974211Y-62998643D01*
X95974208Y-62998645D01*
X95969700Y-63001802D01*
X95807802Y-63163700D01*
X95676477Y-63351251D01*
X95674154Y-63356233D01*
X95674151Y-63356238D01*
X95582039Y-63553775D01*
X95579716Y-63558757D01*
X95578294Y-63564065D01*
X95578293Y-63564067D01*
X95536809Y-63718887D01*
X95520457Y-63779913D01*
X95500502Y-64008000D01*
X92776016Y-64008000D01*
X92761420Y-63964146D01*
X92758887Y-63955521D01*
X92758516Y-63954065D01*
X92628841Y-63446004D01*
X92626929Y-63437217D01*
X92618929Y-63392873D01*
X92569413Y-63118424D01*
X92533563Y-62919722D01*
X92532283Y-62910819D01*
X92477631Y-62402475D01*
X103589483Y-62402475D01*
X103608472Y-62619519D01*
X103610375Y-62630312D01*
X103666764Y-62840761D01*
X103670510Y-62851053D01*
X103762586Y-63048511D01*
X103768069Y-63058006D01*
X103804509Y-63110048D01*
X103814988Y-63118424D01*
X103828434Y-63111356D01*
X104529978Y-62409812D01*
X104536356Y-62398132D01*
X105266408Y-62398132D01*
X105266539Y-62399965D01*
X105270790Y-62406580D01*
X105976287Y-63112077D01*
X105988062Y-63118507D01*
X106000077Y-63109211D01*
X106035931Y-63058006D01*
X106041414Y-63048511D01*
X106133490Y-62851053D01*
X106137236Y-62840761D01*
X106193625Y-62630312D01*
X106195528Y-62619519D01*
X106196265Y-62611095D01*
X114235001Y-62611095D01*
X114235338Y-62617614D01*
X114245257Y-62713206D01*
X114248149Y-62726600D01*
X114299588Y-62880784D01*
X114305761Y-62893962D01*
X114391063Y-63031807D01*
X114400099Y-63043208D01*
X114514829Y-63157739D01*
X114526240Y-63166751D01*
X114664243Y-63251816D01*
X114677424Y-63257963D01*
X114831710Y-63309138D01*
X114845086Y-63312005D01*
X114939438Y-63321672D01*
X114945854Y-63322000D01*
X115170885Y-63322000D01*
X115186124Y-63317525D01*
X115187329Y-63316135D01*
X115189000Y-63308452D01*
X115189000Y-63303884D01*
X115697000Y-63303884D01*
X115701475Y-63319123D01*
X115702865Y-63320328D01*
X115710548Y-63321999D01*
X115940095Y-63321999D01*
X115946614Y-63321662D01*
X116042206Y-63311743D01*
X116055600Y-63308851D01*
X116209784Y-63257412D01*
X116222962Y-63251239D01*
X116360807Y-63165937D01*
X116372208Y-63156901D01*
X116486739Y-63042171D01*
X116495751Y-63030760D01*
X116580816Y-62892757D01*
X116586963Y-62879576D01*
X116638138Y-62725290D01*
X116641005Y-62711914D01*
X116650672Y-62617562D01*
X116651000Y-62611146D01*
X116651000Y-62486115D01*
X116646525Y-62470876D01*
X116645135Y-62469671D01*
X116637452Y-62468000D01*
X115715115Y-62468000D01*
X115699876Y-62472475D01*
X115698671Y-62473865D01*
X115697000Y-62481548D01*
X115697000Y-63303884D01*
X115189000Y-63303884D01*
X115189000Y-62486115D01*
X115184525Y-62470876D01*
X115183135Y-62469671D01*
X115175452Y-62468000D01*
X114253116Y-62468000D01*
X114237877Y-62472475D01*
X114236672Y-62473865D01*
X114235001Y-62481548D01*
X114235001Y-62611095D01*
X106196265Y-62611095D01*
X106214517Y-62402475D01*
X106214517Y-62391525D01*
X106195528Y-62174481D01*
X106193625Y-62163688D01*
X106137236Y-61953239D01*
X106133490Y-61942947D01*
X106041414Y-61745489D01*
X106035931Y-61735994D01*
X105999491Y-61683952D01*
X105989012Y-61675576D01*
X105975566Y-61682644D01*
X105274022Y-62384188D01*
X105266408Y-62398132D01*
X104536356Y-62398132D01*
X104537592Y-62395868D01*
X104537461Y-62394035D01*
X104533210Y-62387420D01*
X103827713Y-61681923D01*
X103815938Y-61675493D01*
X103803923Y-61684789D01*
X103768069Y-61735994D01*
X103762586Y-61745489D01*
X103670510Y-61942947D01*
X103666764Y-61953239D01*
X103610375Y-62163688D01*
X103608472Y-62174481D01*
X103589483Y-62391525D01*
X103589483Y-62402475D01*
X92477631Y-62402475D01*
X92476073Y-62387988D01*
X92475431Y-62379016D01*
X92458216Y-61897020D01*
X92459882Y-61871621D01*
X92460231Y-61869547D01*
X92461576Y-61861552D01*
X92461729Y-61849000D01*
X92457724Y-61821033D01*
X92456452Y-61803310D01*
X92455155Y-60586000D01*
X96514647Y-60586000D01*
X96534022Y-60807463D01*
X96591560Y-61022196D01*
X96593882Y-61027177D01*
X96593883Y-61027178D01*
X96683186Y-61218689D01*
X96683189Y-61218694D01*
X96685512Y-61223676D01*
X96688668Y-61228183D01*
X96688669Y-61228185D01*
X96807043Y-61397240D01*
X96813023Y-61405781D01*
X96970219Y-61562977D01*
X96974727Y-61566134D01*
X96974730Y-61566136D01*
X97050495Y-61619187D01*
X97152323Y-61690488D01*
X97157305Y-61692811D01*
X97157310Y-61692814D01*
X97270273Y-61745489D01*
X97353804Y-61784440D01*
X97359112Y-61785862D01*
X97359114Y-61785863D01*
X97409045Y-61799242D01*
X97568537Y-61841978D01*
X97790000Y-61861353D01*
X98011463Y-61841978D01*
X98170955Y-61799242D01*
X98220886Y-61785863D01*
X98220888Y-61785862D01*
X98226196Y-61784440D01*
X98309727Y-61745489D01*
X98422690Y-61692814D01*
X98422695Y-61692811D01*
X98427677Y-61690488D01*
X98529505Y-61619187D01*
X98605270Y-61566136D01*
X98605273Y-61566134D01*
X98609781Y-61562977D01*
X98766977Y-61405781D01*
X98772958Y-61397240D01*
X98891331Y-61228185D01*
X98891332Y-61228183D01*
X98894488Y-61223676D01*
X98896811Y-61218694D01*
X98896814Y-61218689D01*
X98945805Y-61113627D01*
X98992723Y-61060342D01*
X99061000Y-61040881D01*
X99128960Y-61061423D01*
X99174195Y-61113627D01*
X99223186Y-61218689D01*
X99223189Y-61218694D01*
X99225512Y-61223676D01*
X99228668Y-61228183D01*
X99228669Y-61228185D01*
X99347043Y-61397240D01*
X99353023Y-61405781D01*
X99510219Y-61562977D01*
X99514727Y-61566134D01*
X99514730Y-61566136D01*
X99590495Y-61619187D01*
X99692323Y-61690488D01*
X99697305Y-61692811D01*
X99697310Y-61692814D01*
X99810273Y-61745489D01*
X99893804Y-61784440D01*
X99899112Y-61785862D01*
X99899114Y-61785863D01*
X99949045Y-61799242D01*
X100108537Y-61841978D01*
X100330000Y-61861353D01*
X100551463Y-61841978D01*
X100710955Y-61799242D01*
X100760886Y-61785863D01*
X100760888Y-61785862D01*
X100766196Y-61784440D01*
X100849727Y-61745489D01*
X100962690Y-61692814D01*
X100962695Y-61692811D01*
X100967677Y-61690488D01*
X101069505Y-61619187D01*
X101145270Y-61566136D01*
X101145273Y-61566134D01*
X101149781Y-61562977D01*
X101306977Y-61405781D01*
X101312958Y-61397240D01*
X101374052Y-61309988D01*
X104180576Y-61309988D01*
X104187644Y-61323434D01*
X104889188Y-62024978D01*
X104903132Y-62032592D01*
X104904965Y-62032461D01*
X104911580Y-62028210D01*
X105617078Y-61322712D01*
X105619768Y-61317786D01*
X105669971Y-61267584D01*
X105741337Y-61252651D01*
X105785526Y-61256517D01*
X105796475Y-61256517D01*
X106013519Y-61237528D01*
X106024312Y-61235625D01*
X106234761Y-61179236D01*
X106245053Y-61175490D01*
X106442511Y-61083414D01*
X106452006Y-61077931D01*
X106504048Y-61041491D01*
X106512424Y-61031012D01*
X106505356Y-61017566D01*
X105803812Y-60316022D01*
X105789868Y-60308408D01*
X105788035Y-60308539D01*
X105781420Y-60312790D01*
X105075922Y-61018288D01*
X105073232Y-61023214D01*
X105023029Y-61073416D01*
X104951663Y-61088349D01*
X104907474Y-61084483D01*
X104896525Y-61084483D01*
X104679481Y-61103472D01*
X104668688Y-61105375D01*
X104458239Y-61161764D01*
X104447947Y-61165510D01*
X104250489Y-61257586D01*
X104240994Y-61263069D01*
X104188952Y-61299509D01*
X104180576Y-61309988D01*
X101374052Y-61309988D01*
X101431331Y-61228185D01*
X101431332Y-61228183D01*
X101434488Y-61223676D01*
X101436811Y-61218694D01*
X101436814Y-61218689D01*
X101526117Y-61027178D01*
X101526118Y-61027177D01*
X101528440Y-61022196D01*
X101585978Y-60807463D01*
X101605353Y-60586000D01*
X101585978Y-60364537D01*
X101528440Y-60149804D01*
X101457101Y-59996817D01*
X101436814Y-59953311D01*
X101436811Y-59953306D01*
X101435025Y-59949475D01*
X104478483Y-59949475D01*
X104497472Y-60166519D01*
X104499375Y-60177312D01*
X104555764Y-60387761D01*
X104559510Y-60398053D01*
X104651586Y-60595511D01*
X104657069Y-60605006D01*
X104693509Y-60657048D01*
X104703988Y-60665424D01*
X104717434Y-60658356D01*
X105418978Y-59956812D01*
X105425356Y-59945132D01*
X106155408Y-59945132D01*
X106155539Y-59946965D01*
X106159790Y-59953580D01*
X106865287Y-60659077D01*
X106877062Y-60665507D01*
X106889077Y-60656211D01*
X106924931Y-60605006D01*
X106930414Y-60595511D01*
X107022490Y-60398053D01*
X107026236Y-60387761D01*
X107082625Y-60177312D01*
X107084528Y-60166519D01*
X107103517Y-59949475D01*
X107103517Y-59938525D01*
X107084528Y-59721481D01*
X107082625Y-59710688D01*
X107026236Y-59500239D01*
X107022490Y-59489947D01*
X106930414Y-59292489D01*
X106924931Y-59282994D01*
X106888491Y-59230952D01*
X106878012Y-59222576D01*
X106864566Y-59229644D01*
X106163022Y-59931188D01*
X106155408Y-59945132D01*
X105425356Y-59945132D01*
X105426592Y-59942868D01*
X105426461Y-59941035D01*
X105422210Y-59934420D01*
X104716713Y-59228923D01*
X104704938Y-59222493D01*
X104692923Y-59231789D01*
X104657069Y-59282994D01*
X104651586Y-59292489D01*
X104559510Y-59489947D01*
X104555764Y-59500239D01*
X104499375Y-59710688D01*
X104497472Y-59721481D01*
X104478483Y-59938525D01*
X104478483Y-59949475D01*
X101435025Y-59949475D01*
X101434488Y-59948324D01*
X101429384Y-59941035D01*
X101310136Y-59770730D01*
X101310134Y-59770727D01*
X101306977Y-59766219D01*
X101149781Y-59609023D01*
X101145273Y-59605866D01*
X101145270Y-59605864D01*
X101054270Y-59542145D01*
X100967677Y-59481512D01*
X100962695Y-59479189D01*
X100962690Y-59479186D01*
X100771178Y-59389883D01*
X100771177Y-59389882D01*
X100766196Y-59387560D01*
X100760888Y-59386138D01*
X100760886Y-59386137D01*
X100629585Y-59350955D01*
X100551463Y-59330022D01*
X100330000Y-59310647D01*
X100108537Y-59330022D01*
X100030415Y-59350955D01*
X99899114Y-59386137D01*
X99899112Y-59386138D01*
X99893804Y-59387560D01*
X99888823Y-59389882D01*
X99888822Y-59389883D01*
X99697311Y-59479186D01*
X99697306Y-59479189D01*
X99692324Y-59481512D01*
X99687817Y-59484668D01*
X99687815Y-59484669D01*
X99514730Y-59605864D01*
X99514727Y-59605866D01*
X99510219Y-59609023D01*
X99353023Y-59766219D01*
X99349866Y-59770727D01*
X99349864Y-59770730D01*
X99230616Y-59941035D01*
X99225512Y-59948324D01*
X99223189Y-59953306D01*
X99223186Y-59953311D01*
X99174195Y-60058373D01*
X99127277Y-60111658D01*
X99059000Y-60131119D01*
X98991040Y-60110577D01*
X98945805Y-60058373D01*
X98896814Y-59953311D01*
X98896811Y-59953306D01*
X98894488Y-59948324D01*
X98889384Y-59941035D01*
X98770136Y-59770730D01*
X98770134Y-59770727D01*
X98766977Y-59766219D01*
X98609781Y-59609023D01*
X98605273Y-59605866D01*
X98605270Y-59605864D01*
X98514270Y-59542145D01*
X98427677Y-59481512D01*
X98422695Y-59479189D01*
X98422690Y-59479186D01*
X98231178Y-59389883D01*
X98231177Y-59389882D01*
X98226196Y-59387560D01*
X98220888Y-59386138D01*
X98220886Y-59386137D01*
X98089585Y-59350955D01*
X98011463Y-59330022D01*
X97790000Y-59310647D01*
X97568537Y-59330022D01*
X97490415Y-59350955D01*
X97359114Y-59386137D01*
X97359112Y-59386138D01*
X97353804Y-59387560D01*
X97348823Y-59389882D01*
X97348822Y-59389883D01*
X97157311Y-59479186D01*
X97157306Y-59479189D01*
X97152324Y-59481512D01*
X97147817Y-59484668D01*
X97147815Y-59484669D01*
X96974730Y-59605864D01*
X96974727Y-59605866D01*
X96970219Y-59609023D01*
X96813023Y-59766219D01*
X96809866Y-59770727D01*
X96809864Y-59770730D01*
X96690616Y-59941035D01*
X96685512Y-59948324D01*
X96683189Y-59953306D01*
X96683186Y-59953311D01*
X96662899Y-59996817D01*
X96591560Y-60149804D01*
X96534022Y-60364537D01*
X96514647Y-60586000D01*
X92455155Y-60586000D01*
X92453312Y-58856988D01*
X105069576Y-58856988D01*
X105076644Y-58870434D01*
X105778188Y-59571978D01*
X105792132Y-59579592D01*
X105793965Y-59579461D01*
X105800580Y-59575210D01*
X106506077Y-58869713D01*
X106512507Y-58857938D01*
X106503211Y-58845923D01*
X106452006Y-58810069D01*
X106442511Y-58804586D01*
X106245053Y-58712510D01*
X106234761Y-58708764D01*
X106024312Y-58652375D01*
X106013519Y-58650472D01*
X105796475Y-58631483D01*
X105785525Y-58631483D01*
X105568481Y-58650472D01*
X105557688Y-58652375D01*
X105347239Y-58708764D01*
X105336947Y-58712510D01*
X105139489Y-58804586D01*
X105129994Y-58810069D01*
X105077952Y-58846509D01*
X105069576Y-58856988D01*
X92453312Y-58856988D01*
X92452839Y-58413000D01*
X108960647Y-58413000D01*
X108980022Y-58634463D01*
X109037560Y-58849196D01*
X109039882Y-58854177D01*
X109039883Y-58854178D01*
X109129186Y-59045689D01*
X109129189Y-59045694D01*
X109131512Y-59050676D01*
X109134668Y-59055183D01*
X109134669Y-59055185D01*
X109233888Y-59196884D01*
X109259023Y-59232781D01*
X109416219Y-59389977D01*
X109420727Y-59393134D01*
X109420730Y-59393136D01*
X109450324Y-59413858D01*
X109598323Y-59517488D01*
X109603305Y-59519811D01*
X109603310Y-59519814D01*
X109794822Y-59609117D01*
X109799804Y-59611440D01*
X109805112Y-59612862D01*
X109805114Y-59612863D01*
X109805327Y-59612920D01*
X110014537Y-59668978D01*
X110236000Y-59688353D01*
X110457463Y-59668978D01*
X110666673Y-59612920D01*
X110666886Y-59612863D01*
X110666888Y-59612862D01*
X110672196Y-59611440D01*
X110677178Y-59609117D01*
X110868690Y-59519814D01*
X110868695Y-59519811D01*
X110873677Y-59517488D01*
X111021676Y-59413858D01*
X111051270Y-59393136D01*
X111051273Y-59393134D01*
X111055781Y-59389977D01*
X111212977Y-59232781D01*
X111238113Y-59196884D01*
X111337331Y-59055185D01*
X111337332Y-59055183D01*
X111340488Y-59050676D01*
X111342811Y-59045694D01*
X111342814Y-59045689D01*
X111391805Y-58940627D01*
X111438723Y-58887342D01*
X111507000Y-58867881D01*
X111574960Y-58888423D01*
X111620195Y-58940627D01*
X111669186Y-59045689D01*
X111669189Y-59045694D01*
X111671512Y-59050676D01*
X111674668Y-59055183D01*
X111674669Y-59055185D01*
X111773888Y-59196884D01*
X111799023Y-59232781D01*
X111956219Y-59389977D01*
X111960727Y-59393134D01*
X111960730Y-59393136D01*
X111990324Y-59413858D01*
X112138323Y-59517488D01*
X112143305Y-59519811D01*
X112143310Y-59519814D01*
X112334822Y-59609117D01*
X112339804Y-59611440D01*
X112345112Y-59612862D01*
X112345114Y-59612863D01*
X112345327Y-59612920D01*
X112554537Y-59668978D01*
X112776000Y-59688353D01*
X112997463Y-59668978D01*
X113206673Y-59612920D01*
X113206886Y-59612863D01*
X113206888Y-59612862D01*
X113212196Y-59611440D01*
X113217178Y-59609117D01*
X113408690Y-59519814D01*
X113408695Y-59519811D01*
X113413677Y-59517488D01*
X113561676Y-59413858D01*
X113591270Y-59393136D01*
X113591273Y-59393134D01*
X113595781Y-59389977D01*
X113752977Y-59232781D01*
X113778113Y-59196884D01*
X113877331Y-59055185D01*
X113877332Y-59055183D01*
X113880488Y-59050676D01*
X113882811Y-59045694D01*
X113882814Y-59045689D01*
X113972117Y-58854178D01*
X113972118Y-58854177D01*
X113974440Y-58849196D01*
X114031978Y-58634463D01*
X114051353Y-58413000D01*
X114031978Y-58191537D01*
X113974440Y-57976804D01*
X113931805Y-57885373D01*
X113882814Y-57780311D01*
X113882811Y-57780306D01*
X113880488Y-57775324D01*
X113752977Y-57593219D01*
X113595781Y-57436023D01*
X113591273Y-57432866D01*
X113591270Y-57432864D01*
X113515505Y-57379813D01*
X113413677Y-57308512D01*
X113408695Y-57306189D01*
X113408690Y-57306186D01*
X113217178Y-57216883D01*
X113217177Y-57216882D01*
X113212196Y-57214560D01*
X113206888Y-57213138D01*
X113206886Y-57213137D01*
X113141051Y-57195497D01*
X112997463Y-57157022D01*
X112776000Y-57137647D01*
X112554537Y-57157022D01*
X112410949Y-57195497D01*
X112345114Y-57213137D01*
X112345112Y-57213138D01*
X112339804Y-57214560D01*
X112334823Y-57216882D01*
X112334822Y-57216883D01*
X112143311Y-57306186D01*
X112143306Y-57306189D01*
X112138324Y-57308512D01*
X112133817Y-57311668D01*
X112133815Y-57311669D01*
X111960730Y-57432864D01*
X111960727Y-57432866D01*
X111956219Y-57436023D01*
X111799023Y-57593219D01*
X111671512Y-57775324D01*
X111669189Y-57780306D01*
X111669186Y-57780311D01*
X111620195Y-57885373D01*
X111573277Y-57938658D01*
X111505000Y-57958119D01*
X111437040Y-57937577D01*
X111391805Y-57885373D01*
X111342814Y-57780311D01*
X111342811Y-57780306D01*
X111340488Y-57775324D01*
X111212977Y-57593219D01*
X111055781Y-57436023D01*
X111051273Y-57432866D01*
X111051270Y-57432864D01*
X110975505Y-57379813D01*
X110873677Y-57308512D01*
X110868695Y-57306189D01*
X110868690Y-57306186D01*
X110677178Y-57216883D01*
X110677177Y-57216882D01*
X110672196Y-57214560D01*
X110666888Y-57213138D01*
X110666886Y-57213137D01*
X110601051Y-57195497D01*
X110457463Y-57157022D01*
X110236000Y-57137647D01*
X110014537Y-57157022D01*
X109870949Y-57195497D01*
X109805114Y-57213137D01*
X109805112Y-57213138D01*
X109799804Y-57214560D01*
X109794823Y-57216882D01*
X109794822Y-57216883D01*
X109603311Y-57306186D01*
X109603306Y-57306189D01*
X109598324Y-57308512D01*
X109593817Y-57311668D01*
X109593815Y-57311669D01*
X109420730Y-57432864D01*
X109420727Y-57432866D01*
X109416219Y-57436023D01*
X109259023Y-57593219D01*
X109131512Y-57775324D01*
X109129189Y-57780306D01*
X109129186Y-57780311D01*
X109080195Y-57885373D01*
X109037560Y-57976804D01*
X108980022Y-58191537D01*
X108960647Y-58413000D01*
X92452839Y-58413000D01*
X92452159Y-57775324D01*
X92450891Y-56585062D01*
X108665493Y-56585062D01*
X108674789Y-56597077D01*
X108725994Y-56632931D01*
X108735489Y-56638414D01*
X108932947Y-56730490D01*
X108943239Y-56734236D01*
X109153688Y-56790625D01*
X109164481Y-56792528D01*
X109381525Y-56811517D01*
X109392475Y-56811517D01*
X109609519Y-56792528D01*
X109620312Y-56790625D01*
X109830761Y-56734236D01*
X109841053Y-56730490D01*
X110038511Y-56638414D01*
X110048006Y-56632931D01*
X110100048Y-56596491D01*
X110108424Y-56586012D01*
X110101356Y-56572566D01*
X109399812Y-55871022D01*
X109385868Y-55863408D01*
X109384035Y-55863539D01*
X109377420Y-55867790D01*
X108671923Y-56573287D01*
X108665493Y-56585062D01*
X92450891Y-56585062D01*
X92449914Y-55668518D01*
X92451415Y-55649001D01*
X92453672Y-55634510D01*
X92453672Y-55634505D01*
X92455053Y-55625637D01*
X92453889Y-55616732D01*
X92452157Y-55603482D01*
X92451174Y-55582652D01*
X92468792Y-55089345D01*
X92469434Y-55080373D01*
X92484096Y-54944000D01*
X104477502Y-54944000D01*
X104497457Y-55172087D01*
X104498881Y-55177400D01*
X104498881Y-55177402D01*
X104554296Y-55384210D01*
X104556716Y-55393243D01*
X104559039Y-55398224D01*
X104559039Y-55398225D01*
X104651151Y-55595762D01*
X104651154Y-55595767D01*
X104653477Y-55600749D01*
X104683468Y-55643580D01*
X104769056Y-55765812D01*
X104784802Y-55788300D01*
X104946700Y-55950198D01*
X104951208Y-55953355D01*
X104951211Y-55953357D01*
X104973403Y-55968896D01*
X105134251Y-56081523D01*
X105139233Y-56083846D01*
X105139238Y-56083849D01*
X105336775Y-56175961D01*
X105341757Y-56178284D01*
X105347065Y-56179706D01*
X105347067Y-56179707D01*
X105557598Y-56236119D01*
X105557600Y-56236119D01*
X105562913Y-56237543D01*
X105791000Y-56257498D01*
X106019087Y-56237543D01*
X106024400Y-56236119D01*
X106024402Y-56236119D01*
X106234933Y-56179707D01*
X106234935Y-56179706D01*
X106240243Y-56178284D01*
X106245225Y-56175961D01*
X106442762Y-56083849D01*
X106442767Y-56083846D01*
X106447749Y-56081523D01*
X106608597Y-55968896D01*
X106630789Y-55953357D01*
X106630792Y-55953355D01*
X106635300Y-55950198D01*
X106797198Y-55788300D01*
X106812945Y-55765812D01*
X106898532Y-55643580D01*
X106928523Y-55600749D01*
X106930846Y-55595767D01*
X106930849Y-55595762D01*
X106973416Y-55504475D01*
X108074483Y-55504475D01*
X108093472Y-55721519D01*
X108095375Y-55732312D01*
X108151764Y-55942761D01*
X108155510Y-55953053D01*
X108247586Y-56150511D01*
X108253069Y-56160006D01*
X108289509Y-56212048D01*
X108299988Y-56220424D01*
X108313434Y-56213356D01*
X109014978Y-55511812D01*
X109021356Y-55500132D01*
X109751408Y-55500132D01*
X109751539Y-55501965D01*
X109755790Y-55508580D01*
X110461287Y-56214077D01*
X110473062Y-56220507D01*
X110485077Y-56211211D01*
X110520931Y-56160006D01*
X110526414Y-56150511D01*
X110618490Y-55953053D01*
X110622236Y-55942761D01*
X110678625Y-55732312D01*
X110680528Y-55721519D01*
X110699517Y-55504475D01*
X110699517Y-55493525D01*
X110680528Y-55276481D01*
X110678625Y-55265688D01*
X110622236Y-55055239D01*
X110618490Y-55044947D01*
X110526414Y-54847489D01*
X110520931Y-54837994D01*
X110484491Y-54785952D01*
X110474012Y-54777576D01*
X110460566Y-54784644D01*
X109759022Y-55486188D01*
X109751408Y-55500132D01*
X109021356Y-55500132D01*
X109022592Y-55497868D01*
X109022461Y-55496035D01*
X109018210Y-55489420D01*
X108312713Y-54783923D01*
X108300938Y-54777493D01*
X108288923Y-54786789D01*
X108253069Y-54837994D01*
X108247586Y-54847489D01*
X108155510Y-55044947D01*
X108151764Y-55055239D01*
X108095375Y-55265688D01*
X108093472Y-55276481D01*
X108074483Y-55493525D01*
X108074483Y-55504475D01*
X106973416Y-55504475D01*
X107022961Y-55398225D01*
X107022961Y-55398224D01*
X107025284Y-55393243D01*
X107027705Y-55384210D01*
X107083119Y-55177402D01*
X107083119Y-55177400D01*
X107084543Y-55172087D01*
X107104498Y-54944000D01*
X107084543Y-54715913D01*
X107081222Y-54703518D01*
X107026707Y-54500067D01*
X107026706Y-54500065D01*
X107025284Y-54494757D01*
X107016704Y-54476357D01*
X106986689Y-54411988D01*
X108665576Y-54411988D01*
X108672644Y-54425434D01*
X109374188Y-55126978D01*
X109388132Y-55134592D01*
X109389965Y-55134461D01*
X109396580Y-55130210D01*
X110102077Y-54424713D01*
X110108507Y-54412938D01*
X110099211Y-54400923D01*
X110048006Y-54365069D01*
X110038511Y-54359586D01*
X109841053Y-54267510D01*
X109830761Y-54263764D01*
X109620312Y-54207375D01*
X109609519Y-54205472D01*
X109392475Y-54186483D01*
X109381525Y-54186483D01*
X109164481Y-54205472D01*
X109153688Y-54207375D01*
X108943239Y-54263764D01*
X108932947Y-54267510D01*
X108735489Y-54359586D01*
X108725994Y-54365069D01*
X108673952Y-54401509D01*
X108665576Y-54411988D01*
X106986689Y-54411988D01*
X106930849Y-54292238D01*
X106930846Y-54292233D01*
X106928523Y-54287251D01*
X106817019Y-54128007D01*
X106800357Y-54104211D01*
X106800355Y-54104208D01*
X106797198Y-54099700D01*
X106635300Y-53937802D01*
X106630792Y-53934645D01*
X106630789Y-53934643D01*
X106552611Y-53879902D01*
X106447749Y-53806477D01*
X106442767Y-53804154D01*
X106442762Y-53804151D01*
X106245225Y-53712039D01*
X106245224Y-53712039D01*
X106240243Y-53709716D01*
X106234935Y-53708294D01*
X106234933Y-53708293D01*
X106024402Y-53651881D01*
X106024400Y-53651881D01*
X106019087Y-53650457D01*
X105791000Y-53630502D01*
X105562913Y-53650457D01*
X105557600Y-53651881D01*
X105557598Y-53651881D01*
X105347067Y-53708293D01*
X105347065Y-53708294D01*
X105341757Y-53709716D01*
X105336776Y-53712039D01*
X105336775Y-53712039D01*
X105139238Y-53804151D01*
X105139233Y-53804154D01*
X105134251Y-53806477D01*
X105029389Y-53879902D01*
X104951211Y-53934643D01*
X104951208Y-53934645D01*
X104946700Y-53937802D01*
X104784802Y-54099700D01*
X104781645Y-54104208D01*
X104781643Y-54104211D01*
X104764981Y-54128007D01*
X104653477Y-54287251D01*
X104651154Y-54292233D01*
X104651151Y-54292238D01*
X104565296Y-54476357D01*
X104556716Y-54494757D01*
X104555294Y-54500065D01*
X104555293Y-54500067D01*
X104500778Y-54703518D01*
X104497457Y-54715913D01*
X104477502Y-54944000D01*
X92484096Y-54944000D01*
X92525644Y-54557542D01*
X92526924Y-54548639D01*
X92620290Y-54031144D01*
X92622202Y-54022355D01*
X92648058Y-53921053D01*
X92752249Y-53512835D01*
X92754782Y-53504210D01*
X92765345Y-53472475D01*
X92832566Y-53270506D01*
X92920845Y-53005272D01*
X92923988Y-52996845D01*
X93125224Y-52511017D01*
X93128961Y-52502835D01*
X93261956Y-52237144D01*
X93364338Y-52032612D01*
X93368645Y-52024723D01*
X93426314Y-51927528D01*
X93636973Y-51572480D01*
X93641836Y-51564913D01*
X93666983Y-51528695D01*
X106460251Y-51528695D01*
X106460548Y-51533848D01*
X106460548Y-51533851D01*
X106466011Y-51628590D01*
X106473110Y-51751715D01*
X106474247Y-51756761D01*
X106474248Y-51756767D01*
X106480084Y-51782661D01*
X106522222Y-51969639D01*
X106606266Y-52176616D01*
X106645330Y-52240363D01*
X106720291Y-52362688D01*
X106722987Y-52367088D01*
X106869250Y-52535938D01*
X107041126Y-52678632D01*
X107234000Y-52791338D01*
X107238825Y-52793180D01*
X107238826Y-52793181D01*
X107283528Y-52810251D01*
X107442692Y-52871030D01*
X107447760Y-52872061D01*
X107447763Y-52872062D01*
X107499594Y-52882607D01*
X107661597Y-52915567D01*
X107666772Y-52915757D01*
X107666774Y-52915757D01*
X107879673Y-52923564D01*
X107879677Y-52923564D01*
X107884837Y-52923753D01*
X107889957Y-52923097D01*
X107889959Y-52923097D01*
X108101288Y-52896025D01*
X108101289Y-52896025D01*
X108106416Y-52895368D01*
X108111369Y-52893882D01*
X108315429Y-52832661D01*
X108315434Y-52832659D01*
X108320384Y-52831174D01*
X108520994Y-52732896D01*
X108702860Y-52603173D01*
X108861096Y-52445489D01*
X108880924Y-52417896D01*
X108991453Y-52264077D01*
X108992640Y-52264930D01*
X109039960Y-52221362D01*
X109109897Y-52209145D01*
X109175338Y-52236678D01*
X109203166Y-52268511D01*
X109260694Y-52362388D01*
X109266777Y-52370699D01*
X109406213Y-52531667D01*
X109413580Y-52538883D01*
X109577434Y-52674916D01*
X109585881Y-52680831D01*
X109769756Y-52788279D01*
X109779042Y-52792729D01*
X109978001Y-52868703D01*
X109987899Y-52871579D01*
X110091250Y-52892606D01*
X110105299Y-52891410D01*
X110109000Y-52881065D01*
X110109000Y-52880517D01*
X110617000Y-52880517D01*
X110621064Y-52894359D01*
X110634478Y-52896393D01*
X110641184Y-52895534D01*
X110651262Y-52893392D01*
X110855255Y-52832191D01*
X110864842Y-52828433D01*
X111056095Y-52734739D01*
X111064945Y-52729464D01*
X111238328Y-52605792D01*
X111246200Y-52599139D01*
X111397052Y-52448812D01*
X111403730Y-52440965D01*
X111531022Y-52263819D01*
X111532279Y-52264722D01*
X111579373Y-52221362D01*
X111649311Y-52209145D01*
X111714751Y-52236678D01*
X111742579Y-52268511D01*
X111802987Y-52367088D01*
X111949250Y-52535938D01*
X112121126Y-52678632D01*
X112314000Y-52791338D01*
X112318825Y-52793180D01*
X112318826Y-52793181D01*
X112363528Y-52810251D01*
X112522692Y-52871030D01*
X112527760Y-52872061D01*
X112527763Y-52872062D01*
X112579594Y-52882607D01*
X112741597Y-52915567D01*
X112746772Y-52915757D01*
X112746774Y-52915757D01*
X112959673Y-52923564D01*
X112959677Y-52923564D01*
X112964837Y-52923753D01*
X112969957Y-52923097D01*
X112969959Y-52923097D01*
X113181288Y-52896025D01*
X113181289Y-52896025D01*
X113186416Y-52895368D01*
X113191369Y-52893882D01*
X113395429Y-52832661D01*
X113395434Y-52832659D01*
X113400384Y-52831174D01*
X113600994Y-52732896D01*
X113782860Y-52603173D01*
X113941096Y-52445489D01*
X113960924Y-52417896D01*
X114071453Y-52264077D01*
X114072776Y-52265028D01*
X114119645Y-52221857D01*
X114189580Y-52209625D01*
X114255026Y-52237144D01*
X114282875Y-52268994D01*
X114342987Y-52367088D01*
X114489250Y-52535938D01*
X114661126Y-52678632D01*
X114854000Y-52791338D01*
X114858825Y-52793180D01*
X114858826Y-52793181D01*
X114903528Y-52810251D01*
X115062692Y-52871030D01*
X115067760Y-52872061D01*
X115067763Y-52872062D01*
X115119594Y-52882607D01*
X115281597Y-52915567D01*
X115286772Y-52915757D01*
X115286774Y-52915757D01*
X115499673Y-52923564D01*
X115499677Y-52923564D01*
X115504837Y-52923753D01*
X115517490Y-52922132D01*
X115587599Y-52933316D01*
X115640533Y-52980629D01*
X115659500Y-53047111D01*
X115659500Y-54635397D01*
X115639498Y-54703518D01*
X115585842Y-54750011D01*
X115515568Y-54760115D01*
X115450988Y-54730621D01*
X115430287Y-54707668D01*
X115396357Y-54659211D01*
X115396355Y-54659208D01*
X115393198Y-54654700D01*
X115231300Y-54492802D01*
X115226792Y-54489645D01*
X115226789Y-54489643D01*
X115100920Y-54401509D01*
X115043749Y-54361477D01*
X115038767Y-54359154D01*
X115038762Y-54359151D01*
X114841225Y-54267039D01*
X114841224Y-54267039D01*
X114836243Y-54264716D01*
X114830935Y-54263294D01*
X114830933Y-54263293D01*
X114620402Y-54206881D01*
X114620400Y-54206881D01*
X114615087Y-54205457D01*
X114387000Y-54185502D01*
X114158913Y-54205457D01*
X114153600Y-54206881D01*
X114153598Y-54206881D01*
X113943067Y-54263293D01*
X113943065Y-54263294D01*
X113937757Y-54264716D01*
X113932776Y-54267039D01*
X113932775Y-54267039D01*
X113735238Y-54359151D01*
X113735233Y-54359154D01*
X113730251Y-54361477D01*
X113673080Y-54401509D01*
X113547211Y-54489643D01*
X113547208Y-54489645D01*
X113542700Y-54492802D01*
X113380802Y-54654700D01*
X113377645Y-54659208D01*
X113377643Y-54659211D01*
X113328316Y-54729657D01*
X113249477Y-54842251D01*
X113247154Y-54847233D01*
X113247151Y-54847238D01*
X113188628Y-54972743D01*
X113152716Y-55049757D01*
X113151294Y-55055065D01*
X113151293Y-55055067D01*
X113095851Y-55261978D01*
X113093457Y-55270913D01*
X113073502Y-55499000D01*
X113093457Y-55727087D01*
X113094881Y-55732400D01*
X113094881Y-55732402D01*
X113132025Y-55871022D01*
X113152716Y-55948243D01*
X113155039Y-55953224D01*
X113155039Y-55953225D01*
X113247151Y-56150762D01*
X113247154Y-56150767D01*
X113249477Y-56155749D01*
X113288312Y-56211211D01*
X113365348Y-56321229D01*
X113380802Y-56343300D01*
X113542700Y-56505198D01*
X113547208Y-56508355D01*
X113547211Y-56508357D01*
X113615015Y-56555834D01*
X113730251Y-56636523D01*
X113735233Y-56638846D01*
X113735238Y-56638849D01*
X113882604Y-56707566D01*
X113937757Y-56733284D01*
X113943065Y-56734706D01*
X113943067Y-56734707D01*
X114153598Y-56791119D01*
X114153600Y-56791119D01*
X114158913Y-56792543D01*
X114387000Y-56812498D01*
X114615087Y-56792543D01*
X114620400Y-56791119D01*
X114620402Y-56791119D01*
X114830933Y-56734707D01*
X114830935Y-56734706D01*
X114836243Y-56733284D01*
X114891396Y-56707566D01*
X115038762Y-56638849D01*
X115038767Y-56638846D01*
X115043749Y-56636523D01*
X115158985Y-56555834D01*
X115226789Y-56508357D01*
X115226792Y-56508355D01*
X115231300Y-56505198D01*
X115393198Y-56343300D01*
X115408653Y-56321229D01*
X115430287Y-56290332D01*
X115485745Y-56246004D01*
X115556364Y-56238695D01*
X115619724Y-56270726D01*
X115655709Y-56331928D01*
X115659500Y-56362603D01*
X115659500Y-58979500D01*
X115639498Y-59047621D01*
X115585842Y-59094114D01*
X115533500Y-59105500D01*
X114942600Y-59105500D01*
X114939354Y-59105837D01*
X114939350Y-59105837D01*
X114843692Y-59115762D01*
X114843688Y-59115763D01*
X114836834Y-59116474D01*
X114830298Y-59118655D01*
X114830296Y-59118655D01*
X114698194Y-59162728D01*
X114669054Y-59172450D01*
X114518652Y-59265522D01*
X114393695Y-59390697D01*
X114389855Y-59396927D01*
X114389854Y-59396928D01*
X114315540Y-59517488D01*
X114300885Y-59541262D01*
X114291408Y-59569834D01*
X114249793Y-59695302D01*
X114245203Y-59709139D01*
X114244503Y-59715975D01*
X114244502Y-59715978D01*
X114241518Y-59745100D01*
X114234500Y-59813600D01*
X114234500Y-60614400D01*
X114234837Y-60617646D01*
X114234837Y-60617650D01*
X114242938Y-60695722D01*
X114245474Y-60720166D01*
X114301450Y-60887946D01*
X114394522Y-61038348D01*
X114399704Y-61043521D01*
X114481463Y-61125138D01*
X114515542Y-61187421D01*
X114510539Y-61258241D01*
X114481618Y-61303329D01*
X114399261Y-61385829D01*
X114390249Y-61397240D01*
X114305184Y-61535243D01*
X114299037Y-61548424D01*
X114247862Y-61702710D01*
X114244995Y-61716086D01*
X114235328Y-61810438D01*
X114235000Y-61816855D01*
X114235000Y-61941885D01*
X114239475Y-61957124D01*
X114240865Y-61958329D01*
X114248548Y-61960000D01*
X116632884Y-61960000D01*
X116648123Y-61955525D01*
X116649328Y-61954135D01*
X116650999Y-61946452D01*
X116650999Y-61816905D01*
X116650662Y-61810386D01*
X116640743Y-61714794D01*
X116637851Y-61701400D01*
X116586412Y-61547216D01*
X116580239Y-61534038D01*
X116494937Y-61396193D01*
X116485901Y-61384792D01*
X116404538Y-61303570D01*
X116370459Y-61241287D01*
X116375462Y-61170467D01*
X116404383Y-61125380D01*
X116487130Y-61042488D01*
X116487134Y-61042483D01*
X116492305Y-61037303D01*
X116518898Y-60994161D01*
X126608393Y-60994161D01*
X126617687Y-61006175D01*
X126658088Y-61034464D01*
X126667584Y-61039947D01*
X126857113Y-61128326D01*
X126867405Y-61132072D01*
X127069401Y-61186196D01*
X127080196Y-61188099D01*
X127288525Y-61206326D01*
X127299475Y-61206326D01*
X127507804Y-61188099D01*
X127518599Y-61186196D01*
X127720595Y-61132072D01*
X127730887Y-61128326D01*
X127920416Y-61039947D01*
X127929912Y-61034464D01*
X127971148Y-61005590D01*
X127979523Y-60995112D01*
X127972457Y-60981668D01*
X127306811Y-60316021D01*
X127292868Y-60308408D01*
X127291034Y-60308539D01*
X127284420Y-60312790D01*
X126614820Y-60982391D01*
X126608393Y-60994161D01*
X116518898Y-60994161D01*
X116581275Y-60892968D01*
X116581276Y-60892966D01*
X116585115Y-60886738D01*
X116612774Y-60803349D01*
X116638632Y-60725389D01*
X116638632Y-60725387D01*
X116640797Y-60718861D01*
X116651500Y-60614400D01*
X116651500Y-59954139D01*
X116652869Y-59949475D01*
X126031674Y-59949475D01*
X126049901Y-60157804D01*
X126051804Y-60168599D01*
X126105928Y-60370595D01*
X126109674Y-60380887D01*
X126198054Y-60570417D01*
X126203534Y-60579907D01*
X126232411Y-60621149D01*
X126242887Y-60629523D01*
X126256334Y-60622455D01*
X126921979Y-59956811D01*
X126928356Y-59945132D01*
X127658408Y-59945132D01*
X127658539Y-59946966D01*
X127662790Y-59953580D01*
X128332391Y-60623180D01*
X128346328Y-60630790D01*
X128360957Y-60629744D01*
X128430331Y-60644835D01*
X128477936Y-60691647D01*
X128478099Y-60691536D01*
X128614544Y-60892307D01*
X128781332Y-61068681D01*
X128785358Y-61071759D01*
X128785359Y-61071760D01*
X128970154Y-61213047D01*
X128970158Y-61213050D01*
X128974174Y-61216120D01*
X128978632Y-61218510D01*
X128978633Y-61218511D01*
X129048764Y-61256115D01*
X129188109Y-61330831D01*
X129417631Y-61409862D01*
X129516978Y-61427022D01*
X129652926Y-61450504D01*
X129652932Y-61450505D01*
X129656836Y-61451179D01*
X129660797Y-61451359D01*
X129660798Y-61451359D01*
X129684506Y-61452436D01*
X129684525Y-61452436D01*
X129685925Y-61452500D01*
X129855001Y-61452500D01*
X129857509Y-61452298D01*
X129857514Y-61452298D01*
X130030924Y-61438346D01*
X130030929Y-61438345D01*
X130035965Y-61437940D01*
X130040873Y-61436734D01*
X130040876Y-61436734D01*
X130266792Y-61381244D01*
X130271706Y-61380037D01*
X130276358Y-61378062D01*
X130276362Y-61378061D01*
X130432469Y-61311797D01*
X130495156Y-61285188D01*
X130601037Y-61218511D01*
X130696288Y-61158528D01*
X130696291Y-61158526D01*
X130700567Y-61155833D01*
X130788930Y-61077931D01*
X130878858Y-60998650D01*
X130878861Y-60998647D01*
X130882655Y-60995302D01*
X130964235Y-60895984D01*
X131033526Y-60811628D01*
X131033528Y-60811625D01*
X131036734Y-60807722D01*
X131039275Y-60803356D01*
X131039280Y-60803349D01*
X131085470Y-60723986D01*
X131137024Y-60675172D01*
X131206784Y-60661979D01*
X131272602Y-60688596D01*
X131297582Y-60715095D01*
X131326251Y-60756038D01*
X131481962Y-60911749D01*
X131662346Y-61038056D01*
X131861924Y-61131120D01*
X132074629Y-61188115D01*
X132294000Y-61207307D01*
X132513371Y-61188115D01*
X132726076Y-61131120D01*
X132925654Y-61038056D01*
X133106038Y-60911749D01*
X133261749Y-60756038D01*
X133292570Y-60712022D01*
X133384899Y-60580162D01*
X133384900Y-60580160D01*
X133388056Y-60575653D01*
X133390379Y-60570671D01*
X133390382Y-60570666D01*
X133478795Y-60381061D01*
X133481120Y-60376076D01*
X133538115Y-60163371D01*
X133557307Y-59944000D01*
X133538115Y-59724629D01*
X133481120Y-59511924D01*
X133427497Y-59396928D01*
X133390382Y-59317334D01*
X133390379Y-59317329D01*
X133388056Y-59312347D01*
X133384899Y-59307838D01*
X133264908Y-59136473D01*
X133264906Y-59136470D01*
X133261749Y-59131962D01*
X133106038Y-58976251D01*
X132925654Y-58849944D01*
X132726076Y-58756880D01*
X132513371Y-58699885D01*
X132294000Y-58680693D01*
X132074629Y-58699885D01*
X131861924Y-58756880D01*
X131768562Y-58800415D01*
X131667334Y-58847618D01*
X131667329Y-58847621D01*
X131662347Y-58849944D01*
X131657840Y-58853100D01*
X131657838Y-58853101D01*
X131486473Y-58973092D01*
X131486470Y-58973094D01*
X131481962Y-58976251D01*
X131326251Y-59131962D01*
X131323094Y-59136470D01*
X131323092Y-59136473D01*
X131298977Y-59170913D01*
X131243520Y-59215241D01*
X131172900Y-59222550D01*
X131109540Y-59190519D01*
X131091552Y-59169465D01*
X131069131Y-59136473D01*
X130973456Y-58995693D01*
X130806668Y-58819319D01*
X130728656Y-58759674D01*
X130617846Y-58674953D01*
X130617842Y-58674950D01*
X130613826Y-58671880D01*
X130577450Y-58652375D01*
X130404352Y-58559561D01*
X130399891Y-58557169D01*
X130170369Y-58478138D01*
X130071022Y-58460978D01*
X129935074Y-58437496D01*
X129935068Y-58437495D01*
X129931164Y-58436821D01*
X129927203Y-58436641D01*
X129927202Y-58436641D01*
X129903494Y-58435564D01*
X129903475Y-58435564D01*
X129902075Y-58435500D01*
X129732999Y-58435500D01*
X129730491Y-58435702D01*
X129730486Y-58435702D01*
X129557076Y-58449654D01*
X129557071Y-58449655D01*
X129552035Y-58450060D01*
X129547127Y-58451266D01*
X129547124Y-58451266D01*
X129431007Y-58479787D01*
X129316294Y-58507963D01*
X129311642Y-58509938D01*
X129311638Y-58509939D01*
X129204252Y-58555522D01*
X129092844Y-58602812D01*
X129088560Y-58605510D01*
X128891712Y-58729472D01*
X128891709Y-58729474D01*
X128887433Y-58732167D01*
X128860481Y-58755928D01*
X128709142Y-58889350D01*
X128709139Y-58889353D01*
X128705345Y-58892698D01*
X128702135Y-58896606D01*
X128702134Y-58896607D01*
X128578091Y-59047621D01*
X128551266Y-59080278D01*
X128548721Y-59084650D01*
X128548718Y-59084655D01*
X128483398Y-59196884D01*
X128431845Y-59245697D01*
X128361528Y-59258833D01*
X128347248Y-59257355D01*
X128331666Y-59265545D01*
X127666021Y-59931189D01*
X127658408Y-59945132D01*
X126928356Y-59945132D01*
X126929592Y-59942868D01*
X126929461Y-59941034D01*
X126925210Y-59934420D01*
X126255609Y-59264820D01*
X126243839Y-59258393D01*
X126231824Y-59267689D01*
X126203534Y-59308093D01*
X126198054Y-59317583D01*
X126109674Y-59507113D01*
X126105928Y-59517405D01*
X126051804Y-59719401D01*
X126049901Y-59730196D01*
X126031674Y-59938525D01*
X126031674Y-59949475D01*
X116652869Y-59949475D01*
X116671502Y-59886018D01*
X116695679Y-59858754D01*
X116700018Y-59856000D01*
X116746659Y-59806332D01*
X116749413Y-59803491D01*
X116769135Y-59783769D01*
X116771612Y-59780576D01*
X116779317Y-59771555D01*
X116804159Y-59745100D01*
X116809586Y-59739321D01*
X116813407Y-59732371D01*
X116819346Y-59721568D01*
X116830202Y-59705041D01*
X116837757Y-59695302D01*
X116837758Y-59695300D01*
X116842614Y-59689040D01*
X116860174Y-59648460D01*
X116865391Y-59637812D01*
X116882875Y-59606009D01*
X116882876Y-59606007D01*
X116886695Y-59599060D01*
X116891733Y-59579437D01*
X116898137Y-59560734D01*
X116903033Y-59549420D01*
X116903033Y-59549419D01*
X116906181Y-59542145D01*
X116907420Y-59534322D01*
X116907423Y-59534312D01*
X116913099Y-59498476D01*
X116915505Y-59486856D01*
X116924528Y-59451711D01*
X116924528Y-59451710D01*
X116926500Y-59444030D01*
X116926500Y-59423776D01*
X116928051Y-59404065D01*
X116929980Y-59391886D01*
X116931220Y-59384057D01*
X116927059Y-59340038D01*
X116926500Y-59328181D01*
X116926500Y-58892887D01*
X126608477Y-58892887D01*
X126615545Y-58906334D01*
X127281189Y-59571979D01*
X127295132Y-59579592D01*
X127296966Y-59579461D01*
X127303580Y-59575210D01*
X127973180Y-58905609D01*
X127979607Y-58893839D01*
X127970313Y-58881825D01*
X127929912Y-58853536D01*
X127920416Y-58848053D01*
X127730887Y-58759674D01*
X127720595Y-58755928D01*
X127518599Y-58701804D01*
X127507804Y-58699901D01*
X127299475Y-58681674D01*
X127288525Y-58681674D01*
X127080196Y-58699901D01*
X127069401Y-58701804D01*
X126867405Y-58755928D01*
X126857113Y-58759674D01*
X126667583Y-58848054D01*
X126658093Y-58853534D01*
X126616851Y-58882411D01*
X126608477Y-58892887D01*
X116926500Y-58892887D01*
X116926500Y-56670448D01*
X116946502Y-56602327D01*
X117000158Y-56555834D01*
X117070432Y-56545730D01*
X117135012Y-56575224D01*
X117141595Y-56581353D01*
X117290219Y-56729977D01*
X117294727Y-56733134D01*
X117294730Y-56733136D01*
X117370495Y-56786187D01*
X117472323Y-56857488D01*
X117477305Y-56859811D01*
X117477310Y-56859814D01*
X117664323Y-56947019D01*
X117673804Y-56951440D01*
X117679112Y-56952862D01*
X117679114Y-56952863D01*
X117744949Y-56970503D01*
X117888537Y-57008978D01*
X118110000Y-57028353D01*
X118331463Y-57008978D01*
X118475051Y-56970503D01*
X118540886Y-56952863D01*
X118540888Y-56952862D01*
X118546196Y-56951440D01*
X118555677Y-56947019D01*
X118742690Y-56859814D01*
X118742695Y-56859811D01*
X118747677Y-56857488D01*
X118812959Y-56811777D01*
X119447777Y-56811777D01*
X119457074Y-56823793D01*
X119500069Y-56853898D01*
X119509555Y-56859376D01*
X119700993Y-56948645D01*
X119711285Y-56952391D01*
X119915309Y-57007059D01*
X119926104Y-57008962D01*
X120136525Y-57027372D01*
X120147475Y-57027372D01*
X120357896Y-57008962D01*
X120368691Y-57007059D01*
X120572715Y-56952391D01*
X120583007Y-56948645D01*
X120774445Y-56859376D01*
X120783931Y-56853898D01*
X120827764Y-56823207D01*
X120836139Y-56812729D01*
X120829071Y-56799281D01*
X120154812Y-56125022D01*
X120140868Y-56117408D01*
X120139035Y-56117539D01*
X120132420Y-56121790D01*
X119454207Y-56800003D01*
X119447777Y-56811777D01*
X118812959Y-56811777D01*
X118849505Y-56786187D01*
X118925270Y-56733136D01*
X118925273Y-56733134D01*
X118929781Y-56729977D01*
X119086977Y-56572781D01*
X119098844Y-56555834D01*
X119211331Y-56395185D01*
X119211332Y-56395183D01*
X119214488Y-56390676D01*
X119216811Y-56385694D01*
X119216814Y-56385689D01*
X119265715Y-56280820D01*
X119290815Y-56244975D01*
X119769978Y-55765812D01*
X119777592Y-55751868D01*
X119777461Y-55750035D01*
X119773210Y-55743420D01*
X119290815Y-55261025D01*
X119265715Y-55225180D01*
X119216814Y-55120311D01*
X119216811Y-55120306D01*
X119214488Y-55115324D01*
X119211331Y-55110815D01*
X119090136Y-54937730D01*
X119090134Y-54937727D01*
X119086977Y-54933219D01*
X118929781Y-54776023D01*
X118925273Y-54772866D01*
X118925270Y-54772864D01*
X118832160Y-54707668D01*
X118747677Y-54648512D01*
X118742695Y-54646189D01*
X118742690Y-54646186D01*
X118551178Y-54556883D01*
X118551177Y-54556882D01*
X118546196Y-54554560D01*
X118540888Y-54553138D01*
X118540886Y-54553137D01*
X118440781Y-54526314D01*
X118331463Y-54497022D01*
X118110000Y-54477647D01*
X117888537Y-54497022D01*
X117779219Y-54526314D01*
X117679114Y-54553137D01*
X117679112Y-54553138D01*
X117673804Y-54554560D01*
X117668823Y-54556882D01*
X117668822Y-54556883D01*
X117477311Y-54646186D01*
X117477306Y-54646189D01*
X117472324Y-54648512D01*
X117467817Y-54651668D01*
X117467815Y-54651669D01*
X117294730Y-54772864D01*
X117294727Y-54772866D01*
X117290219Y-54776023D01*
X117141595Y-54924647D01*
X117079283Y-54958673D01*
X117008468Y-54953608D01*
X116951632Y-54911061D01*
X116926821Y-54844541D01*
X116926500Y-54835552D01*
X116926500Y-52719004D01*
X116946502Y-52650883D01*
X117000158Y-52604390D01*
X117070432Y-52594286D01*
X117132984Y-52622060D01*
X117201126Y-52678632D01*
X117394000Y-52791338D01*
X117398825Y-52793180D01*
X117398826Y-52793181D01*
X117443528Y-52810251D01*
X117602692Y-52871030D01*
X117607760Y-52872061D01*
X117607763Y-52872062D01*
X117659594Y-52882607D01*
X117821597Y-52915567D01*
X117826772Y-52915757D01*
X117826774Y-52915757D01*
X118039673Y-52923564D01*
X118039677Y-52923564D01*
X118044837Y-52923753D01*
X118049957Y-52923097D01*
X118049959Y-52923097D01*
X118261288Y-52896025D01*
X118261289Y-52896025D01*
X118266416Y-52895368D01*
X118271367Y-52893883D01*
X118271370Y-52893882D01*
X118312829Y-52881444D01*
X118383825Y-52881028D01*
X118438131Y-52913035D01*
X119846742Y-54321647D01*
X119880768Y-54383959D01*
X119875703Y-54454775D01*
X119833156Y-54511610D01*
X119790257Y-54532449D01*
X119711287Y-54553608D01*
X119700993Y-54557355D01*
X119509559Y-54646623D01*
X119500068Y-54652103D01*
X119456235Y-54682794D01*
X119447860Y-54693271D01*
X119454928Y-54706718D01*
X120993185Y-56244975D01*
X121018285Y-56280820D01*
X121067186Y-56385689D01*
X121067189Y-56385694D01*
X121069512Y-56390676D01*
X121072668Y-56395183D01*
X121072669Y-56395185D01*
X121185157Y-56555834D01*
X121197023Y-56572781D01*
X121354219Y-56729977D01*
X121358727Y-56733134D01*
X121358730Y-56733136D01*
X121434495Y-56786187D01*
X121536323Y-56857488D01*
X121541305Y-56859811D01*
X121541310Y-56859814D01*
X121728323Y-56947019D01*
X121737804Y-56951440D01*
X121743112Y-56952862D01*
X121743114Y-56952863D01*
X121808949Y-56970503D01*
X121952537Y-57008978D01*
X122174000Y-57028353D01*
X122395463Y-57008978D01*
X122539051Y-56970503D01*
X122604886Y-56952863D01*
X122604888Y-56952862D01*
X122610196Y-56951440D01*
X122619677Y-56947019D01*
X122806690Y-56859814D01*
X122806695Y-56859811D01*
X122811677Y-56857488D01*
X122876959Y-56811777D01*
X123511777Y-56811777D01*
X123521074Y-56823793D01*
X123564069Y-56853898D01*
X123573555Y-56859376D01*
X123764993Y-56948645D01*
X123775285Y-56952391D01*
X123979309Y-57007059D01*
X123990104Y-57008962D01*
X124200525Y-57027372D01*
X124211475Y-57027372D01*
X124421896Y-57008962D01*
X124432691Y-57007059D01*
X124636715Y-56952391D01*
X124647007Y-56948645D01*
X124838445Y-56859376D01*
X124847931Y-56853898D01*
X124891764Y-56823207D01*
X124900139Y-56812729D01*
X124893071Y-56799281D01*
X124218812Y-56125022D01*
X124204868Y-56117408D01*
X124203035Y-56117539D01*
X124196420Y-56121790D01*
X123518207Y-56800003D01*
X123511777Y-56811777D01*
X122876959Y-56811777D01*
X122913505Y-56786187D01*
X122989270Y-56733136D01*
X122989273Y-56733134D01*
X122993781Y-56729977D01*
X123150977Y-56572781D01*
X123162844Y-56555834D01*
X123275331Y-56395185D01*
X123275332Y-56395183D01*
X123278488Y-56390676D01*
X123280811Y-56385694D01*
X123280814Y-56385689D01*
X123329715Y-56280820D01*
X123354815Y-56244975D01*
X123833978Y-55765812D01*
X123840356Y-55754132D01*
X124570408Y-55754132D01*
X124570539Y-55755965D01*
X124574790Y-55762580D01*
X125253003Y-56440793D01*
X125264777Y-56447223D01*
X125276793Y-56437926D01*
X125306897Y-56394932D01*
X125312377Y-56385441D01*
X125401645Y-56194007D01*
X125405391Y-56183715D01*
X125460059Y-55979691D01*
X125461962Y-55968896D01*
X125480372Y-55758475D01*
X125480372Y-55747525D01*
X125461962Y-55537104D01*
X125460059Y-55526309D01*
X125405391Y-55322285D01*
X125401645Y-55311993D01*
X125312377Y-55120559D01*
X125306897Y-55111068D01*
X125276206Y-55067235D01*
X125265729Y-55058860D01*
X125252282Y-55065928D01*
X124578022Y-55740188D01*
X124570408Y-55754132D01*
X123840356Y-55754132D01*
X123841592Y-55751868D01*
X123841461Y-55750035D01*
X123837210Y-55743420D01*
X123354815Y-55261025D01*
X123329715Y-55225180D01*
X123280814Y-55120311D01*
X123280811Y-55120306D01*
X123278488Y-55115324D01*
X123275331Y-55110815D01*
X123154136Y-54937730D01*
X123154134Y-54937727D01*
X123150977Y-54933219D01*
X122993781Y-54776023D01*
X122989273Y-54772866D01*
X122989270Y-54772864D01*
X122896160Y-54707668D01*
X122875599Y-54693271D01*
X123511860Y-54693271D01*
X123518928Y-54706718D01*
X124193188Y-55380978D01*
X124207132Y-55388592D01*
X124208965Y-55388461D01*
X124215580Y-55384210D01*
X124893793Y-54705997D01*
X124900223Y-54694223D01*
X124890926Y-54682207D01*
X124847931Y-54652102D01*
X124838445Y-54646624D01*
X124647007Y-54557355D01*
X124636715Y-54553609D01*
X124432691Y-54498941D01*
X124421896Y-54497038D01*
X124211475Y-54478628D01*
X124200525Y-54478628D01*
X123990104Y-54497038D01*
X123979309Y-54498941D01*
X123775285Y-54553609D01*
X123764993Y-54557355D01*
X123573559Y-54646623D01*
X123564068Y-54652103D01*
X123520235Y-54682794D01*
X123511860Y-54693271D01*
X122875599Y-54693271D01*
X122811677Y-54648512D01*
X122806695Y-54646189D01*
X122806690Y-54646186D01*
X122615178Y-54556883D01*
X122615177Y-54556882D01*
X122610196Y-54554560D01*
X122604888Y-54553138D01*
X122604886Y-54553137D01*
X122504781Y-54526314D01*
X122395463Y-54497022D01*
X122174000Y-54477647D01*
X121952537Y-54497022D01*
X121936358Y-54501357D01*
X121913484Y-54507486D01*
X121842507Y-54505796D01*
X121791778Y-54474874D01*
X120452500Y-53135595D01*
X120418474Y-53073283D01*
X120423539Y-53002467D01*
X120466086Y-52945632D01*
X120532606Y-52920821D01*
X120541595Y-52920500D01*
X121421134Y-52920500D01*
X121483316Y-52913745D01*
X121619705Y-52862615D01*
X121736261Y-52775261D01*
X121823615Y-52658705D01*
X121874745Y-52522316D01*
X121881500Y-52460134D01*
X121881500Y-52321500D01*
X121901502Y-52253379D01*
X121955158Y-52206886D01*
X122007500Y-52195500D01*
X127549706Y-52195500D01*
X127617827Y-52215502D01*
X127638801Y-52232405D01*
X129708922Y-54302526D01*
X129742948Y-54364838D01*
X129737883Y-54435653D01*
X129695336Y-54492489D01*
X129689381Y-54496417D01*
X129689251Y-54496477D01*
X129632080Y-54536509D01*
X129506211Y-54624643D01*
X129506208Y-54624645D01*
X129501700Y-54627802D01*
X129339802Y-54789700D01*
X129336645Y-54794208D01*
X129336643Y-54794211D01*
X129281902Y-54872389D01*
X129208477Y-54977251D01*
X129206154Y-54982233D01*
X129206151Y-54982238D01*
X129135169Y-55134461D01*
X129111716Y-55184757D01*
X129110294Y-55190065D01*
X129110293Y-55190067D01*
X129090030Y-55265688D01*
X129052457Y-55405913D01*
X129032502Y-55634000D01*
X129052457Y-55862087D01*
X129053881Y-55867400D01*
X129053881Y-55867402D01*
X129091025Y-56006022D01*
X129111716Y-56083243D01*
X129114039Y-56088224D01*
X129114039Y-56088225D01*
X129206151Y-56285762D01*
X129206154Y-56285767D01*
X129208477Y-56290749D01*
X129248814Y-56348356D01*
X129318042Y-56447223D01*
X129339802Y-56478300D01*
X129501700Y-56640198D01*
X129506208Y-56643355D01*
X129506211Y-56643357D01*
X129544901Y-56670448D01*
X129689251Y-56771523D01*
X129694233Y-56773846D01*
X129694238Y-56773849D01*
X129878593Y-56859814D01*
X129896757Y-56868284D01*
X129902065Y-56869706D01*
X129902067Y-56869707D01*
X130112598Y-56926119D01*
X130112600Y-56926119D01*
X130117913Y-56927543D01*
X130346000Y-56947498D01*
X130574087Y-56927543D01*
X130579400Y-56926119D01*
X130579402Y-56926119D01*
X130789933Y-56869707D01*
X130789935Y-56869706D01*
X130795243Y-56868284D01*
X130813407Y-56859814D01*
X130997762Y-56773849D01*
X130997767Y-56773846D01*
X131002749Y-56771523D01*
X131147099Y-56670448D01*
X131185789Y-56643357D01*
X131185792Y-56643355D01*
X131190300Y-56640198D01*
X131352198Y-56478300D01*
X131373959Y-56447223D01*
X131443186Y-56348356D01*
X131483523Y-56290749D01*
X131485848Y-56285764D01*
X131485851Y-56285758D01*
X131494446Y-56267325D01*
X131541362Y-56214040D01*
X131609639Y-56194578D01*
X131669342Y-56210159D01*
X131701240Y-56227695D01*
X131708916Y-56229666D01*
X131708919Y-56229667D01*
X131720862Y-56232733D01*
X131739567Y-56239137D01*
X131758155Y-56247181D01*
X131765978Y-56248420D01*
X131765988Y-56248423D01*
X131801824Y-56254099D01*
X131813444Y-56256505D01*
X131848589Y-56265528D01*
X131856270Y-56267500D01*
X131876524Y-56267500D01*
X131896234Y-56269051D01*
X131916243Y-56272220D01*
X131924135Y-56271474D01*
X131960261Y-56268059D01*
X131972119Y-56267500D01*
X132301606Y-56267500D01*
X132369727Y-56287502D01*
X132404819Y-56321229D01*
X132511643Y-56473789D01*
X132514802Y-56478300D01*
X132676700Y-56640198D01*
X132681208Y-56643355D01*
X132681211Y-56643357D01*
X132719901Y-56670448D01*
X132864251Y-56771523D01*
X132869233Y-56773846D01*
X132869238Y-56773849D01*
X133053593Y-56859814D01*
X133071757Y-56868284D01*
X133077065Y-56869706D01*
X133077067Y-56869707D01*
X133287598Y-56926119D01*
X133287600Y-56926119D01*
X133292913Y-56927543D01*
X133521000Y-56947498D01*
X133749087Y-56927543D01*
X133754400Y-56926119D01*
X133754402Y-56926119D01*
X133964933Y-56869707D01*
X133964935Y-56869706D01*
X133970243Y-56868284D01*
X133988407Y-56859814D01*
X134172762Y-56773849D01*
X134172767Y-56773846D01*
X134177749Y-56771523D01*
X134251243Y-56720062D01*
X135974493Y-56720062D01*
X135983789Y-56732077D01*
X136034994Y-56767931D01*
X136044489Y-56773414D01*
X136241947Y-56865490D01*
X136252239Y-56869236D01*
X136462688Y-56925625D01*
X136473481Y-56927528D01*
X136690525Y-56946517D01*
X136701475Y-56946517D01*
X136918519Y-56927528D01*
X136929312Y-56925625D01*
X137139761Y-56869236D01*
X137150053Y-56865490D01*
X137347511Y-56773414D01*
X137357006Y-56767931D01*
X137409048Y-56731491D01*
X137417424Y-56721012D01*
X137410356Y-56707566D01*
X136708812Y-56006022D01*
X136694868Y-55998408D01*
X136693035Y-55998539D01*
X136686420Y-56002790D01*
X135980923Y-56708287D01*
X135974493Y-56720062D01*
X134251243Y-56720062D01*
X134322099Y-56670448D01*
X134360789Y-56643357D01*
X134360792Y-56643355D01*
X134365300Y-56640198D01*
X134527198Y-56478300D01*
X134548959Y-56447223D01*
X134618186Y-56348356D01*
X134658523Y-56290749D01*
X134660846Y-56285767D01*
X134660849Y-56285762D01*
X134752961Y-56088225D01*
X134752961Y-56088224D01*
X134755284Y-56083243D01*
X134775976Y-56006022D01*
X134813119Y-55867402D01*
X134813119Y-55867400D01*
X134814543Y-55862087D01*
X134834019Y-55639475D01*
X135383483Y-55639475D01*
X135402472Y-55856519D01*
X135404375Y-55867312D01*
X135460764Y-56077761D01*
X135464510Y-56088053D01*
X135556586Y-56285511D01*
X135562069Y-56295006D01*
X135598509Y-56347048D01*
X135608988Y-56355424D01*
X135622434Y-56348356D01*
X136323978Y-55646812D01*
X136330356Y-55635132D01*
X137060408Y-55635132D01*
X137060539Y-55636965D01*
X137064790Y-55643580D01*
X137770287Y-56349077D01*
X137782062Y-56355507D01*
X137794077Y-56346211D01*
X137829931Y-56295006D01*
X137835414Y-56285511D01*
X137927490Y-56088053D01*
X137931236Y-56077761D01*
X137987625Y-55867312D01*
X137989528Y-55856519D01*
X138008517Y-55639475D01*
X138008517Y-55628525D01*
X137989528Y-55411481D01*
X137987625Y-55400688D01*
X137931236Y-55190239D01*
X137927490Y-55179947D01*
X137835414Y-54982489D01*
X137829931Y-54972994D01*
X137793491Y-54920952D01*
X137783012Y-54912576D01*
X137769566Y-54919644D01*
X137068022Y-55621188D01*
X137060408Y-55635132D01*
X136330356Y-55635132D01*
X136331592Y-55632868D01*
X136331461Y-55631035D01*
X136327210Y-55624420D01*
X135621713Y-54918923D01*
X135609938Y-54912493D01*
X135597923Y-54921789D01*
X135562069Y-54972994D01*
X135556586Y-54982489D01*
X135464510Y-55179947D01*
X135460764Y-55190239D01*
X135404375Y-55400688D01*
X135402472Y-55411481D01*
X135383483Y-55628525D01*
X135383483Y-55639475D01*
X134834019Y-55639475D01*
X134834498Y-55634000D01*
X134814543Y-55405913D01*
X134776970Y-55265688D01*
X134756707Y-55190067D01*
X134756706Y-55190065D01*
X134755284Y-55184757D01*
X134731831Y-55134461D01*
X134660849Y-54982238D01*
X134660846Y-54982233D01*
X134658523Y-54977251D01*
X134585098Y-54872389D01*
X134530357Y-54794211D01*
X134530355Y-54794208D01*
X134527198Y-54789700D01*
X134365300Y-54627802D01*
X134360792Y-54624645D01*
X134360789Y-54624643D01*
X134268059Y-54559713D01*
X134249886Y-54546988D01*
X135974576Y-54546988D01*
X135981644Y-54560434D01*
X136683188Y-55261978D01*
X136697132Y-55269592D01*
X136698965Y-55269461D01*
X136705580Y-55265210D01*
X137411077Y-54559713D01*
X137417507Y-54547938D01*
X137408211Y-54535923D01*
X137357006Y-54500069D01*
X137347511Y-54494586D01*
X137150053Y-54402510D01*
X137139761Y-54398764D01*
X136929312Y-54342375D01*
X136918519Y-54340472D01*
X136701475Y-54321483D01*
X136690525Y-54321483D01*
X136473481Y-54340472D01*
X136462688Y-54342375D01*
X136252239Y-54398764D01*
X136241947Y-54402510D01*
X136044489Y-54494586D01*
X136034994Y-54500069D01*
X135982952Y-54536509D01*
X135974576Y-54546988D01*
X134249886Y-54546988D01*
X134177749Y-54496477D01*
X134172767Y-54494154D01*
X134172762Y-54494151D01*
X133975225Y-54402039D01*
X133975224Y-54402039D01*
X133970243Y-54399716D01*
X133964935Y-54398294D01*
X133964933Y-54398293D01*
X133754402Y-54341881D01*
X133754400Y-54341881D01*
X133749087Y-54340457D01*
X133521000Y-54320502D01*
X133292913Y-54340457D01*
X133287600Y-54341881D01*
X133287598Y-54341881D01*
X133077067Y-54398293D01*
X133077065Y-54398294D01*
X133071757Y-54399716D01*
X133066776Y-54402039D01*
X133066775Y-54402039D01*
X132869238Y-54494151D01*
X132869233Y-54494154D01*
X132864251Y-54496477D01*
X132773941Y-54559713D01*
X132681211Y-54624643D01*
X132681208Y-54624645D01*
X132676700Y-54627802D01*
X132514802Y-54789700D01*
X132511645Y-54794208D01*
X132511643Y-54794211D01*
X132404819Y-54946771D01*
X132349362Y-54991099D01*
X132301606Y-55000500D01*
X132250894Y-55000500D01*
X132182773Y-54980498D01*
X132161799Y-54963595D01*
X130665205Y-53467000D01*
X139065502Y-53467000D01*
X139085457Y-53695087D01*
X139086881Y-53700400D01*
X139086881Y-53700402D01*
X139096031Y-53734548D01*
X139144716Y-53916243D01*
X139147039Y-53921224D01*
X139147039Y-53921225D01*
X139239151Y-54118762D01*
X139239154Y-54118767D01*
X139241477Y-54123749D01*
X139285404Y-54186483D01*
X139359455Y-54292238D01*
X139372802Y-54311300D01*
X139534700Y-54473198D01*
X139539208Y-54476355D01*
X139539211Y-54476357D01*
X139583668Y-54507486D01*
X139722251Y-54604523D01*
X139727233Y-54606846D01*
X139727238Y-54606849D01*
X139923765Y-54698490D01*
X139929757Y-54701284D01*
X139935065Y-54702706D01*
X139935067Y-54702707D01*
X140145598Y-54759119D01*
X140145600Y-54759119D01*
X140150913Y-54760543D01*
X140379000Y-54780498D01*
X140607087Y-54760543D01*
X140612400Y-54759119D01*
X140612402Y-54759119D01*
X140822933Y-54702707D01*
X140822935Y-54702706D01*
X140828243Y-54701284D01*
X140834235Y-54698490D01*
X141030762Y-54606849D01*
X141030767Y-54606846D01*
X141035749Y-54604523D01*
X141174332Y-54507486D01*
X141218789Y-54476357D01*
X141218792Y-54476355D01*
X141223300Y-54473198D01*
X141385198Y-54311300D01*
X141398546Y-54292238D01*
X141472596Y-54186483D01*
X141516523Y-54123749D01*
X141518846Y-54118767D01*
X141518849Y-54118762D01*
X141535081Y-54083951D01*
X141581998Y-54030666D01*
X141650275Y-54011205D01*
X141718235Y-54031747D01*
X141763471Y-54083951D01*
X141779586Y-54118511D01*
X141785069Y-54128007D01*
X141910028Y-54306467D01*
X141917084Y-54314875D01*
X142071125Y-54468916D01*
X142079533Y-54475972D01*
X142257993Y-54600931D01*
X142267489Y-54606414D01*
X142464947Y-54698490D01*
X142475239Y-54702236D01*
X142647503Y-54748394D01*
X142661599Y-54748058D01*
X142665000Y-54740116D01*
X142665000Y-54734967D01*
X143173000Y-54734967D01*
X143176973Y-54748498D01*
X143185522Y-54749727D01*
X143362761Y-54702236D01*
X143373053Y-54698490D01*
X143570511Y-54606414D01*
X143580007Y-54600931D01*
X143758467Y-54475972D01*
X143766875Y-54468916D01*
X143920916Y-54314875D01*
X143927972Y-54306467D01*
X144052931Y-54128007D01*
X144058414Y-54118511D01*
X144150490Y-53921053D01*
X144154236Y-53910761D01*
X144200394Y-53738497D01*
X144200058Y-53724401D01*
X144192116Y-53721000D01*
X143191115Y-53721000D01*
X143175876Y-53725475D01*
X143174671Y-53726865D01*
X143173000Y-53734548D01*
X143173000Y-54734967D01*
X142665000Y-54734967D01*
X142665000Y-52199033D01*
X142661027Y-52185502D01*
X142652478Y-52184273D01*
X142475239Y-52231764D01*
X142464947Y-52235510D01*
X142267489Y-52327586D01*
X142257993Y-52333069D01*
X142079533Y-52458028D01*
X142071125Y-52465084D01*
X141917084Y-52619125D01*
X141910028Y-52627533D01*
X141785069Y-52805993D01*
X141779586Y-52815489D01*
X141763471Y-52850049D01*
X141716554Y-52903334D01*
X141648277Y-52922795D01*
X141580317Y-52902253D01*
X141535081Y-52850049D01*
X141518849Y-52815238D01*
X141518846Y-52815233D01*
X141516523Y-52810251D01*
X141385198Y-52622700D01*
X141223300Y-52460802D01*
X141218792Y-52457645D01*
X141218789Y-52457643D01*
X141140611Y-52402902D01*
X141035749Y-52329477D01*
X141030767Y-52327154D01*
X141030762Y-52327151D01*
X140833225Y-52235039D01*
X140833224Y-52235039D01*
X140828243Y-52232716D01*
X140822935Y-52231294D01*
X140822933Y-52231293D01*
X140612402Y-52174881D01*
X140612400Y-52174881D01*
X140607087Y-52173457D01*
X140379000Y-52153502D01*
X140150913Y-52173457D01*
X140145600Y-52174881D01*
X140145598Y-52174881D01*
X139935067Y-52231293D01*
X139935065Y-52231294D01*
X139929757Y-52232716D01*
X139924776Y-52235039D01*
X139924775Y-52235039D01*
X139727238Y-52327151D01*
X139727233Y-52327154D01*
X139722251Y-52329477D01*
X139617389Y-52402902D01*
X139539211Y-52457643D01*
X139539208Y-52457645D01*
X139534700Y-52460802D01*
X139372802Y-52622700D01*
X139241477Y-52810251D01*
X139239154Y-52815233D01*
X139239151Y-52815238D01*
X139188550Y-52923753D01*
X139144716Y-53017757D01*
X139143294Y-53023065D01*
X139143293Y-53023067D01*
X139129838Y-53073283D01*
X139085457Y-53238913D01*
X139065502Y-53467000D01*
X130665205Y-53467000D01*
X130271488Y-53073283D01*
X128918267Y-51720062D01*
X129624493Y-51720062D01*
X129633789Y-51732077D01*
X129684994Y-51767931D01*
X129694489Y-51773414D01*
X129891947Y-51865490D01*
X129902239Y-51869236D01*
X130112688Y-51925625D01*
X130123481Y-51927528D01*
X130340525Y-51946517D01*
X130351475Y-51946517D01*
X130568519Y-51927528D01*
X130579312Y-51925625D01*
X130789761Y-51869236D01*
X130800053Y-51865490D01*
X130997511Y-51773414D01*
X131007006Y-51767931D01*
X131059048Y-51731491D01*
X131067424Y-51721012D01*
X131060356Y-51707566D01*
X130358812Y-51006022D01*
X130344868Y-50998408D01*
X130343035Y-50998539D01*
X130336420Y-51002790D01*
X129630923Y-51708287D01*
X129624493Y-51720062D01*
X128918267Y-51720062D01*
X128367952Y-51169747D01*
X128360412Y-51161461D01*
X128356300Y-51154982D01*
X128328923Y-51129273D01*
X128306649Y-51108357D01*
X128303807Y-51105602D01*
X128284070Y-51085865D01*
X128280873Y-51083385D01*
X128271851Y-51075680D01*
X128239621Y-51045414D01*
X128232675Y-51041595D01*
X128232672Y-51041593D01*
X128221866Y-51035652D01*
X128205347Y-51024801D01*
X128204883Y-51024441D01*
X128189341Y-51012386D01*
X128182072Y-51009241D01*
X128182068Y-51009238D01*
X128148763Y-50994826D01*
X128138113Y-50989609D01*
X128099360Y-50968305D01*
X128079737Y-50963267D01*
X128061034Y-50956863D01*
X128049720Y-50951967D01*
X128049719Y-50951967D01*
X128042445Y-50948819D01*
X128034622Y-50947580D01*
X128034612Y-50947577D01*
X127998776Y-50941901D01*
X127987156Y-50939495D01*
X127952011Y-50930472D01*
X127952010Y-50930472D01*
X127944330Y-50928500D01*
X127924076Y-50928500D01*
X127904365Y-50926949D01*
X127892186Y-50925020D01*
X127884357Y-50923780D01*
X127876465Y-50924526D01*
X127840339Y-50927941D01*
X127828481Y-50928500D01*
X122007500Y-50928500D01*
X121939379Y-50908498D01*
X121892886Y-50854842D01*
X121881500Y-50802500D01*
X121881500Y-50663866D01*
X121878850Y-50639475D01*
X129033483Y-50639475D01*
X129052472Y-50856519D01*
X129054375Y-50867312D01*
X129110764Y-51077761D01*
X129114510Y-51088053D01*
X129206586Y-51285511D01*
X129212069Y-51295006D01*
X129248509Y-51347048D01*
X129258988Y-51355424D01*
X129272434Y-51348356D01*
X129973978Y-50646812D01*
X129980356Y-50635132D01*
X130710408Y-50635132D01*
X130710539Y-50636965D01*
X130714790Y-50643580D01*
X131420287Y-51349077D01*
X131432062Y-51355507D01*
X131444077Y-51346211D01*
X131479931Y-51295006D01*
X131485414Y-51285511D01*
X131577490Y-51088053D01*
X131581236Y-51077761D01*
X131637625Y-50867312D01*
X131639528Y-50856519D01*
X131658517Y-50639475D01*
X131658517Y-50634000D01*
X132207502Y-50634000D01*
X132227457Y-50862087D01*
X132228881Y-50867400D01*
X132228881Y-50867402D01*
X132266025Y-51006022D01*
X132286716Y-51083243D01*
X132289039Y-51088224D01*
X132289039Y-51088225D01*
X132381151Y-51285762D01*
X132381154Y-51285767D01*
X132383477Y-51290749D01*
X132514802Y-51478300D01*
X132676700Y-51640198D01*
X132681208Y-51643355D01*
X132681211Y-51643357D01*
X132759389Y-51698098D01*
X132864251Y-51771523D01*
X132869233Y-51773846D01*
X132869238Y-51773849D01*
X133065765Y-51865490D01*
X133071757Y-51868284D01*
X133077065Y-51869706D01*
X133077067Y-51869707D01*
X133287598Y-51926119D01*
X133287600Y-51926119D01*
X133292913Y-51927543D01*
X133521000Y-51947498D01*
X133749087Y-51927543D01*
X133754400Y-51926119D01*
X133754402Y-51926119D01*
X133964933Y-51869707D01*
X133964935Y-51869706D01*
X133970243Y-51868284D01*
X133976235Y-51865490D01*
X134172762Y-51773849D01*
X134172767Y-51773846D01*
X134177749Y-51771523D01*
X134282611Y-51698098D01*
X134360789Y-51643357D01*
X134360792Y-51643355D01*
X134365300Y-51640198D01*
X134527198Y-51478300D01*
X134658523Y-51290749D01*
X134660846Y-51285767D01*
X134660849Y-51285762D01*
X134752961Y-51088225D01*
X134752961Y-51088224D01*
X134755284Y-51083243D01*
X134775976Y-51006022D01*
X134813119Y-50867402D01*
X134813119Y-50867400D01*
X134814543Y-50862087D01*
X134834498Y-50634000D01*
X135382502Y-50634000D01*
X135402457Y-50862087D01*
X135403881Y-50867400D01*
X135403881Y-50867402D01*
X135441025Y-51006022D01*
X135461716Y-51083243D01*
X135464039Y-51088224D01*
X135464039Y-51088225D01*
X135556151Y-51285762D01*
X135556154Y-51285767D01*
X135558477Y-51290749D01*
X135689802Y-51478300D01*
X135851700Y-51640198D01*
X135856208Y-51643355D01*
X135856211Y-51643357D01*
X135934389Y-51698098D01*
X136039251Y-51771523D01*
X136044233Y-51773846D01*
X136044238Y-51773849D01*
X136240765Y-51865490D01*
X136246757Y-51868284D01*
X136252065Y-51869706D01*
X136252067Y-51869707D01*
X136462598Y-51926119D01*
X136462600Y-51926119D01*
X136467913Y-51927543D01*
X136696000Y-51947498D01*
X136924087Y-51927543D01*
X136929400Y-51926119D01*
X136929402Y-51926119D01*
X137139933Y-51869707D01*
X137139935Y-51869706D01*
X137145243Y-51868284D01*
X137151235Y-51865490D01*
X137347762Y-51773849D01*
X137347767Y-51773846D01*
X137352749Y-51771523D01*
X137457611Y-51698098D01*
X137535789Y-51643357D01*
X137535792Y-51643355D01*
X137540300Y-51640198D01*
X137702198Y-51478300D01*
X137833523Y-51290749D01*
X137835846Y-51285767D01*
X137835849Y-51285762D01*
X137927961Y-51088225D01*
X137927961Y-51088224D01*
X137930284Y-51083243D01*
X137950976Y-51006022D01*
X137988119Y-50867402D01*
X137988119Y-50867400D01*
X137989543Y-50862087D01*
X138009498Y-50634000D01*
X137989543Y-50405913D01*
X137966158Y-50318638D01*
X137931707Y-50190067D01*
X137931706Y-50190065D01*
X137930284Y-50184757D01*
X137915931Y-50153977D01*
X137835849Y-49982238D01*
X137835846Y-49982233D01*
X137833523Y-49977251D01*
X137718684Y-49813244D01*
X137705357Y-49794211D01*
X137705355Y-49794208D01*
X137702198Y-49789700D01*
X137540300Y-49627802D01*
X137535792Y-49624645D01*
X137535789Y-49624643D01*
X137409920Y-49536509D01*
X137352749Y-49496477D01*
X137347767Y-49494154D01*
X137347762Y-49494151D01*
X137150225Y-49402039D01*
X137150224Y-49402039D01*
X137145243Y-49399716D01*
X137139935Y-49398294D01*
X137139933Y-49398293D01*
X136929402Y-49341881D01*
X136929400Y-49341881D01*
X136924087Y-49340457D01*
X136696000Y-49320502D01*
X136467913Y-49340457D01*
X136462600Y-49341881D01*
X136462598Y-49341881D01*
X136252067Y-49398293D01*
X136252065Y-49398294D01*
X136246757Y-49399716D01*
X136241776Y-49402039D01*
X136241775Y-49402039D01*
X136044238Y-49494151D01*
X136044233Y-49494154D01*
X136039251Y-49496477D01*
X135982080Y-49536509D01*
X135856211Y-49624643D01*
X135856208Y-49624645D01*
X135851700Y-49627802D01*
X135689802Y-49789700D01*
X135686645Y-49794208D01*
X135686643Y-49794211D01*
X135673316Y-49813244D01*
X135558477Y-49977251D01*
X135556154Y-49982233D01*
X135556151Y-49982238D01*
X135476069Y-50153977D01*
X135461716Y-50184757D01*
X135460294Y-50190065D01*
X135460293Y-50190067D01*
X135425842Y-50318638D01*
X135402457Y-50405913D01*
X135382502Y-50634000D01*
X134834498Y-50634000D01*
X134814543Y-50405913D01*
X134791158Y-50318638D01*
X134756707Y-50190067D01*
X134756706Y-50190065D01*
X134755284Y-50184757D01*
X134740931Y-50153977D01*
X134660849Y-49982238D01*
X134660846Y-49982233D01*
X134658523Y-49977251D01*
X134543684Y-49813244D01*
X134530357Y-49794211D01*
X134530355Y-49794208D01*
X134527198Y-49789700D01*
X134365300Y-49627802D01*
X134360792Y-49624645D01*
X134360789Y-49624643D01*
X134234920Y-49536509D01*
X134177749Y-49496477D01*
X134172767Y-49494154D01*
X134172762Y-49494151D01*
X133975225Y-49402039D01*
X133975224Y-49402039D01*
X133970243Y-49399716D01*
X133964935Y-49398294D01*
X133964933Y-49398293D01*
X133754402Y-49341881D01*
X133754400Y-49341881D01*
X133749087Y-49340457D01*
X133521000Y-49320502D01*
X133292913Y-49340457D01*
X133287600Y-49341881D01*
X133287598Y-49341881D01*
X133077067Y-49398293D01*
X133077065Y-49398294D01*
X133071757Y-49399716D01*
X133066776Y-49402039D01*
X133066775Y-49402039D01*
X132869238Y-49494151D01*
X132869233Y-49494154D01*
X132864251Y-49496477D01*
X132807080Y-49536509D01*
X132681211Y-49624643D01*
X132681208Y-49624645D01*
X132676700Y-49627802D01*
X132514802Y-49789700D01*
X132511645Y-49794208D01*
X132511643Y-49794211D01*
X132498316Y-49813244D01*
X132383477Y-49977251D01*
X132381154Y-49982233D01*
X132381151Y-49982238D01*
X132301069Y-50153977D01*
X132286716Y-50184757D01*
X132285294Y-50190065D01*
X132285293Y-50190067D01*
X132250842Y-50318638D01*
X132227457Y-50405913D01*
X132207502Y-50634000D01*
X131658517Y-50634000D01*
X131658517Y-50628525D01*
X131639528Y-50411481D01*
X131637625Y-50400688D01*
X131581236Y-50190239D01*
X131577490Y-50179947D01*
X131485414Y-49982489D01*
X131479931Y-49972994D01*
X131443491Y-49920952D01*
X131433012Y-49912576D01*
X131419566Y-49919644D01*
X130718022Y-50621188D01*
X130710408Y-50635132D01*
X129980356Y-50635132D01*
X129981592Y-50632868D01*
X129981461Y-50631035D01*
X129977210Y-50624420D01*
X129271713Y-49918923D01*
X129259938Y-49912493D01*
X129247923Y-49921789D01*
X129212069Y-49972994D01*
X129206586Y-49982489D01*
X129114510Y-50179947D01*
X129110764Y-50190239D01*
X129054375Y-50400688D01*
X129052472Y-50411481D01*
X129033483Y-50628525D01*
X129033483Y-50639475D01*
X121878850Y-50639475D01*
X121874745Y-50601684D01*
X121823615Y-50465295D01*
X121736261Y-50348739D01*
X121619705Y-50261385D01*
X121483316Y-50210255D01*
X121421134Y-50203500D01*
X119624866Y-50203500D01*
X119562684Y-50210255D01*
X119426295Y-50261385D01*
X119309739Y-50348739D01*
X119222385Y-50465295D01*
X119219233Y-50473703D01*
X119177919Y-50583907D01*
X119135277Y-50640671D01*
X119068716Y-50665371D01*
X118999367Y-50650163D01*
X118966743Y-50624476D01*
X118916151Y-50568875D01*
X118916142Y-50568866D01*
X118912670Y-50565051D01*
X118908619Y-50561852D01*
X118908615Y-50561848D01*
X118741414Y-50429800D01*
X118741410Y-50429798D01*
X118737359Y-50426598D01*
X118709975Y-50411481D01*
X118685136Y-50397769D01*
X118541789Y-50318638D01*
X118536920Y-50316914D01*
X118536916Y-50316912D01*
X118336087Y-50245795D01*
X118336083Y-50245794D01*
X118331212Y-50244069D01*
X118326119Y-50243162D01*
X118326116Y-50243161D01*
X118116373Y-50205800D01*
X118116367Y-50205799D01*
X118111284Y-50204894D01*
X118037452Y-50203992D01*
X117893081Y-50202228D01*
X117893079Y-50202228D01*
X117887911Y-50202165D01*
X117667091Y-50235955D01*
X117454756Y-50305357D01*
X117256607Y-50408507D01*
X117252474Y-50411610D01*
X117252471Y-50411612D01*
X117082100Y-50539530D01*
X117077965Y-50542635D01*
X117052541Y-50569240D01*
X116984280Y-50640671D01*
X116923629Y-50704138D01*
X116816201Y-50861621D01*
X116761293Y-50906621D01*
X116690768Y-50914792D01*
X116627021Y-50883538D01*
X116606324Y-50859054D01*
X116525822Y-50734617D01*
X116525820Y-50734614D01*
X116523014Y-50730277D01*
X116372670Y-50565051D01*
X116368619Y-50561852D01*
X116368615Y-50561848D01*
X116201414Y-50429800D01*
X116201410Y-50429798D01*
X116197359Y-50426598D01*
X116169975Y-50411481D01*
X116145136Y-50397769D01*
X116001789Y-50318638D01*
X115996920Y-50316914D01*
X115996916Y-50316912D01*
X115796087Y-50245795D01*
X115796083Y-50245794D01*
X115791212Y-50244069D01*
X115786119Y-50243162D01*
X115786116Y-50243161D01*
X115576373Y-50205800D01*
X115576367Y-50205799D01*
X115571284Y-50204894D01*
X115497452Y-50203992D01*
X115353081Y-50202228D01*
X115353079Y-50202228D01*
X115347911Y-50202165D01*
X115127091Y-50235955D01*
X114914756Y-50305357D01*
X114716607Y-50408507D01*
X114712474Y-50411610D01*
X114712471Y-50411612D01*
X114542100Y-50539530D01*
X114537965Y-50542635D01*
X114512541Y-50569240D01*
X114444280Y-50640671D01*
X114383629Y-50704138D01*
X114276201Y-50861621D01*
X114221293Y-50906621D01*
X114150768Y-50914792D01*
X114087021Y-50883538D01*
X114066324Y-50859054D01*
X113985822Y-50734617D01*
X113985820Y-50734614D01*
X113983014Y-50730277D01*
X113832670Y-50565051D01*
X113828619Y-50561852D01*
X113828615Y-50561848D01*
X113661414Y-50429800D01*
X113661410Y-50429798D01*
X113657359Y-50426598D01*
X113629975Y-50411481D01*
X113605136Y-50397769D01*
X113461789Y-50318638D01*
X113456920Y-50316914D01*
X113456916Y-50316912D01*
X113256087Y-50245795D01*
X113256083Y-50245794D01*
X113251212Y-50244069D01*
X113246119Y-50243162D01*
X113246116Y-50243161D01*
X113036373Y-50205800D01*
X113036367Y-50205799D01*
X113031284Y-50204894D01*
X112957452Y-50203992D01*
X112813081Y-50202228D01*
X112813079Y-50202228D01*
X112807911Y-50202165D01*
X112587091Y-50235955D01*
X112374756Y-50305357D01*
X112176607Y-50408507D01*
X112172474Y-50411610D01*
X112172471Y-50411612D01*
X112002100Y-50539530D01*
X111997965Y-50542635D01*
X111972541Y-50569240D01*
X111904280Y-50640671D01*
X111843629Y-50704138D01*
X111840720Y-50708403D01*
X111840714Y-50708411D01*
X111828404Y-50726457D01*
X111736204Y-50861618D01*
X111735898Y-50862066D01*
X111680987Y-50907069D01*
X111610462Y-50915240D01*
X111546715Y-50883986D01*
X111526018Y-50859502D01*
X111445426Y-50734926D01*
X111439136Y-50726757D01*
X111295806Y-50569240D01*
X111288273Y-50562215D01*
X111121139Y-50430222D01*
X111112552Y-50424517D01*
X110926117Y-50321599D01*
X110916705Y-50317369D01*
X110715959Y-50246280D01*
X110705988Y-50243646D01*
X110634837Y-50230972D01*
X110621540Y-50232432D01*
X110617000Y-50246989D01*
X110617000Y-52880517D01*
X110109000Y-52880517D01*
X110109000Y-50245102D01*
X110105082Y-50231758D01*
X110090806Y-50229771D01*
X110052324Y-50235660D01*
X110042288Y-50238051D01*
X109839868Y-50304212D01*
X109830359Y-50308209D01*
X109641463Y-50406542D01*
X109632738Y-50412036D01*
X109462433Y-50539905D01*
X109454726Y-50546748D01*
X109307590Y-50700717D01*
X109301109Y-50708722D01*
X109196498Y-50862074D01*
X109141587Y-50907076D01*
X109071062Y-50915247D01*
X109007315Y-50883993D01*
X108986618Y-50859509D01*
X108905822Y-50734617D01*
X108905820Y-50734614D01*
X108903014Y-50730277D01*
X108752670Y-50565051D01*
X108748619Y-50561852D01*
X108748615Y-50561848D01*
X108581414Y-50429800D01*
X108581410Y-50429798D01*
X108577359Y-50426598D01*
X108549975Y-50411481D01*
X108525136Y-50397769D01*
X108381789Y-50318638D01*
X108376920Y-50316914D01*
X108376916Y-50316912D01*
X108176087Y-50245795D01*
X108176083Y-50245794D01*
X108171212Y-50244069D01*
X108166119Y-50243162D01*
X108166116Y-50243161D01*
X107956373Y-50205800D01*
X107956367Y-50205799D01*
X107951284Y-50204894D01*
X107877452Y-50203992D01*
X107733081Y-50202228D01*
X107733079Y-50202228D01*
X107727911Y-50202165D01*
X107507091Y-50235955D01*
X107294756Y-50305357D01*
X107096607Y-50408507D01*
X107092474Y-50411610D01*
X107092471Y-50411612D01*
X106922100Y-50539530D01*
X106917965Y-50542635D01*
X106892541Y-50569240D01*
X106824280Y-50640671D01*
X106763629Y-50704138D01*
X106760720Y-50708403D01*
X106760714Y-50708411D01*
X106748404Y-50726457D01*
X106637743Y-50888680D01*
X106599011Y-50972121D01*
X106562471Y-51050841D01*
X106543688Y-51091305D01*
X106483989Y-51306570D01*
X106460251Y-51528695D01*
X93666983Y-51528695D01*
X93941741Y-51132968D01*
X93947131Y-51125768D01*
X94277081Y-50716325D01*
X94282971Y-50709527D01*
X94283721Y-50708722D01*
X94358387Y-50628525D01*
X94641298Y-50324658D01*
X94647658Y-50318298D01*
X95032527Y-49959971D01*
X95039325Y-49954081D01*
X95448768Y-49624131D01*
X95455968Y-49618741D01*
X95559312Y-49546988D01*
X129624576Y-49546988D01*
X129631644Y-49560434D01*
X130333188Y-50261978D01*
X130347132Y-50269592D01*
X130348965Y-50269461D01*
X130355580Y-50265210D01*
X131061077Y-49559713D01*
X131067507Y-49547938D01*
X131058211Y-49535923D01*
X131007006Y-49500069D01*
X130997511Y-49494586D01*
X130800053Y-49402510D01*
X130789761Y-49398764D01*
X130579312Y-49342375D01*
X130568519Y-49340472D01*
X130351475Y-49321483D01*
X130340525Y-49321483D01*
X130123481Y-49340472D01*
X130112688Y-49342375D01*
X129902239Y-49398764D01*
X129891947Y-49402510D01*
X129694489Y-49494586D01*
X129684994Y-49500069D01*
X129632952Y-49536509D01*
X129624576Y-49546988D01*
X95559312Y-49546988D01*
X95887913Y-49318836D01*
X95895480Y-49313973D01*
X96347723Y-49045645D01*
X96355617Y-49041335D01*
X96825835Y-48805961D01*
X96834017Y-48802224D01*
X97319845Y-48600988D01*
X97328272Y-48597845D01*
X97694048Y-48476103D01*
X97827215Y-48431781D01*
X97835835Y-48429249D01*
X98345357Y-48299202D01*
X98354141Y-48297291D01*
X98688382Y-48236987D01*
X98871639Y-48203924D01*
X98880542Y-48202644D01*
X99403373Y-48146434D01*
X99412345Y-48145792D01*
X99898137Y-48128442D01*
X99922017Y-48129862D01*
X99927210Y-48130671D01*
X99927215Y-48130671D01*
X99936085Y-48132052D01*
X99967597Y-48127931D01*
X99983940Y-48126868D01*
X137115134Y-48133492D01*
G37*
G04 #@! TD.AperFunction*
M02*
