M48
; DRILL file {KiCad (6.0.5)} date Sat May 21 17:15:02 2022
; FORMAT={-:-/ absolute / metric / decimal}
; #@! TF.CreationDate,2022-05-21T17:15:02+08:00
; #@! TF.GenerationSoftware,Kicad,Pcbnew,(6.0.5)
; #@! TF.FileFunction,MixedPlating,1,2
FMAT,2
METRIC
; #@! TA.AperFunction,Plated,PTH,ComponentDrill
T1C0.762
; #@! TA.AperFunction,Plated,PTH,ComponentDrill
T2C0.800
; #@! TA.AperFunction,Plated,PTH,ComponentDrill
T3C1.000
; #@! TA.AperFunction,Plated,PTH,ComponentDrill
T4C1.200
; #@! TA.AperFunction,NonPlated,NPTH,ComponentDrill
T5C2.000
%
G90
G05
T1
X97.79Y-60.586
X100.33Y-60.586
X110.236Y-58.413
X112.776Y-58.413
X118.11Y-55.753
X120.142Y-55.753
X122.174Y-55.753
X124.206Y-55.753
T2
X96.814Y-64.008
X101.814Y-64.008
X104.902Y-62.397
X104.902Y-67.397
X105.791Y-54.944
X105.791Y-59.944
X109.387Y-55.499
X114.387Y-55.499
X130.346Y-50.634
X130.346Y-55.634
X133.521Y-50.634
X133.521Y-55.634
X136.696Y-50.634
X136.696Y-55.634
X140.379Y-53.467
X142.919Y-53.467
T3
X107.823Y-51.562
X110.363Y-51.562
X112.903Y-51.562
X115.443Y-51.562
X117.983Y-51.562
X120.523Y-51.562
T4
X127.294Y-59.944
X131.612Y-64.77
X132.294Y-59.944
X136.612Y-64.77
T5
X129.794Y-59.944
X134.112Y-64.77
T0
M30
